M48
; DRILL file {KiCad 5.99.0-unknown-r23488-c1ecb425} date Thu Nov  5 19:23:28 2020
; FORMAT={-:-/ absolute / inch / decimal}
; #@! TF.CreationDate,2020-11-05T19:23:28+01:00
; #@! TF.GenerationSoftware,Kicad,Pcbnew,5.99.0-unknown-r23488-c1ecb425
; #@! TF.FileFunction,Plated,1,2,PTH
FMAT,2
INCH
T1C0.0157
T2C0.0295
T3C0.0315
T4C0.0394
T5C0.0433
T6C0.0551
T7C0.0591
%
G90
G05
T1
X-6.1583Y2.8545
X-4.6142Y2.5876
X-4.6142Y2.3081
X-4.6122Y2.0344
X-4.1634Y1.5313
X-4.1427Y3.1703
X-4.0413Y1.7923
X-4.0358Y3.3951
X-4.0256Y2.8297
X-4.0256Y2.5443
X-4.0236Y2.2715
X-4.0224Y1.9872
X-4.0197Y1.3691
X-3.9154Y3.4478
X-3.7421Y3.2037
X-3.7421Y3.06
X-3.2736Y3.3376
X-2.997Y2.9803
T2
X-3.7539Y3.3612
X-3.6752Y3.3612
X-3.5965Y3.3612
T3
X-3.9606Y1.686
X-3.5787Y1.7569
X-6.7461Y1.9951
X-6.4508Y1.94
X-4.5236Y3.3907
X-4.5236Y3.2907
X-4.5236Y3.1907
X-4.5236Y3.0907
X-4.2236Y3.3907
X-4.2236Y3.2907
X-4.2236Y3.1907
X-4.2236Y3.0907
X-4.5236Y2.9508
X-4.5236Y2.8508
X-4.5236Y2.7508
X-4.5236Y2.6508
X-4.2236Y2.9508
X-4.2236Y2.8508
X-4.2236Y2.7508
X-4.2236Y2.6508
T4
X-3.7736Y2.8045
X-3.7736Y1.9045
X-3.6736Y2.8045
X-3.6736Y1.9045
X-3.5736Y2.8045
X-3.5736Y1.9045
X-3.4736Y2.8045
X-3.4736Y1.9045
X-3.3736Y2.8045
X-3.3736Y1.9045
X-3.2736Y2.8045
X-3.2736Y1.9045
X-3.1736Y2.8045
X-3.1736Y1.9045
X-3.0736Y2.8045
X-3.0736Y1.9045
X-6.0079Y1.7411
X-6.0079Y1.5443
X-4.8504Y1.9459
X-4.8504Y1.3396
T5
X-5.373Y2.8142
X-5.373Y2.7142
X-5.373Y2.6142
X-5.8455Y2.8142
X-5.8455Y2.7142
X-5.8455Y2.6142
X-4.9006Y2.8142
X-4.9006Y2.7142
X-4.9006Y2.6142
T6
X-6.0445Y3.2136
X-5.8445Y3.2136
X-5.6445Y3.2136
X-5.4445Y3.2136
X-5.2445Y3.2136
X-5.0445Y3.2136
X-4.8445Y3.2136
T7
X-6.7441Y3.0758
X-6.7441Y2.19
T0
M30
