%TF.GenerationSoftware,KiCad,Pcbnew,5.99.0-unknown-r23488-c1ecb425*%
%TF.CreationDate,2020-11-05T19:30:27+01:00*%
%TF.ProjectId,MadPresso,4d616450-7265-4737-936f-2e6b69636164,rev?*%
%TF.SameCoordinates,PXa8e54e0PY549d608*%
%TF.FileFunction,Soldermask,Top*%
%TF.FilePolarity,Negative*%
%FSLAX46Y46*%
G04 Gerber Fmt 4.6, Leading zero omitted, Abs format (unit mm)*
G04 Created by KiCad (PCBNEW 5.99.0-unknown-r23488-c1ecb425) date 2020-11-05 19:30:27*
%MOMM*%
%LPD*%
G01*
G04 APERTURE LIST*
G04 Aperture macros list*
%AMRoundRect*
0 Rectangle with rounded corners*
0 $1 Rounding radius*
0 $2 $3 $4 $5 $6 $7 $8 $9 X,Y pos of 4 corners*
0 Add a 4 corners polygon primitive as box body*
4,1,4,$2,$3,$4,$5,$6,$7,$8,$9,$2,$3,0*
0 Add four circle primitives for the rounded corners*
1,1,$1+$1,$2,$3,0*
1,1,$1+$1,$4,$5,0*
1,1,$1+$1,$6,$7,0*
1,1,$1+$1,$8,$9,0*
0 Add four rect primitives between the rounded corners*
20,1,$1+$1,$2,$3,$4,$5,0*
20,1,$1+$1,$4,$5,$6,$7,0*
20,1,$1+$1,$6,$7,$8,$9,0*
20,1,$1+$1,$8,$9,$2,$3,0*%
G04 Aperture macros list end*
%ADD10C,1.000000*%
%ADD11O,1.300000X1.850000*%
%ADD12RoundRect,0.270833X0.379167X0.654167X-0.379167X0.654167X-0.379167X-0.654167X0.379167X-0.654167X0*%
%ADD13RoundRect,0.050000X1.000000X-1.000000X1.000000X1.000000X-1.000000X1.000000X-1.000000X-1.000000X0*%
%ADD14O,1.700000X2.100000*%
%ADD15RoundRect,0.050000X-1.000000X0.952500X-1.000000X-0.952500X1.000000X-0.952500X1.000000X0.952500X0*%
%ADD16O,2.100000X2.005000*%
%ADD17RoundRect,0.262500X0.262500X-0.312500X0.262500X0.312500X-0.262500X0.312500X-0.262500X-0.312500X0*%
%ADD18RoundRect,0.262500X-0.262500X0.312500X-0.262500X-0.312500X0.262500X-0.312500X0.262500X0.312500X0*%
%ADD19RoundRect,0.267545X0.494955X0.657455X-0.494955X0.657455X-0.494955X-0.657455X0.494955X-0.657455X0*%
%ADD20RoundRect,0.050000X0.450000X0.400000X-0.450000X0.400000X-0.450000X-0.400000X0.450000X-0.400000X0*%
%ADD21RoundRect,0.050000X0.600000X0.400000X-0.600000X0.400000X-0.600000X-0.400000X0.600000X-0.400000X0*%
%ADD22RoundRect,0.262500X-0.312500X-0.262500X0.312500X-0.262500X0.312500X0.262500X-0.312500X0.262500X0*%
%ADD23RoundRect,0.050000X1.150000X-1.250000X1.150000X1.250000X-1.150000X1.250000X-1.150000X-1.250000X0*%
%ADD24O,2.180000X3.700000*%
%ADD25RoundRect,0.262018X0.827982X1.587982X-0.827982X1.587982X-0.827982X-1.587982X0.827982X-1.587982X0*%
%ADD26RoundRect,0.262500X0.312500X0.262500X-0.312500X0.262500X-0.312500X-0.262500X0.312500X-0.262500X0*%
%ADD27RoundRect,0.050000X-0.450000X-0.600000X0.450000X-0.600000X0.450000X0.600000X-0.450000X0.600000X0*%
%ADD28RoundRect,0.050000X-0.600000X0.450000X-0.600000X-0.450000X0.600000X-0.450000X0.600000X0.450000X0*%
%ADD29RoundRect,0.050000X0.600000X-0.450000X0.600000X0.450000X-0.600000X0.450000X-0.600000X-0.450000X0*%
%ADD30RoundRect,0.050000X-0.400000X0.450000X-0.400000X-0.450000X0.400000X-0.450000X0.400000X0.450000X0*%
%ADD31RoundRect,0.267545X-0.657455X0.494955X-0.657455X-0.494955X0.657455X-0.494955X0.657455X0.494955X0*%
%ADD32RoundRect,0.050000X-1.000000X-0.320000X1.000000X-0.320000X1.000000X0.320000X-1.000000X0.320000X0*%
%ADD33C,1.900000*%
%ADD34RoundRect,0.260000X1.040000X-1.540000X1.040000X1.540000X-1.040000X1.540000X-1.040000X-1.540000X0*%
%ADD35RoundRect,0.265625X0.584375X-1.084375X0.584375X1.084375X-0.584375X1.084375X-0.584375X-1.084375X0*%
%ADD36RoundRect,0.271739X-0.478261X0.353261X-0.478261X-0.353261X0.478261X-0.353261X0.478261X0.353261X0*%
%ADD37RoundRect,0.050000X-1.150000X-1.000000X1.150000X-1.000000X1.150000X1.000000X-1.150000X1.000000X0*%
%ADD38C,2.400000*%
%ADD39C,3.500000*%
%ADD40RoundRect,0.050000X-0.800000X-0.800000X0.800000X-0.800000X0.800000X0.800000X-0.800000X0.800000X0*%
%ADD41O,1.700000X1.700000*%
%ADD42C,3.300000*%
%ADD43C,3.100000*%
%ADD44RoundRect,0.271739X-0.353261X-0.478261X0.353261X-0.478261X0.353261X0.478261X-0.353261X0.478261X0*%
G04 APERTURE END LIST*
D10*
X-80800000Y33725000D02*
G75*
G03*
X-80800000Y33725000I-300000J0D01*
G01*
X-165800000Y33725000D02*
G75*
G03*
X-165800000Y33725000I-300000J0D01*
G01*
X-165800000Y85725000D02*
G75*
G03*
X-165800000Y85725000I-300000J0D01*
G01*
D11*
%TO.C,J2*%
X-95350000Y85375000D03*
X-93350000Y85375000D03*
D12*
X-91350000Y85375000D03*
%TD*%
D13*
%TO.C,U2*%
X-95850000Y48375000D03*
D14*
X-93310000Y48375000D03*
X-90770000Y48375000D03*
X-88230000Y48375000D03*
X-85690000Y48375000D03*
X-83150000Y48375000D03*
X-80610000Y48375000D03*
X-78070000Y48375000D03*
X-78070000Y71235000D03*
X-80610000Y71235000D03*
X-83150000Y71235000D03*
X-85690000Y71235000D03*
X-88230000Y71235000D03*
X-90770000Y71235000D03*
X-93310000Y71235000D03*
X-95850000Y71235000D03*
%TD*%
D15*
%TO.C,Q8*%
X-148475000Y71480000D03*
D16*
X-148475000Y68940000D03*
X-148475000Y66400000D03*
%TD*%
D15*
%TO.C,Q6*%
X-136475000Y71480000D03*
D16*
X-136475000Y68940000D03*
X-136475000Y66400000D03*
%TD*%
D17*
%TO.C,R25*%
X-102170000Y47280000D03*
X-102170000Y49030000D03*
%TD*%
D18*
%TO.C,R26*%
X-100580000Y49030000D03*
X-100580000Y47280000D03*
%TD*%
D17*
%TO.C,R21*%
X-102190000Y54430000D03*
X-102190000Y56180000D03*
%TD*%
D19*
%TO.C,R19*%
X-114200000Y57075000D03*
X-117175000Y57075000D03*
%TD*%
D20*
%TO.C,Q7*%
X-104050000Y54265000D03*
X-104050000Y56165000D03*
X-106050000Y55215000D03*
%TD*%
D21*
%TO.C,U4*%
X-107900000Y52635000D03*
X-107900000Y55175000D03*
X-114200000Y55175000D03*
X-114200000Y52635000D03*
%TD*%
D18*
%TO.C,R22*%
X-100600000Y56170000D03*
X-100600000Y54420000D03*
%TD*%
D21*
%TO.C,U5*%
X-107900000Y45605000D03*
X-107900000Y48145000D03*
X-114200000Y48145000D03*
X-114200000Y45605000D03*
%TD*%
D19*
%TO.C,R23*%
X-114200000Y50075000D03*
X-117175000Y50075000D03*
%TD*%
D22*
%TO.C,R24*%
X-105905000Y45545000D03*
X-104155000Y45545000D03*
%TD*%
%TO.C,R20*%
X-105800000Y52615000D03*
X-104050000Y52615000D03*
%TD*%
D20*
%TO.C,Q9*%
X-104050000Y47275000D03*
X-104050000Y49175000D03*
X-106050000Y48225000D03*
%TD*%
D23*
%TO.C,D9*%
X-90900000Y37525000D03*
X-90900000Y41825000D03*
%TD*%
D20*
%TO.C,Q5*%
X-104050000Y61255000D03*
X-104050000Y63155000D03*
X-106050000Y62205000D03*
%TD*%
D21*
%TO.C,U3*%
X-107900000Y59655000D03*
X-107900000Y62195000D03*
X-114200000Y62195000D03*
X-114200000Y59655000D03*
%TD*%
D17*
%TO.C,R17*%
X-102240000Y61360000D03*
X-102240000Y63110000D03*
%TD*%
D19*
%TO.C,R15*%
X-114237498Y64125000D03*
X-117212498Y64125000D03*
%TD*%
D18*
%TO.C,R18*%
X-100620000Y63125000D03*
X-100620000Y61375000D03*
%TD*%
D22*
%TO.C,R16*%
X-105800000Y59605000D03*
X-104050000Y59605000D03*
%TD*%
D24*
%TO.C,J1*%
X-153530000Y81625000D03*
X-148450000Y81625000D03*
X-143370000Y81625000D03*
X-138290000Y81625000D03*
X-133210000Y81625000D03*
X-128130000Y81625000D03*
D25*
X-123050000Y81625000D03*
%TD*%
D26*
%TO.C,C1*%
X-159150000Y67725000D03*
X-160900000Y67725000D03*
%TD*%
D22*
%TO.C,R14*%
X-80275000Y51450000D03*
X-78525000Y51450000D03*
%TD*%
D27*
%TO.C,D6*%
X-164057000Y58231000D03*
X-160757000Y58231000D03*
%TD*%
D28*
%TO.C,D5*%
X-156450000Y65975000D03*
X-156450000Y62675000D03*
%TD*%
D29*
%TO.C,D2*%
X-158821000Y62677000D03*
X-158821000Y65977000D03*
%TD*%
%TO.C,D3*%
X-161207000Y62677000D03*
X-161207000Y65977000D03*
%TD*%
D30*
%TO.C,Q3*%
X-160857000Y56181000D03*
X-162757000Y56181000D03*
X-161807000Y54181000D03*
%TD*%
D31*
%TO.C,R4*%
X-163625000Y70825000D03*
X-163625000Y67850000D03*
%TD*%
D28*
%TO.C,D4*%
X-163607000Y65976000D03*
X-163607000Y62676000D03*
%TD*%
D31*
%TO.C,R3*%
X-156425000Y70875000D03*
X-156425000Y67900000D03*
%TD*%
D32*
%TO.C,U1*%
X-114100000Y41665000D03*
X-114100000Y39125000D03*
X-107800000Y39125000D03*
X-107800000Y41665000D03*
%TD*%
D33*
%TO.C,RV1*%
X-163850000Y49275000D03*
X-171350000Y50675000D03*
%TD*%
D22*
%TO.C,R7*%
X-161674414Y60417000D03*
X-159924414Y60417000D03*
%TD*%
D34*
%TO.C,C4*%
X-98000000Y36225000D03*
X-98000000Y42725000D03*
%TD*%
D15*
%TO.C,Q4*%
X-124475000Y71480000D03*
D16*
X-124475000Y68940000D03*
X-124475000Y66400000D03*
%TD*%
D35*
%TO.C,C2*%
X-157400000Y54325000D03*
X-157400000Y57925000D03*
%TD*%
D26*
%TO.C,R12*%
X-116450000Y41695000D03*
X-118200000Y41695000D03*
%TD*%
D36*
%TO.C,D1*%
X-97595000Y81140000D03*
X-97595000Y79090000D03*
%TD*%
D26*
%TO.C,R10*%
X-99450000Y86235000D03*
X-101200000Y86235000D03*
%TD*%
D17*
%TO.C,R2*%
X-92100000Y79220000D03*
X-92100000Y80970000D03*
%TD*%
D26*
%TO.C,R30*%
X-78525000Y53075000D03*
X-80275000Y53075000D03*
%TD*%
D37*
%TO.C,PS1*%
X-152600000Y44225000D03*
D38*
X-152600000Y39225000D03*
X-123200000Y49425000D03*
X-123200000Y34025000D03*
%TD*%
D20*
%TO.C,Q1*%
X-93795000Y79140000D03*
X-93795000Y81040000D03*
X-95795000Y80090000D03*
%TD*%
%TO.C,Q2*%
X-93795000Y75340000D03*
X-93795000Y77240000D03*
X-95795000Y76290000D03*
%TD*%
D18*
%TO.C,R1*%
X-90500000Y80975000D03*
X-90500000Y79225000D03*
%TD*%
D39*
%TO.C,Case*%
X-161850000Y78225000D03*
X-84350000Y78225000D03*
X-84350000Y41725000D03*
X-161850000Y41725000D03*
%TD*%
D18*
%TO.C,R6*%
X-90500000Y77175000D03*
X-90500000Y75425000D03*
%TD*%
%TO.C,R29*%
X-117400000Y76825000D03*
X-117400000Y75075000D03*
%TD*%
D40*
%TO.C,U6*%
X-114900000Y86125000D03*
D41*
X-114900000Y83585000D03*
X-114900000Y81045000D03*
X-114900000Y78505000D03*
X-107280000Y78505000D03*
X-107280000Y81045000D03*
X-107280000Y83585000D03*
X-107280000Y86125000D03*
%TD*%
D42*
%TO.C,F1*%
X-171300000Y66875000D03*
D43*
X-171300000Y78125000D03*
X-171300000Y55625000D03*
%TD*%
D17*
%TO.C,R11*%
X-99500000Y75375000D03*
X-99500000Y77125000D03*
%TD*%
D36*
%TO.C,D7*%
X-97600000Y77375000D03*
X-97600000Y75325000D03*
%TD*%
D17*
%TO.C,R28*%
X-78500000Y54875000D03*
X-78500000Y56625000D03*
%TD*%
%TO.C,R5*%
X-99495000Y79240000D03*
X-99495000Y80990000D03*
%TD*%
D22*
%TO.C,R9*%
X-101200000Y84575000D03*
X-99450000Y84575000D03*
%TD*%
D18*
%TO.C,C6*%
X-105225000Y83575000D03*
X-105225000Y81825000D03*
%TD*%
D26*
%TO.C,R13*%
X-72675000Y77800000D03*
X-74425000Y77800000D03*
%TD*%
D40*
%TO.C,U7*%
X-114900000Y74950000D03*
D41*
X-114900000Y72410000D03*
X-114900000Y69870000D03*
X-114900000Y67330000D03*
X-107280000Y67330000D03*
X-107280000Y69870000D03*
X-107280000Y72410000D03*
X-107280000Y74950000D03*
%TD*%
D17*
%TO.C,R8*%
X-92100000Y75425000D03*
X-92100000Y77175000D03*
%TD*%
D22*
%TO.C,C7*%
X-105425000Y72425000D03*
X-103675000Y72425000D03*
%TD*%
%TO.C,C3*%
X-86262500Y84812500D03*
X-84512500Y84812500D03*
%TD*%
D26*
%TO.C,C5*%
X-78375000Y74075000D03*
X-80125000Y74075000D03*
%TD*%
D44*
%TO.C,D8*%
X-74550000Y75700000D03*
X-72500000Y75700000D03*
%TD*%
D17*
%TO.C,R27*%
X-117400000Y84300000D03*
X-117400000Y86050000D03*
%TD*%
M02*
