%TF.GenerationSoftware,KiCad,Pcbnew,5.99.0-unknown-r23488-c1ecb425*%
%TF.CreationDate,2020-11-05T19:30:26+01:00*%
%TF.ProjectId,MadPresso,4d616450-7265-4737-936f-2e6b69636164,rev?*%
%TF.SameCoordinates,PXa8e54e0PY549d608*%
%TF.FileFunction,Copper,L1,Top*%
%TF.FilePolarity,Positive*%
%FSLAX46Y46*%
G04 Gerber Fmt 4.6, Leading zero omitted, Abs format (unit mm)*
G04 Created by KiCad (PCBNEW 5.99.0-unknown-r23488-c1ecb425) date 2020-11-05 19:30:26*
%MOMM*%
%LPD*%
G01*
G04 APERTURE LIST*
G04 Aperture macros list*
%AMRoundRect*
0 Rectangle with rounded corners*
0 $1 Rounding radius*
0 $2 $3 $4 $5 $6 $7 $8 $9 X,Y pos of 4 corners*
0 Add a 4 corners polygon primitive as box body*
4,1,4,$2,$3,$4,$5,$6,$7,$8,$9,$2,$3,0*
0 Add four circle primitives for the rounded corners*
1,1,$1+$1,$2,$3,0*
1,1,$1+$1,$4,$5,0*
1,1,$1+$1,$6,$7,0*
1,1,$1+$1,$8,$9,0*
0 Add four rect primitives between the rounded corners*
20,1,$1+$1,$2,$3,$4,$5,0*
20,1,$1+$1,$4,$5,$6,$7,0*
20,1,$1+$1,$6,$7,$8,$9,0*
20,1,$1+$1,$8,$9,$2,$3,0*%
G04 Aperture macros list end*
%TA.AperFunction,NonConductor*%
%ADD10C,1.000000*%
%TD*%
%ADD11C,0.300000*%
%TA.AperFunction,EtchedComponent*%
%ADD12C,0.381000*%
%TD*%
%TA.AperFunction,ComponentPad*%
%ADD13O,1.200000X1.750000*%
%TD*%
%TA.AperFunction,ComponentPad*%
%ADD14RoundRect,0.250000X0.350000X0.625000X-0.350000X0.625000X-0.350000X-0.625000X0.350000X-0.625000X0*%
%TD*%
%TA.AperFunction,ComponentPad*%
%ADD15R,2.000000X2.000000*%
%TD*%
%TA.AperFunction,ComponentPad*%
%ADD16O,1.600000X2.000000*%
%TD*%
%TA.AperFunction,ComponentPad*%
%ADD17R,2.000000X1.905000*%
%TD*%
%TA.AperFunction,ComponentPad*%
%ADD18O,2.000000X1.905000*%
%TD*%
%TA.AperFunction,SMDPad,CuDef*%
%ADD19RoundRect,0.237500X0.237500X-0.287500X0.237500X0.287500X-0.237500X0.287500X-0.237500X-0.287500X0*%
%TD*%
%TA.AperFunction,SMDPad,CuDef*%
%ADD20RoundRect,0.237500X-0.237500X0.287500X-0.237500X-0.287500X0.237500X-0.287500X0.237500X0.287500X0*%
%TD*%
%TA.AperFunction,SMDPad,CuDef*%
%ADD21RoundRect,0.250001X0.462499X0.624999X-0.462499X0.624999X-0.462499X-0.624999X0.462499X-0.624999X0*%
%TD*%
%TA.AperFunction,SMDPad,CuDef*%
%ADD22R,0.900000X0.800000*%
%TD*%
%TA.AperFunction,SMDPad,CuDef*%
%ADD23R,1.200000X0.800000*%
%TD*%
%TA.AperFunction,SMDPad,CuDef*%
%ADD24RoundRect,0.237500X-0.287500X-0.237500X0.287500X-0.237500X0.287500X0.237500X-0.287500X0.237500X0*%
%TD*%
%TA.AperFunction,SMDPad,CuDef*%
%ADD25R,2.300000X2.500000*%
%TD*%
%TA.AperFunction,ComponentPad*%
%ADD26O,2.080000X3.600000*%
%TD*%
%TA.AperFunction,ComponentPad*%
%ADD27RoundRect,0.249999X0.790001X1.550001X-0.790001X1.550001X-0.790001X-1.550001X0.790001X-1.550001X0*%
%TD*%
%TA.AperFunction,SMDPad,CuDef*%
%ADD28RoundRect,0.237500X0.287500X0.237500X-0.287500X0.237500X-0.287500X-0.237500X0.287500X-0.237500X0*%
%TD*%
%TA.AperFunction,SMDPad,CuDef*%
%ADD29R,0.900000X1.200000*%
%TD*%
%TA.AperFunction,SMDPad,CuDef*%
%ADD30R,1.200000X0.900000*%
%TD*%
%TA.AperFunction,SMDPad,CuDef*%
%ADD31R,0.800000X0.900000*%
%TD*%
%TA.AperFunction,SMDPad,CuDef*%
%ADD32RoundRect,0.250001X-0.624999X0.462499X-0.624999X-0.462499X0.624999X-0.462499X0.624999X0.462499X0*%
%TD*%
%TA.AperFunction,SMDPad,CuDef*%
%ADD33R,2.000000X0.640000*%
%TD*%
%TA.AperFunction,ComponentPad*%
%ADD34C,1.800000*%
%TD*%
%TA.AperFunction,SMDPad,CuDef*%
%ADD35RoundRect,0.250000X1.000000X-1.500000X1.000000X1.500000X-1.000000X1.500000X-1.000000X-1.500000X0*%
%TD*%
%TA.AperFunction,SMDPad,CuDef*%
%ADD36RoundRect,0.250000X0.550000X-1.050000X0.550000X1.050000X-0.550000X1.050000X-0.550000X-1.050000X0*%
%TD*%
%TA.AperFunction,SMDPad,CuDef*%
%ADD37RoundRect,0.250000X-0.450000X0.325000X-0.450000X-0.325000X0.450000X-0.325000X0.450000X0.325000X0*%
%TD*%
%TA.AperFunction,ComponentPad*%
%ADD38R,2.300000X2.000000*%
%TD*%
%TA.AperFunction,ComponentPad*%
%ADD39C,2.300000*%
%TD*%
%TA.AperFunction,ComponentPad*%
%ADD40R,1.600000X1.600000*%
%TD*%
%TA.AperFunction,ComponentPad*%
%ADD41O,1.600000X1.600000*%
%TD*%
%TA.AperFunction,ComponentPad*%
%ADD42C,3.000000*%
%TD*%
%TA.AperFunction,SMDPad,CuDef*%
%ADD43RoundRect,0.250000X-0.325000X-0.450000X0.325000X-0.450000X0.325000X0.450000X-0.325000X0.450000X0*%
%TD*%
%TA.AperFunction,ViaPad*%
%ADD44C,0.800000*%
%TD*%
%TA.AperFunction,ViaPad*%
%ADD45C,1.200000*%
%TD*%
%TA.AperFunction,Conductor*%
%ADD46C,0.500000*%
%TD*%
%TA.AperFunction,Conductor*%
%ADD47C,0.250000*%
%TD*%
%TA.AperFunction,Conductor*%
%ADD48C,1.000000*%
%TD*%
%TA.AperFunction,Conductor*%
%ADD49C,3.000000*%
%TD*%
%TA.AperFunction,Conductor*%
%ADD50C,2.000000*%
%TD*%
G04 APERTURE END LIST*
D10*
X-165800000Y85725000D02*
G75*
G03*
X-165800000Y85725000I-300000J0D01*
G01*
X-165800000Y33725000D02*
G75*
G03*
X-165800000Y33725000I-300000J0D01*
G01*
X-80800000Y33725000D02*
G75*
G03*
X-80800000Y33725000I-300000J0D01*
G01*
D11*
X-148314286Y57303929D02*
X-148314286Y58803929D01*
X-147814286Y57732500D01*
X-147314286Y58803929D01*
X-147314286Y57303929D01*
X-145957143Y57303929D02*
X-145957143Y58089643D01*
X-146028572Y58232500D01*
X-146171429Y58303929D01*
X-146457143Y58303929D01*
X-146600000Y58232500D01*
X-145957143Y57375358D02*
X-146100000Y57303929D01*
X-146457143Y57303929D01*
X-146600000Y57375358D01*
X-146671429Y57518215D01*
X-146671429Y57661072D01*
X-146600000Y57803929D01*
X-146457143Y57875358D01*
X-146100000Y57875358D01*
X-145957143Y57946786D01*
X-144600000Y57303929D02*
X-144600000Y58803929D01*
X-144600000Y57375358D02*
X-144742858Y57303929D01*
X-145028572Y57303929D01*
X-145171429Y57375358D01*
X-145242858Y57446786D01*
X-145314286Y57589643D01*
X-145314286Y58018215D01*
X-145242858Y58161072D01*
X-145171429Y58232500D01*
X-145028572Y58303929D01*
X-144742858Y58303929D01*
X-144600000Y58232500D01*
X-143885715Y57303929D02*
X-143885715Y58803929D01*
X-143314286Y58803929D01*
X-143171429Y58732500D01*
X-143100000Y58661072D01*
X-143028572Y58518215D01*
X-143028572Y58303929D01*
X-143100000Y58161072D01*
X-143171429Y58089643D01*
X-143314286Y58018215D01*
X-143885715Y58018215D01*
X-142385715Y57303929D02*
X-142385715Y58303929D01*
X-142385715Y58018215D02*
X-142314286Y58161072D01*
X-142242858Y58232500D01*
X-142100000Y58303929D01*
X-141957143Y58303929D01*
X-140885715Y57375358D02*
X-141028572Y57303929D01*
X-141314286Y57303929D01*
X-141457143Y57375358D01*
X-141528572Y57518215D01*
X-141528572Y58089643D01*
X-141457143Y58232500D01*
X-141314286Y58303929D01*
X-141028572Y58303929D01*
X-140885715Y58232500D01*
X-140814286Y58089643D01*
X-140814286Y57946786D01*
X-141528572Y57803929D01*
X-140242858Y57375358D02*
X-140100000Y57303929D01*
X-139814286Y57303929D01*
X-139671429Y57375358D01*
X-139600000Y57518215D01*
X-139600000Y57589643D01*
X-139671429Y57732500D01*
X-139814286Y57803929D01*
X-140028572Y57803929D01*
X-140171429Y57875358D01*
X-140242858Y58018215D01*
X-140242858Y58089643D01*
X-140171429Y58232500D01*
X-140028572Y58303929D01*
X-139814286Y58303929D01*
X-139671429Y58232500D01*
X-139028572Y57375358D02*
X-138885715Y57303929D01*
X-138600000Y57303929D01*
X-138457143Y57375358D01*
X-138385715Y57518215D01*
X-138385715Y57589643D01*
X-138457143Y57732500D01*
X-138600000Y57803929D01*
X-138814286Y57803929D01*
X-138957143Y57875358D01*
X-139028572Y58018215D01*
X-139028572Y58089643D01*
X-138957143Y58232500D01*
X-138814286Y58303929D01*
X-138600000Y58303929D01*
X-138457143Y58232500D01*
X-137528572Y57303929D02*
X-137671429Y57375358D01*
X-137742858Y57446786D01*
X-137814286Y57589643D01*
X-137814286Y58018215D01*
X-137742858Y58161072D01*
X-137671429Y58232500D01*
X-137528572Y58303929D01*
X-137314286Y58303929D01*
X-137171429Y58232500D01*
X-137100000Y58161072D01*
X-137028572Y58018215D01*
X-137028572Y57589643D01*
X-137100000Y57446786D01*
X-137171429Y57375358D01*
X-137314286Y57303929D01*
X-137528572Y57303929D01*
X-135385715Y58303929D02*
X-135028572Y57303929D01*
X-134671429Y58303929D01*
X-133314286Y57303929D02*
X-134171429Y57303929D01*
X-133742858Y57303929D02*
X-133742858Y58803929D01*
X-133885715Y58589643D01*
X-134028572Y58446786D01*
X-134171429Y58375358D01*
X-144778572Y54888929D02*
X-145635715Y54888929D01*
X-145207143Y54888929D02*
X-145207143Y56388929D01*
X-145350000Y56174643D01*
X-145492858Y56031786D01*
X-145635715Y55960358D01*
X-143350000Y54888929D02*
X-144207143Y54888929D01*
X-143778572Y54888929D02*
X-143778572Y56388929D01*
X-143921429Y56174643D01*
X-144064286Y56031786D01*
X-144207143Y55960358D01*
X-141635715Y56460358D02*
X-142921429Y54531786D01*
X-141207143Y56246072D02*
X-141135715Y56317500D01*
X-140992858Y56388929D01*
X-140635715Y56388929D01*
X-140492858Y56317500D01*
X-140421429Y56246072D01*
X-140350000Y56103215D01*
X-140350000Y55960358D01*
X-140421429Y55746072D01*
X-141278572Y54888929D01*
X-140350000Y54888929D01*
X-139421429Y56388929D02*
X-139278572Y56388929D01*
X-139135715Y56317500D01*
X-139064286Y56246072D01*
X-138992858Y56103215D01*
X-138921429Y55817500D01*
X-138921429Y55460358D01*
X-138992858Y55174643D01*
X-139064286Y55031786D01*
X-139135715Y54960358D01*
X-139278572Y54888929D01*
X-139421429Y54888929D01*
X-139564286Y54960358D01*
X-139635715Y55031786D01*
X-139707143Y55174643D01*
X-139778572Y55460358D01*
X-139778572Y55817500D01*
X-139707143Y56103215D01*
X-139635715Y56246072D01*
X-139564286Y56317500D01*
X-139421429Y56388929D01*
X-138350000Y56246072D02*
X-138278572Y56317500D01*
X-138135715Y56388929D01*
X-137778572Y56388929D01*
X-137635715Y56317500D01*
X-137564286Y56246072D01*
X-137492858Y56103215D01*
X-137492858Y55960358D01*
X-137564286Y55746072D01*
X-138421429Y54888929D01*
X-137492858Y54888929D01*
X-136564286Y56388929D02*
X-136421429Y56388929D01*
X-136278572Y56317500D01*
X-136207143Y56246072D01*
X-136135715Y56103215D01*
X-136064286Y55817500D01*
X-136064286Y55460358D01*
X-136135715Y55174643D01*
X-136207143Y55031786D01*
X-136278572Y54960358D01*
X-136421429Y54888929D01*
X-136564286Y54888929D01*
X-136707143Y54960358D01*
X-136778572Y55031786D01*
X-136850000Y55174643D01*
X-136921429Y55460358D01*
X-136921429Y55817500D01*
X-136850000Y56103215D01*
X-136778572Y56246072D01*
X-136707143Y56317500D01*
X-136564286Y56388929D01*
D12*
%TO.C,REF\u002A\u002A*%
X-160904000Y34794000D02*
X-160650000Y35556000D01*
X-160650000Y35556000D02*
X-160396000Y34794000D01*
X-159888000Y37588000D02*
X-159253000Y37334000D01*
X-160396000Y34794000D02*
X-160904000Y34794000D01*
X-158745000Y36826000D02*
X-158491000Y36445000D01*
X-157983000Y33143000D02*
X-157983000Y32762000D01*
X-161031000Y37715000D02*
X-160523000Y37715000D01*
X-158999000Y34413000D02*
X-159380000Y34413000D01*
X-158237000Y34794000D02*
X-158491000Y34667000D01*
X-158872000Y34032000D02*
X-157983000Y33143000D01*
X-163317000Y33143000D02*
X-163698000Y33143000D01*
X-159380000Y34413000D02*
X-159761000Y34413000D01*
X-158491000Y34667000D02*
X-158999000Y34413000D01*
X-159507000Y33270000D02*
X-159634000Y32889000D01*
X-162936000Y34667000D02*
X-162428000Y34540000D01*
X-161666000Y37461000D02*
X-161031000Y37715000D01*
X-162428000Y34540000D02*
X-161793000Y34413000D01*
X-163317000Y33143000D02*
X-163317000Y32635000D01*
X-161158000Y34032000D02*
X-160015000Y34032000D01*
X-161539000Y33016000D02*
X-161285000Y32762000D01*
X-160523000Y33905000D02*
X-160523000Y33651000D01*
X-161793000Y34413000D02*
X-161412000Y34413000D01*
X-158110000Y35175000D02*
X-158237000Y34794000D01*
X-159507000Y34413000D02*
X-159507000Y33651000D01*
X-158364000Y36826000D02*
X-157729000Y37334000D01*
X-163190000Y35175000D02*
X-163063000Y34921000D01*
X-162301000Y37080000D02*
X-161666000Y37461000D01*
X-157729000Y37334000D02*
X-157221000Y37461000D01*
X-157983000Y32762000D02*
X-157856000Y32762000D01*
X-163190000Y35429000D02*
X-163063000Y35937000D01*
X-160015000Y34032000D02*
X-160015000Y33524000D01*
X-163063000Y35937000D02*
X-162809000Y36572000D01*
X-161666000Y33270000D02*
X-161539000Y33016000D01*
X-163063000Y36826000D02*
X-163571000Y37207000D01*
X-162809000Y36572000D02*
X-162301000Y37080000D01*
X-161158000Y33524000D02*
X-161158000Y34032000D01*
X-158237000Y35937000D02*
X-158110000Y35556000D01*
X-159634000Y32889000D02*
X-160015000Y32762000D01*
X-161666000Y33270000D02*
X-161666000Y33651000D01*
X-160015000Y33524000D02*
X-161158000Y33524000D01*
X-163571000Y37207000D02*
X-163952000Y37080000D01*
X-157729000Y37334000D02*
X-157729000Y37842000D01*
X-159253000Y37334000D02*
X-158745000Y36826000D01*
X-160523000Y37715000D02*
X-159888000Y37588000D01*
X-163063000Y34921000D02*
X-162936000Y34667000D01*
X-158110000Y35556000D02*
X-158110000Y35175000D01*
X-160015000Y32762000D02*
X-160523000Y32635000D01*
X-157983000Y33143000D02*
X-157729000Y33143000D01*
X-162301000Y34032000D02*
X-163317000Y33143000D01*
X-160523000Y32635000D02*
X-160904000Y32635000D01*
X-163190000Y35175000D02*
X-163190000Y35429000D01*
X-159507000Y33651000D02*
X-159507000Y33270000D01*
X-161285000Y32762000D02*
X-160904000Y32635000D01*
X-158491000Y36445000D02*
X-158237000Y35937000D01*
X-163571000Y37207000D02*
X-163571000Y37588000D01*
X-161666000Y33651000D02*
X-161666000Y34413000D01*
X-159350019Y35556000D02*
G75*
G03*
X-159350019Y35556000I-283981J0D01*
G01*
X-161382019Y35556000D02*
G75*
G03*
X-161382019Y35556000I-283981J0D01*
G01*
X-128500280Y54375640D02*
X-127900840Y54573760D01*
X-129300380Y58376140D02*
X-129800760Y58175480D01*
X-126801020Y55373860D02*
X-126399700Y56074900D01*
X-127298860Y58873980D02*
X-127799240Y59176240D01*
X-129998880Y59074640D02*
X-130499260Y58675860D01*
X-130499260Y58675860D02*
X-130999640Y58073880D01*
X-129300380Y54375640D02*
X-128500280Y54375640D01*
X-128200560Y59275300D02*
X-128800000Y59374360D01*
X-131101240Y55775180D02*
X-130499260Y55074140D01*
X-129998880Y54675360D02*
X-129300380Y54375640D01*
X-127298860Y57375380D02*
X-127601120Y57875760D01*
X-126498760Y57875760D02*
X-126801020Y58376140D01*
X-131299360Y56575280D02*
X-131101240Y55775180D01*
X-127199800Y56476220D02*
X-127199800Y56875000D01*
X-128899060Y59374360D02*
X-129501040Y59275300D01*
X-128401220Y55373860D02*
X-127900840Y55574520D01*
X-129399440Y55373860D02*
X-128899060Y55274800D01*
X-127900840Y58175480D02*
X-128500280Y58475200D01*
X-128500280Y58475200D02*
X-128899060Y58475200D01*
X-126300640Y56674340D02*
X-126300640Y57273780D01*
X-131299360Y57174720D02*
X-131299360Y56575280D01*
X-130999640Y58073880D02*
X-131200300Y57675100D01*
X-128899060Y55274800D02*
X-128401220Y55373860D01*
X-131200300Y57675100D02*
X-131299360Y57174720D01*
X-127601120Y57875760D02*
X-127900840Y58175480D01*
X-127900840Y54573760D02*
X-127298860Y54876020D01*
X-127499520Y55975840D02*
X-127199800Y56476220D01*
X-129899820Y55676120D02*
X-129399440Y55373860D01*
X-126300640Y57273780D02*
X-126498760Y57875760D01*
X-127799240Y59176240D02*
X-128200560Y59275300D01*
X-126399700Y56074900D02*
X-126300640Y56674340D01*
X-129501040Y59275300D02*
X-129998880Y59074640D01*
X-126801020Y58376140D02*
X-127298860Y58873980D01*
X-127199800Y56875000D02*
X-127298860Y57375380D01*
X-128899060Y58475200D02*
X-129300380Y58376140D01*
X-128800000Y59374360D02*
X-128899060Y59374360D01*
X-127900840Y55574520D02*
X-127499520Y55975840D01*
X-130499260Y55074140D02*
X-129998880Y54675360D01*
X-127298860Y54876020D02*
X-126801020Y55373860D01*
%TD*%
D13*
%TO.P,J2,3,Pin_3*%
%TO.N,Net-(J2-Pad3)*%
X-95350000Y85375000D03*
%TO.P,J2,2,Pin_2*%
%TO.N,GND*%
X-93350000Y85375000D03*
D14*
%TO.P,J2,1,Pin_1*%
%TO.N,+5V*%
X-91350000Y85375000D03*
%TD*%
D15*
%TO.P,U2,1,~RST*%
%TO.N,N/C*%
X-95850000Y48375000D03*
D16*
%TO.P,U2,2,A0*%
%TO.N,/TEMP_SENSOR*%
X-93310000Y48375000D03*
%TO.P,U2,3,D0*%
%TO.N,/VALVE_TRIAC*%
X-90770000Y48375000D03*
%TO.P,U2,4,SCK/D5*%
%TO.N,/PUMP_TRIAC*%
X-88230000Y48375000D03*
%TO.P,U2,5,MISO/D6*%
%TO.N,/HEATER_TRIAC*%
X-85690000Y48375000D03*
%TO.P,U2,6,MOSI/D7*%
%TO.N,/STEAM_SENSOR*%
X-83150000Y48375000D03*
%TO.P,U2,7,CS/D8*%
%TO.N,/ZC_DETECT*%
X-80610000Y48375000D03*
%TO.P,U2,8,3V3*%
%TO.N,VCC*%
X-78070000Y48375000D03*
%TO.P,U2,9,5V*%
%TO.N,+5V*%
X-78070000Y71235000D03*
%TO.P,U2,10,GND*%
%TO.N,GND*%
X-80610000Y71235000D03*
%TO.P,U2,11,D4*%
%TO.N,N/C*%
X-83150000Y71235000D03*
%TO.P,U2,12,D3*%
%TO.N,/SHOT_SENSOR*%
X-85690000Y71235000D03*
%TO.P,U2,13,SDA/D2*%
%TO.N,/LED1*%
X-88230000Y71235000D03*
%TO.P,U2,14,SCL/D1*%
%TO.N,/LED2*%
X-90770000Y71235000D03*
%TO.P,U2,15,RX*%
%TO.N,N/C*%
X-93310000Y71235000D03*
%TO.P,U2,16,TX*%
X-95850000Y71235000D03*
%TD*%
D17*
%TO.P,Q8,1,A1*%
%TO.N,/VALVE*%
X-148475000Y71480000D03*
D18*
%TO.P,Q8,2,A2*%
%TO.N,LINE*%
X-148475000Y68940000D03*
%TO.P,Q8,3,G*%
%TO.N,Net-(Q8-Pad3)*%
X-148475000Y66400000D03*
%TD*%
D17*
%TO.P,Q6,1,A1*%
%TO.N,/PUMP*%
X-136475000Y71480000D03*
D18*
%TO.P,Q6,2,A2*%
%TO.N,LINE*%
X-136475000Y68940000D03*
%TO.P,Q6,3,G*%
%TO.N,Net-(Q6-Pad3)*%
X-136475000Y66400000D03*
%TD*%
D19*
%TO.P,R25,1*%
%TO.N,Net-(Q9-Pad1)*%
X-102170000Y47280000D03*
%TO.P,R25,2*%
%TO.N,GND*%
X-102170000Y49030000D03*
%TD*%
D20*
%TO.P,R26,1*%
%TO.N,/VALVE_TRIAC*%
X-100580000Y49030000D03*
%TO.P,R26,2*%
%TO.N,Net-(Q9-Pad1)*%
X-100580000Y47280000D03*
%TD*%
D19*
%TO.P,R21,1*%
%TO.N,Net-(Q7-Pad1)*%
X-102190000Y54430000D03*
%TO.P,R21,2*%
%TO.N,GND*%
X-102190000Y56180000D03*
%TD*%
D21*
%TO.P,R19,1*%
%TO.N,Net-(R19-Pad1)*%
X-114200000Y57075000D03*
%TO.P,R19,2*%
%TO.N,LINE*%
X-117175000Y57075000D03*
%TD*%
D22*
%TO.P,Q7,1,G*%
%TO.N,Net-(Q7-Pad1)*%
X-104050000Y54265000D03*
%TO.P,Q7,2,S*%
%TO.N,GND*%
X-104050000Y56165000D03*
%TO.P,Q7,3,D*%
%TO.N,Net-(Q7-Pad3)*%
X-106050000Y55215000D03*
%TD*%
D23*
%TO.P,U4,1*%
%TO.N,Net-(R20-Pad1)*%
X-107900000Y52635000D03*
%TO.P,U4,3*%
%TO.N,Net-(Q7-Pad3)*%
X-107900000Y55175000D03*
%TO.P,U4,4*%
%TO.N,Net-(R19-Pad1)*%
X-114200000Y55175000D03*
%TO.P,U4,6*%
%TO.N,Net-(Q6-Pad3)*%
X-114200000Y52635000D03*
%TD*%
D20*
%TO.P,R22,1*%
%TO.N,/PUMP_TRIAC*%
X-100600000Y56170000D03*
%TO.P,R22,2*%
%TO.N,Net-(Q7-Pad1)*%
X-100600000Y54420000D03*
%TD*%
D23*
%TO.P,U5,1*%
%TO.N,Net-(R24-Pad1)*%
X-107900000Y45605000D03*
%TO.P,U5,3*%
%TO.N,Net-(Q9-Pad3)*%
X-107900000Y48145000D03*
%TO.P,U5,4*%
%TO.N,Net-(R23-Pad1)*%
X-114200000Y48145000D03*
%TO.P,U5,6*%
%TO.N,Net-(Q8-Pad3)*%
X-114200000Y45605000D03*
%TD*%
D21*
%TO.P,R23,1*%
%TO.N,Net-(R23-Pad1)*%
X-114200000Y50075000D03*
%TO.P,R23,2*%
%TO.N,LINE*%
X-117175000Y50075000D03*
%TD*%
D24*
%TO.P,R24,1*%
%TO.N,Net-(R24-Pad1)*%
X-105905000Y45545000D03*
%TO.P,R24,2*%
%TO.N,+5V*%
X-104155000Y45545000D03*
%TD*%
%TO.P,R20,1*%
%TO.N,Net-(R20-Pad1)*%
X-105800000Y52615000D03*
%TO.P,R20,2*%
%TO.N,+5V*%
X-104050000Y52615000D03*
%TD*%
D22*
%TO.P,Q9,1,G*%
%TO.N,Net-(Q9-Pad1)*%
X-104050000Y47275000D03*
%TO.P,Q9,2,S*%
%TO.N,GND*%
X-104050000Y49175000D03*
%TO.P,Q9,3,D*%
%TO.N,Net-(Q9-Pad3)*%
X-106050000Y48225000D03*
%TD*%
D25*
%TO.P,D9,1,A1*%
%TO.N,+5V*%
X-90900000Y37525000D03*
%TO.P,D9,2,A2*%
%TO.N,GND*%
X-90900000Y41825000D03*
%TD*%
D22*
%TO.P,Q5,1,G*%
%TO.N,Net-(Q5-Pad1)*%
X-104050000Y61255000D03*
%TO.P,Q5,2,S*%
%TO.N,GND*%
X-104050000Y63155000D03*
%TO.P,Q5,3,D*%
%TO.N,Net-(Q5-Pad3)*%
X-106050000Y62205000D03*
%TD*%
D23*
%TO.P,U3,1*%
%TO.N,Net-(R16-Pad1)*%
X-107900000Y59655000D03*
%TO.P,U3,3*%
%TO.N,Net-(Q5-Pad3)*%
X-107900000Y62195000D03*
%TO.P,U3,4*%
%TO.N,Net-(R15-Pad1)*%
X-114200000Y62195000D03*
%TO.P,U3,6*%
%TO.N,Net-(Q4-Pad3)*%
X-114200000Y59655000D03*
%TD*%
D19*
%TO.P,R17,1*%
%TO.N,Net-(Q5-Pad1)*%
X-102240000Y61360000D03*
%TO.P,R17,2*%
%TO.N,GND*%
X-102240000Y63110000D03*
%TD*%
D21*
%TO.P,R15,1*%
%TO.N,Net-(R15-Pad1)*%
X-114237498Y64125000D03*
%TO.P,R15,2*%
%TO.N,LINE*%
X-117212498Y64125000D03*
%TD*%
D20*
%TO.P,R18,1*%
%TO.N,/HEATER_TRIAC*%
X-100620000Y63125000D03*
%TO.P,R18,2*%
%TO.N,Net-(Q5-Pad1)*%
X-100620000Y61375000D03*
%TD*%
D24*
%TO.P,R16,1*%
%TO.N,Net-(R16-Pad1)*%
X-105800000Y59605000D03*
%TO.P,R16,2*%
%TO.N,+5V*%
X-104050000Y59605000D03*
%TD*%
D26*
%TO.P,J1,7,Pin_7*%
%TO.N,NEUT*%
X-153530000Y81625000D03*
%TO.P,J1,6,Pin_6*%
%TO.N,LINE*%
X-148450000Y81625000D03*
%TO.P,J1,5,Pin_5*%
%TO.N,/VALVE*%
X-143370000Y81625000D03*
%TO.P,J1,4,Pin_4*%
%TO.N,/PUMP*%
X-138290000Y81625000D03*
%TO.P,J1,3,Pin_3*%
%TO.N,/HEATER*%
X-133210000Y81625000D03*
%TO.P,J1,2,Pin_2*%
%TO.N,/STEAM_SW*%
X-128130000Y81625000D03*
D27*
%TO.P,J1,1,Pin_1*%
%TO.N,/SHOT_SW*%
X-123050000Y81625000D03*
%TD*%
D28*
%TO.P,C1,1*%
%TO.N,Net-(C1-Pad1)*%
X-159150000Y67725000D03*
%TO.P,C1,2*%
%TO.N,Net-(C1-Pad2)*%
X-160900000Y67725000D03*
%TD*%
D24*
%TO.P,R14,1*%
%TO.N,/ZC_DETECT*%
X-80275000Y51450000D03*
%TO.P,R14,2*%
%TO.N,VCC*%
X-78525000Y51450000D03*
%TD*%
D29*
%TO.P,D6,1,K*%
%TO.N,Net-(D4-Pad2)*%
X-164057000Y58231000D03*
%TO.P,D6,2,A*%
%TO.N,Net-(C2-Pad2)*%
X-160757000Y58231000D03*
%TD*%
D30*
%TO.P,D5,1,K*%
%TO.N,Net-(C1-Pad1)*%
X-156450000Y65975000D03*
%TO.P,D5,2,A*%
%TO.N,Net-(D4-Pad2)*%
X-156450000Y62675000D03*
%TD*%
%TO.P,D2,1,K*%
%TO.N,Net-(C2-Pad1)*%
X-158821000Y62677000D03*
%TO.P,D2,2,A*%
%TO.N,Net-(C1-Pad1)*%
X-158821000Y65977000D03*
%TD*%
%TO.P,D3,1,K*%
%TO.N,Net-(C2-Pad1)*%
X-161207000Y62677000D03*
%TO.P,D3,2,A*%
%TO.N,Net-(C1-Pad2)*%
X-161207000Y65977000D03*
%TD*%
D31*
%TO.P,Q3,1,B*%
%TO.N,Net-(D4-Pad2)*%
X-160857000Y56181000D03*
%TO.P,Q3,2,E*%
%TO.N,Net-(C2-Pad2)*%
X-162757000Y56181000D03*
%TO.P,Q3,3,C*%
%TO.N,Net-(Q3-Pad3)*%
X-161807000Y54181000D03*
%TD*%
D32*
%TO.P,R4,1*%
%TO.N,NEUT*%
X-163625000Y70825000D03*
%TO.P,R4,2*%
%TO.N,Net-(C1-Pad2)*%
X-163625000Y67850000D03*
%TD*%
D30*
%TO.P,D4,1,K*%
%TO.N,Net-(C1-Pad2)*%
X-163607000Y65976000D03*
%TO.P,D4,2,A*%
%TO.N,Net-(D4-Pad2)*%
X-163607000Y62676000D03*
%TD*%
D32*
%TO.P,R3,1*%
%TO.N,LINE*%
X-156425000Y70875000D03*
%TO.P,R3,2*%
%TO.N,Net-(C1-Pad1)*%
X-156425000Y67900000D03*
%TD*%
D33*
%TO.P,U1,1*%
%TO.N,Net-(R12-Pad1)*%
X-114100000Y41665000D03*
%TO.P,U1,2*%
%TO.N,Net-(Q3-Pad3)*%
X-114100000Y39125000D03*
%TO.P,U1,3*%
%TO.N,GND*%
X-107800000Y39125000D03*
%TO.P,U1,4*%
%TO.N,/ZC_DETECT*%
X-107800000Y41665000D03*
%TD*%
D34*
%TO.P,RV1,1*%
%TO.N,NEUT*%
X-163850000Y49275000D03*
%TO.P,RV1,2*%
%TO.N,Net-(F1-Pad2)*%
X-171350000Y50675000D03*
%TD*%
D24*
%TO.P,R7,1*%
%TO.N,Net-(D4-Pad2)*%
X-161674414Y60417000D03*
%TO.P,R7,2*%
%TO.N,Net-(C2-Pad1)*%
X-159924414Y60417000D03*
%TD*%
D35*
%TO.P,C4,1*%
%TO.N,+5V*%
X-98000000Y36225000D03*
%TO.P,C4,2*%
%TO.N,GND*%
X-98000000Y42725000D03*
%TD*%
D17*
%TO.P,Q4,1,A1*%
%TO.N,/HEATER*%
X-124475000Y71480000D03*
D18*
%TO.P,Q4,2,A2*%
%TO.N,LINE*%
X-124475000Y68940000D03*
%TO.P,Q4,3,G*%
%TO.N,Net-(Q4-Pad3)*%
X-124475000Y66400000D03*
%TD*%
D36*
%TO.P,C2,1*%
%TO.N,Net-(C2-Pad1)*%
X-157400000Y54325000D03*
%TO.P,C2,2*%
%TO.N,Net-(C2-Pad2)*%
X-157400000Y57925000D03*
%TD*%
D28*
%TO.P,R12,1*%
%TO.N,Net-(R12-Pad1)*%
X-116450000Y41695000D03*
%TO.P,R12,2*%
%TO.N,Net-(C2-Pad1)*%
X-118200000Y41695000D03*
%TD*%
D37*
%TO.P,D1,1,K*%
%TO.N,Net-(D1-Pad1)*%
X-97595000Y81140000D03*
%TO.P,D1,2,A*%
%TO.N,Net-(D1-Pad2)*%
X-97595000Y79090000D03*
%TD*%
D28*
%TO.P,R10,1*%
%TO.N,GND*%
X-99450000Y86235000D03*
%TO.P,R10,2*%
%TO.N,/TEMP_SENSOR*%
X-101200000Y86235000D03*
%TD*%
D19*
%TO.P,R2,1*%
%TO.N,Net-(Q1-Pad1)*%
X-92100000Y79220000D03*
%TO.P,R2,2*%
%TO.N,GND*%
X-92100000Y80970000D03*
%TD*%
D28*
%TO.P,R30,1*%
%TO.N,VCC*%
X-78525000Y53075000D03*
%TO.P,R30,2*%
%TO.N,/STEAM_SENSOR*%
X-80275000Y53075000D03*
%TD*%
D38*
%TO.P,PS1,1,AC/L*%
%TO.N,Net-(F1-Pad2)*%
X-152600000Y44225000D03*
D39*
%TO.P,PS1,2,AC/N*%
%TO.N,NEUT*%
X-152600000Y39225000D03*
%TO.P,PS1,3,-Vout*%
%TO.N,GND*%
X-123200000Y49425000D03*
%TO.P,PS1,4,+Vout*%
%TO.N,+5V*%
X-123200000Y34025000D03*
%TD*%
D22*
%TO.P,Q1,1,G*%
%TO.N,Net-(Q1-Pad1)*%
X-93795000Y79140000D03*
%TO.P,Q1,2,S*%
%TO.N,GND*%
X-93795000Y81040000D03*
%TO.P,Q1,3,D*%
%TO.N,Net-(D1-Pad1)*%
X-95795000Y80090000D03*
%TD*%
%TO.P,Q2,1,G*%
%TO.N,Net-(Q2-Pad1)*%
X-93795000Y75340000D03*
%TO.P,Q2,2,S*%
%TO.N,GND*%
X-93795000Y77240000D03*
%TO.P,Q2,3,D*%
%TO.N,Net-(D7-Pad1)*%
X-95795000Y76290000D03*
%TD*%
D20*
%TO.P,R1,1*%
%TO.N,/LED1*%
X-90500000Y80975000D03*
%TO.P,R1,2*%
%TO.N,Net-(Q1-Pad1)*%
X-90500000Y79225000D03*
%TD*%
%TO.P,R6,1*%
%TO.N,/LED2*%
X-90500000Y77175000D03*
%TO.P,R6,2*%
%TO.N,Net-(Q2-Pad1)*%
X-90500000Y75425000D03*
%TD*%
%TO.P,R29,1*%
%TO.N,NEUT*%
X-117400000Y76825000D03*
%TO.P,R29,2*%
%TO.N,Net-(R29-Pad2)*%
X-117400000Y75075000D03*
%TD*%
D40*
%TO.P,U6,1,AC*%
%TO.N,Net-(R27-Pad2)*%
X-114900000Y86125000D03*
D41*
%TO.P,U6,2,NC*%
%TO.N,N/C*%
X-114900000Y83585000D03*
%TO.P,U6,3,AC*%
%TO.N,/SHOT_SW*%
X-114900000Y81045000D03*
%TO.P,U6,4,NC*%
%TO.N,N/C*%
X-114900000Y78505000D03*
%TO.P,U6,5,GND*%
%TO.N,GND*%
X-107280000Y78505000D03*
%TO.P,U6,6,VOUT*%
%TO.N,/SHOT_SENSOR*%
X-107280000Y81045000D03*
%TO.P,U6,7,AUX*%
%TO.N,Net-(C6-Pad1)*%
X-107280000Y83585000D03*
%TO.P,U6,8,VCC*%
%TO.N,+5V*%
X-107280000Y86125000D03*
%TD*%
D42*
%TO.P,F1,1*%
%TO.N,LINE*%
X-171300000Y78125000D03*
%TO.P,F1,2*%
%TO.N,Net-(F1-Pad2)*%
X-171300000Y55625000D03*
%TD*%
D19*
%TO.P,R11,1*%
%TO.N,Net-(D7-Pad2)*%
X-99500000Y75375000D03*
%TO.P,R11,2*%
%TO.N,+5V*%
X-99500000Y77125000D03*
%TD*%
D37*
%TO.P,D7,1,K*%
%TO.N,Net-(D7-Pad1)*%
X-97600000Y77375000D03*
%TO.P,D7,2,A*%
%TO.N,Net-(D7-Pad2)*%
X-97600000Y75325000D03*
%TD*%
D19*
%TO.P,R28,1*%
%TO.N,VCC*%
X-78500000Y54875000D03*
%TO.P,R28,2*%
%TO.N,/SHOT_SENSOR*%
X-78500000Y56625000D03*
%TD*%
%TO.P,R5,1*%
%TO.N,Net-(D1-Pad2)*%
X-99495000Y79240000D03*
%TO.P,R5,2*%
%TO.N,+5V*%
X-99495000Y80990000D03*
%TD*%
D24*
%TO.P,R9,1*%
%TO.N,/TEMP_SENSOR*%
X-101200000Y84575000D03*
%TO.P,R9,2*%
%TO.N,Net-(J2-Pad3)*%
X-99450000Y84575000D03*
%TD*%
D20*
%TO.P,C6,1*%
%TO.N,Net-(C6-Pad1)*%
X-105225000Y83575000D03*
%TO.P,C6,2*%
%TO.N,GND*%
X-105225000Y81825000D03*
%TD*%
D28*
%TO.P,R13,1*%
%TO.N,Net-(D8-Pad2)*%
X-72675000Y77800000D03*
%TO.P,R13,2*%
%TO.N,+5V*%
X-74425000Y77800000D03*
%TD*%
D40*
%TO.P,U7,1,AC*%
%TO.N,Net-(R29-Pad2)*%
X-114900000Y74950000D03*
D41*
%TO.P,U7,2,NC*%
%TO.N,N/C*%
X-114900000Y72410000D03*
%TO.P,U7,3,AC*%
%TO.N,/STEAM_SW*%
X-114900000Y69870000D03*
%TO.P,U7,4,NC*%
%TO.N,N/C*%
X-114900000Y67330000D03*
%TO.P,U7,5,GND*%
%TO.N,GND*%
X-107280000Y67330000D03*
%TO.P,U7,6,VOUT*%
%TO.N,/STEAM_SENSOR*%
X-107280000Y69870000D03*
%TO.P,U7,7,AUX*%
%TO.N,Net-(C7-Pad1)*%
X-107280000Y72410000D03*
%TO.P,U7,8,VCC*%
%TO.N,+5V*%
X-107280000Y74950000D03*
%TD*%
D19*
%TO.P,R8,1*%
%TO.N,Net-(Q2-Pad1)*%
X-92100000Y75425000D03*
%TO.P,R8,2*%
%TO.N,GND*%
X-92100000Y77175000D03*
%TD*%
D24*
%TO.P,C7,1*%
%TO.N,Net-(C7-Pad1)*%
X-105425000Y72425000D03*
%TO.P,C7,2*%
%TO.N,GND*%
X-103675000Y72425000D03*
%TD*%
%TO.P,C3,1*%
%TO.N,+5V*%
X-86262500Y84812500D03*
%TO.P,C3,2*%
%TO.N,GND*%
X-84512500Y84812500D03*
%TD*%
D28*
%TO.P,C5,1*%
%TO.N,+5V*%
X-78375000Y74075000D03*
%TO.P,C5,2*%
%TO.N,GND*%
X-80125000Y74075000D03*
%TD*%
D43*
%TO.P,D8,1,K*%
%TO.N,GND*%
X-74550000Y75700000D03*
%TO.P,D8,2,A*%
%TO.N,Net-(D8-Pad2)*%
X-72500000Y75700000D03*
%TD*%
D19*
%TO.P,R27,1*%
%TO.N,NEUT*%
X-117400000Y84300000D03*
%TO.P,R27,2*%
%TO.N,Net-(R27-Pad2)*%
X-117400000Y86050000D03*
%TD*%
D44*
%TO.N,/TEMP_SENSOR*%
X-102510000Y86235000D03*
%TO.N,GND*%
X-102200000Y57695000D03*
D45*
X-90900000Y44625000D03*
D44*
X-99450000Y87575000D03*
X-102250000Y64625000D03*
X-102250000Y71875000D03*
X-95050000Y81375000D03*
X-102170000Y50475000D03*
X-105225000Y80525000D03*
X-95050000Y77725000D03*
D45*
X-100600000Y42825000D03*
D44*
X-76125000Y75700000D03*
X-83150000Y84775000D03*
X-105750000Y38895000D03*
%TO.N,LINE*%
X-156420000Y72505000D03*
X-117150000Y51675000D03*
X-117200000Y65725000D03*
X-117200000Y58625000D03*
%TO.N,+5V*%
X-102100000Y34775000D03*
X-102650000Y45525000D03*
%TD*%
D46*
%TO.N,+5V*%
X-86262500Y86587500D02*
X-80937500Y86587500D01*
X-80937500Y86587500D02*
X-78375000Y84025000D01*
X-86262500Y86587500D02*
X-90037500Y86587500D01*
X-90037500Y86587500D02*
X-91350000Y85275000D01*
X-92575000Y82800000D02*
X-91350000Y84025000D01*
X-91350000Y84025000D02*
X-91350000Y85375000D01*
D47*
%TO.N,Net-(J2-Pad3)*%
X-98300000Y84575000D02*
X-96150000Y84575000D01*
X-96150000Y84575000D02*
X-95350000Y85375000D01*
D48*
%TO.N,/VALVE*%
X-148475000Y71480000D02*
X-148475000Y71550000D01*
X-148475000Y71550000D02*
X-147800000Y72225000D01*
D49*
X-147800000Y72225000D02*
X-147800000Y72125000D01*
X-143370000Y76655000D02*
X-147800000Y72225000D01*
D47*
%TO.N,/STEAM_SW*%
X-128130000Y81025000D02*
X-128130000Y79655000D01*
X-119650000Y71525000D02*
X-117880000Y69755000D01*
X-128130000Y79655000D02*
X-125700000Y77225000D01*
X-121600000Y77225000D02*
X-119650000Y75275000D01*
X-125700000Y77225000D02*
X-121600000Y77225000D01*
X-119650000Y75275000D02*
X-119650000Y71525000D01*
X-117880000Y69755000D02*
X-117210000Y69755000D01*
X-128130000Y81925000D02*
X-128130000Y80675000D01*
X-117210000Y69755000D02*
X-114880000Y69755000D01*
%TO.N,Net-(Q3-Pad3)*%
X-116000000Y39125000D02*
X-113850000Y39125000D01*
X-117250000Y40375000D02*
X-116000000Y39125000D01*
X-134300000Y40375000D02*
X-117250000Y40375000D01*
%TO.N,Net-(C1-Pad2)*%
X-163607000Y65976000D02*
X-163607000Y67818000D01*
X-163520000Y65976000D02*
X-161108000Y65976000D01*
X-160900000Y66350000D02*
X-161250000Y66000000D01*
X-163607000Y67818000D02*
X-163575000Y67850000D01*
X-160900000Y67725000D02*
X-160900000Y66350000D01*
X-161108000Y65976000D02*
X-161107000Y65977000D01*
%TO.N,Net-(C1-Pad1)*%
X-156448000Y65977000D02*
X-156419000Y66006000D01*
X-156419000Y66006000D02*
X-156419000Y67295000D01*
X-158821000Y65977000D02*
X-156448000Y65977000D01*
X-159150000Y66325000D02*
X-158825000Y66000000D01*
X-159150000Y67725000D02*
X-159150000Y66325000D01*
%TO.N,/TEMP_SENSOR*%
X-101200000Y86235000D02*
X-102510000Y86235000D01*
X-101200000Y86235000D02*
X-101200000Y84475000D01*
D48*
%TO.N,GND*%
X-90900000Y41825000D02*
X-93600000Y41825000D01*
D47*
X-105225000Y81825000D02*
X-105225000Y80525000D01*
X-94100000Y81375000D02*
X-95050000Y81375000D01*
X-99450000Y87575000D02*
X-99450000Y86175000D01*
D48*
X-80610000Y71235000D02*
X-80610000Y73565000D01*
D46*
X-84512500Y84812500D02*
X-83187500Y84812500D01*
D47*
X-74550000Y75700000D02*
X-76125000Y75700000D01*
D46*
X-102240000Y63110000D02*
X-102240000Y64665000D01*
X-102190000Y56180000D02*
X-102190000Y57685000D01*
D48*
X-90900000Y41825000D02*
X-90900000Y43625000D01*
D46*
X-102205000Y56165000D02*
X-102190000Y56180000D01*
D47*
X-94300000Y77725000D02*
X-95050000Y77725000D01*
X-102800000Y72425000D02*
X-102250000Y71875000D01*
X-107800000Y39125000D02*
X-105980000Y39125000D01*
X-92100000Y77125000D02*
X-93700000Y77125000D01*
D46*
X-102170000Y49055000D02*
X-102170000Y50325000D01*
X-102285000Y63155000D02*
X-102240000Y63110000D01*
D48*
X-90900000Y44625000D02*
X-90900000Y43625000D01*
D47*
X-93760000Y81005000D02*
X-92140000Y81005000D01*
X-93715000Y80990000D02*
X-94100000Y81375000D01*
X-93700000Y77125000D02*
X-94300000Y77725000D01*
D46*
X-104050000Y56165000D02*
X-102205000Y56165000D01*
X-102350000Y49175000D02*
X-102170000Y49355000D01*
X-104050000Y63155000D02*
X-102285000Y63155000D01*
X-104050000Y49175000D02*
X-102350000Y49175000D01*
D48*
X-94625000Y42850000D02*
X-98075000Y42850000D01*
X-98000000Y42725000D02*
X-100500000Y42725000D01*
D46*
X-102240000Y64665000D02*
X-102250000Y64675000D01*
D47*
X-93795000Y81040000D02*
X-93760000Y81005000D01*
D46*
X-83187500Y84812500D02*
X-83150000Y84775000D01*
D47*
X-105980000Y39125000D02*
X-105750000Y38895000D01*
D48*
X-80610000Y73565000D02*
X-80150000Y74025000D01*
D46*
X-102190000Y57685000D02*
X-102200000Y57695000D01*
D48*
X-93600000Y41825000D02*
X-94625000Y42850000D01*
D47*
X-103675000Y72425000D02*
X-102800000Y72425000D01*
D48*
X-100500000Y42725000D02*
X-100600000Y42825000D01*
D47*
%TO.N,VCC*%
X-78525000Y51450000D02*
X-78525000Y48875000D01*
X-78525000Y53100000D02*
X-78475000Y53150000D01*
X-78525000Y48875000D02*
X-78025000Y48375000D01*
X-78525000Y51450000D02*
X-78525000Y53100000D01*
X-78475000Y53150000D02*
X-78475000Y54875000D01*
%TO.N,LINE*%
X-156425000Y70875000D02*
X-156425000Y72500000D01*
X-117175000Y57075000D02*
X-117175000Y58600000D01*
X-117175000Y58600000D02*
X-117200000Y58625000D01*
X-117212498Y64125000D02*
X-117212498Y65712502D01*
X-156425000Y72500000D02*
X-156420000Y72505000D01*
X-117175000Y50075000D02*
X-117175000Y51650000D01*
X-117212498Y65712502D02*
X-117200000Y65725000D01*
X-117175000Y51650000D02*
X-117150000Y51675000D01*
D49*
%TO.N,/HEATER*%
X-130575000Y74625000D02*
X-127525000Y74625000D01*
X-133210000Y81925000D02*
X-133210000Y80135000D01*
X-133210000Y81925000D02*
X-133210000Y77260000D01*
X-133210000Y77260000D02*
X-130575000Y74625000D01*
D50*
X-124555000Y71480000D02*
X-125000000Y71925000D01*
D49*
X-127525000Y74625000D02*
X-124775000Y71875000D01*
D50*
X-124475000Y71480000D02*
X-124555000Y71480000D01*
D49*
%TO.N,/PUMP*%
X-136975000Y71975000D02*
X-136950000Y71975000D01*
X-138290000Y81925000D02*
X-138290000Y73290000D01*
X-138290000Y73290000D02*
X-136975000Y71975000D01*
D46*
%TO.N,Net-(Q5-Pad3)*%
X-106050000Y62205000D02*
X-107870000Y62205000D01*
X-107870000Y62205000D02*
X-107900000Y62235000D01*
D48*
%TO.N,NEUT*%
X-166900000Y71550000D02*
X-167250000Y71200000D01*
X-165575000Y72875000D02*
X-163450000Y72875000D01*
X-163450000Y72875000D02*
X-160100000Y72875000D01*
D47*
X-163625000Y72700000D02*
X-163450000Y72875000D01*
X-163625000Y70825000D02*
X-163625000Y72700000D01*
D48*
X-167250000Y71200000D02*
X-167250000Y52675000D01*
X-167250000Y52675000D02*
X-166900000Y52325000D01*
D47*
X-117400000Y84250000D02*
X-119025000Y84250000D01*
D48*
X-166900000Y71550000D02*
X-165575000Y72875000D01*
D47*
X-121500000Y86725000D02*
X-148730000Y86725000D01*
X-117400000Y76800000D02*
X-117400000Y84250000D01*
D48*
X-153530000Y81925000D02*
X-153530000Y79445000D01*
D47*
X-148730000Y86725000D02*
X-153530000Y81925000D01*
X-119025000Y84250000D02*
X-121500000Y86725000D01*
D48*
X-163850000Y49275000D02*
X-166900000Y52325000D01*
X-153530000Y79445000D02*
X-160100000Y72875000D01*
D47*
%TO.N,+5V*%
X-105050000Y51075000D02*
X-105050000Y51495000D01*
D46*
X-105990000Y86065000D02*
X-104590000Y86065000D01*
D47*
X-102670000Y45545000D02*
X-102650000Y45525000D01*
X-78300000Y77800000D02*
X-78375000Y77725000D01*
X-104050000Y52495000D02*
X-105050000Y51495000D01*
X-99495000Y82755000D02*
X-99450000Y82800000D01*
X-74425000Y77800000D02*
X-78300000Y77800000D01*
X-104155000Y45545000D02*
X-104070000Y45545000D01*
D46*
X-103325000Y82700000D02*
X-103325000Y76275000D01*
D47*
X-77850000Y71475000D02*
X-78100000Y71225000D01*
X-105050000Y46440000D02*
X-104155000Y45545000D01*
D46*
X-106050000Y74975000D02*
X-107350000Y74975000D01*
D48*
X-87690000Y36815000D02*
X-82260000Y36815000D01*
D46*
X-86262500Y84812500D02*
X-86262500Y86587500D01*
X-78375000Y74075000D02*
X-78375000Y77725000D01*
D48*
X-78070000Y73795000D02*
X-78400000Y74125000D01*
X-123200000Y34025000D02*
X-121800000Y32625000D01*
X-99150000Y32625000D02*
X-97950000Y33825000D01*
D46*
X-103325000Y84800000D02*
X-103325000Y82700000D01*
X-103225000Y82800000D02*
X-103325000Y82700000D01*
X-78375000Y77725000D02*
X-78375000Y84025000D01*
D47*
X-105050000Y53615000D02*
X-104050000Y52615000D01*
X-105050000Y57895000D02*
X-105050000Y53615000D01*
D46*
X-92575000Y82800000D02*
X-99450000Y82800000D01*
D47*
X-104155000Y45545000D02*
X-102670000Y45545000D01*
D48*
X-101600000Y32625000D02*
X-99150000Y32625000D01*
D47*
X-99495000Y80990000D02*
X-99495000Y82755000D01*
X-104050000Y59605000D02*
X-104050000Y59175000D01*
X-104050000Y52615000D02*
X-104050000Y52495000D01*
D48*
X-81550000Y37525000D02*
X-77980000Y41095000D01*
X-90900000Y37525000D02*
X-88400000Y37525000D01*
X-77980000Y41095000D02*
X-73950000Y45125000D01*
D47*
X-104050000Y59375000D02*
X-105050000Y58375000D01*
D48*
X-73950000Y45125000D02*
X-73950000Y67250000D01*
D46*
X-99450000Y82800000D02*
X-103225000Y82800000D01*
D47*
X-105050000Y51075000D02*
X-105050000Y46440000D01*
X-105050000Y58375000D02*
X-105050000Y57895000D01*
D46*
X-104590000Y86065000D02*
X-103325000Y84800000D01*
D47*
X-77825000Y71575000D02*
X-77975000Y71425000D01*
D48*
X-121800000Y32625000D02*
X-104100000Y32625000D01*
X-98000000Y36225000D02*
X-95175000Y36225000D01*
D47*
X-100250000Y77125000D02*
X-100750000Y77625000D01*
D48*
X-97950000Y33825000D02*
X-97950000Y36275000D01*
D46*
X-104625000Y74975000D02*
X-106029999Y74975000D01*
D47*
X-102100000Y34775000D02*
X-102100000Y33175000D01*
X-100750000Y80500000D02*
X-100250000Y81000000D01*
D46*
X-103325000Y76275000D02*
X-104625000Y74975000D01*
D47*
X-100750000Y80425000D02*
X-100750000Y80500000D01*
D48*
X-81550000Y37525000D02*
X-82260000Y36815000D01*
D47*
X-100750000Y77625000D02*
X-100750000Y80425000D01*
D48*
X-95175000Y36225000D02*
X-93900000Y37500000D01*
D47*
X-100250000Y81000000D02*
X-99525000Y81000000D01*
D48*
X-93900000Y37500000D02*
X-90950000Y37500000D01*
D47*
X-100250000Y77125000D02*
X-99500000Y77125000D01*
D48*
X-88400000Y37525000D02*
X-87690000Y36815000D01*
X-78070000Y71235000D02*
X-78070000Y73795000D01*
X-104100000Y32625000D02*
X-101600000Y32625000D01*
D46*
X-107300000Y86065000D02*
X-105990000Y86065000D01*
D48*
X-73950000Y67250000D02*
X-78075000Y71375000D01*
D47*
%TO.N,/SHOT_SENSOR*%
X-102000000Y69125000D02*
X-87900000Y69125000D01*
X-104100000Y71225000D02*
X-102000000Y69125000D01*
X-108850000Y71975000D02*
X-108100000Y71225000D01*
X-86425000Y69125000D02*
X-85625000Y69925000D01*
X-108850000Y79375000D02*
X-108850000Y71975000D01*
X-85625000Y69925000D02*
X-85625000Y71450000D01*
X-85625000Y69925000D02*
X-84850000Y69150000D01*
X-87900000Y69125000D02*
X-86425000Y69125000D01*
X-78500000Y64325000D02*
X-78650000Y64475000D01*
X-108100000Y71225000D02*
X-104100000Y71225000D01*
X-84850000Y69150000D02*
X-83325000Y69150000D01*
X-85600000Y71405000D02*
X-85600000Y71425000D01*
X-107805000Y81045000D02*
X-108850000Y80000000D01*
X-108850000Y80000000D02*
X-108850000Y79375000D01*
X-78500000Y56625000D02*
X-78500000Y64325000D01*
X-83325000Y69150000D02*
X-81875000Y67700000D01*
X-107280000Y81045000D02*
X-107805000Y81045000D01*
X-78650000Y64475000D02*
X-81875000Y67700000D01*
%TO.N,/HEATER_TRIAC*%
X-85550000Y56675000D02*
X-85550000Y53325000D01*
X-100620000Y63125000D02*
X-92000000Y63125000D01*
X-92000000Y63125000D02*
X-85550000Y56675000D01*
X-85550000Y53325000D02*
X-85550000Y48375000D01*
%TO.N,/PUMP_TRIAC*%
X-90645000Y56170000D02*
X-88150000Y53675000D01*
X-100600000Y56170000D02*
X-90645000Y56170000D01*
X-88150000Y53675000D02*
X-88150000Y48475000D01*
%TO.N,/ZC_DETECT*%
X-86900000Y46225000D02*
X-82650000Y46225000D01*
X-104930000Y41645000D02*
X-102800000Y43775000D01*
X-82000000Y46225000D02*
X-81550000Y46225000D01*
X-80650000Y47125000D02*
X-80650000Y48450000D01*
X-81550000Y46225000D02*
X-80650000Y47125000D01*
X-99000000Y46225000D02*
X-100350000Y46225000D01*
X-82650000Y46225000D02*
X-82000000Y46225000D01*
X-99000000Y46225000D02*
X-86900000Y46225000D01*
X-80610000Y51115000D02*
X-80250000Y51475000D01*
X-105400000Y41645000D02*
X-104930000Y41645000D01*
X-100350000Y46225000D02*
X-102800000Y43775000D01*
X-87100000Y46225000D02*
X-86900000Y46225000D01*
X-80610000Y48375000D02*
X-80610000Y51115000D01*
X-105400000Y41645000D02*
X-108000000Y41645000D01*
D49*
%TO.N,/VALVE*%
X-143370000Y81925000D02*
X-143370000Y76655000D01*
D46*
%TO.N,Net-(R16-Pad1)*%
X-105890000Y59695000D02*
X-105800000Y59605000D01*
X-107900000Y59695000D02*
X-105890000Y59695000D01*
D47*
%TO.N,Net-(C2-Pad1)*%
X-155800000Y59375000D02*
X-155800000Y54825000D01*
X-144800000Y51825000D02*
X-144650000Y51825000D01*
X-156853000Y60428000D02*
X-155800000Y59375000D01*
X-158821000Y60428000D02*
X-156853000Y60428000D01*
X-159828000Y60428000D02*
X-159900000Y60500000D01*
X-157400000Y52575000D02*
X-156650000Y51825000D01*
X-156400000Y54225000D02*
X-157450000Y54225000D01*
X-156650000Y51825000D02*
X-144800000Y51825000D01*
X-155800000Y54825000D02*
X-156400000Y54225000D01*
X-118200000Y41695000D02*
X-118200000Y41445000D01*
X-161107000Y62677000D02*
X-158821000Y62677000D01*
X-157400000Y54325000D02*
X-157400000Y52575000D01*
X-144650000Y51825000D02*
X-134550000Y41725000D01*
X-158821000Y62677000D02*
X-158821000Y60428000D01*
X-134550000Y41725000D02*
X-118200000Y41725000D01*
X-159898414Y60391000D02*
X-159924414Y60417000D01*
X-158821000Y60428000D02*
X-159828000Y60428000D01*
%TO.N,/VALVE_TRIAC*%
X-100580000Y49030000D02*
X-100580000Y49545000D01*
X-100580000Y49545000D02*
X-99445000Y50680000D01*
X-99445000Y50680000D02*
X-92855000Y50680000D01*
X-92855000Y50680000D02*
X-90600000Y48425000D01*
D48*
%TO.N,Net-(F1-Pad2)*%
X-171300000Y55625000D02*
X-171300000Y50625000D01*
X-154850000Y46375000D02*
X-152600000Y44125000D01*
X-171350000Y50675000D02*
X-171350000Y48875000D01*
X-168850000Y46375000D02*
X-154850000Y46375000D01*
X-171350000Y48875000D02*
X-168850000Y46375000D01*
D47*
%TO.N,Net-(Q2-Pad1)*%
X-93780000Y75325000D02*
X-92050000Y75325000D01*
X-93795000Y75340000D02*
X-93780000Y75325000D01*
X-90600000Y75375000D02*
X-90500000Y75475000D01*
X-92100000Y75375000D02*
X-90600000Y75375000D01*
%TO.N,/STEAM_SENSOR*%
X-102300000Y68475000D02*
X-86000000Y68475000D01*
X-84500000Y68475000D02*
X-80275000Y64250000D01*
X-83150000Y51400000D02*
X-81500000Y53050000D01*
X-86000000Y68475000D02*
X-84500000Y68475000D01*
X-80275000Y53075000D02*
X-80275000Y64250000D01*
X-81500000Y53050000D02*
X-80175000Y53050000D01*
X-103710000Y69885000D02*
X-102300000Y68475000D01*
X-83150000Y48375000D02*
X-83150000Y51400000D01*
X-107300000Y69885000D02*
X-103710000Y69885000D01*
%TO.N,Net-(D7-Pad2)*%
X-97750000Y75375000D02*
X-97650000Y75275000D01*
X-99500000Y75375000D02*
X-97675000Y75375000D01*
%TO.N,Net-(Q7-Pad1)*%
X-100625000Y54430000D02*
X-100600000Y54405000D01*
X-102355000Y54265000D02*
X-102190000Y54430000D01*
X-102190000Y54430000D02*
X-100625000Y54430000D01*
X-104050000Y54265000D02*
X-102355000Y54265000D01*
D46*
%TO.N,Net-(Q7-Pad3)*%
X-106090000Y55175000D02*
X-106050000Y55215000D01*
X-107900000Y55175000D02*
X-106090000Y55175000D01*
D47*
%TO.N,Net-(C2-Pad2)*%
X-160757000Y58231000D02*
X-157906000Y58231000D01*
X-162757000Y57581000D02*
X-162757000Y56131000D01*
X-162107000Y58231000D02*
X-162757000Y57581000D01*
X-160757000Y58231000D02*
X-162107000Y58231000D01*
X-157906000Y58231000D02*
X-157450000Y57775000D01*
D46*
%TO.N,Net-(Q9-Pad1)*%
X-104050000Y47275000D02*
X-102425000Y47275000D01*
X-102425000Y47275000D02*
X-102420000Y47280000D01*
X-102420000Y47280000D02*
X-100840000Y47280000D01*
D47*
%TO.N,/LED1*%
X-88600000Y77075000D02*
X-88600000Y71875000D01*
X-89390000Y80990000D02*
X-89415000Y81015000D01*
X-89415000Y81015000D02*
X-90560000Y81015000D01*
X-89390000Y80990000D02*
X-88600000Y80200000D01*
X-88600000Y77825000D02*
X-88600000Y77075000D01*
X-88600000Y80200000D02*
X-88600000Y77825000D01*
X-88600000Y71875000D02*
X-88100000Y71375000D01*
X-88600000Y77825000D02*
X-88600000Y77775000D01*
%TO.N,/LED2*%
X-90500000Y77175000D02*
X-89600000Y77175000D01*
X-89600000Y77175000D02*
X-89250000Y76825000D01*
X-89250000Y76075000D02*
X-89250000Y72875000D01*
X-89250000Y72875000D02*
X-90750000Y71375000D01*
X-89250000Y76825000D02*
X-89250000Y76075000D01*
D46*
%TO.N,Net-(Q5-Pad1)*%
X-100635000Y61360000D02*
X-100620000Y61375000D01*
X-102345000Y61255000D02*
X-102240000Y61360000D01*
X-102240000Y61360000D02*
X-100635000Y61360000D01*
X-104050000Y61255000D02*
X-102345000Y61255000D01*
D47*
%TO.N,Net-(R15-Pad1)*%
X-114200000Y62235000D02*
X-114200000Y64225000D01*
X-114200000Y64225000D02*
X-114250000Y64275000D01*
%TO.N,Net-(R12-Pad1)*%
X-116450000Y41695000D02*
X-114000000Y41695000D01*
%TO.N,Net-(D7-Pad1)*%
X-95795000Y76290000D02*
X-96930000Y77425000D01*
X-96930000Y77425000D02*
X-97600000Y77425000D01*
%TO.N,Net-(J2-Pad1)*%
X-99450000Y84575000D02*
X-98300000Y84575000D01*
%TO.N,Net-(Q3-Pad3)*%
X-142900000Y48975000D02*
X-135400000Y41475000D01*
X-134300000Y40375000D02*
X-135400000Y41475000D01*
X-161825000Y52150000D02*
X-160800000Y51125000D01*
X-161775000Y54149000D02*
X-161825000Y54099000D01*
X-145050000Y51125000D02*
X-142900000Y48975000D01*
X-161825000Y54099000D02*
X-161825000Y52150000D01*
X-161807000Y54181000D02*
X-161775000Y54149000D01*
X-160800000Y51125000D02*
X-145050000Y51125000D01*
%TO.N,Net-(R19-Pad1)*%
X-114200000Y55175000D02*
X-114200000Y57345000D01*
X-114175000Y55170000D02*
X-114150000Y55145000D01*
D46*
%TO.N,Net-(Q9-Pad3)*%
X-106090000Y48185000D02*
X-106050000Y48225000D01*
X-107900000Y48185000D02*
X-106090000Y48185000D01*
D47*
%TO.N,Net-(Q1-Pad1)*%
X-92140000Y79195000D02*
X-90490000Y79195000D01*
X-93795000Y79140000D02*
X-92195000Y79140000D01*
X-92195000Y79140000D02*
X-92140000Y79195000D01*
%TO.N,Net-(R23-Pad1)*%
X-114200000Y48185000D02*
X-114200000Y50275000D01*
D46*
%TO.N,Net-(R24-Pad1)*%
X-107900000Y45645000D02*
X-106005000Y45645000D01*
X-106005000Y45645000D02*
X-105905000Y45545000D01*
%TO.N,Net-(R20-Pad1)*%
X-107900000Y52635000D02*
X-105820000Y52635000D01*
X-105820000Y52635000D02*
X-105800000Y52615000D01*
D47*
%TO.N,Net-(R27-Pad2)*%
X-114920000Y86145000D02*
X-117255000Y86145000D01*
X-117255000Y86145000D02*
X-117400000Y86000000D01*
%TO.N,Net-(R29-Pad2)*%
X-117375000Y75025000D02*
X-117400000Y75050000D01*
X-114900000Y75025000D02*
X-117375000Y75025000D01*
%TO.N,Net-(C6-Pad1)*%
X-105225000Y83575000D02*
X-107325000Y83575000D01*
D46*
%TO.N,Net-(C7-Pad1)*%
X-105465000Y72410000D02*
X-105450000Y72425000D01*
D47*
X-107280000Y72410000D02*
X-105465000Y72410000D01*
%TO.N,Net-(D8-Pad2)*%
X-72675000Y75950000D02*
X-72425000Y75700000D01*
X-72675000Y77800000D02*
X-72675000Y75950000D01*
%TO.N,Net-(D4-Pad2)*%
X-163650000Y60075000D02*
X-163308000Y60417000D01*
X-163520000Y62676000D02*
X-163520000Y60629000D01*
X-163757000Y55131000D02*
X-161907000Y55131000D01*
X-163550000Y63475000D02*
X-163550000Y62625000D01*
X-162519000Y64356000D02*
X-162669000Y64356000D01*
X-164057000Y59668000D02*
X-164057000Y58131000D01*
X-163520000Y60629000D02*
X-163308000Y60417000D01*
X-156419000Y62706000D02*
X-156419000Y63556000D01*
X-163650000Y60075000D02*
X-164057000Y59668000D01*
X-161907000Y55131000D02*
X-160857000Y56181000D01*
X-156419000Y63556000D02*
X-157219000Y64356000D01*
X-162669000Y64356000D02*
X-163550000Y63475000D01*
X-163308000Y60417000D02*
X-161674414Y60417000D01*
X-157219000Y64356000D02*
X-161840000Y64356000D01*
X-164057000Y55431000D02*
X-163757000Y55131000D01*
X-161840000Y64356000D02*
X-162519000Y64356000D01*
X-164057000Y58231000D02*
X-164057000Y55431000D01*
%TO.N,Net-(D1-Pad2)*%
X-97815000Y79240000D02*
X-97600000Y79025000D01*
X-99495000Y79240000D02*
X-97815000Y79240000D01*
%TO.N,Net-(D1-Pad1)*%
X-95795000Y80090000D02*
X-96880000Y81175000D01*
X-96880000Y81175000D02*
X-97550000Y81175000D01*
%TO.N,Net-(Q4-Pad3)*%
X-123150000Y60825000D02*
X-124450000Y62125000D01*
X-115330000Y60825000D02*
X-123150000Y60825000D01*
X-124450000Y62125000D02*
X-124450000Y66325000D01*
X-114200000Y59695000D02*
X-115330000Y60825000D01*
%TO.N,Net-(Q6-Pad3)*%
X-136475000Y66400000D02*
X-130125000Y66400000D01*
X-118600000Y54875000D02*
X-116450000Y54875000D01*
X-130125000Y66400000D02*
X-118600000Y54875000D01*
X-116450000Y54875000D02*
X-114200000Y52625000D01*
X-136475000Y66400000D02*
X-136450000Y66375000D01*
%TO.N,Net-(Q8-Pad3)*%
X-115070000Y45645000D02*
X-115750000Y46325000D01*
X-148475000Y66400000D02*
X-148450000Y66375000D01*
X-114200000Y45645000D02*
X-115070000Y45645000D01*
X-115750000Y52525000D02*
X-115750000Y51875000D01*
X-117050000Y53825000D02*
X-115750000Y52525000D01*
X-148450000Y66425000D02*
X-148475000Y66450000D01*
X-148400000Y66325000D02*
X-148400000Y63575000D01*
X-146850000Y62025000D02*
X-127050000Y62025000D01*
X-115750000Y46475000D02*
X-115750000Y51875000D01*
X-127050000Y62025000D02*
X-118850000Y53825000D01*
X-148400000Y63575000D02*
X-146850000Y62025000D01*
X-148475000Y66400000D02*
X-148400000Y66325000D01*
X-118850000Y53825000D02*
X-117050000Y53825000D01*
%TD*%
M02*
