%TF.GenerationSoftware,KiCad,Pcbnew,5.99.0-unknown-r23745-2d001796*%
%TF.CreationDate,2020-11-15T20:41:39+01:00*%
%TF.ProjectId,MadPresso,4d616450-7265-4737-936f-2e6b69636164,rev?*%
%TF.SameCoordinates,PXa8e54e0PY549d608*%
%TF.FileFunction,Soldermask,Top*%
%TF.FilePolarity,Negative*%
%FSLAX46Y46*%
G04 Gerber Fmt 4.6, Leading zero omitted, Abs format (unit mm)*
G04 Created by KiCad (PCBNEW 5.99.0-unknown-r23745-2d001796) date 2020-11-15 20:41:39*
%MOMM*%
%LPD*%
G01*
G04 APERTURE LIST*
G04 Aperture macros list*
%AMRoundRect*
0 Rectangle with rounded corners*
0 $1 Rounding radius*
0 $2 $3 $4 $5 $6 $7 $8 $9 X,Y pos of 4 corners*
0 Add a 4 corners polygon primitive as box body*
4,1,4,$2,$3,$4,$5,$6,$7,$8,$9,$2,$3,0*
0 Add four circle primitives for the rounded corners*
1,1,$1+$1,$2,$3,0*
1,1,$1+$1,$4,$5,0*
1,1,$1+$1,$6,$7,0*
1,1,$1+$1,$8,$9,0*
0 Add four rect primitives between the rounded corners*
20,1,$1+$1,$2,$3,$4,$5,0*
20,1,$1+$1,$4,$5,$6,$7,0*
20,1,$1+$1,$6,$7,$8,$9,0*
20,1,$1+$1,$8,$9,$2,$3,0*%
G04 Aperture macros list end*
%ADD10C,1.000000*%
%ADD11RoundRect,0.237500X-0.300000X-0.237500X0.300000X-0.237500X0.300000X0.237500X-0.300000X0.237500X0*%
%ADD12RoundRect,0.237500X-0.237500X0.300000X-0.237500X-0.300000X0.237500X-0.300000X0.237500X0.300000X0*%
%ADD13RoundRect,0.237500X0.300000X0.237500X-0.300000X0.237500X-0.300000X-0.237500X0.300000X-0.237500X0*%
%ADD14O,1.600000X2.000000*%
%ADD15R,2.000000X2.000000*%
%ADD16RoundRect,0.237500X-0.250000X-0.237500X0.250000X-0.237500X0.250000X0.237500X-0.250000X0.237500X0*%
%ADD17RoundRect,0.237500X-0.237500X0.250000X-0.237500X-0.250000X0.237500X-0.250000X0.237500X0.250000X0*%
%ADD18RoundRect,0.237500X0.237500X-0.250000X0.237500X0.250000X-0.237500X0.250000X-0.237500X-0.250000X0*%
%ADD19RoundRect,0.250000X0.400000X0.625000X-0.400000X0.625000X-0.400000X-0.625000X0.400000X-0.625000X0*%
%ADD20RoundRect,0.250000X0.625000X-0.400000X0.625000X0.400000X-0.625000X0.400000X-0.625000X-0.400000X0*%
%ADD21RoundRect,0.237500X0.250000X0.237500X-0.250000X0.237500X-0.250000X-0.237500X0.250000X-0.237500X0*%
%ADD22RoundRect,0.250000X-0.400000X-0.625000X0.400000X-0.625000X0.400000X0.625000X-0.400000X0.625000X0*%
%ADD23O,2.000000X1.905000*%
%ADD24R,2.000000X1.905000*%
%ADD25R,0.900000X0.800000*%
%ADD26R,1.200000X0.800000*%
%ADD27R,2.300000X2.500000*%
%ADD28O,2.080000X3.600000*%
%ADD29RoundRect,0.249999X0.790001X1.550001X-0.790001X1.550001X-0.790001X-1.550001X0.790001X-1.550001X0*%
%ADD30R,1.200000X0.900000*%
%ADD31R,0.800000X0.900000*%
%ADD32R,2.000000X0.640000*%
%ADD33C,1.800000*%
%ADD34RoundRect,0.250000X1.000000X-1.500000X1.000000X1.500000X-1.000000X1.500000X-1.000000X-1.500000X0*%
%ADD35RoundRect,0.250000X-0.550000X1.050000X-0.550000X-1.050000X0.550000X-1.050000X0.550000X1.050000X0*%
%ADD36O,1.200000X1.750000*%
%ADD37RoundRect,0.250000X0.350000X0.625000X-0.350000X0.625000X-0.350000X-0.625000X0.350000X-0.625000X0*%
%ADD38RoundRect,0.250000X0.450000X-0.325000X0.450000X0.325000X-0.450000X0.325000X-0.450000X-0.325000X0*%
%ADD39C,2.300000*%
%ADD40R,2.300000X2.000000*%
%ADD41C,3.500000*%
%ADD42R,0.650000X1.560000*%
%ADD43R,2.000000X1.780000*%
%ADD44C,2.700000*%
%ADD45C,3.000000*%
%ADD46R,0.800000X1.000000*%
G04 APERTURE END LIST*
D10*
X-80800000Y33725000D02*
G75*
G03*
X-80800000Y33725000I-300000J0D01*
G01*
X-165800000Y33725000D02*
G75*
G03*
X-165800000Y33725000I-300000J0D01*
G01*
X-165800000Y85725000D02*
G75*
G03*
X-165800000Y85725000I-300000J0D01*
G01*
D11*
%TO.C,C11*%
X-91597500Y53045000D03*
X-93322500Y53045000D03*
%TD*%
%TO.C,C10*%
X-101037500Y72325000D03*
X-102762500Y72325000D03*
%TD*%
D12*
%TO.C,C9*%
X-102750000Y81737500D03*
X-102750000Y83462500D03*
%TD*%
D13*
%TO.C,C7*%
X-80112500Y74075000D03*
X-78387500Y74075000D03*
%TD*%
D11*
%TO.C,C6*%
X-89670000Y78582500D03*
X-91395000Y78582500D03*
%TD*%
%TO.C,C5*%
X-89662500Y77045000D03*
X-91387500Y77045000D03*
%TD*%
D12*
%TO.C,C4*%
X-93710000Y78845000D03*
X-93710000Y80570000D03*
%TD*%
D11*
%TO.C,C2*%
X-97322500Y82375000D03*
X-99047500Y82375000D03*
%TD*%
%TO.C,C1*%
X-159837500Y69625000D03*
X-161562500Y69625000D03*
%TD*%
D14*
%TO.C,U3*%
X-95850000Y71235000D03*
X-93310000Y71235000D03*
X-90770000Y71235000D03*
X-88230000Y71235000D03*
X-85690000Y71235000D03*
X-83150000Y71235000D03*
X-80610000Y71235000D03*
X-78070000Y71235000D03*
X-78070000Y48375000D03*
X-80610000Y48375000D03*
X-83150000Y48375000D03*
X-85690000Y48375000D03*
X-88230000Y48375000D03*
X-90770000Y48375000D03*
D15*
X-95850000Y48375000D03*
D14*
X-93310000Y48375000D03*
%TD*%
D16*
%TO.C,R31*%
X-91077500Y67895000D03*
X-92902500Y67895000D03*
%TD*%
D17*
%TO.C,R30*%
X-98580000Y47142500D03*
X-98580000Y48967500D03*
%TD*%
D18*
%TO.C,R29*%
X-100170000Y48967500D03*
X-100170000Y47142500D03*
%TD*%
D16*
%TO.C,R28*%
X-102117500Y45445000D03*
X-103942500Y45445000D03*
%TD*%
D19*
%TO.C,R27*%
X-115237500Y49975000D03*
X-112137500Y49975000D03*
%TD*%
D17*
%TO.C,R26*%
X-98600000Y54282500D03*
X-98600000Y56107500D03*
%TD*%
D18*
%TO.C,R25*%
X-100190000Y56117500D03*
X-100190000Y54292500D03*
%TD*%
D16*
%TO.C,R24*%
X-102012500Y52515000D03*
X-103837500Y52515000D03*
%TD*%
D19*
%TO.C,R23*%
X-115237500Y56975000D03*
X-112137500Y56975000D03*
%TD*%
D17*
%TO.C,R22*%
X-98620000Y61237500D03*
X-98620000Y63062500D03*
%TD*%
D18*
%TO.C,R21*%
X-100240000Y63047500D03*
X-100240000Y61222500D03*
%TD*%
D16*
%TO.C,R20*%
X-102012500Y59505000D03*
X-103837500Y59505000D03*
%TD*%
D19*
%TO.C,R19*%
X-115274998Y64025000D03*
X-112174998Y64025000D03*
%TD*%
D18*
%TO.C,R18*%
X-85700000Y68480000D03*
X-85700000Y66655000D03*
%TD*%
D20*
%TO.C,R17*%
X-115500000Y69775000D03*
X-115500000Y66675000D03*
%TD*%
%TO.C,R16*%
X-115500000Y75287500D03*
X-115500000Y72187500D03*
%TD*%
D17*
%TO.C,R15*%
X-88230000Y51140000D03*
X-88230000Y52965000D03*
%TD*%
D20*
%TO.C,R14*%
X-115500000Y80975000D03*
X-115500000Y77875000D03*
%TD*%
%TO.C,R13*%
X-115500000Y86625000D03*
X-115500000Y83525000D03*
%TD*%
D17*
%TO.C,R12*%
X-72890000Y75437500D03*
X-72890000Y77262500D03*
%TD*%
D18*
%TO.C,R11*%
X-71135000Y71642500D03*
X-71135000Y69817500D03*
%TD*%
D21*
%TO.C,R10*%
X-90452499Y80807501D03*
X-88627499Y80807501D03*
%TD*%
%TO.C,R9*%
X-90447500Y82455000D03*
X-88622500Y82455000D03*
%TD*%
D18*
%TO.C,R8*%
X-74470000Y68232500D03*
X-74470000Y66407500D03*
%TD*%
D16*
%TO.C,R7*%
X-77987500Y44725000D03*
X-79812500Y44725000D03*
%TD*%
D21*
%TO.C,R6*%
X-116242500Y41695000D03*
X-114417500Y41695000D03*
%TD*%
D18*
%TO.C,R5*%
X-95300000Y82362500D03*
X-95300000Y80537500D03*
%TD*%
D17*
%TO.C,R4*%
X-97860000Y77140000D03*
X-97860000Y78965000D03*
%TD*%
D21*
%TO.C,R3*%
X-159937500Y59225000D03*
X-158112500Y59225000D03*
%TD*%
D19*
%TO.C,R2*%
X-159070000Y71725000D03*
X-155970000Y71725000D03*
%TD*%
D22*
%TO.C,R1*%
X-162250000Y71725000D03*
X-165350000Y71725000D03*
%TD*%
D23*
%TO.C,Q7*%
X-148475000Y66400000D03*
X-148475000Y68940000D03*
D24*
X-148475000Y71480000D03*
%TD*%
D23*
%TO.C,Q5*%
X-136475000Y66400000D03*
X-136475000Y68940000D03*
D24*
X-136475000Y71480000D03*
%TD*%
D25*
%TO.C,Q6*%
X-104050000Y55115000D03*
X-102050000Y56065000D03*
X-102050000Y54165000D03*
%TD*%
D26*
%TO.C,U7*%
X-105900000Y52535000D03*
X-112200000Y55075000D03*
X-105900000Y55075000D03*
X-112200000Y52535000D03*
%TD*%
%TO.C,U8*%
X-105900000Y45505000D03*
X-112200000Y48045000D03*
X-105900000Y48045000D03*
X-112200000Y45505000D03*
%TD*%
D25*
%TO.C,Q8*%
X-104050000Y48125000D03*
X-102050000Y49075000D03*
X-102050000Y47175000D03*
%TD*%
D27*
%TO.C,D3*%
X-90900000Y41825000D03*
X-90900000Y37525000D03*
%TD*%
D25*
%TO.C,Q4*%
X-104050000Y62105000D03*
X-102050000Y63055000D03*
X-102050000Y61155000D03*
%TD*%
D26*
%TO.C,U6*%
X-105900000Y59555000D03*
X-112200000Y62095000D03*
X-105900000Y62095000D03*
X-112200000Y59555000D03*
%TD*%
D28*
%TO.C,J1*%
X-153530000Y81625000D03*
X-148450000Y81625000D03*
X-143370000Y81625000D03*
X-138290000Y81625000D03*
X-133210000Y81625000D03*
X-128130000Y81625000D03*
D29*
X-123050000Y81625000D03*
%TD*%
D30*
%TO.C,D2*%
X-155900000Y55175000D03*
X-155900000Y58475000D03*
%TD*%
D31*
%TO.C,Q1*%
X-159100000Y57225000D03*
X-158150000Y55225000D03*
X-160050000Y55225000D03*
%TD*%
D32*
%TO.C,U1*%
X-105805000Y41665000D03*
X-105805000Y39125000D03*
X-112105000Y39125000D03*
X-112105000Y41665000D03*
%TD*%
D33*
%TO.C,RV1*%
X-171350000Y50675000D03*
X-163850000Y49275000D03*
%TD*%
D34*
%TO.C,C8*%
X-98000000Y42725000D03*
X-98000000Y36225000D03*
%TD*%
D23*
%TO.C,Q3*%
X-124475000Y66400000D03*
X-124475000Y68940000D03*
D24*
X-124475000Y71480000D03*
%TD*%
D35*
%TO.C,C3*%
X-163600001Y55375000D03*
X-163600001Y58975000D03*
%TD*%
D36*
%TO.C,J3*%
X-89850000Y85375000D03*
X-87850000Y85375000D03*
X-85850000Y85375000D03*
D37*
X-83850000Y85375000D03*
%TD*%
D38*
%TO.C,D4*%
X-71100000Y68075000D03*
X-71100000Y66025000D03*
%TD*%
D39*
%TO.C,PS1*%
X-123200000Y34025000D03*
X-152600000Y39225000D03*
D40*
X-152600000Y44225000D03*
D39*
X-123200000Y49425000D03*
%TD*%
D36*
%TO.C,J2*%
X-99300000Y85375000D03*
X-97300000Y85375000D03*
D37*
X-95300000Y85375000D03*
%TD*%
D41*
%TO.C,Case*%
X-161850000Y78225000D03*
X-161850000Y41725000D03*
X-84350000Y78225000D03*
X-84350000Y41725000D03*
%TD*%
D42*
%TO.C,U2*%
X-94360000Y74225000D03*
X-93410000Y74225000D03*
X-95310000Y74225000D03*
X-95310000Y76925000D03*
X-94360000Y76925000D03*
X-93410000Y76925000D03*
%TD*%
D43*
%TO.C,U4*%
X-105290000Y86035000D03*
X-112910000Y78415000D03*
X-105290000Y83495000D03*
X-112910000Y80955000D03*
X-105290000Y80955000D03*
X-112910000Y83495000D03*
X-105290000Y78415000D03*
X-112910000Y86035000D03*
%TD*%
D44*
%TO.C,F1*%
X-171700000Y66315000D03*
D45*
X-171700000Y55065000D03*
X-171700000Y77565000D03*
%TD*%
D31*
%TO.C,Q2*%
X-73850000Y71875000D03*
X-72900000Y69875000D03*
X-74800000Y69875000D03*
%TD*%
D43*
%TO.C,U5*%
X-105300000Y74845000D03*
X-112920000Y67225000D03*
X-105300000Y72305000D03*
X-112920000Y69765000D03*
X-105300000Y69765000D03*
X-112920000Y72305000D03*
X-105300000Y67225000D03*
X-112920000Y74845000D03*
%TD*%
D46*
%TO.C,D1*%
X-159370000Y61550000D03*
X-161910000Y61550000D03*
X-161910000Y67700000D03*
X-159370000Y67700000D03*
%TD*%
D38*
%TO.C,D5*%
X-71100000Y77420000D03*
X-71100000Y75370000D03*
%TD*%
M02*
