%TF.GenerationSoftware,KiCad,Pcbnew,5.99.0-unknown-r23488-c1ecb425*%
%TF.CreationDate,2020-11-05T19:30:28+01:00*%
%TF.ProjectId,MadPresso,4d616450-7265-4737-936f-2e6b69636164,rev?*%
%TF.SameCoordinates,PXa8e54e0PY549d608*%
%TF.FileFunction,Soldermask,Bot*%
%TF.FilePolarity,Negative*%
%FSLAX46Y46*%
G04 Gerber Fmt 4.6, Leading zero omitted, Abs format (unit mm)*
G04 Created by KiCad (PCBNEW 5.99.0-unknown-r23488-c1ecb425) date 2020-11-05 19:30:28*
%MOMM*%
%LPD*%
G01*
G04 APERTURE LIST*
G04 Aperture macros list*
%AMRoundRect*
0 Rectangle with rounded corners*
0 $1 Rounding radius*
0 $2 $3 $4 $5 $6 $7 $8 $9 X,Y pos of 4 corners*
0 Add a 4 corners polygon primitive as box body*
4,1,4,$2,$3,$4,$5,$6,$7,$8,$9,$2,$3,0*
0 Add four circle primitives for the rounded corners*
1,1,$1+$1,$2,$3,0*
1,1,$1+$1,$4,$5,0*
1,1,$1+$1,$6,$7,0*
1,1,$1+$1,$8,$9,0*
0 Add four rect primitives between the rounded corners*
20,1,$1+$1,$2,$3,$4,$5,0*
20,1,$1+$1,$4,$5,$6,$7,0*
20,1,$1+$1,$6,$7,$8,$9,0*
20,1,$1+$1,$8,$9,$2,$3,0*%
G04 Aperture macros list end*
%ADD10O,1.300000X1.850000*%
%ADD11RoundRect,0.270833X0.379167X0.654167X-0.379167X0.654167X-0.379167X-0.654167X0.379167X-0.654167X0*%
%ADD12RoundRect,0.050000X1.000000X-1.000000X1.000000X1.000000X-1.000000X1.000000X-1.000000X-1.000000X0*%
%ADD13O,1.700000X2.100000*%
%ADD14RoundRect,0.050000X-1.000000X0.952500X-1.000000X-0.952500X1.000000X-0.952500X1.000000X0.952500X0*%
%ADD15O,2.100000X2.005000*%
%ADD16O,2.180000X3.700000*%
%ADD17RoundRect,0.262018X0.827982X1.587982X-0.827982X1.587982X-0.827982X-1.587982X0.827982X-1.587982X0*%
%ADD18C,1.900000*%
%ADD19RoundRect,0.050000X-1.150000X-1.000000X1.150000X-1.000000X1.150000X1.000000X-1.150000X1.000000X0*%
%ADD20C,2.400000*%
%ADD21C,3.500000*%
%ADD22RoundRect,0.050000X-0.800000X-0.800000X0.800000X-0.800000X0.800000X0.800000X-0.800000X0.800000X0*%
%ADD23O,1.700000X1.700000*%
%ADD24C,3.300000*%
%ADD25C,3.100000*%
G04 APERTURE END LIST*
D10*
%TO.C,J2*%
X-95350000Y85375000D03*
X-93350000Y85375000D03*
D11*
X-91350000Y85375000D03*
%TD*%
D12*
%TO.C,U2*%
X-95850000Y48375000D03*
D13*
X-93310000Y48375000D03*
X-90770000Y48375000D03*
X-88230000Y48375000D03*
X-85690000Y48375000D03*
X-83150000Y48375000D03*
X-80610000Y48375000D03*
X-78070000Y48375000D03*
X-78070000Y71235000D03*
X-80610000Y71235000D03*
X-83150000Y71235000D03*
X-85690000Y71235000D03*
X-88230000Y71235000D03*
X-90770000Y71235000D03*
X-93310000Y71235000D03*
X-95850000Y71235000D03*
%TD*%
D14*
%TO.C,Q8*%
X-148475000Y71480000D03*
D15*
X-148475000Y68940000D03*
X-148475000Y66400000D03*
%TD*%
D14*
%TO.C,Q6*%
X-136475000Y71480000D03*
D15*
X-136475000Y68940000D03*
X-136475000Y66400000D03*
%TD*%
D16*
%TO.C,J1*%
X-153530000Y81625000D03*
X-148450000Y81625000D03*
X-143370000Y81625000D03*
X-138290000Y81625000D03*
X-133210000Y81625000D03*
X-128130000Y81625000D03*
D17*
X-123050000Y81625000D03*
%TD*%
D18*
%TO.C,RV1*%
X-163850000Y49275000D03*
X-171350000Y50675000D03*
%TD*%
D14*
%TO.C,Q4*%
X-124475000Y71480000D03*
D15*
X-124475000Y68940000D03*
X-124475000Y66400000D03*
%TD*%
D19*
%TO.C,PS1*%
X-152600000Y44225000D03*
D20*
X-152600000Y39225000D03*
X-123200000Y49425000D03*
X-123200000Y34025000D03*
%TD*%
D21*
%TO.C,Case*%
X-161850000Y78225000D03*
X-84350000Y78225000D03*
X-84350000Y41725000D03*
X-161850000Y41725000D03*
%TD*%
D22*
%TO.C,U6*%
X-114900000Y86125000D03*
D23*
X-114900000Y83585000D03*
X-114900000Y81045000D03*
X-114900000Y78505000D03*
X-107280000Y78505000D03*
X-107280000Y81045000D03*
X-107280000Y83585000D03*
X-107280000Y86125000D03*
%TD*%
D24*
%TO.C,F1*%
X-171300000Y66875000D03*
D25*
X-171300000Y78125000D03*
X-171300000Y55625000D03*
%TD*%
D22*
%TO.C,U7*%
X-114900000Y74950000D03*
D23*
X-114900000Y72410000D03*
X-114900000Y69870000D03*
X-114900000Y67330000D03*
X-107280000Y67330000D03*
X-107280000Y69870000D03*
X-107280000Y72410000D03*
X-107280000Y74950000D03*
%TD*%
M02*
