M48
; DRILL file {KiCad 5.99.0-unknown-r23745-2d001796} date Sun Nov 15 20:32:44 2020
; FORMAT={-:-/ absolute / inch / decimal}
; #@! TF.CreationDate,2020-11-15T20:32:44+01:00
; #@! TF.GenerationSoftware,Kicad,Pcbnew,5.99.0-unknown-r23745-2d001796
FMAT,2
INCH
T1C0.0157
T2C0.0295
T3C0.0315
T4C0.0394
T5C0.0433
T6C0.0512
T7C0.0551
T8C0.1063
T9C0.1378
%
G90
G05
T1
X-6.3642Y2.3002
X-6.2087Y2.2431
X-5.6909Y2.003
X-5.6417Y1.9577
X-4.6181Y3.2766
X-4.6181Y3.0022
X-4.6024Y2.5207
X-4.5354Y2.3041
X-4.5335Y2.0305
X-4.0848Y1.5313
X-4.0756Y3.1616
X-4.0591Y2.6545
X-4.0319Y3.1348
X-4.002Y2.5951
X-3.9764Y2.7923
X-3.9685Y1.7884
X-3.9469Y2.5404
X-3.9449Y2.2675
X-3.9437Y1.9833
X-3.8307Y3.1888
X-3.8094Y2.9742
X-3.7323Y1.5522
X-3.6736Y2.0388
X-3.6724Y2.5911
X-3.6102Y2.9742
X-3.6063Y2.038
X-3.5307Y2.6726
X-3.472Y2.5199
X-3.2713Y2.1293
X-3.1992Y2.1234
X-2.9933Y2.6356
X-2.9071Y2.8872
X-2.8386Y2.5344
X-2.8327Y2.8998
T2
X-3.5374Y3.3612
X-3.4587Y3.3612
X-3.3799Y3.3612
X-3.3012Y3.3612
X-3.9094Y3.3612
X-3.8307Y3.3612
X-3.752Y3.3612
T3
X-3.9606Y1.686
X-3.5787Y1.7569
X-6.7461Y1.9951
X-6.4508Y1.94
T4
X-3.7736Y2.8045
X-3.7736Y1.9045
X-3.6736Y2.8045
X-3.6736Y1.9045
X-3.5736Y2.8045
X-3.5736Y1.9045
X-3.4736Y2.8045
X-3.4736Y1.9045
X-3.3736Y2.8045
X-3.3736Y1.9045
X-3.2736Y2.8045
X-3.2736Y1.9045
X-3.1736Y2.8045
X-3.1736Y1.9045
X-3.0736Y2.8045
X-3.0736Y1.9045
X-6.0079Y1.7411
X-6.0079Y1.5443
X-4.8504Y1.9459
X-4.8504Y1.3396
T5
X-4.9006Y2.8142
X-4.9006Y2.7142
X-4.9006Y2.6142
X-5.373Y2.8142
X-5.373Y2.7142
X-5.373Y2.6142
X-5.8455Y2.8142
X-5.8455Y2.7142
X-5.8455Y2.6142
T6
X-6.7598Y3.0537
X-6.7598Y2.1679
T7
X-6.0445Y3.2136
X-5.8445Y3.2136
X-5.6445Y3.2136
X-5.4445Y3.2136
X-5.2445Y3.2136
X-5.0445Y3.2136
X-4.8445Y3.2136
T8
X-6.7598Y2.6108
T9
X-6.372Y3.0797
X-6.372Y1.6427
X-3.3209Y3.0797
X-3.3209Y1.6427
T0
M30
