%TF.GenerationSoftware,KiCad,Pcbnew,5.99.0-unknown-r23488-c1ecb425*%
%TF.CreationDate,2020-11-05T19:30:27+01:00*%
%TF.ProjectId,MadPresso,4d616450-7265-4737-936f-2e6b69636164,rev?*%
%TF.SameCoordinates,PXa8e54e0PY549d608*%
%TF.FileFunction,Legend,Top*%
%TF.FilePolarity,Positive*%
%FSLAX46Y46*%
G04 Gerber Fmt 4.6, Leading zero omitted, Abs format (unit mm)*
G04 Created by KiCad (PCBNEW 5.99.0-unknown-r23488-c1ecb425) date 2020-11-05 19:30:27*
%MOMM*%
%LPD*%
G01*
G04 APERTURE LIST*
%ADD10C,0.300000*%
%ADD11C,0.150000*%
%ADD12C,0.120000*%
G04 APERTURE END LIST*
D10*
X-148314286Y57303929D02*
X-148314286Y58803929D01*
X-147814286Y57732500D01*
X-147314286Y58803929D01*
X-147314286Y57303929D01*
X-145957143Y57303929D02*
X-145957143Y58089643D01*
X-146028572Y58232500D01*
X-146171429Y58303929D01*
X-146457143Y58303929D01*
X-146600000Y58232500D01*
X-145957143Y57375358D02*
X-146100000Y57303929D01*
X-146457143Y57303929D01*
X-146600000Y57375358D01*
X-146671429Y57518215D01*
X-146671429Y57661072D01*
X-146600000Y57803929D01*
X-146457143Y57875358D01*
X-146100000Y57875358D01*
X-145957143Y57946786D01*
X-144600000Y57303929D02*
X-144600000Y58803929D01*
X-144600000Y57375358D02*
X-144742858Y57303929D01*
X-145028572Y57303929D01*
X-145171429Y57375358D01*
X-145242858Y57446786D01*
X-145314286Y57589643D01*
X-145314286Y58018215D01*
X-145242858Y58161072D01*
X-145171429Y58232500D01*
X-145028572Y58303929D01*
X-144742858Y58303929D01*
X-144600000Y58232500D01*
X-143885715Y57303929D02*
X-143885715Y58803929D01*
X-143314286Y58803929D01*
X-143171429Y58732500D01*
X-143100000Y58661072D01*
X-143028572Y58518215D01*
X-143028572Y58303929D01*
X-143100000Y58161072D01*
X-143171429Y58089643D01*
X-143314286Y58018215D01*
X-143885715Y58018215D01*
X-142385715Y57303929D02*
X-142385715Y58303929D01*
X-142385715Y58018215D02*
X-142314286Y58161072D01*
X-142242858Y58232500D01*
X-142100000Y58303929D01*
X-141957143Y58303929D01*
X-140885715Y57375358D02*
X-141028572Y57303929D01*
X-141314286Y57303929D01*
X-141457143Y57375358D01*
X-141528572Y57518215D01*
X-141528572Y58089643D01*
X-141457143Y58232500D01*
X-141314286Y58303929D01*
X-141028572Y58303929D01*
X-140885715Y58232500D01*
X-140814286Y58089643D01*
X-140814286Y57946786D01*
X-141528572Y57803929D01*
X-140242858Y57375358D02*
X-140100000Y57303929D01*
X-139814286Y57303929D01*
X-139671429Y57375358D01*
X-139600000Y57518215D01*
X-139600000Y57589643D01*
X-139671429Y57732500D01*
X-139814286Y57803929D01*
X-140028572Y57803929D01*
X-140171429Y57875358D01*
X-140242858Y58018215D01*
X-140242858Y58089643D01*
X-140171429Y58232500D01*
X-140028572Y58303929D01*
X-139814286Y58303929D01*
X-139671429Y58232500D01*
X-139028572Y57375358D02*
X-138885715Y57303929D01*
X-138600000Y57303929D01*
X-138457143Y57375358D01*
X-138385715Y57518215D01*
X-138385715Y57589643D01*
X-138457143Y57732500D01*
X-138600000Y57803929D01*
X-138814286Y57803929D01*
X-138957143Y57875358D01*
X-139028572Y58018215D01*
X-139028572Y58089643D01*
X-138957143Y58232500D01*
X-138814286Y58303929D01*
X-138600000Y58303929D01*
X-138457143Y58232500D01*
X-137528572Y57303929D02*
X-137671429Y57375358D01*
X-137742858Y57446786D01*
X-137814286Y57589643D01*
X-137814286Y58018215D01*
X-137742858Y58161072D01*
X-137671429Y58232500D01*
X-137528572Y58303929D01*
X-137314286Y58303929D01*
X-137171429Y58232500D01*
X-137100000Y58161072D01*
X-137028572Y58018215D01*
X-137028572Y57589643D01*
X-137100000Y57446786D01*
X-137171429Y57375358D01*
X-137314286Y57303929D01*
X-137528572Y57303929D01*
X-135385715Y58303929D02*
X-135028572Y57303929D01*
X-134671429Y58303929D01*
X-133314286Y57303929D02*
X-134171429Y57303929D01*
X-133742858Y57303929D02*
X-133742858Y58803929D01*
X-133885715Y58589643D01*
X-134028572Y58446786D01*
X-134171429Y58375358D01*
X-144778572Y54888929D02*
X-145635715Y54888929D01*
X-145207143Y54888929D02*
X-145207143Y56388929D01*
X-145350000Y56174643D01*
X-145492858Y56031786D01*
X-145635715Y55960358D01*
X-143350000Y54888929D02*
X-144207143Y54888929D01*
X-143778572Y54888929D02*
X-143778572Y56388929D01*
X-143921429Y56174643D01*
X-144064286Y56031786D01*
X-144207143Y55960358D01*
X-141635715Y56460358D02*
X-142921429Y54531786D01*
X-141207143Y56246072D02*
X-141135715Y56317500D01*
X-140992858Y56388929D01*
X-140635715Y56388929D01*
X-140492858Y56317500D01*
X-140421429Y56246072D01*
X-140350000Y56103215D01*
X-140350000Y55960358D01*
X-140421429Y55746072D01*
X-141278572Y54888929D01*
X-140350000Y54888929D01*
X-139421429Y56388929D02*
X-139278572Y56388929D01*
X-139135715Y56317500D01*
X-139064286Y56246072D01*
X-138992858Y56103215D01*
X-138921429Y55817500D01*
X-138921429Y55460358D01*
X-138992858Y55174643D01*
X-139064286Y55031786D01*
X-139135715Y54960358D01*
X-139278572Y54888929D01*
X-139421429Y54888929D01*
X-139564286Y54960358D01*
X-139635715Y55031786D01*
X-139707143Y55174643D01*
X-139778572Y55460358D01*
X-139778572Y55817500D01*
X-139707143Y56103215D01*
X-139635715Y56246072D01*
X-139564286Y56317500D01*
X-139421429Y56388929D01*
X-138350000Y56246072D02*
X-138278572Y56317500D01*
X-138135715Y56388929D01*
X-137778572Y56388929D01*
X-137635715Y56317500D01*
X-137564286Y56246072D01*
X-137492858Y56103215D01*
X-137492858Y55960358D01*
X-137564286Y55746072D01*
X-138421429Y54888929D01*
X-137492858Y54888929D01*
X-136564286Y56388929D02*
X-136421429Y56388929D01*
X-136278572Y56317500D01*
X-136207143Y56246072D01*
X-136135715Y56103215D01*
X-136064286Y55817500D01*
X-136064286Y55460358D01*
X-136135715Y55174643D01*
X-136207143Y55031786D01*
X-136278572Y54960358D01*
X-136421429Y54888929D01*
X-136564286Y54888929D01*
X-136707143Y54960358D01*
X-136778572Y55031786D01*
X-136850000Y55174643D01*
X-136921429Y55460358D01*
X-136921429Y55817500D01*
X-136850000Y56103215D01*
X-136778572Y56246072D01*
X-136707143Y56317500D01*
X-136564286Y56388929D01*
D11*
%TO.C,J2*%
X-88597620Y86141667D02*
X-87883334Y86141667D01*
X-87740477Y86094048D01*
X-87645239Y85998810D01*
X-87597620Y85855953D01*
X-87597620Y85760715D01*
X-88502381Y86570239D02*
X-88550000Y86617858D01*
X-88597620Y86713096D01*
X-88597620Y86951191D01*
X-88550000Y87046429D01*
X-88502381Y87094048D01*
X-88407143Y87141667D01*
X-88311905Y87141667D01*
X-88169048Y87094048D01*
X-87597620Y86522620D01*
X-87597620Y87141667D01*
%TO.C,U2*%
X-94586905Y46397620D02*
X-94586905Y45588096D01*
X-94539286Y45492858D01*
X-94491667Y45445239D01*
X-94396429Y45397620D01*
X-94205953Y45397620D01*
X-94110715Y45445239D01*
X-94063096Y45492858D01*
X-94015477Y45588096D01*
X-94015477Y46397620D01*
X-93586905Y46302381D02*
X-93539286Y46350000D01*
X-93444048Y46397620D01*
X-93205953Y46397620D01*
X-93110715Y46350000D01*
X-93063096Y46302381D01*
X-93015477Y46207143D01*
X-93015477Y46111905D01*
X-93063096Y45969048D01*
X-93634524Y45397620D01*
X-93015477Y45397620D01*
%TO.C,Q8*%
X-143677381Y68829762D02*
X-143725000Y68734524D01*
X-143820239Y68639286D01*
X-143963096Y68496429D01*
X-144010715Y68401191D01*
X-144010715Y68305953D01*
X-143772620Y68353572D02*
X-143820239Y68258334D01*
X-143915477Y68163096D01*
X-144105953Y68115477D01*
X-144439286Y68115477D01*
X-144629762Y68163096D01*
X-144725000Y68258334D01*
X-144772620Y68353572D01*
X-144772620Y68544048D01*
X-144725000Y68639286D01*
X-144629762Y68734524D01*
X-144439286Y68782143D01*
X-144105953Y68782143D01*
X-143915477Y68734524D01*
X-143820239Y68639286D01*
X-143772620Y68544048D01*
X-143772620Y68353572D01*
X-144344048Y69353572D02*
X-144391667Y69258334D01*
X-144439286Y69210715D01*
X-144534524Y69163096D01*
X-144582143Y69163096D01*
X-144677381Y69210715D01*
X-144725000Y69258334D01*
X-144772620Y69353572D01*
X-144772620Y69544048D01*
X-144725000Y69639286D01*
X-144677381Y69686905D01*
X-144582143Y69734524D01*
X-144534524Y69734524D01*
X-144439286Y69686905D01*
X-144391667Y69639286D01*
X-144344048Y69544048D01*
X-144344048Y69353572D01*
X-144296429Y69258334D01*
X-144248810Y69210715D01*
X-144153572Y69163096D01*
X-143963096Y69163096D01*
X-143867858Y69210715D01*
X-143820239Y69258334D01*
X-143772620Y69353572D01*
X-143772620Y69544048D01*
X-143820239Y69639286D01*
X-143867858Y69686905D01*
X-143963096Y69734524D01*
X-144153572Y69734524D01*
X-144248810Y69686905D01*
X-144296429Y69639286D01*
X-144344048Y69544048D01*
%TO.C,Q6*%
X-131652381Y68854762D02*
X-131700000Y68759524D01*
X-131795239Y68664286D01*
X-131938096Y68521429D01*
X-131985715Y68426191D01*
X-131985715Y68330953D01*
X-131747620Y68378572D02*
X-131795239Y68283334D01*
X-131890477Y68188096D01*
X-132080953Y68140477D01*
X-132414286Y68140477D01*
X-132604762Y68188096D01*
X-132700000Y68283334D01*
X-132747620Y68378572D01*
X-132747620Y68569048D01*
X-132700000Y68664286D01*
X-132604762Y68759524D01*
X-132414286Y68807143D01*
X-132080953Y68807143D01*
X-131890477Y68759524D01*
X-131795239Y68664286D01*
X-131747620Y68569048D01*
X-131747620Y68378572D01*
X-132747620Y69664286D02*
X-132747620Y69473810D01*
X-132700000Y69378572D01*
X-132652381Y69330953D01*
X-132509524Y69235715D01*
X-132319048Y69188096D01*
X-131938096Y69188096D01*
X-131842858Y69235715D01*
X-131795239Y69283334D01*
X-131747620Y69378572D01*
X-131747620Y69569048D01*
X-131795239Y69664286D01*
X-131842858Y69711905D01*
X-131938096Y69759524D01*
X-132176191Y69759524D01*
X-132271429Y69711905D01*
X-132319048Y69664286D01*
X-132366667Y69569048D01*
X-132366667Y69378572D01*
X-132319048Y69283334D01*
X-132271429Y69235715D01*
X-132176191Y69188096D01*
%TO.C,R25*%
X-98577620Y47492143D02*
X-99053810Y47158810D01*
X-98577620Y46920715D02*
X-99577620Y46920715D01*
X-99577620Y47301667D01*
X-99530000Y47396905D01*
X-99482381Y47444524D01*
X-99387143Y47492143D01*
X-99244286Y47492143D01*
X-99149048Y47444524D01*
X-99101429Y47396905D01*
X-99053810Y47301667D01*
X-99053810Y46920715D01*
X-99482381Y47873096D02*
X-99530000Y47920715D01*
X-99577620Y48015953D01*
X-99577620Y48254048D01*
X-99530000Y48349286D01*
X-99482381Y48396905D01*
X-99387143Y48444524D01*
X-99291905Y48444524D01*
X-99149048Y48396905D01*
X-98577620Y47825477D01*
X-98577620Y48444524D01*
X-99577620Y49349286D02*
X-99577620Y48873096D01*
X-99101429Y48825477D01*
X-99149048Y48873096D01*
X-99196667Y48968334D01*
X-99196667Y49206429D01*
X-99149048Y49301667D01*
X-99101429Y49349286D01*
X-99006191Y49396905D01*
X-98768096Y49396905D01*
X-98672858Y49349286D01*
X-98625239Y49301667D01*
X-98577620Y49206429D01*
X-98577620Y48968334D01*
X-98625239Y48873096D01*
X-98672858Y48825477D01*
%TO.C,R26*%
X-97257620Y47482143D02*
X-97733810Y47148810D01*
X-97257620Y46910715D02*
X-98257620Y46910715D01*
X-98257620Y47291667D01*
X-98210000Y47386905D01*
X-98162381Y47434524D01*
X-98067143Y47482143D01*
X-97924286Y47482143D01*
X-97829048Y47434524D01*
X-97781429Y47386905D01*
X-97733810Y47291667D01*
X-97733810Y46910715D01*
X-98162381Y47863096D02*
X-98210000Y47910715D01*
X-98257620Y48005953D01*
X-98257620Y48244048D01*
X-98210000Y48339286D01*
X-98162381Y48386905D01*
X-98067143Y48434524D01*
X-97971905Y48434524D01*
X-97829048Y48386905D01*
X-97257620Y47815477D01*
X-97257620Y48434524D01*
X-98257620Y49291667D02*
X-98257620Y49101191D01*
X-98210000Y49005953D01*
X-98162381Y48958334D01*
X-98019524Y48863096D01*
X-97829048Y48815477D01*
X-97448096Y48815477D01*
X-97352858Y48863096D01*
X-97305239Y48910715D01*
X-97257620Y49005953D01*
X-97257620Y49196429D01*
X-97305239Y49291667D01*
X-97352858Y49339286D01*
X-97448096Y49386905D01*
X-97686191Y49386905D01*
X-97781429Y49339286D01*
X-97829048Y49291667D01*
X-97876667Y49196429D01*
X-97876667Y49005953D01*
X-97829048Y48910715D01*
X-97781429Y48863096D01*
X-97686191Y48815477D01*
%TO.C,R21*%
X-98507620Y54662143D02*
X-98983810Y54328810D01*
X-98507620Y54090715D02*
X-99507620Y54090715D01*
X-99507620Y54471667D01*
X-99460000Y54566905D01*
X-99412381Y54614524D01*
X-99317143Y54662143D01*
X-99174286Y54662143D01*
X-99079048Y54614524D01*
X-99031429Y54566905D01*
X-98983810Y54471667D01*
X-98983810Y54090715D01*
X-99412381Y55043096D02*
X-99460000Y55090715D01*
X-99507620Y55185953D01*
X-99507620Y55424048D01*
X-99460000Y55519286D01*
X-99412381Y55566905D01*
X-99317143Y55614524D01*
X-99221905Y55614524D01*
X-99079048Y55566905D01*
X-98507620Y54995477D01*
X-98507620Y55614524D01*
X-98507620Y56566905D02*
X-98507620Y55995477D01*
X-98507620Y56281191D02*
X-99507620Y56281191D01*
X-99364762Y56185953D01*
X-99269524Y56090715D01*
X-99221905Y55995477D01*
%TO.C,R19*%
X-117442858Y54722620D02*
X-117776191Y55198810D01*
X-118014286Y54722620D02*
X-118014286Y55722620D01*
X-117633334Y55722620D01*
X-117538096Y55675000D01*
X-117490477Y55627381D01*
X-117442858Y55532143D01*
X-117442858Y55389286D01*
X-117490477Y55294048D01*
X-117538096Y55246429D01*
X-117633334Y55198810D01*
X-118014286Y55198810D01*
X-116490477Y54722620D02*
X-117061905Y54722620D01*
X-116776191Y54722620D02*
X-116776191Y55722620D01*
X-116871429Y55579762D01*
X-116966667Y55484524D01*
X-117061905Y55436905D01*
X-116014286Y54722620D02*
X-115823810Y54722620D01*
X-115728572Y54770239D01*
X-115680953Y54817858D01*
X-115585715Y54960715D01*
X-115538096Y55151191D01*
X-115538096Y55532143D01*
X-115585715Y55627381D01*
X-115633334Y55675000D01*
X-115728572Y55722620D01*
X-115919048Y55722620D01*
X-116014286Y55675000D01*
X-116061905Y55627381D01*
X-116109524Y55532143D01*
X-116109524Y55294048D01*
X-116061905Y55198810D01*
X-116014286Y55151191D01*
X-115919048Y55103572D01*
X-115728572Y55103572D01*
X-115633334Y55151191D01*
X-115585715Y55198810D01*
X-115538096Y55294048D01*
%TO.C,Q7*%
X-104995239Y57147381D02*
X-105090477Y57195000D01*
X-105185715Y57290239D01*
X-105328572Y57433096D01*
X-105423810Y57480715D01*
X-105519048Y57480715D01*
X-105471429Y57242620D02*
X-105566667Y57290239D01*
X-105661905Y57385477D01*
X-105709524Y57575953D01*
X-105709524Y57909286D01*
X-105661905Y58099762D01*
X-105566667Y58195000D01*
X-105471429Y58242620D01*
X-105280953Y58242620D01*
X-105185715Y58195000D01*
X-105090477Y58099762D01*
X-105042858Y57909286D01*
X-105042858Y57575953D01*
X-105090477Y57385477D01*
X-105185715Y57290239D01*
X-105280953Y57242620D01*
X-105471429Y57242620D01*
X-104709524Y58242620D02*
X-104042858Y58242620D01*
X-104471429Y57242620D01*
%TO.C,U4*%
X-108911905Y51492620D02*
X-108911905Y50683096D01*
X-108864286Y50587858D01*
X-108816667Y50540239D01*
X-108721429Y50492620D01*
X-108530953Y50492620D01*
X-108435715Y50540239D01*
X-108388096Y50587858D01*
X-108340477Y50683096D01*
X-108340477Y51492620D01*
X-107435715Y51159286D02*
X-107435715Y50492620D01*
X-107673810Y51540239D02*
X-107911905Y50825953D01*
X-107292858Y50825953D01*
%TO.C,R22*%
X-97227620Y54662143D02*
X-97703810Y54328810D01*
X-97227620Y54090715D02*
X-98227620Y54090715D01*
X-98227620Y54471667D01*
X-98180000Y54566905D01*
X-98132381Y54614524D01*
X-98037143Y54662143D01*
X-97894286Y54662143D01*
X-97799048Y54614524D01*
X-97751429Y54566905D01*
X-97703810Y54471667D01*
X-97703810Y54090715D01*
X-98132381Y55043096D02*
X-98180000Y55090715D01*
X-98227620Y55185953D01*
X-98227620Y55424048D01*
X-98180000Y55519286D01*
X-98132381Y55566905D01*
X-98037143Y55614524D01*
X-97941905Y55614524D01*
X-97799048Y55566905D01*
X-97227620Y54995477D01*
X-97227620Y55614524D01*
X-98132381Y55995477D02*
X-98180000Y56043096D01*
X-98227620Y56138334D01*
X-98227620Y56376429D01*
X-98180000Y56471667D01*
X-98132381Y56519286D01*
X-98037143Y56566905D01*
X-97941905Y56566905D01*
X-97799048Y56519286D01*
X-97227620Y55947858D01*
X-97227620Y56566905D01*
%TO.C,U5*%
X-108961905Y44532620D02*
X-108961905Y43723096D01*
X-108914286Y43627858D01*
X-108866667Y43580239D01*
X-108771429Y43532620D01*
X-108580953Y43532620D01*
X-108485715Y43580239D01*
X-108438096Y43627858D01*
X-108390477Y43723096D01*
X-108390477Y44532620D01*
X-107438096Y44532620D02*
X-107914286Y44532620D01*
X-107961905Y44056429D01*
X-107914286Y44104048D01*
X-107819048Y44151667D01*
X-107580953Y44151667D01*
X-107485715Y44104048D01*
X-107438096Y44056429D01*
X-107390477Y43961191D01*
X-107390477Y43723096D01*
X-107438096Y43627858D01*
X-107485715Y43580239D01*
X-107580953Y43532620D01*
X-107819048Y43532620D01*
X-107914286Y43580239D01*
X-107961905Y43627858D01*
%TO.C,R23*%
X-117492858Y47722620D02*
X-117826191Y48198810D01*
X-118064286Y47722620D02*
X-118064286Y48722620D01*
X-117683334Y48722620D01*
X-117588096Y48675000D01*
X-117540477Y48627381D01*
X-117492858Y48532143D01*
X-117492858Y48389286D01*
X-117540477Y48294048D01*
X-117588096Y48246429D01*
X-117683334Y48198810D01*
X-118064286Y48198810D01*
X-117111905Y48627381D02*
X-117064286Y48675000D01*
X-116969048Y48722620D01*
X-116730953Y48722620D01*
X-116635715Y48675000D01*
X-116588096Y48627381D01*
X-116540477Y48532143D01*
X-116540477Y48436905D01*
X-116588096Y48294048D01*
X-117159524Y47722620D01*
X-116540477Y47722620D01*
X-116207143Y48722620D02*
X-115588096Y48722620D01*
X-115921429Y48341667D01*
X-115778572Y48341667D01*
X-115683334Y48294048D01*
X-115635715Y48246429D01*
X-115588096Y48151191D01*
X-115588096Y47913096D01*
X-115635715Y47817858D01*
X-115683334Y47770239D01*
X-115778572Y47722620D01*
X-116064286Y47722620D01*
X-116159524Y47770239D01*
X-116207143Y47817858D01*
%TO.C,R24*%
X-105592858Y43572620D02*
X-105926191Y44048810D01*
X-106164286Y43572620D02*
X-106164286Y44572620D01*
X-105783334Y44572620D01*
X-105688096Y44525000D01*
X-105640477Y44477381D01*
X-105592858Y44382143D01*
X-105592858Y44239286D01*
X-105640477Y44144048D01*
X-105688096Y44096429D01*
X-105783334Y44048810D01*
X-106164286Y44048810D01*
X-105211905Y44477381D02*
X-105164286Y44525000D01*
X-105069048Y44572620D01*
X-104830953Y44572620D01*
X-104735715Y44525000D01*
X-104688096Y44477381D01*
X-104640477Y44382143D01*
X-104640477Y44286905D01*
X-104688096Y44144048D01*
X-105259524Y43572620D01*
X-104640477Y43572620D01*
X-103783334Y44239286D02*
X-103783334Y43572620D01*
X-104021429Y44620239D02*
X-104259524Y43905953D01*
X-103640477Y43905953D01*
%TO.C,R20*%
X-102442858Y52142620D02*
X-102776191Y52618810D01*
X-103014286Y52142620D02*
X-103014286Y53142620D01*
X-102633334Y53142620D01*
X-102538096Y53095000D01*
X-102490477Y53047381D01*
X-102442858Y52952143D01*
X-102442858Y52809286D01*
X-102490477Y52714048D01*
X-102538096Y52666429D01*
X-102633334Y52618810D01*
X-103014286Y52618810D01*
X-102061905Y53047381D02*
X-102014286Y53095000D01*
X-101919048Y53142620D01*
X-101680953Y53142620D01*
X-101585715Y53095000D01*
X-101538096Y53047381D01*
X-101490477Y52952143D01*
X-101490477Y52856905D01*
X-101538096Y52714048D01*
X-102109524Y52142620D01*
X-101490477Y52142620D01*
X-100871429Y53142620D02*
X-100776191Y53142620D01*
X-100680953Y53095000D01*
X-100633334Y53047381D01*
X-100585715Y52952143D01*
X-100538096Y52761667D01*
X-100538096Y52523572D01*
X-100585715Y52333096D01*
X-100633334Y52237858D01*
X-100680953Y52190239D01*
X-100776191Y52142620D01*
X-100871429Y52142620D01*
X-100966667Y52190239D01*
X-101014286Y52237858D01*
X-101061905Y52333096D01*
X-101109524Y52523572D01*
X-101109524Y52761667D01*
X-101061905Y52952143D01*
X-101014286Y53047381D01*
X-100966667Y53095000D01*
X-100871429Y53142620D01*
%TO.C,Q9*%
X-104995239Y50127381D02*
X-105090477Y50175000D01*
X-105185715Y50270239D01*
X-105328572Y50413096D01*
X-105423810Y50460715D01*
X-105519048Y50460715D01*
X-105471429Y50222620D02*
X-105566667Y50270239D01*
X-105661905Y50365477D01*
X-105709524Y50555953D01*
X-105709524Y50889286D01*
X-105661905Y51079762D01*
X-105566667Y51175000D01*
X-105471429Y51222620D01*
X-105280953Y51222620D01*
X-105185715Y51175000D01*
X-105090477Y51079762D01*
X-105042858Y50889286D01*
X-105042858Y50555953D01*
X-105090477Y50365477D01*
X-105185715Y50270239D01*
X-105280953Y50222620D01*
X-105471429Y50222620D01*
X-104566667Y50222620D02*
X-104376191Y50222620D01*
X-104280953Y50270239D01*
X-104233334Y50317858D01*
X-104138096Y50460715D01*
X-104090477Y50651191D01*
X-104090477Y51032143D01*
X-104138096Y51127381D01*
X-104185715Y51175000D01*
X-104280953Y51222620D01*
X-104471429Y51222620D01*
X-104566667Y51175000D01*
X-104614286Y51127381D01*
X-104661905Y51032143D01*
X-104661905Y50794048D01*
X-104614286Y50698810D01*
X-104566667Y50651191D01*
X-104471429Y50603572D01*
X-104280953Y50603572D01*
X-104185715Y50651191D01*
X-104138096Y50698810D01*
X-104090477Y50794048D01*
%TO.C,D9*%
X-91598096Y34692620D02*
X-91598096Y35692620D01*
X-91360000Y35692620D01*
X-91217143Y35645000D01*
X-91121905Y35549762D01*
X-91074286Y35454524D01*
X-91026667Y35264048D01*
X-91026667Y35121191D01*
X-91074286Y34930715D01*
X-91121905Y34835477D01*
X-91217143Y34740239D01*
X-91360000Y34692620D01*
X-91598096Y34692620D01*
X-90550477Y34692620D02*
X-90360000Y34692620D01*
X-90264762Y34740239D01*
X-90217143Y34787858D01*
X-90121905Y34930715D01*
X-90074286Y35121191D01*
X-90074286Y35502143D01*
X-90121905Y35597381D01*
X-90169524Y35645000D01*
X-90264762Y35692620D01*
X-90455239Y35692620D01*
X-90550477Y35645000D01*
X-90598096Y35597381D01*
X-90645715Y35502143D01*
X-90645715Y35264048D01*
X-90598096Y35168810D01*
X-90550477Y35121191D01*
X-90455239Y35073572D01*
X-90264762Y35073572D01*
X-90169524Y35121191D01*
X-90121905Y35168810D01*
X-90074286Y35264048D01*
%TO.C,Q5*%
X-104895239Y64227381D02*
X-104990477Y64275000D01*
X-105085715Y64370239D01*
X-105228572Y64513096D01*
X-105323810Y64560715D01*
X-105419048Y64560715D01*
X-105371429Y64322620D02*
X-105466667Y64370239D01*
X-105561905Y64465477D01*
X-105609524Y64655953D01*
X-105609524Y64989286D01*
X-105561905Y65179762D01*
X-105466667Y65275000D01*
X-105371429Y65322620D01*
X-105180953Y65322620D01*
X-105085715Y65275000D01*
X-104990477Y65179762D01*
X-104942858Y64989286D01*
X-104942858Y64655953D01*
X-104990477Y64465477D01*
X-105085715Y64370239D01*
X-105180953Y64322620D01*
X-105371429Y64322620D01*
X-104038096Y65322620D02*
X-104514286Y65322620D01*
X-104561905Y64846429D01*
X-104514286Y64894048D01*
X-104419048Y64941667D01*
X-104180953Y64941667D01*
X-104085715Y64894048D01*
X-104038096Y64846429D01*
X-103990477Y64751191D01*
X-103990477Y64513096D01*
X-104038096Y64417858D01*
X-104085715Y64370239D01*
X-104180953Y64322620D01*
X-104419048Y64322620D01*
X-104514286Y64370239D01*
X-104561905Y64417858D01*
%TO.C,U3*%
X-108861905Y58672620D02*
X-108861905Y57863096D01*
X-108814286Y57767858D01*
X-108766667Y57720239D01*
X-108671429Y57672620D01*
X-108480953Y57672620D01*
X-108385715Y57720239D01*
X-108338096Y57767858D01*
X-108290477Y57863096D01*
X-108290477Y58672620D01*
X-107909524Y58672620D02*
X-107290477Y58672620D01*
X-107623810Y58291667D01*
X-107480953Y58291667D01*
X-107385715Y58244048D01*
X-107338096Y58196429D01*
X-107290477Y58101191D01*
X-107290477Y57863096D01*
X-107338096Y57767858D01*
X-107385715Y57720239D01*
X-107480953Y57672620D01*
X-107766667Y57672620D01*
X-107861905Y57720239D01*
X-107909524Y57767858D01*
%TO.C,R17*%
X-98507620Y61682143D02*
X-98983810Y61348810D01*
X-98507620Y61110715D02*
X-99507620Y61110715D01*
X-99507620Y61491667D01*
X-99460000Y61586905D01*
X-99412381Y61634524D01*
X-99317143Y61682143D01*
X-99174286Y61682143D01*
X-99079048Y61634524D01*
X-99031429Y61586905D01*
X-98983810Y61491667D01*
X-98983810Y61110715D01*
X-98507620Y62634524D02*
X-98507620Y62063096D01*
X-98507620Y62348810D02*
X-99507620Y62348810D01*
X-99364762Y62253572D01*
X-99269524Y62158334D01*
X-99221905Y62063096D01*
X-99507620Y62967858D02*
X-99507620Y63634524D01*
X-98507620Y63205953D01*
%TO.C,R15*%
X-117505356Y61772620D02*
X-117838689Y62248810D01*
X-118076784Y61772620D02*
X-118076784Y62772620D01*
X-117695832Y62772620D01*
X-117600594Y62725000D01*
X-117552975Y62677381D01*
X-117505356Y62582143D01*
X-117505356Y62439286D01*
X-117552975Y62344048D01*
X-117600594Y62296429D01*
X-117695832Y62248810D01*
X-118076784Y62248810D01*
X-116552975Y61772620D02*
X-117124403Y61772620D01*
X-116838689Y61772620D02*
X-116838689Y62772620D01*
X-116933927Y62629762D01*
X-117029165Y62534524D01*
X-117124403Y62486905D01*
X-115648213Y62772620D02*
X-116124403Y62772620D01*
X-116172022Y62296429D01*
X-116124403Y62344048D01*
X-116029165Y62391667D01*
X-115791070Y62391667D01*
X-115695832Y62344048D01*
X-115648213Y62296429D01*
X-115600594Y62201191D01*
X-115600594Y61963096D01*
X-115648213Y61867858D01*
X-115695832Y61820239D01*
X-115791070Y61772620D01*
X-116029165Y61772620D01*
X-116124403Y61820239D01*
X-116172022Y61867858D01*
%TO.C,R18*%
X-97207620Y61662143D02*
X-97683810Y61328810D01*
X-97207620Y61090715D02*
X-98207620Y61090715D01*
X-98207620Y61471667D01*
X-98160000Y61566905D01*
X-98112381Y61614524D01*
X-98017143Y61662143D01*
X-97874286Y61662143D01*
X-97779048Y61614524D01*
X-97731429Y61566905D01*
X-97683810Y61471667D01*
X-97683810Y61090715D01*
X-97207620Y62614524D02*
X-97207620Y62043096D01*
X-97207620Y62328810D02*
X-98207620Y62328810D01*
X-98064762Y62233572D01*
X-97969524Y62138334D01*
X-97921905Y62043096D01*
X-97779048Y63185953D02*
X-97826667Y63090715D01*
X-97874286Y63043096D01*
X-97969524Y62995477D01*
X-98017143Y62995477D01*
X-98112381Y63043096D01*
X-98160000Y63090715D01*
X-98207620Y63185953D01*
X-98207620Y63376429D01*
X-98160000Y63471667D01*
X-98112381Y63519286D01*
X-98017143Y63566905D01*
X-97969524Y63566905D01*
X-97874286Y63519286D01*
X-97826667Y63471667D01*
X-97779048Y63376429D01*
X-97779048Y63185953D01*
X-97731429Y63090715D01*
X-97683810Y63043096D01*
X-97588572Y62995477D01*
X-97398096Y62995477D01*
X-97302858Y63043096D01*
X-97255239Y63090715D01*
X-97207620Y63185953D01*
X-97207620Y63376429D01*
X-97255239Y63471667D01*
X-97302858Y63519286D01*
X-97398096Y63566905D01*
X-97588572Y63566905D01*
X-97683810Y63519286D01*
X-97731429Y63471667D01*
X-97779048Y63376429D01*
%TO.C,R16*%
X-102442858Y59122620D02*
X-102776191Y59598810D01*
X-103014286Y59122620D02*
X-103014286Y60122620D01*
X-102633334Y60122620D01*
X-102538096Y60075000D01*
X-102490477Y60027381D01*
X-102442858Y59932143D01*
X-102442858Y59789286D01*
X-102490477Y59694048D01*
X-102538096Y59646429D01*
X-102633334Y59598810D01*
X-103014286Y59598810D01*
X-101490477Y59122620D02*
X-102061905Y59122620D01*
X-101776191Y59122620D02*
X-101776191Y60122620D01*
X-101871429Y59979762D01*
X-101966667Y59884524D01*
X-102061905Y59836905D01*
X-100633334Y60122620D02*
X-100823810Y60122620D01*
X-100919048Y60075000D01*
X-100966667Y60027381D01*
X-101061905Y59884524D01*
X-101109524Y59694048D01*
X-101109524Y59313096D01*
X-101061905Y59217858D01*
X-101014286Y59170239D01*
X-100919048Y59122620D01*
X-100728572Y59122620D01*
X-100633334Y59170239D01*
X-100585715Y59217858D01*
X-100538096Y59313096D01*
X-100538096Y59551191D01*
X-100585715Y59646429D01*
X-100633334Y59694048D01*
X-100728572Y59741667D01*
X-100919048Y59741667D01*
X-101014286Y59694048D01*
X-101061905Y59646429D01*
X-101109524Y59551191D01*
%TO.C,J1*%
X-125208334Y78872620D02*
X-125208334Y78158334D01*
X-125255953Y78015477D01*
X-125351191Y77920239D01*
X-125494048Y77872620D01*
X-125589286Y77872620D01*
X-124208334Y77872620D02*
X-124779762Y77872620D01*
X-124494048Y77872620D02*
X-124494048Y78872620D01*
X-124589286Y78729762D01*
X-124684524Y78634524D01*
X-124779762Y78586905D01*
%TO.C,C1*%
X-160179667Y68792858D02*
X-160227286Y68745239D01*
X-160370143Y68697620D01*
X-160465381Y68697620D01*
X-160608239Y68745239D01*
X-160703477Y68840477D01*
X-160751096Y68935715D01*
X-160798715Y69126191D01*
X-160798715Y69269048D01*
X-160751096Y69459524D01*
X-160703477Y69554762D01*
X-160608239Y69650000D01*
X-160465381Y69697620D01*
X-160370143Y69697620D01*
X-160227286Y69650000D01*
X-160179667Y69602381D01*
X-159227286Y68697620D02*
X-159798715Y68697620D01*
X-159513000Y68697620D02*
X-159513000Y69697620D01*
X-159608239Y69554762D01*
X-159703477Y69459524D01*
X-159798715Y69411905D01*
%TO.C,R14*%
X-76742858Y50897620D02*
X-77076191Y51373810D01*
X-77314286Y50897620D02*
X-77314286Y51897620D01*
X-76933334Y51897620D01*
X-76838096Y51850000D01*
X-76790477Y51802381D01*
X-76742858Y51707143D01*
X-76742858Y51564286D01*
X-76790477Y51469048D01*
X-76838096Y51421429D01*
X-76933334Y51373810D01*
X-77314286Y51373810D01*
X-75790477Y50897620D02*
X-76361905Y50897620D01*
X-76076191Y50897620D02*
X-76076191Y51897620D01*
X-76171429Y51754762D01*
X-76266667Y51659524D01*
X-76361905Y51611905D01*
X-74933334Y51564286D02*
X-74933334Y50897620D01*
X-75171429Y51945239D02*
X-75409524Y51230953D01*
X-74790477Y51230953D01*
%TO.C,D6*%
X-164695096Y59728620D02*
X-164695096Y60728620D01*
X-164457000Y60728620D01*
X-164314143Y60681000D01*
X-164218905Y60585762D01*
X-164171286Y60490524D01*
X-164123667Y60300048D01*
X-164123667Y60157191D01*
X-164171286Y59966715D01*
X-164218905Y59871477D01*
X-164314143Y59776239D01*
X-164457000Y59728620D01*
X-164695096Y59728620D01*
X-163266524Y60728620D02*
X-163457000Y60728620D01*
X-163552239Y60681000D01*
X-163599858Y60633381D01*
X-163695096Y60490524D01*
X-163742715Y60300048D01*
X-163742715Y59919096D01*
X-163695096Y59823858D01*
X-163647477Y59776239D01*
X-163552239Y59728620D01*
X-163361762Y59728620D01*
X-163266524Y59776239D01*
X-163218905Y59823858D01*
X-163171286Y59919096D01*
X-163171286Y60157191D01*
X-163218905Y60252429D01*
X-163266524Y60300048D01*
X-163361762Y60347667D01*
X-163552239Y60347667D01*
X-163647477Y60300048D01*
X-163695096Y60252429D01*
X-163742715Y60157191D01*
%TO.C,D5*%
X-150047620Y60836905D02*
X-151047620Y60836905D01*
X-151047620Y61075000D01*
X-151000000Y61217858D01*
X-150904762Y61313096D01*
X-150809524Y61360715D01*
X-150619048Y61408334D01*
X-150476191Y61408334D01*
X-150285715Y61360715D01*
X-150190477Y61313096D01*
X-150095239Y61217858D01*
X-150047620Y61075000D01*
X-150047620Y60836905D01*
X-151047620Y62313096D02*
X-151047620Y61836905D01*
X-150571429Y61789286D01*
X-150619048Y61836905D01*
X-150666667Y61932143D01*
X-150666667Y62170239D01*
X-150619048Y62265477D01*
X-150571429Y62313096D01*
X-150476191Y62360715D01*
X-150238096Y62360715D01*
X-150142858Y62313096D01*
X-150095239Y62265477D01*
X-150047620Y62170239D01*
X-150047620Y61932143D01*
X-150095239Y61836905D01*
X-150142858Y61789286D01*
%TO.C,D2*%
X-151347620Y60836905D02*
X-152347620Y60836905D01*
X-152347620Y61075000D01*
X-152300000Y61217858D01*
X-152204762Y61313096D01*
X-152109524Y61360715D01*
X-151919048Y61408334D01*
X-151776191Y61408334D01*
X-151585715Y61360715D01*
X-151490477Y61313096D01*
X-151395239Y61217858D01*
X-151347620Y61075000D01*
X-151347620Y60836905D01*
X-152252381Y61789286D02*
X-152300000Y61836905D01*
X-152347620Y61932143D01*
X-152347620Y62170239D01*
X-152300000Y62265477D01*
X-152252381Y62313096D01*
X-152157143Y62360715D01*
X-152061905Y62360715D01*
X-151919048Y62313096D01*
X-151347620Y61741667D01*
X-151347620Y62360715D01*
%TO.C,D3*%
X-152647620Y60836905D02*
X-153647620Y60836905D01*
X-153647620Y61075000D01*
X-153600000Y61217858D01*
X-153504762Y61313096D01*
X-153409524Y61360715D01*
X-153219048Y61408334D01*
X-153076191Y61408334D01*
X-152885715Y61360715D01*
X-152790477Y61313096D01*
X-152695239Y61217858D01*
X-152647620Y61075000D01*
X-152647620Y60836905D01*
X-153647620Y61741667D02*
X-153647620Y62360715D01*
X-153266667Y62027381D01*
X-153266667Y62170239D01*
X-153219048Y62265477D01*
X-153171429Y62313096D01*
X-153076191Y62360715D01*
X-152838096Y62360715D01*
X-152742858Y62313096D01*
X-152695239Y62265477D01*
X-152647620Y62170239D01*
X-152647620Y61884524D01*
X-152695239Y61789286D01*
X-152742858Y61741667D01*
%TO.C,Q3*%
X-163759381Y55135762D02*
X-163807000Y55040524D01*
X-163902239Y54945286D01*
X-164045096Y54802429D01*
X-164092715Y54707191D01*
X-164092715Y54611953D01*
X-163854620Y54659572D02*
X-163902239Y54564334D01*
X-163997477Y54469096D01*
X-164187953Y54421477D01*
X-164521286Y54421477D01*
X-164711762Y54469096D01*
X-164807000Y54564334D01*
X-164854620Y54659572D01*
X-164854620Y54850048D01*
X-164807000Y54945286D01*
X-164711762Y55040524D01*
X-164521286Y55088143D01*
X-164187953Y55088143D01*
X-163997477Y55040524D01*
X-163902239Y54945286D01*
X-163854620Y54850048D01*
X-163854620Y54659572D01*
X-164854620Y55421477D02*
X-164854620Y56040524D01*
X-164473667Y55707191D01*
X-164473667Y55850048D01*
X-164426048Y55945286D01*
X-164378429Y55992905D01*
X-164283191Y56040524D01*
X-164045096Y56040524D01*
X-163949858Y55992905D01*
X-163902239Y55945286D01*
X-163854620Y55850048D01*
X-163854620Y55564334D01*
X-163902239Y55469096D01*
X-163949858Y55421477D01*
%TO.C,R4*%
X-162277381Y71141667D02*
X-161801191Y71475000D01*
X-162277381Y71713096D02*
X-161277381Y71713096D01*
X-161277381Y71332143D01*
X-161325000Y71236905D01*
X-161372620Y71189286D01*
X-161467858Y71141667D01*
X-161610715Y71141667D01*
X-161705953Y71189286D01*
X-161753572Y71236905D01*
X-161801191Y71332143D01*
X-161801191Y71713096D01*
X-161610715Y70284524D02*
X-162277381Y70284524D01*
X-161229762Y70522620D02*
X-161944048Y70760715D01*
X-161944048Y70141667D01*
%TO.C,D4*%
X-153947620Y60836905D02*
X-154947620Y60836905D01*
X-154947620Y61075000D01*
X-154900000Y61217858D01*
X-154804762Y61313096D01*
X-154709524Y61360715D01*
X-154519048Y61408334D01*
X-154376191Y61408334D01*
X-154185715Y61360715D01*
X-154090477Y61313096D01*
X-153995239Y61217858D01*
X-153947620Y61075000D01*
X-153947620Y60836905D01*
X-154614286Y62265477D02*
X-153947620Y62265477D01*
X-154995239Y62027381D02*
X-154280953Y61789286D01*
X-154280953Y62408334D01*
%TO.C,R3*%
X-155057381Y69554167D02*
X-154581191Y69887500D01*
X-155057381Y70125596D02*
X-154057381Y70125596D01*
X-154057381Y69744643D01*
X-154105000Y69649405D01*
X-154152620Y69601786D01*
X-154247858Y69554167D01*
X-154390715Y69554167D01*
X-154485953Y69601786D01*
X-154533572Y69649405D01*
X-154581191Y69744643D01*
X-154581191Y70125596D01*
X-154057381Y69220834D02*
X-154057381Y68601786D01*
X-154438334Y68935120D01*
X-154438334Y68792262D01*
X-154485953Y68697024D01*
X-154533572Y68649405D01*
X-154628810Y68601786D01*
X-154866905Y68601786D01*
X-154962143Y68649405D01*
X-155009762Y68697024D01*
X-155057381Y68792262D01*
X-155057381Y69077977D01*
X-155009762Y69173215D01*
X-154962143Y69220834D01*
%TO.C,U1*%
X-108961905Y37942620D02*
X-108961905Y37133096D01*
X-108914286Y37037858D01*
X-108866667Y36990239D01*
X-108771429Y36942620D01*
X-108580953Y36942620D01*
X-108485715Y36990239D01*
X-108438096Y37037858D01*
X-108390477Y37133096D01*
X-108390477Y37942620D01*
X-107390477Y36942620D02*
X-107961905Y36942620D01*
X-107676191Y36942620D02*
X-107676191Y37942620D01*
X-107771429Y37799762D01*
X-107866667Y37704524D01*
X-107961905Y37656905D01*
%TO.C,RV1*%
X-168145239Y46222620D02*
X-168478572Y46698810D01*
X-168716667Y46222620D02*
X-168716667Y47222620D01*
X-168335715Y47222620D01*
X-168240477Y47175000D01*
X-168192858Y47127381D01*
X-168145239Y47032143D01*
X-168145239Y46889286D01*
X-168192858Y46794048D01*
X-168240477Y46746429D01*
X-168335715Y46698810D01*
X-168716667Y46698810D01*
X-167859524Y47222620D02*
X-167526191Y46222620D01*
X-167192858Y47222620D01*
X-166335715Y46222620D02*
X-166907143Y46222620D01*
X-166621429Y46222620D02*
X-166621429Y47222620D01*
X-166716667Y47079762D01*
X-166811905Y46984524D01*
X-166907143Y46936905D01*
%TO.C,R7*%
X-158266667Y59947620D02*
X-158600000Y60423810D01*
X-158838096Y59947620D02*
X-158838096Y60947620D01*
X-158457143Y60947620D01*
X-158361905Y60900000D01*
X-158314286Y60852381D01*
X-158266667Y60757143D01*
X-158266667Y60614286D01*
X-158314286Y60519048D01*
X-158361905Y60471429D01*
X-158457143Y60423810D01*
X-158838096Y60423810D01*
X-157933334Y60947620D02*
X-157266667Y60947620D01*
X-157695239Y59947620D01*
%TO.C,C4*%
X-102842858Y39308334D02*
X-102795239Y39260715D01*
X-102747620Y39117858D01*
X-102747620Y39022620D01*
X-102795239Y38879762D01*
X-102890477Y38784524D01*
X-102985715Y38736905D01*
X-103176191Y38689286D01*
X-103319048Y38689286D01*
X-103509524Y38736905D01*
X-103604762Y38784524D01*
X-103700000Y38879762D01*
X-103747620Y39022620D01*
X-103747620Y39117858D01*
X-103700000Y39260715D01*
X-103652381Y39308334D01*
X-103414286Y40165477D02*
X-102747620Y40165477D01*
X-103795239Y39927381D02*
X-103080953Y39689286D01*
X-103080953Y40308334D01*
%TO.C,Q4*%
X-119652381Y68829762D02*
X-119700000Y68734524D01*
X-119795239Y68639286D01*
X-119938096Y68496429D01*
X-119985715Y68401191D01*
X-119985715Y68305953D01*
X-119747620Y68353572D02*
X-119795239Y68258334D01*
X-119890477Y68163096D01*
X-120080953Y68115477D01*
X-120414286Y68115477D01*
X-120604762Y68163096D01*
X-120700000Y68258334D01*
X-120747620Y68353572D01*
X-120747620Y68544048D01*
X-120700000Y68639286D01*
X-120604762Y68734524D01*
X-120414286Y68782143D01*
X-120080953Y68782143D01*
X-119890477Y68734524D01*
X-119795239Y68639286D01*
X-119747620Y68544048D01*
X-119747620Y68353572D01*
X-120414286Y69639286D02*
X-119747620Y69639286D01*
X-120795239Y69401191D02*
X-120080953Y69163096D01*
X-120080953Y69782143D01*
%TO.C,C2*%
X-153842858Y55958334D02*
X-153795239Y55910715D01*
X-153747620Y55767858D01*
X-153747620Y55672620D01*
X-153795239Y55529762D01*
X-153890477Y55434524D01*
X-153985715Y55386905D01*
X-154176191Y55339286D01*
X-154319048Y55339286D01*
X-154509524Y55386905D01*
X-154604762Y55434524D01*
X-154700000Y55529762D01*
X-154747620Y55672620D01*
X-154747620Y55767858D01*
X-154700000Y55910715D01*
X-154652381Y55958334D01*
X-154652381Y56339286D02*
X-154700000Y56386905D01*
X-154747620Y56482143D01*
X-154747620Y56720239D01*
X-154700000Y56815477D01*
X-154652381Y56863096D01*
X-154557143Y56910715D01*
X-154461905Y56910715D01*
X-154319048Y56863096D01*
X-153747620Y56291667D01*
X-153747620Y56910715D01*
%TO.C,R12*%
X-118004858Y42817620D02*
X-118338191Y43293810D01*
X-118576286Y42817620D02*
X-118576286Y43817620D01*
X-118195334Y43817620D01*
X-118100096Y43770000D01*
X-118052477Y43722381D01*
X-118004858Y43627143D01*
X-118004858Y43484286D01*
X-118052477Y43389048D01*
X-118100096Y43341429D01*
X-118195334Y43293810D01*
X-118576286Y43293810D01*
X-117052477Y42817620D02*
X-117623905Y42817620D01*
X-117338191Y42817620D02*
X-117338191Y43817620D01*
X-117433429Y43674762D01*
X-117528667Y43579524D01*
X-117623905Y43531905D01*
X-116671524Y43722381D02*
X-116623905Y43770000D01*
X-116528667Y43817620D01*
X-116290572Y43817620D01*
X-116195334Y43770000D01*
X-116147715Y43722381D01*
X-116100096Y43627143D01*
X-116100096Y43531905D01*
X-116147715Y43389048D01*
X-116719143Y42817620D01*
X-116100096Y42817620D01*
%TO.C,D1*%
X-98338096Y82297620D02*
X-98338096Y83297620D01*
X-98100000Y83297620D01*
X-97957143Y83250000D01*
X-97861905Y83154762D01*
X-97814286Y83059524D01*
X-97766667Y82869048D01*
X-97766667Y82726191D01*
X-97814286Y82535715D01*
X-97861905Y82440477D01*
X-97957143Y82345239D01*
X-98100000Y82297620D01*
X-98338096Y82297620D01*
X-96814286Y82297620D02*
X-97385715Y82297620D01*
X-97100000Y82297620D02*
X-97100000Y83297620D01*
X-97195239Y83154762D01*
X-97290477Y83059524D01*
X-97385715Y83011905D01*
%TO.C,R10*%
X-102067858Y87247620D02*
X-102401191Y87723810D01*
X-102639286Y87247620D02*
X-102639286Y88247620D01*
X-102258334Y88247620D01*
X-102163096Y88200000D01*
X-102115477Y88152381D01*
X-102067858Y88057143D01*
X-102067858Y87914286D01*
X-102115477Y87819048D01*
X-102163096Y87771429D01*
X-102258334Y87723810D01*
X-102639286Y87723810D01*
X-101115477Y87247620D02*
X-101686905Y87247620D01*
X-101401191Y87247620D02*
X-101401191Y88247620D01*
X-101496429Y88104762D01*
X-101591667Y88009524D01*
X-101686905Y87961905D01*
X-100496429Y88247620D02*
X-100401191Y88247620D01*
X-100305953Y88200000D01*
X-100258334Y88152381D01*
X-100210715Y88057143D01*
X-100163096Y87866667D01*
X-100163096Y87628572D01*
X-100210715Y87438096D01*
X-100258334Y87342858D01*
X-100305953Y87295239D01*
X-100401191Y87247620D01*
X-100496429Y87247620D01*
X-100591667Y87295239D01*
X-100639286Y87342858D01*
X-100686905Y87438096D01*
X-100734524Y87628572D01*
X-100734524Y87866667D01*
X-100686905Y88057143D01*
X-100639286Y88152381D01*
X-100591667Y88200000D01*
X-100496429Y88247620D01*
%TO.C,R2*%
X-91602620Y82563334D02*
X-92078810Y82230000D01*
X-91602620Y81991905D02*
X-92602620Y81991905D01*
X-92602620Y82372858D01*
X-92555000Y82468096D01*
X-92507381Y82515715D01*
X-92412143Y82563334D01*
X-92269286Y82563334D01*
X-92174048Y82515715D01*
X-92126429Y82468096D01*
X-92078810Y82372858D01*
X-92078810Y81991905D01*
X-92507381Y82944286D02*
X-92555000Y82991905D01*
X-92602620Y83087143D01*
X-92602620Y83325239D01*
X-92555000Y83420477D01*
X-92507381Y83468096D01*
X-92412143Y83515715D01*
X-92316905Y83515715D01*
X-92174048Y83468096D01*
X-91602620Y82896667D01*
X-91602620Y83515715D01*
%TO.C,R30*%
X-76767858Y52547620D02*
X-77101191Y53023810D01*
X-77339286Y52547620D02*
X-77339286Y53547620D01*
X-76958334Y53547620D01*
X-76863096Y53500000D01*
X-76815477Y53452381D01*
X-76767858Y53357143D01*
X-76767858Y53214286D01*
X-76815477Y53119048D01*
X-76863096Y53071429D01*
X-76958334Y53023810D01*
X-77339286Y53023810D01*
X-76434524Y53547620D02*
X-75815477Y53547620D01*
X-76148810Y53166667D01*
X-76005953Y53166667D01*
X-75910715Y53119048D01*
X-75863096Y53071429D01*
X-75815477Y52976191D01*
X-75815477Y52738096D01*
X-75863096Y52642858D01*
X-75910715Y52595239D01*
X-76005953Y52547620D01*
X-76291667Y52547620D01*
X-76386905Y52595239D01*
X-76434524Y52642858D01*
X-75196429Y53547620D02*
X-75101191Y53547620D01*
X-75005953Y53500000D01*
X-74958334Y53452381D01*
X-74910715Y53357143D01*
X-74863096Y53166667D01*
X-74863096Y52928572D01*
X-74910715Y52738096D01*
X-74958334Y52642858D01*
X-75005953Y52595239D01*
X-75101191Y52547620D01*
X-75196429Y52547620D01*
X-75291667Y52595239D01*
X-75339286Y52642858D01*
X-75386905Y52738096D01*
X-75434524Y52928572D01*
X-75434524Y53166667D01*
X-75386905Y53357143D01*
X-75339286Y53452381D01*
X-75291667Y53500000D01*
X-75196429Y53547620D01*
%TO.C,PS1*%
X-155797620Y42860715D02*
X-156797620Y42860715D01*
X-156797620Y43241667D01*
X-156750000Y43336905D01*
X-156702381Y43384524D01*
X-156607143Y43432143D01*
X-156464286Y43432143D01*
X-156369048Y43384524D01*
X-156321429Y43336905D01*
X-156273810Y43241667D01*
X-156273810Y42860715D01*
X-155845239Y43813096D02*
X-155797620Y43955953D01*
X-155797620Y44194048D01*
X-155845239Y44289286D01*
X-155892858Y44336905D01*
X-155988096Y44384524D01*
X-156083334Y44384524D01*
X-156178572Y44336905D01*
X-156226191Y44289286D01*
X-156273810Y44194048D01*
X-156321429Y44003572D01*
X-156369048Y43908334D01*
X-156416667Y43860715D01*
X-156511905Y43813096D01*
X-156607143Y43813096D01*
X-156702381Y43860715D01*
X-156750000Y43908334D01*
X-156797620Y44003572D01*
X-156797620Y44241667D01*
X-156750000Y44384524D01*
X-155797620Y45336905D02*
X-155797620Y44765477D01*
X-155797620Y45051191D02*
X-156797620Y45051191D01*
X-156654762Y44955953D01*
X-156559524Y44860715D01*
X-156511905Y44765477D01*
%TO.C,Q1*%
X-94870239Y82027381D02*
X-94965477Y82075000D01*
X-95060715Y82170239D01*
X-95203572Y82313096D01*
X-95298810Y82360715D01*
X-95394048Y82360715D01*
X-95346429Y82122620D02*
X-95441667Y82170239D01*
X-95536905Y82265477D01*
X-95584524Y82455953D01*
X-95584524Y82789286D01*
X-95536905Y82979762D01*
X-95441667Y83075000D01*
X-95346429Y83122620D01*
X-95155953Y83122620D01*
X-95060715Y83075000D01*
X-94965477Y82979762D01*
X-94917858Y82789286D01*
X-94917858Y82455953D01*
X-94965477Y82265477D01*
X-95060715Y82170239D01*
X-95155953Y82122620D01*
X-95346429Y82122620D01*
X-93965477Y82122620D02*
X-94536905Y82122620D01*
X-94251191Y82122620D02*
X-94251191Y83122620D01*
X-94346429Y82979762D01*
X-94441667Y82884524D01*
X-94536905Y82836905D01*
%TO.C,Q2*%
X-94895239Y73187381D02*
X-94990477Y73235000D01*
X-95085715Y73330239D01*
X-95228572Y73473096D01*
X-95323810Y73520715D01*
X-95419048Y73520715D01*
X-95371429Y73282620D02*
X-95466667Y73330239D01*
X-95561905Y73425477D01*
X-95609524Y73615953D01*
X-95609524Y73949286D01*
X-95561905Y74139762D01*
X-95466667Y74235000D01*
X-95371429Y74282620D01*
X-95180953Y74282620D01*
X-95085715Y74235000D01*
X-94990477Y74139762D01*
X-94942858Y73949286D01*
X-94942858Y73615953D01*
X-94990477Y73425477D01*
X-95085715Y73330239D01*
X-95180953Y73282620D01*
X-95371429Y73282620D01*
X-94561905Y74187381D02*
X-94514286Y74235000D01*
X-94419048Y74282620D01*
X-94180953Y74282620D01*
X-94085715Y74235000D01*
X-94038096Y74187381D01*
X-93990477Y74092143D01*
X-93990477Y73996905D01*
X-94038096Y73854048D01*
X-94609524Y73282620D01*
X-93990477Y73282620D01*
%TO.C,R1*%
X-90052620Y82568334D02*
X-90528810Y82235000D01*
X-90052620Y81996905D02*
X-91052620Y81996905D01*
X-91052620Y82377858D01*
X-91005000Y82473096D01*
X-90957381Y82520715D01*
X-90862143Y82568334D01*
X-90719286Y82568334D01*
X-90624048Y82520715D01*
X-90576429Y82473096D01*
X-90528810Y82377858D01*
X-90528810Y81996905D01*
X-90052620Y83520715D02*
X-90052620Y82949286D01*
X-90052620Y83235000D02*
X-91052620Y83235000D01*
X-90909762Y83139762D01*
X-90814524Y83044524D01*
X-90766905Y82949286D01*
%TO.C,R6*%
X-90097620Y73608334D02*
X-90573810Y73275000D01*
X-90097620Y73036905D02*
X-91097620Y73036905D01*
X-91097620Y73417858D01*
X-91050000Y73513096D01*
X-91002381Y73560715D01*
X-90907143Y73608334D01*
X-90764286Y73608334D01*
X-90669048Y73560715D01*
X-90621429Y73513096D01*
X-90573810Y73417858D01*
X-90573810Y73036905D01*
X-91097620Y74465477D02*
X-91097620Y74275000D01*
X-91050000Y74179762D01*
X-91002381Y74132143D01*
X-90859524Y74036905D01*
X-90669048Y73989286D01*
X-90288096Y73989286D01*
X-90192858Y74036905D01*
X-90145239Y74084524D01*
X-90097620Y74179762D01*
X-90097620Y74370239D01*
X-90145239Y74465477D01*
X-90192858Y74513096D01*
X-90288096Y74560715D01*
X-90526191Y74560715D01*
X-90621429Y74513096D01*
X-90669048Y74465477D01*
X-90716667Y74370239D01*
X-90716667Y74179762D01*
X-90669048Y74084524D01*
X-90621429Y74036905D01*
X-90526191Y73989286D01*
%TO.C,R29*%
X-118447620Y75332143D02*
X-118923810Y74998810D01*
X-118447620Y74760715D02*
X-119447620Y74760715D01*
X-119447620Y75141667D01*
X-119400000Y75236905D01*
X-119352381Y75284524D01*
X-119257143Y75332143D01*
X-119114286Y75332143D01*
X-119019048Y75284524D01*
X-118971429Y75236905D01*
X-118923810Y75141667D01*
X-118923810Y74760715D01*
X-119352381Y75713096D02*
X-119400000Y75760715D01*
X-119447620Y75855953D01*
X-119447620Y76094048D01*
X-119400000Y76189286D01*
X-119352381Y76236905D01*
X-119257143Y76284524D01*
X-119161905Y76284524D01*
X-119019048Y76236905D01*
X-118447620Y75665477D01*
X-118447620Y76284524D01*
X-118447620Y76760715D02*
X-118447620Y76951191D01*
X-118495239Y77046429D01*
X-118542858Y77094048D01*
X-118685715Y77189286D01*
X-118876191Y77236905D01*
X-119257143Y77236905D01*
X-119352381Y77189286D01*
X-119400000Y77141667D01*
X-119447620Y77046429D01*
X-119447620Y76855953D01*
X-119400000Y76760715D01*
X-119352381Y76713096D01*
X-119257143Y76665477D01*
X-119019048Y76665477D01*
X-118923810Y76713096D01*
X-118876191Y76760715D01*
X-118828572Y76855953D01*
X-118828572Y77046429D01*
X-118876191Y77141667D01*
X-118923810Y77189286D01*
X-119019048Y77236905D01*
%TO.C,U6*%
X-117422620Y81563096D02*
X-116613096Y81563096D01*
X-116517858Y81610715D01*
X-116470239Y81658334D01*
X-116422620Y81753572D01*
X-116422620Y81944048D01*
X-116470239Y82039286D01*
X-116517858Y82086905D01*
X-116613096Y82134524D01*
X-117422620Y82134524D01*
X-117422620Y83039286D02*
X-117422620Y82848810D01*
X-117375000Y82753572D01*
X-117327381Y82705953D01*
X-117184524Y82610715D01*
X-116994048Y82563096D01*
X-116613096Y82563096D01*
X-116517858Y82610715D01*
X-116470239Y82658334D01*
X-116422620Y82753572D01*
X-116422620Y82944048D01*
X-116470239Y83039286D01*
X-116517858Y83086905D01*
X-116613096Y83134524D01*
X-116851191Y83134524D01*
X-116946429Y83086905D01*
X-116994048Y83039286D01*
X-117041667Y82944048D01*
X-117041667Y82753572D01*
X-116994048Y82658334D01*
X-116946429Y82610715D01*
X-116851191Y82563096D01*
%TO.C,F1*%
X-167333334Y80796429D02*
X-167666667Y80796429D01*
X-167666667Y80272620D02*
X-167666667Y81272620D01*
X-167190477Y81272620D01*
X-166285715Y80272620D02*
X-166857143Y80272620D01*
X-166571429Y80272620D02*
X-166571429Y81272620D01*
X-166666667Y81129762D01*
X-166761905Y81034524D01*
X-166857143Y80986905D01*
%TO.C,R11*%
X-100477620Y75607143D02*
X-100953810Y75273810D01*
X-100477620Y75035715D02*
X-101477620Y75035715D01*
X-101477620Y75416667D01*
X-101430000Y75511905D01*
X-101382381Y75559524D01*
X-101287143Y75607143D01*
X-101144286Y75607143D01*
X-101049048Y75559524D01*
X-101001429Y75511905D01*
X-100953810Y75416667D01*
X-100953810Y75035715D01*
X-100477620Y76559524D02*
X-100477620Y75988096D01*
X-100477620Y76273810D02*
X-101477620Y76273810D01*
X-101334762Y76178572D01*
X-101239524Y76083334D01*
X-101191905Y75988096D01*
X-100477620Y77511905D02*
X-100477620Y76940477D01*
X-100477620Y77226191D02*
X-101477620Y77226191D01*
X-101334762Y77130953D01*
X-101239524Y77035715D01*
X-101191905Y76940477D01*
%TO.C,D7*%
X-98378096Y73212620D02*
X-98378096Y74212620D01*
X-98140000Y74212620D01*
X-97997143Y74165000D01*
X-97901905Y74069762D01*
X-97854286Y73974524D01*
X-97806667Y73784048D01*
X-97806667Y73641191D01*
X-97854286Y73450715D01*
X-97901905Y73355477D01*
X-97997143Y73260239D01*
X-98140000Y73212620D01*
X-98378096Y73212620D01*
X-97473334Y74212620D02*
X-96806667Y74212620D01*
X-97235239Y73212620D01*
%TO.C,R28*%
X-79522620Y55082143D02*
X-79998810Y54748810D01*
X-79522620Y54510715D02*
X-80522620Y54510715D01*
X-80522620Y54891667D01*
X-80475000Y54986905D01*
X-80427381Y55034524D01*
X-80332143Y55082143D01*
X-80189286Y55082143D01*
X-80094048Y55034524D01*
X-80046429Y54986905D01*
X-79998810Y54891667D01*
X-79998810Y54510715D01*
X-80427381Y55463096D02*
X-80475000Y55510715D01*
X-80522620Y55605953D01*
X-80522620Y55844048D01*
X-80475000Y55939286D01*
X-80427381Y55986905D01*
X-80332143Y56034524D01*
X-80236905Y56034524D01*
X-80094048Y55986905D01*
X-79522620Y55415477D01*
X-79522620Y56034524D01*
X-80094048Y56605953D02*
X-80141667Y56510715D01*
X-80189286Y56463096D01*
X-80284524Y56415477D01*
X-80332143Y56415477D01*
X-80427381Y56463096D01*
X-80475000Y56510715D01*
X-80522620Y56605953D01*
X-80522620Y56796429D01*
X-80475000Y56891667D01*
X-80427381Y56939286D01*
X-80332143Y56986905D01*
X-80284524Y56986905D01*
X-80189286Y56939286D01*
X-80141667Y56891667D01*
X-80094048Y56796429D01*
X-80094048Y56605953D01*
X-80046429Y56510715D01*
X-79998810Y56463096D01*
X-79903572Y56415477D01*
X-79713096Y56415477D01*
X-79617858Y56463096D01*
X-79570239Y56510715D01*
X-79522620Y56605953D01*
X-79522620Y56796429D01*
X-79570239Y56891667D01*
X-79617858Y56939286D01*
X-79713096Y56986905D01*
X-79903572Y56986905D01*
X-79998810Y56939286D01*
X-80046429Y56891667D01*
X-80094048Y56796429D01*
%TO.C,R5*%
X-100472620Y79948334D02*
X-100948810Y79615000D01*
X-100472620Y79376905D02*
X-101472620Y79376905D01*
X-101472620Y79757858D01*
X-101425000Y79853096D01*
X-101377381Y79900715D01*
X-101282143Y79948334D01*
X-101139286Y79948334D01*
X-101044048Y79900715D01*
X-100996429Y79853096D01*
X-100948810Y79757858D01*
X-100948810Y79376905D01*
X-101472620Y80853096D02*
X-101472620Y80376905D01*
X-100996429Y80329286D01*
X-101044048Y80376905D01*
X-101091667Y80472143D01*
X-101091667Y80710239D01*
X-101044048Y80805477D01*
X-100996429Y80853096D01*
X-100901191Y80900715D01*
X-100663096Y80900715D01*
X-100567858Y80853096D01*
X-100520239Y80805477D01*
X-100472620Y80710239D01*
X-100472620Y80472143D01*
X-100520239Y80376905D01*
X-100567858Y80329286D01*
%TO.C,R9*%
X-100491667Y82572620D02*
X-100825000Y83048810D01*
X-101063096Y82572620D02*
X-101063096Y83572620D01*
X-100682143Y83572620D01*
X-100586905Y83525000D01*
X-100539286Y83477381D01*
X-100491667Y83382143D01*
X-100491667Y83239286D01*
X-100539286Y83144048D01*
X-100586905Y83096429D01*
X-100682143Y83048810D01*
X-101063096Y83048810D01*
X-100015477Y82572620D02*
X-99825000Y82572620D01*
X-99729762Y82620239D01*
X-99682143Y82667858D01*
X-99586905Y82810715D01*
X-99539286Y83001191D01*
X-99539286Y83382143D01*
X-99586905Y83477381D01*
X-99634524Y83525000D01*
X-99729762Y83572620D01*
X-99920239Y83572620D01*
X-100015477Y83525000D01*
X-100063096Y83477381D01*
X-100110715Y83382143D01*
X-100110715Y83144048D01*
X-100063096Y83048810D01*
X-100015477Y83001191D01*
X-99920239Y82953572D01*
X-99729762Y82953572D01*
X-99634524Y83001191D01*
X-99586905Y83048810D01*
X-99539286Y83144048D01*
%TO.C,C6*%
X-103437858Y82533334D02*
X-103390239Y82485715D01*
X-103342620Y82342858D01*
X-103342620Y82247620D01*
X-103390239Y82104762D01*
X-103485477Y82009524D01*
X-103580715Y81961905D01*
X-103771191Y81914286D01*
X-103914048Y81914286D01*
X-104104524Y81961905D01*
X-104199762Y82009524D01*
X-104295000Y82104762D01*
X-104342620Y82247620D01*
X-104342620Y82342858D01*
X-104295000Y82485715D01*
X-104247381Y82533334D01*
X-104342620Y83390477D02*
X-104342620Y83200000D01*
X-104295000Y83104762D01*
X-104247381Y83057143D01*
X-104104524Y82961905D01*
X-103914048Y82914286D01*
X-103533096Y82914286D01*
X-103437858Y82961905D01*
X-103390239Y83009524D01*
X-103342620Y83104762D01*
X-103342620Y83295239D01*
X-103390239Y83390477D01*
X-103437858Y83438096D01*
X-103533096Y83485715D01*
X-103771191Y83485715D01*
X-103866429Y83438096D01*
X-103914048Y83390477D01*
X-103961667Y83295239D01*
X-103961667Y83104762D01*
X-103914048Y83009524D01*
X-103866429Y82961905D01*
X-103771191Y82914286D01*
%TO.C,R13*%
X-74142858Y78797620D02*
X-74476191Y79273810D01*
X-74714286Y78797620D02*
X-74714286Y79797620D01*
X-74333334Y79797620D01*
X-74238096Y79750000D01*
X-74190477Y79702381D01*
X-74142858Y79607143D01*
X-74142858Y79464286D01*
X-74190477Y79369048D01*
X-74238096Y79321429D01*
X-74333334Y79273810D01*
X-74714286Y79273810D01*
X-73190477Y78797620D02*
X-73761905Y78797620D01*
X-73476191Y78797620D02*
X-73476191Y79797620D01*
X-73571429Y79654762D01*
X-73666667Y79559524D01*
X-73761905Y79511905D01*
X-72857143Y79797620D02*
X-72238096Y79797620D01*
X-72571429Y79416667D01*
X-72428572Y79416667D01*
X-72333334Y79369048D01*
X-72285715Y79321429D01*
X-72238096Y79226191D01*
X-72238096Y78988096D01*
X-72285715Y78892858D01*
X-72333334Y78845239D01*
X-72428572Y78797620D01*
X-72714286Y78797620D01*
X-72809524Y78845239D01*
X-72857143Y78892858D01*
%TO.C,U7*%
X-117322620Y70363096D02*
X-116513096Y70363096D01*
X-116417858Y70410715D01*
X-116370239Y70458334D01*
X-116322620Y70553572D01*
X-116322620Y70744048D01*
X-116370239Y70839286D01*
X-116417858Y70886905D01*
X-116513096Y70934524D01*
X-117322620Y70934524D01*
X-117322620Y71315477D02*
X-117322620Y71982143D01*
X-116322620Y71553572D01*
%TO.C,R8*%
X-91547620Y73608334D02*
X-92023810Y73275000D01*
X-91547620Y73036905D02*
X-92547620Y73036905D01*
X-92547620Y73417858D01*
X-92500000Y73513096D01*
X-92452381Y73560715D01*
X-92357143Y73608334D01*
X-92214286Y73608334D01*
X-92119048Y73560715D01*
X-92071429Y73513096D01*
X-92023810Y73417858D01*
X-92023810Y73036905D01*
X-92119048Y74179762D02*
X-92166667Y74084524D01*
X-92214286Y74036905D01*
X-92309524Y73989286D01*
X-92357143Y73989286D01*
X-92452381Y74036905D01*
X-92500000Y74084524D01*
X-92547620Y74179762D01*
X-92547620Y74370239D01*
X-92500000Y74465477D01*
X-92452381Y74513096D01*
X-92357143Y74560715D01*
X-92309524Y74560715D01*
X-92214286Y74513096D01*
X-92166667Y74465477D01*
X-92119048Y74370239D01*
X-92119048Y74179762D01*
X-92071429Y74084524D01*
X-92023810Y74036905D01*
X-91928572Y73989286D01*
X-91738096Y73989286D01*
X-91642858Y74036905D01*
X-91595239Y74084524D01*
X-91547620Y74179762D01*
X-91547620Y74370239D01*
X-91595239Y74465477D01*
X-91642858Y74513096D01*
X-91738096Y74560715D01*
X-91928572Y74560715D01*
X-92023810Y74513096D01*
X-92071429Y74465477D01*
X-92119048Y74370239D01*
%TO.C,C7*%
X-104716667Y73497858D02*
X-104764286Y73450239D01*
X-104907143Y73402620D01*
X-105002381Y73402620D01*
X-105145239Y73450239D01*
X-105240477Y73545477D01*
X-105288096Y73640715D01*
X-105335715Y73831191D01*
X-105335715Y73974048D01*
X-105288096Y74164524D01*
X-105240477Y74259762D01*
X-105145239Y74355000D01*
X-105002381Y74402620D01*
X-104907143Y74402620D01*
X-104764286Y74355000D01*
X-104716667Y74307381D01*
X-104383334Y74402620D02*
X-103716667Y74402620D01*
X-104145239Y73402620D01*
%TO.C,C3*%
X-85554167Y85885358D02*
X-85601786Y85837739D01*
X-85744643Y85790120D01*
X-85839881Y85790120D01*
X-85982739Y85837739D01*
X-86077977Y85932977D01*
X-86125596Y86028215D01*
X-86173215Y86218691D01*
X-86173215Y86361548D01*
X-86125596Y86552024D01*
X-86077977Y86647262D01*
X-85982739Y86742500D01*
X-85839881Y86790120D01*
X-85744643Y86790120D01*
X-85601786Y86742500D01*
X-85554167Y86694881D01*
X-85220834Y86790120D02*
X-84601786Y86790120D01*
X-84935120Y86409167D01*
X-84792262Y86409167D01*
X-84697024Y86361548D01*
X-84649405Y86313929D01*
X-84601786Y86218691D01*
X-84601786Y85980596D01*
X-84649405Y85885358D01*
X-84697024Y85837739D01*
X-84792262Y85790120D01*
X-85077977Y85790120D01*
X-85173215Y85837739D01*
X-85220834Y85885358D01*
%TO.C,C5*%
X-79366667Y75242858D02*
X-79414286Y75195239D01*
X-79557143Y75147620D01*
X-79652381Y75147620D01*
X-79795239Y75195239D01*
X-79890477Y75290477D01*
X-79938096Y75385715D01*
X-79985715Y75576191D01*
X-79985715Y75719048D01*
X-79938096Y75909524D01*
X-79890477Y76004762D01*
X-79795239Y76100000D01*
X-79652381Y76147620D01*
X-79557143Y76147620D01*
X-79414286Y76100000D01*
X-79366667Y76052381D01*
X-78461905Y76147620D02*
X-78938096Y76147620D01*
X-78985715Y75671429D01*
X-78938096Y75719048D01*
X-78842858Y75766667D01*
X-78604762Y75766667D01*
X-78509524Y75719048D01*
X-78461905Y75671429D01*
X-78414286Y75576191D01*
X-78414286Y75338096D01*
X-78461905Y75242858D01*
X-78509524Y75195239D01*
X-78604762Y75147620D01*
X-78842858Y75147620D01*
X-78938096Y75195239D01*
X-78985715Y75242858D01*
%TO.C,D8*%
X-74238096Y73422620D02*
X-74238096Y74422620D01*
X-74000000Y74422620D01*
X-73857143Y74375000D01*
X-73761905Y74279762D01*
X-73714286Y74184524D01*
X-73666667Y73994048D01*
X-73666667Y73851191D01*
X-73714286Y73660715D01*
X-73761905Y73565477D01*
X-73857143Y73470239D01*
X-74000000Y73422620D01*
X-74238096Y73422620D01*
X-73095239Y73994048D02*
X-73190477Y74041667D01*
X-73238096Y74089286D01*
X-73285715Y74184524D01*
X-73285715Y74232143D01*
X-73238096Y74327381D01*
X-73190477Y74375000D01*
X-73095239Y74422620D01*
X-72904762Y74422620D01*
X-72809524Y74375000D01*
X-72761905Y74327381D01*
X-72714286Y74232143D01*
X-72714286Y74184524D01*
X-72761905Y74089286D01*
X-72809524Y74041667D01*
X-72904762Y73994048D01*
X-73095239Y73994048D01*
X-73190477Y73946429D01*
X-73238096Y73898810D01*
X-73285715Y73803572D01*
X-73285715Y73613096D01*
X-73238096Y73517858D01*
X-73190477Y73470239D01*
X-73095239Y73422620D01*
X-72904762Y73422620D01*
X-72809524Y73470239D01*
X-72761905Y73517858D01*
X-72714286Y73613096D01*
X-72714286Y73803572D01*
X-72761905Y73898810D01*
X-72809524Y73946429D01*
X-72904762Y73994048D01*
%TO.C,R27*%
X-118067858Y87122620D02*
X-118401191Y87598810D01*
X-118639286Y87122620D02*
X-118639286Y88122620D01*
X-118258334Y88122620D01*
X-118163096Y88075000D01*
X-118115477Y88027381D01*
X-118067858Y87932143D01*
X-118067858Y87789286D01*
X-118115477Y87694048D01*
X-118163096Y87646429D01*
X-118258334Y87598810D01*
X-118639286Y87598810D01*
X-117686905Y88027381D02*
X-117639286Y88075000D01*
X-117544048Y88122620D01*
X-117305953Y88122620D01*
X-117210715Y88075000D01*
X-117163096Y88027381D01*
X-117115477Y87932143D01*
X-117115477Y87836905D01*
X-117163096Y87694048D01*
X-117734524Y87122620D01*
X-117115477Y87122620D01*
X-116782143Y88122620D02*
X-116115477Y88122620D01*
X-116544048Y87122620D01*
D12*
%TO.C,J2*%
X-90490000Y85515000D02*
X-90490000Y84300000D01*
X-90550000Y89475000D02*
X-90550000Y91735000D01*
X-91050000Y89475000D02*
X-91050000Y91735000D01*
X-95650000Y87875000D02*
X-96650000Y87875000D01*
X-95650000Y89475000D02*
X-95650000Y87875000D01*
X-96650000Y89475000D02*
X-95650000Y89475000D01*
X-96650000Y87875000D02*
X-96650000Y89475000D01*
X-91050000Y87875000D02*
X-90050000Y87875000D01*
X-91050000Y89475000D02*
X-91050000Y87875000D01*
X-90050000Y89475000D02*
X-91050000Y89475000D01*
X-90050000Y87875000D02*
X-90050000Y89475000D01*
X-97410000Y85515000D02*
X-96490000Y85515000D01*
X-89290000Y85515000D02*
X-90210000Y85515000D01*
X-94850000Y87375000D02*
X-94850000Y91735000D01*
X-91850000Y87375000D02*
X-94850000Y87375000D01*
X-91850000Y91735000D02*
X-91850000Y87375000D01*
X-96490000Y85515000D02*
X-96210000Y85515000D01*
X-96490000Y83915000D02*
X-96490000Y85515000D01*
X-97410000Y83915000D02*
X-96490000Y83915000D01*
X-97410000Y91735000D02*
X-97410000Y83915000D01*
X-89290000Y91735000D02*
X-97410000Y91735000D01*
X-89290000Y83915000D02*
X-89290000Y91735000D01*
X-90210000Y83915000D02*
X-89290000Y83915000D01*
X-90210000Y85515000D02*
X-90210000Y83915000D01*
X-90490000Y85515000D02*
X-90210000Y85515000D01*
%TO.C,U2*%
X-69730000Y72735000D02*
X-102060000Y72735000D01*
X-104190000Y70615000D02*
X-104190000Y66825000D01*
X-69730000Y49415000D02*
X-69730000Y72735000D01*
X-76630000Y49415000D02*
X-69730000Y49415000D01*
X-76650000Y46875000D02*
X-96850000Y46850000D01*
X-76630000Y46875000D02*
X-76630000Y49415000D01*
G36*
X-95215000Y45835000D02*
G01*
X-96485000Y45835000D01*
X-95850000Y46470000D01*
X-95215000Y45835000D01*
G37*
D11*
X-95215000Y45835000D02*
X-96485000Y45835000D01*
X-95850000Y46470000D01*
X-95215000Y45835000D01*
D12*
%TO.C,Q8*%
X-146715000Y74060000D02*
X-146715000Y63820000D01*
X-145205000Y74060000D02*
X-149846000Y74060000D01*
X-145205000Y63820000D02*
X-149846000Y63820000D01*
X-145205000Y70790000D02*
X-146715000Y70790000D01*
X-145205000Y74060000D02*
X-145205000Y63820000D01*
X-149846000Y74060000D02*
X-149846000Y63820000D01*
X-145205000Y67089000D02*
X-146715000Y67089000D01*
%TO.C,Q6*%
X-134715000Y74060000D02*
X-134715000Y63820000D01*
X-137846000Y74060000D02*
X-137846000Y63820000D01*
X-133205000Y74060000D02*
X-137846000Y74060000D01*
X-133205000Y70790000D02*
X-134715000Y70790000D01*
X-133205000Y74060000D02*
X-133205000Y63820000D01*
X-133205000Y67089000D02*
X-134715000Y67089000D01*
X-133205000Y63820000D02*
X-137846000Y63820000D01*
%TO.C,R25*%
X-101660000Y47983733D02*
X-101660000Y48326267D01*
X-102680000Y47983733D02*
X-102680000Y48326267D01*
%TO.C,R26*%
X-101090000Y48326267D02*
X-101090000Y47983733D01*
X-100070000Y48326267D02*
X-100070000Y47983733D01*
%TO.C,R21*%
X-101680000Y55133733D02*
X-101680000Y55476267D01*
X-102700000Y55133733D02*
X-102700000Y55476267D01*
%TO.C,R19*%
X-115085436Y57985000D02*
X-116289564Y57985000D01*
X-115085436Y56165000D02*
X-116289564Y56165000D01*
%TO.C,Q7*%
X-105810000Y56795000D02*
X-104350000Y56795000D01*
X-105810000Y53635000D02*
X-103650000Y53635000D01*
X-105810000Y56795000D02*
X-105810000Y55865000D01*
X-105810000Y53635000D02*
X-105810000Y54565000D01*
%TO.C,U4*%
X-112550000Y55825000D02*
X-109550000Y55825000D01*
X-108050000Y51985000D02*
X-113050000Y51985000D01*
%TO.C,R22*%
X-100090000Y55466267D02*
X-100090000Y55123733D01*
X-101110000Y55466267D02*
X-101110000Y55123733D01*
%TO.C,U5*%
X-108050000Y44955000D02*
X-113050000Y44955000D01*
X-112550000Y48795000D02*
X-109550000Y48795000D01*
%TO.C,R23*%
X-115085436Y49165000D02*
X-116289564Y49165000D01*
X-115085436Y50985000D02*
X-116289564Y50985000D01*
%TO.C,R24*%
X-105201267Y46055000D02*
X-104858733Y46055000D01*
X-105201267Y45035000D02*
X-104858733Y45035000D01*
%TO.C,R20*%
X-105096267Y52105000D02*
X-104753733Y52105000D01*
X-105096267Y53125000D02*
X-104753733Y53125000D01*
%TO.C,Q9*%
X-105810000Y49805000D02*
X-105810000Y48875000D01*
X-105810000Y46645000D02*
X-105810000Y47575000D01*
X-105810000Y49805000D02*
X-104350000Y49805000D01*
X-105810000Y46645000D02*
X-103650000Y46645000D01*
%TO.C,D9*%
X-93050000Y36125000D02*
X-88750000Y36125000D01*
X-93050000Y36125000D02*
X-93050000Y41825000D01*
X-88750000Y36125000D02*
X-88750000Y41825000D01*
%TO.C,Q5*%
X-105810000Y63785000D02*
X-104350000Y63785000D01*
X-105810000Y60625000D02*
X-103650000Y60625000D01*
X-105810000Y60625000D02*
X-105810000Y61555000D01*
X-105810000Y63785000D02*
X-105810000Y62855000D01*
%TO.C,U3*%
X-112550000Y62845000D02*
X-109550000Y62845000D01*
X-108050000Y59005000D02*
X-113050000Y59005000D01*
%TO.C,R17*%
X-101730000Y62063733D02*
X-101730000Y62406267D01*
X-102750000Y62063733D02*
X-102750000Y62406267D01*
%TO.C,R15*%
X-115122934Y65035000D02*
X-116327062Y65035000D01*
X-115122934Y63215000D02*
X-116327062Y63215000D01*
%TO.C,R18*%
X-100110000Y62421267D02*
X-100110000Y62078733D01*
X-101130000Y62421267D02*
X-101130000Y62078733D01*
%TO.C,R16*%
X-105096267Y60115000D02*
X-104753733Y60115000D01*
X-105096267Y59095000D02*
X-104753733Y59095000D01*
%TO.C,J1*%
X-149200000Y90235000D02*
X-147700000Y90235000D01*
X-119400000Y90235000D02*
X-119400000Y88435000D01*
X-157180000Y88435000D02*
X-157180000Y90235000D01*
X-154530000Y91735000D02*
X-154280000Y90235000D01*
X-144370000Y91735000D02*
X-144120000Y90235000D01*
X-123800000Y90235000D02*
X-122300000Y90235000D01*
X-122750000Y78715000D02*
X-123350000Y78715000D01*
X-147450000Y91735000D02*
X-149450000Y91735000D01*
X-119400000Y91735000D02*
X-157180000Y91735000D01*
X-152780000Y90235000D02*
X-152530000Y91735000D01*
X-137290000Y91735000D02*
X-139290000Y91735000D01*
X-123050000Y79315000D02*
X-122750000Y78715000D01*
X-134210000Y91735000D02*
X-133960000Y90235000D01*
X-157180000Y91735000D02*
X-157180000Y79515000D01*
X-123350000Y78715000D02*
X-123050000Y79315000D01*
X-119400000Y88435000D02*
X-157180000Y88435000D01*
X-122300000Y90235000D02*
X-122050000Y91735000D01*
X-152530000Y91735000D02*
X-154530000Y91735000D01*
X-133960000Y90235000D02*
X-132460000Y90235000D01*
X-127380000Y90235000D02*
X-127130000Y91735000D01*
X-119400000Y79515000D02*
X-119400000Y91735000D01*
X-149450000Y91735000D02*
X-149200000Y90235000D01*
X-128880000Y90235000D02*
X-127380000Y90235000D01*
X-157180000Y90235000D02*
X-119400000Y90235000D01*
X-129130000Y91735000D02*
X-128880000Y90235000D01*
X-139040000Y90235000D02*
X-137540000Y90235000D01*
X-142620000Y90235000D02*
X-142370000Y91735000D01*
X-154280000Y90235000D02*
X-152780000Y90235000D01*
X-132460000Y90235000D02*
X-132210000Y91735000D01*
X-137540000Y90235000D02*
X-137290000Y91735000D01*
X-127130000Y91735000D02*
X-129130000Y91735000D01*
X-139290000Y91735000D02*
X-139040000Y90235000D01*
X-144120000Y90235000D02*
X-142620000Y90235000D01*
X-157180000Y79515000D02*
X-119400000Y79515000D01*
X-147700000Y90235000D02*
X-147450000Y91735000D01*
X-124050000Y91735000D02*
X-123800000Y90235000D01*
X-132210000Y91735000D02*
X-134210000Y91735000D01*
X-142370000Y91735000D02*
X-144370000Y91735000D01*
X-122050000Y91735000D02*
X-124050000Y91735000D01*
%TO.C,C1*%
X-159853733Y67215000D02*
X-160196267Y67215000D01*
X-159853733Y68235000D02*
X-160196267Y68235000D01*
%TO.C,R14*%
X-79571267Y50940000D02*
X-79228733Y50940000D01*
X-79571267Y51960000D02*
X-79228733Y51960000D01*
%TO.C,D6*%
X-164657000Y59231000D02*
X-160757000Y59231000D01*
X-164657000Y59231000D02*
X-164657000Y57231000D01*
X-164657000Y57231000D02*
X-160757000Y57231000D01*
%TO.C,D5*%
X-155450000Y66575000D02*
X-157450000Y66575000D01*
X-155450000Y66575000D02*
X-155450000Y62675000D01*
X-157450000Y66575000D02*
X-157450000Y62675000D01*
%TO.C,D2*%
X-159821000Y62077000D02*
X-157821000Y62077000D01*
X-157821000Y62077000D02*
X-157821000Y65977000D01*
X-159821000Y62077000D02*
X-159821000Y65977000D01*
%TO.C,D3*%
X-162207000Y62077000D02*
X-160207000Y62077000D01*
X-160207000Y62077000D02*
X-160207000Y65977000D01*
X-162207000Y62077000D02*
X-162207000Y65977000D01*
%TO.C,Q3*%
X-160227000Y54421000D02*
X-161157000Y54421000D01*
X-160227000Y54421000D02*
X-160227000Y56581000D01*
X-163387000Y54421000D02*
X-162457000Y54421000D01*
X-163387000Y54421000D02*
X-163387000Y55881000D01*
%TO.C,R4*%
X-162715000Y69939564D02*
X-162715000Y68735436D01*
X-164535000Y69939564D02*
X-164535000Y68735436D01*
%TO.C,D4*%
X-164607000Y66576000D02*
X-164607000Y62676000D01*
X-162607000Y66576000D02*
X-162607000Y62676000D01*
X-162607000Y66576000D02*
X-164607000Y66576000D01*
%TO.C,R3*%
X-157335000Y69989564D02*
X-157335000Y68785436D01*
X-155515000Y69989564D02*
X-155515000Y68785436D01*
%TO.C,U1*%
X-108550000Y38545000D02*
X-108550000Y38395000D01*
X-113350000Y42395000D02*
X-108550000Y42395000D01*
X-108550000Y38395000D02*
X-113350000Y38395000D01*
X-113350000Y42245000D02*
X-115050000Y42245000D01*
X-113350000Y42245000D02*
X-113350000Y42395000D01*
X-113350000Y38395000D02*
X-113350000Y38545000D01*
X-108550000Y42395000D02*
X-108550000Y42245000D01*
D11*
%TO.C,RV1*%
X-159850000Y51925000D02*
X-175350000Y51925000D01*
X-159850000Y48025000D02*
X-175350000Y48025000D01*
X-175350000Y48025000D02*
X-175350000Y51925000D01*
X-159850000Y48025000D02*
X-159850000Y51925000D01*
D12*
%TO.C,R7*%
X-160970681Y59907000D02*
X-160628147Y59907000D01*
X-160970681Y60927000D02*
X-160628147Y60927000D01*
%TO.C,C4*%
X-101010000Y34475000D02*
X-100010000Y34475000D01*
X-101195563Y35215000D02*
X-99510000Y35215000D01*
X-101195563Y35215000D02*
X-102260000Y36279437D01*
X-94804437Y35215000D02*
X-93740000Y36279437D01*
X-93740000Y36279437D02*
X-93740000Y43735000D01*
X-102260000Y43735000D02*
X-99510000Y43735000D01*
X-93740000Y43735000D02*
X-96490000Y43735000D01*
X-102260000Y36279437D02*
X-102260000Y43735000D01*
X-100510000Y33975000D02*
X-100510000Y34975000D01*
X-94804437Y35215000D02*
X-96490000Y35215000D01*
%TO.C,Q4*%
X-125846000Y74060000D02*
X-125846000Y63820000D01*
X-121205000Y74060000D02*
X-125846000Y74060000D01*
X-121205000Y70790000D02*
X-122715000Y70790000D01*
X-121205000Y67089000D02*
X-122715000Y67089000D01*
X-121205000Y74060000D02*
X-121205000Y63820000D01*
X-122715000Y74060000D02*
X-122715000Y63820000D01*
X-121205000Y63820000D02*
X-125846000Y63820000D01*
%TO.C,C2*%
X-155140000Y58385000D02*
X-156340000Y58385000D01*
X-159660000Y54929437D02*
X-159660000Y58385000D01*
X-155140000Y54929437D02*
X-155140000Y58385000D01*
X-159660000Y58385000D02*
X-158460000Y58385000D01*
X-156204437Y53865000D02*
X-156340000Y53865000D01*
X-158960000Y53125000D02*
X-158960000Y53625000D01*
X-159210000Y53375000D02*
X-158710000Y53375000D01*
X-158595563Y53865000D02*
X-158460000Y53865000D01*
X-156204437Y53865000D02*
X-155140000Y54929437D01*
X-158595563Y53865000D02*
X-159660000Y54929437D01*
%TO.C,R12*%
X-117153733Y42205000D02*
X-117496267Y42205000D01*
X-117153733Y41185000D02*
X-117496267Y41185000D01*
%TO.C,D1*%
X-98555000Y81975000D02*
X-98555000Y79115000D01*
X-96635000Y81975000D02*
X-98555000Y81975000D01*
X-96635000Y79115000D02*
X-96635000Y81975000D01*
%TO.C,R10*%
X-100153733Y86745000D02*
X-100496267Y86745000D01*
X-100153733Y85725000D02*
X-100496267Y85725000D01*
%TO.C,R2*%
X-91590000Y79923733D02*
X-91590000Y80266267D01*
X-92610000Y79923733D02*
X-92610000Y80266267D01*
%TO.C,R30*%
X-79228733Y52565000D02*
X-79571267Y52565000D01*
X-79228733Y53585000D02*
X-79571267Y53585000D01*
%TO.C,PS1*%
X-120800000Y51825000D02*
X-155000000Y51825000D01*
X-120800000Y31625000D02*
X-120800000Y51825000D01*
X-155000000Y31625000D02*
X-120800000Y31625000D01*
X-155390000Y45225000D02*
X-155390000Y43215000D01*
X-155000000Y51825000D02*
X-155000000Y31625000D01*
%TO.C,Q1*%
X-95555000Y81670000D02*
X-95555000Y80740000D01*
X-95555000Y78510000D02*
X-93395000Y78510000D01*
X-95555000Y81670000D02*
X-94095000Y81670000D01*
X-95555000Y78510000D02*
X-95555000Y79440000D01*
%TO.C,Q2*%
X-95555000Y74710000D02*
X-95555000Y75640000D01*
X-95555000Y77870000D02*
X-94095000Y77870000D01*
X-95555000Y77870000D02*
X-95555000Y76940000D01*
X-95555000Y74710000D02*
X-93395000Y74710000D01*
%TO.C,R1*%
X-91010000Y80271267D02*
X-91010000Y79928733D01*
X-89990000Y80271267D02*
X-89990000Y79928733D01*
%TO.C,Case*%
X-81350000Y41725000D02*
G75*
G03*
X-81350000Y41725000I-3000000J0D01*
G01*
X-158850000Y41725000D02*
G75*
G03*
X-158850000Y41725000I-3000000J0D01*
G01*
X-158850000Y78225000D02*
G75*
G03*
X-158850000Y78225000I-3000000J0D01*
G01*
X-81350000Y78225000D02*
G75*
G03*
X-81350000Y78225000I-3000000J0D01*
G01*
%TO.C,R6*%
X-89990000Y76471267D02*
X-89990000Y76128733D01*
X-91010000Y76471267D02*
X-91010000Y76128733D01*
%TO.C,R29*%
X-117910000Y76121267D02*
X-117910000Y75778733D01*
X-116890000Y76121267D02*
X-116890000Y75778733D01*
%TO.C,U6*%
X-113740000Y77175000D02*
X-108440000Y77175000D01*
X-113740000Y87455000D02*
X-113740000Y77175000D01*
X-112090000Y87455000D02*
X-113740000Y87455000D01*
X-108440000Y87455000D02*
X-110090000Y87455000D01*
X-108440000Y77175000D02*
X-108440000Y87455000D01*
X-110090000Y87455000D02*
G75*
G02*
X-112090000Y87455000I-1000000J0D01*
G01*
%TO.C,F1*%
X-176210000Y78235000D02*
X-176210000Y55515000D01*
X-176210000Y78235000D02*
X-173050000Y78235000D01*
X-176210000Y55515000D02*
X-173050000Y55515000D01*
X-169550000Y78235000D02*
X-166390000Y78235000D01*
X-166390000Y78235000D02*
X-166390000Y55515000D01*
X-169550000Y55515000D02*
X-166390000Y55515000D01*
%TO.C,R11*%
X-98990000Y76078733D02*
X-98990000Y76421267D01*
X-100010000Y76078733D02*
X-100010000Y76421267D01*
%TO.C,D7*%
X-96640000Y75350000D02*
X-96640000Y78210000D01*
X-98560000Y78210000D02*
X-98560000Y75350000D01*
X-96640000Y78210000D02*
X-98560000Y78210000D01*
%TO.C,R28*%
X-79010000Y55578733D02*
X-79010000Y55921267D01*
X-77990000Y55578733D02*
X-77990000Y55921267D01*
%TO.C,R5*%
X-100005000Y79943733D02*
X-100005000Y80286267D01*
X-98985000Y79943733D02*
X-98985000Y80286267D01*
%TO.C,R9*%
X-100496267Y84065000D02*
X-100153733Y84065000D01*
X-100496267Y85085000D02*
X-100153733Y85085000D01*
%TO.C,C6*%
X-105735000Y82871267D02*
X-105735000Y82528733D01*
X-104715000Y82871267D02*
X-104715000Y82528733D01*
%TO.C,R13*%
X-73378733Y77290000D02*
X-73721267Y77290000D01*
X-73378733Y78310000D02*
X-73721267Y78310000D01*
%TO.C,U7*%
X-108440000Y66000000D02*
X-108440000Y76280000D01*
X-112090000Y76280000D02*
X-113740000Y76280000D01*
X-108440000Y76280000D02*
X-110090000Y76280000D01*
X-113740000Y66000000D02*
X-108440000Y66000000D01*
X-113740000Y76280000D02*
X-113740000Y66000000D01*
X-110090000Y76280000D02*
G75*
G02*
X-112090000Y76280000I-1000000J0D01*
G01*
%TO.C,R8*%
X-92610000Y76128733D02*
X-92610000Y76471267D01*
X-91590000Y76128733D02*
X-91590000Y76471267D01*
%TO.C,C7*%
X-104721267Y71915000D02*
X-104378733Y71915000D01*
X-104721267Y72935000D02*
X-104378733Y72935000D01*
%TO.C,C3*%
X-85558767Y85322500D02*
X-85216233Y85322500D01*
X-85558767Y84302500D02*
X-85216233Y84302500D01*
%TO.C,C5*%
X-79078733Y74585000D02*
X-79421267Y74585000D01*
X-79078733Y73565000D02*
X-79421267Y73565000D01*
%TO.C,D8*%
X-75385000Y74740000D02*
X-72525000Y74740000D01*
X-72525000Y76660000D02*
X-75385000Y76660000D01*
X-75385000Y76660000D02*
X-75385000Y74740000D01*
%TO.C,R27*%
X-117910000Y85003733D02*
X-117910000Y85346267D01*
X-116890000Y85003733D02*
X-116890000Y85346267D01*
%TD*%
M02*
