%TF.GenerationSoftware,KiCad,Pcbnew,5.99.0-unknown-r23745-2d001796*%
%TF.CreationDate,2020-11-15T20:41:39+01:00*%
%TF.ProjectId,MadPresso,4d616450-7265-4737-936f-2e6b69636164,rev?*%
%TF.SameCoordinates,PXa8e54e0PY549d608*%
%TF.FileFunction,Legend,Top*%
%TF.FilePolarity,Positive*%
%FSLAX46Y46*%
G04 Gerber Fmt 4.6, Leading zero omitted, Abs format (unit mm)*
G04 Created by KiCad (PCBNEW 5.99.0-unknown-r23745-2d001796) date 2020-11-15 20:41:39*
%MOMM*%
%LPD*%
G01*
G04 APERTURE LIST*
%ADD10C,0.120000*%
%ADD11C,0.300000*%
%ADD12C,0.150000*%
G04 APERTURE END LIST*
D10*
X-98360000Y51155000D02*
X-97980000Y51155000D01*
X-99280000Y50235000D02*
X-98360000Y51155000D01*
D11*
X-146585715Y57253929D02*
X-146585715Y58753929D01*
X-146085715Y57682500D01*
X-145585715Y58753929D01*
X-145585715Y57253929D01*
X-144228572Y57253929D02*
X-144228572Y58039643D01*
X-144300000Y58182500D01*
X-144442858Y58253929D01*
X-144728572Y58253929D01*
X-144871429Y58182500D01*
X-144228572Y57325358D02*
X-144371429Y57253929D01*
X-144728572Y57253929D01*
X-144871429Y57325358D01*
X-144942858Y57468215D01*
X-144942858Y57611072D01*
X-144871429Y57753929D01*
X-144728572Y57825358D01*
X-144371429Y57825358D01*
X-144228572Y57896786D01*
X-142871429Y57253929D02*
X-142871429Y58753929D01*
X-142871429Y57325358D02*
X-143014286Y57253929D01*
X-143300000Y57253929D01*
X-143442858Y57325358D01*
X-143514286Y57396786D01*
X-143585715Y57539643D01*
X-143585715Y57968215D01*
X-143514286Y58111072D01*
X-143442858Y58182500D01*
X-143300000Y58253929D01*
X-143014286Y58253929D01*
X-142871429Y58182500D01*
X-142157143Y57253929D02*
X-142157143Y58753929D01*
X-141585715Y58753929D01*
X-141442858Y58682500D01*
X-141371429Y58611072D01*
X-141300000Y58468215D01*
X-141300000Y58253929D01*
X-141371429Y58111072D01*
X-141442858Y58039643D01*
X-141585715Y57968215D01*
X-142157143Y57968215D01*
X-140657143Y57253929D02*
X-140657143Y58253929D01*
X-140657143Y57968215D02*
X-140585715Y58111072D01*
X-140514286Y58182500D01*
X-140371429Y58253929D01*
X-140228572Y58253929D01*
X-139157143Y57325358D02*
X-139300000Y57253929D01*
X-139585715Y57253929D01*
X-139728572Y57325358D01*
X-139800000Y57468215D01*
X-139800000Y58039643D01*
X-139728572Y58182500D01*
X-139585715Y58253929D01*
X-139300000Y58253929D01*
X-139157143Y58182500D01*
X-139085715Y58039643D01*
X-139085715Y57896786D01*
X-139800000Y57753929D01*
X-138514286Y57325358D02*
X-138371429Y57253929D01*
X-138085715Y57253929D01*
X-137942858Y57325358D01*
X-137871429Y57468215D01*
X-137871429Y57539643D01*
X-137942858Y57682500D01*
X-138085715Y57753929D01*
X-138300000Y57753929D01*
X-138442858Y57825358D01*
X-138514286Y57968215D01*
X-138514286Y58039643D01*
X-138442858Y58182500D01*
X-138300000Y58253929D01*
X-138085715Y58253929D01*
X-137942858Y58182500D01*
X-137300000Y57325358D02*
X-137157143Y57253929D01*
X-136871429Y57253929D01*
X-136728572Y57325358D01*
X-136657143Y57468215D01*
X-136657143Y57539643D01*
X-136728572Y57682500D01*
X-136871429Y57753929D01*
X-137085715Y57753929D01*
X-137228572Y57825358D01*
X-137300000Y57968215D01*
X-137300000Y58039643D01*
X-137228572Y58182500D01*
X-137085715Y58253929D01*
X-136871429Y58253929D01*
X-136728572Y58182500D01*
X-135800000Y57253929D02*
X-135942858Y57325358D01*
X-136014286Y57396786D01*
X-136085715Y57539643D01*
X-136085715Y57968215D01*
X-136014286Y58111072D01*
X-135942858Y58182500D01*
X-135800000Y58253929D01*
X-135585715Y58253929D01*
X-135442858Y58182500D01*
X-135371429Y58111072D01*
X-135300000Y57968215D01*
X-135300000Y57539643D01*
X-135371429Y57396786D01*
X-135442858Y57325358D01*
X-135585715Y57253929D01*
X-135800000Y57253929D01*
X-133657143Y58253929D02*
X-133300000Y57253929D01*
X-132942858Y58253929D01*
X-131585715Y57253929D02*
X-132442858Y57253929D01*
X-132014286Y57253929D02*
X-132014286Y58753929D01*
X-132157143Y58539643D01*
X-132300000Y58396786D01*
X-132442858Y58325358D01*
X-130942858Y57396786D02*
X-130871429Y57325358D01*
X-130942858Y57253929D01*
X-131014286Y57325358D01*
X-130942858Y57396786D01*
X-130942858Y57253929D01*
X-129442858Y57253929D02*
X-130300000Y57253929D01*
X-129871429Y57253929D02*
X-129871429Y58753929D01*
X-130014286Y58539643D01*
X-130157143Y58396786D01*
X-130300000Y58325358D01*
X-141978572Y54838929D02*
X-142835715Y54838929D01*
X-142407143Y54838929D02*
X-142407143Y56338929D01*
X-142550000Y56124643D01*
X-142692858Y55981786D01*
X-142835715Y55910358D01*
X-140550000Y54838929D02*
X-141407143Y54838929D01*
X-140978572Y54838929D02*
X-140978572Y56338929D01*
X-141121429Y56124643D01*
X-141264286Y55981786D01*
X-141407143Y55910358D01*
X-138835715Y56410358D02*
X-140121429Y54481786D01*
X-138407143Y56196072D02*
X-138335715Y56267500D01*
X-138192858Y56338929D01*
X-137835715Y56338929D01*
X-137692858Y56267500D01*
X-137621429Y56196072D01*
X-137550000Y56053215D01*
X-137550000Y55910358D01*
X-137621429Y55696072D01*
X-138478572Y54838929D01*
X-137550000Y54838929D01*
X-136621429Y56338929D02*
X-136478572Y56338929D01*
X-136335715Y56267500D01*
X-136264286Y56196072D01*
X-136192858Y56053215D01*
X-136121429Y55767500D01*
X-136121429Y55410358D01*
X-136192858Y55124643D01*
X-136264286Y54981786D01*
X-136335715Y54910358D01*
X-136478572Y54838929D01*
X-136621429Y54838929D01*
X-136764286Y54910358D01*
X-136835715Y54981786D01*
X-136907143Y55124643D01*
X-136978572Y55410358D01*
X-136978572Y55767500D01*
X-136907143Y56053215D01*
X-136835715Y56196072D01*
X-136764286Y56267500D01*
X-136621429Y56338929D01*
X-135550001Y56196072D02*
X-135478572Y56267500D01*
X-135335715Y56338929D01*
X-134978572Y56338929D01*
X-134835715Y56267500D01*
X-134764286Y56196072D01*
X-134692858Y56053215D01*
X-134692858Y55910358D01*
X-134764286Y55696072D01*
X-135621429Y54838929D01*
X-134692858Y54838929D01*
X-133764286Y56338929D02*
X-133621429Y56338929D01*
X-133478572Y56267500D01*
X-133407143Y56196072D01*
X-133335715Y56053215D01*
X-133264286Y55767500D01*
X-133264286Y55410358D01*
X-133335715Y55124643D01*
X-133407143Y54981786D01*
X-133478572Y54910358D01*
X-133621429Y54838929D01*
X-133764286Y54838929D01*
X-133907143Y54910358D01*
X-133978572Y54981786D01*
X-134050001Y55124643D01*
X-134121429Y55410358D01*
X-134121429Y55767500D01*
X-134050001Y56053215D01*
X-133978572Y56196072D01*
X-133907143Y56267500D01*
X-133764286Y56338929D01*
D12*
%TO.C,C11*%
X-93102858Y54117858D02*
X-93150477Y54070239D01*
X-93293334Y54022620D01*
X-93388572Y54022620D01*
X-93531429Y54070239D01*
X-93626667Y54165477D01*
X-93674286Y54260715D01*
X-93721905Y54451191D01*
X-93721905Y54594048D01*
X-93674286Y54784524D01*
X-93626667Y54879762D01*
X-93531429Y54975000D01*
X-93388572Y55022620D01*
X-93293334Y55022620D01*
X-93150477Y54975000D01*
X-93102858Y54927381D01*
X-92150477Y54022620D02*
X-92721905Y54022620D01*
X-92436191Y54022620D02*
X-92436191Y55022620D01*
X-92531429Y54879762D01*
X-92626667Y54784524D01*
X-92721905Y54736905D01*
X-91198096Y54022620D02*
X-91769524Y54022620D01*
X-91483810Y54022620D02*
X-91483810Y55022620D01*
X-91579048Y54879762D01*
X-91674286Y54784524D01*
X-91769524Y54736905D01*
%TO.C,C10*%
X-102542858Y73397858D02*
X-102590477Y73350239D01*
X-102733334Y73302620D01*
X-102828572Y73302620D01*
X-102971429Y73350239D01*
X-103066667Y73445477D01*
X-103114286Y73540715D01*
X-103161905Y73731191D01*
X-103161905Y73874048D01*
X-103114286Y74064524D01*
X-103066667Y74159762D01*
X-102971429Y74255000D01*
X-102828572Y74302620D01*
X-102733334Y74302620D01*
X-102590477Y74255000D01*
X-102542858Y74207381D01*
X-101590477Y73302620D02*
X-102161905Y73302620D01*
X-101876191Y73302620D02*
X-101876191Y74302620D01*
X-101971429Y74159762D01*
X-102066667Y74064524D01*
X-102161905Y74016905D01*
X-100971429Y74302620D02*
X-100876191Y74302620D01*
X-100780953Y74255000D01*
X-100733334Y74207381D01*
X-100685715Y74112143D01*
X-100638096Y73921667D01*
X-100638096Y73683572D01*
X-100685715Y73493096D01*
X-100733334Y73397858D01*
X-100780953Y73350239D01*
X-100876191Y73302620D01*
X-100971429Y73302620D01*
X-101066667Y73350239D01*
X-101114286Y73397858D01*
X-101161905Y73493096D01*
X-101209524Y73683572D01*
X-101209524Y73921667D01*
X-101161905Y74112143D01*
X-101114286Y74207381D01*
X-101066667Y74255000D01*
X-100971429Y74302620D01*
%TO.C,C9*%
X-100962858Y82433334D02*
X-100915239Y82385715D01*
X-100867620Y82242858D01*
X-100867620Y82147620D01*
X-100915239Y82004762D01*
X-101010477Y81909524D01*
X-101105715Y81861905D01*
X-101296191Y81814286D01*
X-101439048Y81814286D01*
X-101629524Y81861905D01*
X-101724762Y81909524D01*
X-101820000Y82004762D01*
X-101867620Y82147620D01*
X-101867620Y82242858D01*
X-101820000Y82385715D01*
X-101772381Y82433334D01*
X-100867620Y82909524D02*
X-100867620Y83100000D01*
X-100915239Y83195239D01*
X-100962858Y83242858D01*
X-101105715Y83338096D01*
X-101296191Y83385715D01*
X-101677143Y83385715D01*
X-101772381Y83338096D01*
X-101820000Y83290477D01*
X-101867620Y83195239D01*
X-101867620Y83004762D01*
X-101820000Y82909524D01*
X-101772381Y82861905D01*
X-101677143Y82814286D01*
X-101439048Y82814286D01*
X-101343810Y82861905D01*
X-101296191Y82909524D01*
X-101248572Y83004762D01*
X-101248572Y83195239D01*
X-101296191Y83290477D01*
X-101343810Y83338096D01*
X-101439048Y83385715D01*
%TO.C,C7*%
X-79446667Y75187858D02*
X-79494286Y75140239D01*
X-79637143Y75092620D01*
X-79732381Y75092620D01*
X-79875239Y75140239D01*
X-79970477Y75235477D01*
X-80018096Y75330715D01*
X-80065715Y75521191D01*
X-80065715Y75664048D01*
X-80018096Y75854524D01*
X-79970477Y75949762D01*
X-79875239Y76045000D01*
X-79732381Y76092620D01*
X-79637143Y76092620D01*
X-79494286Y76045000D01*
X-79446667Y75997381D01*
X-79113334Y76092620D02*
X-78446667Y76092620D01*
X-78875239Y75092620D01*
%TO.C,C6*%
X-88806667Y75247858D02*
X-88854286Y75200239D01*
X-88997143Y75152620D01*
X-89092381Y75152620D01*
X-89235239Y75200239D01*
X-89330477Y75295477D01*
X-89378096Y75390715D01*
X-89425715Y75581191D01*
X-89425715Y75724048D01*
X-89378096Y75914524D01*
X-89330477Y76009762D01*
X-89235239Y76105000D01*
X-89092381Y76152620D01*
X-88997143Y76152620D01*
X-88854286Y76105000D01*
X-88806667Y76057381D01*
X-87949524Y76152620D02*
X-88140000Y76152620D01*
X-88235239Y76105000D01*
X-88282858Y76057381D01*
X-88378096Y75914524D01*
X-88425715Y75724048D01*
X-88425715Y75343096D01*
X-88378096Y75247858D01*
X-88330477Y75200239D01*
X-88235239Y75152620D01*
X-88044762Y75152620D01*
X-87949524Y75200239D01*
X-87901905Y75247858D01*
X-87854286Y75343096D01*
X-87854286Y75581191D01*
X-87901905Y75676429D01*
X-87949524Y75724048D01*
X-88044762Y75771667D01*
X-88235239Y75771667D01*
X-88330477Y75724048D01*
X-88378096Y75676429D01*
X-88425715Y75581191D01*
%TO.C,C5*%
X-88806667Y74007858D02*
X-88854286Y73960239D01*
X-88997143Y73912620D01*
X-89092381Y73912620D01*
X-89235239Y73960239D01*
X-89330477Y74055477D01*
X-89378096Y74150715D01*
X-89425715Y74341191D01*
X-89425715Y74484048D01*
X-89378096Y74674524D01*
X-89330477Y74769762D01*
X-89235239Y74865000D01*
X-89092381Y74912620D01*
X-88997143Y74912620D01*
X-88854286Y74865000D01*
X-88806667Y74817381D01*
X-87901905Y74912620D02*
X-88378096Y74912620D01*
X-88425715Y74436429D01*
X-88378096Y74484048D01*
X-88282858Y74531667D01*
X-88044762Y74531667D01*
X-87949524Y74484048D01*
X-87901905Y74436429D01*
X-87854286Y74341191D01*
X-87854286Y74103096D01*
X-87901905Y74007858D01*
X-87949524Y73960239D01*
X-88044762Y73912620D01*
X-88282858Y73912620D01*
X-88378096Y73960239D01*
X-88425715Y74007858D01*
%TO.C,C4*%
X-91922858Y79540834D02*
X-91875239Y79493215D01*
X-91827620Y79350358D01*
X-91827620Y79255120D01*
X-91875239Y79112262D01*
X-91970477Y79017024D01*
X-92065715Y78969405D01*
X-92256191Y78921786D01*
X-92399048Y78921786D01*
X-92589524Y78969405D01*
X-92684762Y79017024D01*
X-92780000Y79112262D01*
X-92827620Y79255120D01*
X-92827620Y79350358D01*
X-92780000Y79493215D01*
X-92732381Y79540834D01*
X-92494286Y80397977D02*
X-91827620Y80397977D01*
X-92875239Y80159881D02*
X-92160953Y79921786D01*
X-92160953Y80540834D01*
%TO.C,C2*%
X-99076667Y80487858D02*
X-99124286Y80440239D01*
X-99267143Y80392620D01*
X-99362381Y80392620D01*
X-99505239Y80440239D01*
X-99600477Y80535477D01*
X-99648096Y80630715D01*
X-99695715Y80821191D01*
X-99695715Y80964048D01*
X-99648096Y81154524D01*
X-99600477Y81249762D01*
X-99505239Y81345000D01*
X-99362381Y81392620D01*
X-99267143Y81392620D01*
X-99124286Y81345000D01*
X-99076667Y81297381D01*
X-98695715Y81297381D02*
X-98648096Y81345000D01*
X-98552858Y81392620D01*
X-98314762Y81392620D01*
X-98219524Y81345000D01*
X-98171905Y81297381D01*
X-98124286Y81202143D01*
X-98124286Y81106905D01*
X-98171905Y80964048D01*
X-98743334Y80392620D01*
X-98124286Y80392620D01*
%TO.C,C1*%
X-157996667Y69267858D02*
X-158044286Y69220239D01*
X-158187143Y69172620D01*
X-158282381Y69172620D01*
X-158425239Y69220239D01*
X-158520477Y69315477D01*
X-158568096Y69410715D01*
X-158615715Y69601191D01*
X-158615715Y69744048D01*
X-158568096Y69934524D01*
X-158520477Y70029762D01*
X-158425239Y70125000D01*
X-158282381Y70172620D01*
X-158187143Y70172620D01*
X-158044286Y70125000D01*
X-157996667Y70077381D01*
X-157044286Y69172620D02*
X-157615715Y69172620D01*
X-157330000Y69172620D02*
X-157330000Y70172620D01*
X-157425239Y70029762D01*
X-157520477Y69934524D01*
X-157615715Y69886905D01*
%TO.C,U3*%
X-94586905Y46397620D02*
X-94586905Y45588096D01*
X-94539286Y45492858D01*
X-94491667Y45445239D01*
X-94396429Y45397620D01*
X-94205953Y45397620D01*
X-94110715Y45445239D01*
X-94063096Y45492858D01*
X-94015477Y45588096D01*
X-94015477Y46397620D01*
X-93634524Y46397620D02*
X-93015477Y46397620D01*
X-93348810Y46016667D01*
X-93205953Y46016667D01*
X-93110715Y45969048D01*
X-93063096Y45921429D01*
X-93015477Y45826191D01*
X-93015477Y45588096D01*
X-93063096Y45492858D01*
X-93110715Y45445239D01*
X-93205953Y45397620D01*
X-93491667Y45397620D01*
X-93586905Y45445239D01*
X-93634524Y45492858D01*
%TO.C,R31*%
X-92632858Y68872620D02*
X-92966191Y69348810D01*
X-93204286Y68872620D02*
X-93204286Y69872620D01*
X-92823334Y69872620D01*
X-92728096Y69825000D01*
X-92680477Y69777381D01*
X-92632858Y69682143D01*
X-92632858Y69539286D01*
X-92680477Y69444048D01*
X-92728096Y69396429D01*
X-92823334Y69348810D01*
X-93204286Y69348810D01*
X-92299524Y69872620D02*
X-91680477Y69872620D01*
X-92013810Y69491667D01*
X-91870953Y69491667D01*
X-91775715Y69444048D01*
X-91728096Y69396429D01*
X-91680477Y69301191D01*
X-91680477Y69063096D01*
X-91728096Y68967858D01*
X-91775715Y68920239D01*
X-91870953Y68872620D01*
X-92156667Y68872620D01*
X-92251905Y68920239D01*
X-92299524Y68967858D01*
X-90728096Y68872620D02*
X-91299524Y68872620D01*
X-91013810Y68872620D02*
X-91013810Y69872620D01*
X-91109048Y69729762D01*
X-91204286Y69634524D01*
X-91299524Y69586905D01*
%TO.C,R30*%
X-95227620Y50642143D02*
X-95703810Y50308810D01*
X-95227620Y50070715D02*
X-96227620Y50070715D01*
X-96227620Y50451667D01*
X-96180000Y50546905D01*
X-96132381Y50594524D01*
X-96037143Y50642143D01*
X-95894286Y50642143D01*
X-95799048Y50594524D01*
X-95751429Y50546905D01*
X-95703810Y50451667D01*
X-95703810Y50070715D01*
X-96227620Y50975477D02*
X-96227620Y51594524D01*
X-95846667Y51261191D01*
X-95846667Y51404048D01*
X-95799048Y51499286D01*
X-95751429Y51546905D01*
X-95656191Y51594524D01*
X-95418096Y51594524D01*
X-95322858Y51546905D01*
X-95275239Y51499286D01*
X-95227620Y51404048D01*
X-95227620Y51118334D01*
X-95275239Y51023096D01*
X-95322858Y50975477D01*
X-96227620Y52213572D02*
X-96227620Y52308810D01*
X-96180000Y52404048D01*
X-96132381Y52451667D01*
X-96037143Y52499286D01*
X-95846667Y52546905D01*
X-95608572Y52546905D01*
X-95418096Y52499286D01*
X-95322858Y52451667D01*
X-95275239Y52404048D01*
X-95227620Y52308810D01*
X-95227620Y52213572D01*
X-95275239Y52118334D01*
X-95322858Y52070715D01*
X-95418096Y52023096D01*
X-95608572Y51975477D01*
X-95846667Y51975477D01*
X-96037143Y52023096D01*
X-96132381Y52070715D01*
X-96180000Y52118334D01*
X-96227620Y52213572D01*
%TO.C,R29*%
X-96567620Y50672143D02*
X-97043810Y50338810D01*
X-96567620Y50100715D02*
X-97567620Y50100715D01*
X-97567620Y50481667D01*
X-97520000Y50576905D01*
X-97472381Y50624524D01*
X-97377143Y50672143D01*
X-97234286Y50672143D01*
X-97139048Y50624524D01*
X-97091429Y50576905D01*
X-97043810Y50481667D01*
X-97043810Y50100715D01*
X-97472381Y51053096D02*
X-97520000Y51100715D01*
X-97567620Y51195953D01*
X-97567620Y51434048D01*
X-97520000Y51529286D01*
X-97472381Y51576905D01*
X-97377143Y51624524D01*
X-97281905Y51624524D01*
X-97139048Y51576905D01*
X-96567620Y51005477D01*
X-96567620Y51624524D01*
X-96567620Y52100715D02*
X-96567620Y52291191D01*
X-96615239Y52386429D01*
X-96662858Y52434048D01*
X-96805715Y52529286D01*
X-96996191Y52576905D01*
X-97377143Y52576905D01*
X-97472381Y52529286D01*
X-97520000Y52481667D01*
X-97567620Y52386429D01*
X-97567620Y52195953D01*
X-97520000Y52100715D01*
X-97472381Y52053096D01*
X-97377143Y52005477D01*
X-97139048Y52005477D01*
X-97043810Y52053096D01*
X-96996191Y52100715D01*
X-96948572Y52195953D01*
X-96948572Y52386429D01*
X-96996191Y52481667D01*
X-97043810Y52529286D01*
X-97139048Y52576905D01*
%TO.C,R28*%
X-99342858Y45012620D02*
X-99676191Y45488810D01*
X-99914286Y45012620D02*
X-99914286Y46012620D01*
X-99533334Y46012620D01*
X-99438096Y45965000D01*
X-99390477Y45917381D01*
X-99342858Y45822143D01*
X-99342858Y45679286D01*
X-99390477Y45584048D01*
X-99438096Y45536429D01*
X-99533334Y45488810D01*
X-99914286Y45488810D01*
X-98961905Y45917381D02*
X-98914286Y45965000D01*
X-98819048Y46012620D01*
X-98580953Y46012620D01*
X-98485715Y45965000D01*
X-98438096Y45917381D01*
X-98390477Y45822143D01*
X-98390477Y45726905D01*
X-98438096Y45584048D01*
X-99009524Y45012620D01*
X-98390477Y45012620D01*
X-97819048Y45584048D02*
X-97914286Y45631667D01*
X-97961905Y45679286D01*
X-98009524Y45774524D01*
X-98009524Y45822143D01*
X-97961905Y45917381D01*
X-97914286Y45965000D01*
X-97819048Y46012620D01*
X-97628572Y46012620D01*
X-97533334Y45965000D01*
X-97485715Y45917381D01*
X-97438096Y45822143D01*
X-97438096Y45774524D01*
X-97485715Y45679286D01*
X-97533334Y45631667D01*
X-97628572Y45584048D01*
X-97819048Y45584048D01*
X-97914286Y45536429D01*
X-97961905Y45488810D01*
X-98009524Y45393572D01*
X-98009524Y45203096D01*
X-97961905Y45107858D01*
X-97914286Y45060239D01*
X-97819048Y45012620D01*
X-97628572Y45012620D01*
X-97533334Y45060239D01*
X-97485715Y45107858D01*
X-97438096Y45203096D01*
X-97438096Y45393572D01*
X-97485715Y45488810D01*
X-97533334Y45536429D01*
X-97628572Y45584048D01*
%TO.C,R27*%
X-115342858Y47702620D02*
X-115676191Y48178810D01*
X-115914286Y47702620D02*
X-115914286Y48702620D01*
X-115533334Y48702620D01*
X-115438096Y48655000D01*
X-115390477Y48607381D01*
X-115342858Y48512143D01*
X-115342858Y48369286D01*
X-115390477Y48274048D01*
X-115438096Y48226429D01*
X-115533334Y48178810D01*
X-115914286Y48178810D01*
X-114961905Y48607381D02*
X-114914286Y48655000D01*
X-114819048Y48702620D01*
X-114580953Y48702620D01*
X-114485715Y48655000D01*
X-114438096Y48607381D01*
X-114390477Y48512143D01*
X-114390477Y48416905D01*
X-114438096Y48274048D01*
X-115009524Y47702620D01*
X-114390477Y47702620D01*
X-114057143Y48702620D02*
X-113390477Y48702620D01*
X-113819048Y47702620D01*
%TO.C,R26*%
X-95237620Y54572143D02*
X-95713810Y54238810D01*
X-95237620Y54000715D02*
X-96237620Y54000715D01*
X-96237620Y54381667D01*
X-96190000Y54476905D01*
X-96142381Y54524524D01*
X-96047143Y54572143D01*
X-95904286Y54572143D01*
X-95809048Y54524524D01*
X-95761429Y54476905D01*
X-95713810Y54381667D01*
X-95713810Y54000715D01*
X-96142381Y54953096D02*
X-96190000Y55000715D01*
X-96237620Y55095953D01*
X-96237620Y55334048D01*
X-96190000Y55429286D01*
X-96142381Y55476905D01*
X-96047143Y55524524D01*
X-95951905Y55524524D01*
X-95809048Y55476905D01*
X-95237620Y54905477D01*
X-95237620Y55524524D01*
X-96237620Y56381667D02*
X-96237620Y56191191D01*
X-96190000Y56095953D01*
X-96142381Y56048334D01*
X-95999524Y55953096D01*
X-95809048Y55905477D01*
X-95428096Y55905477D01*
X-95332858Y55953096D01*
X-95285239Y56000715D01*
X-95237620Y56095953D01*
X-95237620Y56286429D01*
X-95285239Y56381667D01*
X-95332858Y56429286D01*
X-95428096Y56476905D01*
X-95666191Y56476905D01*
X-95761429Y56429286D01*
X-95809048Y56381667D01*
X-95856667Y56286429D01*
X-95856667Y56095953D01*
X-95809048Y56000715D01*
X-95761429Y55953096D01*
X-95666191Y55905477D01*
%TO.C,R25*%
X-96607620Y54592143D02*
X-97083810Y54258810D01*
X-96607620Y54020715D02*
X-97607620Y54020715D01*
X-97607620Y54401667D01*
X-97560000Y54496905D01*
X-97512381Y54544524D01*
X-97417143Y54592143D01*
X-97274286Y54592143D01*
X-97179048Y54544524D01*
X-97131429Y54496905D01*
X-97083810Y54401667D01*
X-97083810Y54020715D01*
X-97512381Y54973096D02*
X-97560000Y55020715D01*
X-97607620Y55115953D01*
X-97607620Y55354048D01*
X-97560000Y55449286D01*
X-97512381Y55496905D01*
X-97417143Y55544524D01*
X-97321905Y55544524D01*
X-97179048Y55496905D01*
X-96607620Y54925477D01*
X-96607620Y55544524D01*
X-97607620Y56449286D02*
X-97607620Y55973096D01*
X-97131429Y55925477D01*
X-97179048Y55973096D01*
X-97226667Y56068334D01*
X-97226667Y56306429D01*
X-97179048Y56401667D01*
X-97131429Y56449286D01*
X-97036191Y56496905D01*
X-96798096Y56496905D01*
X-96702858Y56449286D01*
X-96655239Y56401667D01*
X-96607620Y56306429D01*
X-96607620Y56068334D01*
X-96655239Y55973096D01*
X-96702858Y55925477D01*
%TO.C,R24*%
X-100322858Y51972620D02*
X-100656191Y52448810D01*
X-100894286Y51972620D02*
X-100894286Y52972620D01*
X-100513334Y52972620D01*
X-100418096Y52925000D01*
X-100370477Y52877381D01*
X-100322858Y52782143D01*
X-100322858Y52639286D01*
X-100370477Y52544048D01*
X-100418096Y52496429D01*
X-100513334Y52448810D01*
X-100894286Y52448810D01*
X-99941905Y52877381D02*
X-99894286Y52925000D01*
X-99799048Y52972620D01*
X-99560953Y52972620D01*
X-99465715Y52925000D01*
X-99418096Y52877381D01*
X-99370477Y52782143D01*
X-99370477Y52686905D01*
X-99418096Y52544048D01*
X-99989524Y51972620D01*
X-99370477Y51972620D01*
X-98513334Y52639286D02*
X-98513334Y51972620D01*
X-98751429Y53020239D02*
X-98989524Y52305953D01*
X-98370477Y52305953D01*
%TO.C,R23*%
X-115322858Y54702620D02*
X-115656191Y55178810D01*
X-115894286Y54702620D02*
X-115894286Y55702620D01*
X-115513334Y55702620D01*
X-115418096Y55655000D01*
X-115370477Y55607381D01*
X-115322858Y55512143D01*
X-115322858Y55369286D01*
X-115370477Y55274048D01*
X-115418096Y55226429D01*
X-115513334Y55178810D01*
X-115894286Y55178810D01*
X-114941905Y55607381D02*
X-114894286Y55655000D01*
X-114799048Y55702620D01*
X-114560953Y55702620D01*
X-114465715Y55655000D01*
X-114418096Y55607381D01*
X-114370477Y55512143D01*
X-114370477Y55416905D01*
X-114418096Y55274048D01*
X-114989524Y54702620D01*
X-114370477Y54702620D01*
X-114037143Y55702620D02*
X-113418096Y55702620D01*
X-113751429Y55321667D01*
X-113608572Y55321667D01*
X-113513334Y55274048D01*
X-113465715Y55226429D01*
X-113418096Y55131191D01*
X-113418096Y54893096D01*
X-113465715Y54797858D01*
X-113513334Y54750239D01*
X-113608572Y54702620D01*
X-113894286Y54702620D01*
X-113989524Y54750239D01*
X-114037143Y54797858D01*
%TO.C,R22*%
X-95247620Y61507143D02*
X-95723810Y61173810D01*
X-95247620Y60935715D02*
X-96247620Y60935715D01*
X-96247620Y61316667D01*
X-96200000Y61411905D01*
X-96152381Y61459524D01*
X-96057143Y61507143D01*
X-95914286Y61507143D01*
X-95819048Y61459524D01*
X-95771429Y61411905D01*
X-95723810Y61316667D01*
X-95723810Y60935715D01*
X-96152381Y61888096D02*
X-96200000Y61935715D01*
X-96247620Y62030953D01*
X-96247620Y62269048D01*
X-96200000Y62364286D01*
X-96152381Y62411905D01*
X-96057143Y62459524D01*
X-95961905Y62459524D01*
X-95819048Y62411905D01*
X-95247620Y61840477D01*
X-95247620Y62459524D01*
X-96152381Y62840477D02*
X-96200000Y62888096D01*
X-96247620Y62983334D01*
X-96247620Y63221429D01*
X-96200000Y63316667D01*
X-96152381Y63364286D01*
X-96057143Y63411905D01*
X-95961905Y63411905D01*
X-95819048Y63364286D01*
X-95247620Y62792858D01*
X-95247620Y63411905D01*
%TO.C,R21*%
X-96607620Y61522143D02*
X-97083810Y61188810D01*
X-96607620Y60950715D02*
X-97607620Y60950715D01*
X-97607620Y61331667D01*
X-97560000Y61426905D01*
X-97512381Y61474524D01*
X-97417143Y61522143D01*
X-97274286Y61522143D01*
X-97179048Y61474524D01*
X-97131429Y61426905D01*
X-97083810Y61331667D01*
X-97083810Y60950715D01*
X-97512381Y61903096D02*
X-97560000Y61950715D01*
X-97607620Y62045953D01*
X-97607620Y62284048D01*
X-97560000Y62379286D01*
X-97512381Y62426905D01*
X-97417143Y62474524D01*
X-97321905Y62474524D01*
X-97179048Y62426905D01*
X-96607620Y61855477D01*
X-96607620Y62474524D01*
X-96607620Y63426905D02*
X-96607620Y62855477D01*
X-96607620Y63141191D02*
X-97607620Y63141191D01*
X-97464762Y63045953D01*
X-97369524Y62950715D01*
X-97321905Y62855477D01*
%TO.C,R20*%
X-100312858Y58992620D02*
X-100646191Y59468810D01*
X-100884286Y58992620D02*
X-100884286Y59992620D01*
X-100503334Y59992620D01*
X-100408096Y59945000D01*
X-100360477Y59897381D01*
X-100312858Y59802143D01*
X-100312858Y59659286D01*
X-100360477Y59564048D01*
X-100408096Y59516429D01*
X-100503334Y59468810D01*
X-100884286Y59468810D01*
X-99931905Y59897381D02*
X-99884286Y59945000D01*
X-99789048Y59992620D01*
X-99550953Y59992620D01*
X-99455715Y59945000D01*
X-99408096Y59897381D01*
X-99360477Y59802143D01*
X-99360477Y59706905D01*
X-99408096Y59564048D01*
X-99979524Y58992620D01*
X-99360477Y58992620D01*
X-98741429Y59992620D02*
X-98646191Y59992620D01*
X-98550953Y59945000D01*
X-98503334Y59897381D01*
X-98455715Y59802143D01*
X-98408096Y59611667D01*
X-98408096Y59373572D01*
X-98455715Y59183096D01*
X-98503334Y59087858D01*
X-98550953Y59040239D01*
X-98646191Y58992620D01*
X-98741429Y58992620D01*
X-98836667Y59040239D01*
X-98884286Y59087858D01*
X-98931905Y59183096D01*
X-98979524Y59373572D01*
X-98979524Y59611667D01*
X-98931905Y59802143D01*
X-98884286Y59897381D01*
X-98836667Y59945000D01*
X-98741429Y59992620D01*
%TO.C,R19*%
X-115352858Y61762620D02*
X-115686191Y62238810D01*
X-115924286Y61762620D02*
X-115924286Y62762620D01*
X-115543334Y62762620D01*
X-115448096Y62715000D01*
X-115400477Y62667381D01*
X-115352858Y62572143D01*
X-115352858Y62429286D01*
X-115400477Y62334048D01*
X-115448096Y62286429D01*
X-115543334Y62238810D01*
X-115924286Y62238810D01*
X-114400477Y61762620D02*
X-114971905Y61762620D01*
X-114686191Y61762620D02*
X-114686191Y62762620D01*
X-114781429Y62619762D01*
X-114876667Y62524524D01*
X-114971905Y62476905D01*
X-113924286Y61762620D02*
X-113733810Y61762620D01*
X-113638572Y61810239D01*
X-113590953Y61857858D01*
X-113495715Y62000715D01*
X-113448096Y62191191D01*
X-113448096Y62572143D01*
X-113495715Y62667381D01*
X-113543334Y62715000D01*
X-113638572Y62762620D01*
X-113829048Y62762620D01*
X-113924286Y62715000D01*
X-113971905Y62667381D01*
X-114019524Y62572143D01*
X-114019524Y62334048D01*
X-113971905Y62238810D01*
X-113924286Y62191191D01*
X-113829048Y62143572D01*
X-113638572Y62143572D01*
X-113543334Y62191191D01*
X-113495715Y62238810D01*
X-113448096Y62334048D01*
%TO.C,R18*%
X-86677620Y66924643D02*
X-87153810Y66591310D01*
X-86677620Y66353215D02*
X-87677620Y66353215D01*
X-87677620Y66734167D01*
X-87630000Y66829405D01*
X-87582381Y66877024D01*
X-87487143Y66924643D01*
X-87344286Y66924643D01*
X-87249048Y66877024D01*
X-87201429Y66829405D01*
X-87153810Y66734167D01*
X-87153810Y66353215D01*
X-86677620Y67877024D02*
X-86677620Y67305596D01*
X-86677620Y67591310D02*
X-87677620Y67591310D01*
X-87534762Y67496072D01*
X-87439524Y67400834D01*
X-87391905Y67305596D01*
X-87249048Y68448453D02*
X-87296667Y68353215D01*
X-87344286Y68305596D01*
X-87439524Y68257977D01*
X-87487143Y68257977D01*
X-87582381Y68305596D01*
X-87630000Y68353215D01*
X-87677620Y68448453D01*
X-87677620Y68638929D01*
X-87630000Y68734167D01*
X-87582381Y68781786D01*
X-87487143Y68829405D01*
X-87439524Y68829405D01*
X-87344286Y68781786D01*
X-87296667Y68734167D01*
X-87249048Y68638929D01*
X-87249048Y68448453D01*
X-87201429Y68353215D01*
X-87153810Y68305596D01*
X-87058572Y68257977D01*
X-86868096Y68257977D01*
X-86772858Y68305596D01*
X-86725239Y68353215D01*
X-86677620Y68448453D01*
X-86677620Y68638929D01*
X-86725239Y68734167D01*
X-86772858Y68781786D01*
X-86868096Y68829405D01*
X-87058572Y68829405D01*
X-87153810Y68781786D01*
X-87201429Y68734167D01*
X-87249048Y68638929D01*
%TO.C,R17*%
X-116867620Y67582143D02*
X-117343810Y67248810D01*
X-116867620Y67010715D02*
X-117867620Y67010715D01*
X-117867620Y67391667D01*
X-117820000Y67486905D01*
X-117772381Y67534524D01*
X-117677143Y67582143D01*
X-117534286Y67582143D01*
X-117439048Y67534524D01*
X-117391429Y67486905D01*
X-117343810Y67391667D01*
X-117343810Y67010715D01*
X-116867620Y68534524D02*
X-116867620Y67963096D01*
X-116867620Y68248810D02*
X-117867620Y68248810D01*
X-117724762Y68153572D01*
X-117629524Y68058334D01*
X-117581905Y67963096D01*
X-117867620Y68867858D02*
X-117867620Y69534524D01*
X-116867620Y69105953D01*
%TO.C,R16*%
X-116867620Y73094643D02*
X-117343810Y72761310D01*
X-116867620Y72523215D02*
X-117867620Y72523215D01*
X-117867620Y72904167D01*
X-117820000Y72999405D01*
X-117772381Y73047024D01*
X-117677143Y73094643D01*
X-117534286Y73094643D01*
X-117439048Y73047024D01*
X-117391429Y72999405D01*
X-117343810Y72904167D01*
X-117343810Y72523215D01*
X-116867620Y74047024D02*
X-116867620Y73475596D01*
X-116867620Y73761310D02*
X-117867620Y73761310D01*
X-117724762Y73666072D01*
X-117629524Y73570834D01*
X-117581905Y73475596D01*
X-117867620Y74904167D02*
X-117867620Y74713691D01*
X-117820000Y74618453D01*
X-117772381Y74570834D01*
X-117629524Y74475596D01*
X-117439048Y74427977D01*
X-117058096Y74427977D01*
X-116962858Y74475596D01*
X-116915239Y74523215D01*
X-116867620Y74618453D01*
X-116867620Y74808929D01*
X-116915239Y74904167D01*
X-116962858Y74951786D01*
X-117058096Y74999405D01*
X-117296191Y74999405D01*
X-117391429Y74951786D01*
X-117439048Y74904167D01*
X-117486667Y74808929D01*
X-117486667Y74618453D01*
X-117439048Y74523215D01*
X-117391429Y74475596D01*
X-117296191Y74427977D01*
%TO.C,R15*%
X-86347620Y51409643D02*
X-86823810Y51076310D01*
X-86347620Y50838215D02*
X-87347620Y50838215D01*
X-87347620Y51219167D01*
X-87300000Y51314405D01*
X-87252381Y51362024D01*
X-87157143Y51409643D01*
X-87014286Y51409643D01*
X-86919048Y51362024D01*
X-86871429Y51314405D01*
X-86823810Y51219167D01*
X-86823810Y50838215D01*
X-86347620Y52362024D02*
X-86347620Y51790596D01*
X-86347620Y52076310D02*
X-87347620Y52076310D01*
X-87204762Y51981072D01*
X-87109524Y51885834D01*
X-87061905Y51790596D01*
X-87347620Y53266786D02*
X-87347620Y52790596D01*
X-86871429Y52742977D01*
X-86919048Y52790596D01*
X-86966667Y52885834D01*
X-86966667Y53123929D01*
X-86919048Y53219167D01*
X-86871429Y53266786D01*
X-86776191Y53314405D01*
X-86538096Y53314405D01*
X-86442858Y53266786D01*
X-86395239Y53219167D01*
X-86347620Y53123929D01*
X-86347620Y52885834D01*
X-86395239Y52790596D01*
X-86442858Y52742977D01*
%TO.C,R14*%
X-116867620Y78782143D02*
X-117343810Y78448810D01*
X-116867620Y78210715D02*
X-117867620Y78210715D01*
X-117867620Y78591667D01*
X-117820000Y78686905D01*
X-117772381Y78734524D01*
X-117677143Y78782143D01*
X-117534286Y78782143D01*
X-117439048Y78734524D01*
X-117391429Y78686905D01*
X-117343810Y78591667D01*
X-117343810Y78210715D01*
X-116867620Y79734524D02*
X-116867620Y79163096D01*
X-116867620Y79448810D02*
X-117867620Y79448810D01*
X-117724762Y79353572D01*
X-117629524Y79258334D01*
X-117581905Y79163096D01*
X-117534286Y80591667D02*
X-116867620Y80591667D01*
X-117915239Y80353572D02*
X-117200953Y80115477D01*
X-117200953Y80734524D01*
%TO.C,R13*%
X-116867620Y84432143D02*
X-117343810Y84098810D01*
X-116867620Y83860715D02*
X-117867620Y83860715D01*
X-117867620Y84241667D01*
X-117820000Y84336905D01*
X-117772381Y84384524D01*
X-117677143Y84432143D01*
X-117534286Y84432143D01*
X-117439048Y84384524D01*
X-117391429Y84336905D01*
X-117343810Y84241667D01*
X-117343810Y83860715D01*
X-116867620Y85384524D02*
X-116867620Y84813096D01*
X-116867620Y85098810D02*
X-117867620Y85098810D01*
X-117724762Y85003572D01*
X-117629524Y84908334D01*
X-117581905Y84813096D01*
X-117867620Y85717858D02*
X-117867620Y86336905D01*
X-117486667Y86003572D01*
X-117486667Y86146429D01*
X-117439048Y86241667D01*
X-117391429Y86289286D01*
X-117296191Y86336905D01*
X-117058096Y86336905D01*
X-116962858Y86289286D01*
X-116915239Y86241667D01*
X-116867620Y86146429D01*
X-116867620Y85860715D01*
X-116915239Y85765477D01*
X-116962858Y85717858D01*
%TO.C,R12*%
X-73967620Y75722143D02*
X-74443810Y75388810D01*
X-73967620Y75150715D02*
X-74967620Y75150715D01*
X-74967620Y75531667D01*
X-74920000Y75626905D01*
X-74872381Y75674524D01*
X-74777143Y75722143D01*
X-74634286Y75722143D01*
X-74539048Y75674524D01*
X-74491429Y75626905D01*
X-74443810Y75531667D01*
X-74443810Y75150715D01*
X-73967620Y76674524D02*
X-73967620Y76103096D01*
X-73967620Y76388810D02*
X-74967620Y76388810D01*
X-74824762Y76293572D01*
X-74729524Y76198334D01*
X-74681905Y76103096D01*
X-74872381Y77055477D02*
X-74920000Y77103096D01*
X-74967620Y77198334D01*
X-74967620Y77436429D01*
X-74920000Y77531667D01*
X-74872381Y77579286D01*
X-74777143Y77626905D01*
X-74681905Y77626905D01*
X-74539048Y77579286D01*
X-73967620Y77007858D01*
X-73967620Y77626905D01*
%TO.C,R11*%
X-72337620Y66972143D02*
X-72813810Y66638810D01*
X-72337620Y66400715D02*
X-73337620Y66400715D01*
X-73337620Y66781667D01*
X-73290000Y66876905D01*
X-73242381Y66924524D01*
X-73147143Y66972143D01*
X-73004286Y66972143D01*
X-72909048Y66924524D01*
X-72861429Y66876905D01*
X-72813810Y66781667D01*
X-72813810Y66400715D01*
X-72337620Y67924524D02*
X-72337620Y67353096D01*
X-72337620Y67638810D02*
X-73337620Y67638810D01*
X-73194762Y67543572D01*
X-73099524Y67448334D01*
X-73051905Y67353096D01*
X-72337620Y68876905D02*
X-72337620Y68305477D01*
X-72337620Y68591191D02*
X-73337620Y68591191D01*
X-73194762Y68495953D01*
X-73099524Y68400715D01*
X-73051905Y68305477D01*
%TO.C,R10*%
X-86992858Y81462620D02*
X-87326191Y81938810D01*
X-87564286Y81462620D02*
X-87564286Y82462620D01*
X-87183334Y82462620D01*
X-87088096Y82415000D01*
X-87040477Y82367381D01*
X-86992858Y82272143D01*
X-86992858Y82129286D01*
X-87040477Y82034048D01*
X-87088096Y81986429D01*
X-87183334Y81938810D01*
X-87564286Y81938810D01*
X-86040477Y81462620D02*
X-86611905Y81462620D01*
X-86326191Y81462620D02*
X-86326191Y82462620D01*
X-86421429Y82319762D01*
X-86516667Y82224524D01*
X-86611905Y82176905D01*
X-85421429Y82462620D02*
X-85326191Y82462620D01*
X-85230953Y82415000D01*
X-85183334Y82367381D01*
X-85135715Y82272143D01*
X-85088096Y82081667D01*
X-85088096Y81843572D01*
X-85135715Y81653096D01*
X-85183334Y81557858D01*
X-85230953Y81510239D01*
X-85326191Y81462620D01*
X-85421429Y81462620D01*
X-85516667Y81510239D01*
X-85564286Y81557858D01*
X-85611905Y81653096D01*
X-85659524Y81843572D01*
X-85659524Y82081667D01*
X-85611905Y82272143D01*
X-85564286Y82367381D01*
X-85516667Y82415000D01*
X-85421429Y82462620D01*
%TO.C,R9*%
X-86976667Y82842620D02*
X-87310000Y83318810D01*
X-87548096Y82842620D02*
X-87548096Y83842620D01*
X-87167143Y83842620D01*
X-87071905Y83795000D01*
X-87024286Y83747381D01*
X-86976667Y83652143D01*
X-86976667Y83509286D01*
X-87024286Y83414048D01*
X-87071905Y83366429D01*
X-87167143Y83318810D01*
X-87548096Y83318810D01*
X-86500477Y82842620D02*
X-86310000Y82842620D01*
X-86214762Y82890239D01*
X-86167143Y82937858D01*
X-86071905Y83080715D01*
X-86024286Y83271191D01*
X-86024286Y83652143D01*
X-86071905Y83747381D01*
X-86119524Y83795000D01*
X-86214762Y83842620D01*
X-86405239Y83842620D01*
X-86500477Y83795000D01*
X-86548096Y83747381D01*
X-86595715Y83652143D01*
X-86595715Y83414048D01*
X-86548096Y83318810D01*
X-86500477Y83271191D01*
X-86405239Y83223572D01*
X-86214762Y83223572D01*
X-86119524Y83271191D01*
X-86071905Y83318810D01*
X-86024286Y83414048D01*
%TO.C,R8*%
X-73987620Y64418334D02*
X-74463810Y64085000D01*
X-73987620Y63846905D02*
X-74987620Y63846905D01*
X-74987620Y64227858D01*
X-74940000Y64323096D01*
X-74892381Y64370715D01*
X-74797143Y64418334D01*
X-74654286Y64418334D01*
X-74559048Y64370715D01*
X-74511429Y64323096D01*
X-74463810Y64227858D01*
X-74463810Y63846905D01*
X-74559048Y64989762D02*
X-74606667Y64894524D01*
X-74654286Y64846905D01*
X-74749524Y64799286D01*
X-74797143Y64799286D01*
X-74892381Y64846905D01*
X-74940000Y64894524D01*
X-74987620Y64989762D01*
X-74987620Y65180239D01*
X-74940000Y65275477D01*
X-74892381Y65323096D01*
X-74797143Y65370715D01*
X-74749524Y65370715D01*
X-74654286Y65323096D01*
X-74606667Y65275477D01*
X-74559048Y65180239D01*
X-74559048Y64989762D01*
X-74511429Y64894524D01*
X-74463810Y64846905D01*
X-74368572Y64799286D01*
X-74178096Y64799286D01*
X-74082858Y64846905D01*
X-74035239Y64894524D01*
X-73987620Y64989762D01*
X-73987620Y65180239D01*
X-74035239Y65275477D01*
X-74082858Y65323096D01*
X-74178096Y65370715D01*
X-74368572Y65370715D01*
X-74463810Y65323096D01*
X-74511429Y65275477D01*
X-74559048Y65180239D01*
%TO.C,R7*%
X-79046667Y42592620D02*
X-79380000Y43068810D01*
X-79618096Y42592620D02*
X-79618096Y43592620D01*
X-79237143Y43592620D01*
X-79141905Y43545000D01*
X-79094286Y43497381D01*
X-79046667Y43402143D01*
X-79046667Y43259286D01*
X-79094286Y43164048D01*
X-79141905Y43116429D01*
X-79237143Y43068810D01*
X-79618096Y43068810D01*
X-78713334Y43592620D02*
X-78046667Y43592620D01*
X-78475239Y42592620D01*
%TO.C,R6*%
X-115496667Y39812620D02*
X-115830000Y40288810D01*
X-116068096Y39812620D02*
X-116068096Y40812620D01*
X-115687143Y40812620D01*
X-115591905Y40765000D01*
X-115544286Y40717381D01*
X-115496667Y40622143D01*
X-115496667Y40479286D01*
X-115544286Y40384048D01*
X-115591905Y40336429D01*
X-115687143Y40288810D01*
X-116068096Y40288810D01*
X-114639524Y40812620D02*
X-114830000Y40812620D01*
X-114925239Y40765000D01*
X-114972858Y40717381D01*
X-115068096Y40574524D01*
X-115115715Y40384048D01*
X-115115715Y40003096D01*
X-115068096Y39907858D01*
X-115020477Y39860239D01*
X-114925239Y39812620D01*
X-114734762Y39812620D01*
X-114639524Y39860239D01*
X-114591905Y39907858D01*
X-114544286Y40003096D01*
X-114544286Y40241191D01*
X-114591905Y40336429D01*
X-114639524Y40384048D01*
X-114734762Y40431667D01*
X-114925239Y40431667D01*
X-115020477Y40384048D01*
X-115068096Y40336429D01*
X-115115715Y40241191D01*
%TO.C,R5*%
X-93207620Y82248334D02*
X-93683810Y81915000D01*
X-93207620Y81676905D02*
X-94207620Y81676905D01*
X-94207620Y82057858D01*
X-94160000Y82153096D01*
X-94112381Y82200715D01*
X-94017143Y82248334D01*
X-93874286Y82248334D01*
X-93779048Y82200715D01*
X-93731429Y82153096D01*
X-93683810Y82057858D01*
X-93683810Y81676905D01*
X-94207620Y83153096D02*
X-94207620Y82676905D01*
X-93731429Y82629286D01*
X-93779048Y82676905D01*
X-93826667Y82772143D01*
X-93826667Y83010239D01*
X-93779048Y83105477D01*
X-93731429Y83153096D01*
X-93636191Y83200715D01*
X-93398096Y83200715D01*
X-93302858Y83153096D01*
X-93255239Y83105477D01*
X-93207620Y83010239D01*
X-93207620Y82772143D01*
X-93255239Y82676905D01*
X-93302858Y82629286D01*
%TO.C,R4*%
X-97977620Y75048334D02*
X-98453810Y74715000D01*
X-97977620Y74476905D02*
X-98977620Y74476905D01*
X-98977620Y74857858D01*
X-98930000Y74953096D01*
X-98882381Y75000715D01*
X-98787143Y75048334D01*
X-98644286Y75048334D01*
X-98549048Y75000715D01*
X-98501429Y74953096D01*
X-98453810Y74857858D01*
X-98453810Y74476905D01*
X-98644286Y75905477D02*
X-97977620Y75905477D01*
X-99025239Y75667381D02*
X-98310953Y75429286D01*
X-98310953Y76048334D01*
%TO.C,R3*%
X-156456667Y59542620D02*
X-156790000Y60018810D01*
X-157028096Y59542620D02*
X-157028096Y60542620D01*
X-156647143Y60542620D01*
X-156551905Y60495000D01*
X-156504286Y60447381D01*
X-156456667Y60352143D01*
X-156456667Y60209286D01*
X-156504286Y60114048D01*
X-156551905Y60066429D01*
X-156647143Y60018810D01*
X-157028096Y60018810D01*
X-156123334Y60542620D02*
X-155504286Y60542620D01*
X-155837620Y60161667D01*
X-155694762Y60161667D01*
X-155599524Y60114048D01*
X-155551905Y60066429D01*
X-155504286Y59971191D01*
X-155504286Y59733096D01*
X-155551905Y59637858D01*
X-155599524Y59590239D01*
X-155694762Y59542620D01*
X-155980477Y59542620D01*
X-156075715Y59590239D01*
X-156123334Y59637858D01*
%TO.C,R2*%
X-157641669Y73107619D02*
X-157975002Y73583809D01*
X-158213098Y73107619D02*
X-158213098Y74107619D01*
X-157832145Y74107619D01*
X-157736907Y74059999D01*
X-157689288Y74012380D01*
X-157641669Y73917142D01*
X-157641669Y73774285D01*
X-157689288Y73679047D01*
X-157736907Y73631428D01*
X-157832145Y73583809D01*
X-158213098Y73583809D01*
X-157260717Y74012380D02*
X-157213098Y74059999D01*
X-157117860Y74107619D01*
X-156879764Y74107619D01*
X-156784526Y74059999D01*
X-156736907Y74012380D01*
X-156689288Y73917142D01*
X-156689288Y73821904D01*
X-156736907Y73679047D01*
X-157308336Y73107619D01*
X-156689288Y73107619D01*
%TO.C,R1*%
X-163966667Y73092620D02*
X-164300000Y73568810D01*
X-164538096Y73092620D02*
X-164538096Y74092620D01*
X-164157143Y74092620D01*
X-164061905Y74045000D01*
X-164014286Y73997381D01*
X-163966667Y73902143D01*
X-163966667Y73759286D01*
X-164014286Y73664048D01*
X-164061905Y73616429D01*
X-164157143Y73568810D01*
X-164538096Y73568810D01*
X-163014286Y73092620D02*
X-163585715Y73092620D01*
X-163300000Y73092620D02*
X-163300000Y74092620D01*
X-163395239Y73949762D01*
X-163490477Y73854524D01*
X-163585715Y73806905D01*
%TO.C,Q7*%
X-143677381Y68829762D02*
X-143725000Y68734524D01*
X-143820239Y68639286D01*
X-143963096Y68496429D01*
X-144010715Y68401191D01*
X-144010715Y68305953D01*
X-143772620Y68353572D02*
X-143820239Y68258334D01*
X-143915477Y68163096D01*
X-144105953Y68115477D01*
X-144439286Y68115477D01*
X-144629762Y68163096D01*
X-144725000Y68258334D01*
X-144772620Y68353572D01*
X-144772620Y68544048D01*
X-144725000Y68639286D01*
X-144629762Y68734524D01*
X-144439286Y68782143D01*
X-144105953Y68782143D01*
X-143915477Y68734524D01*
X-143820239Y68639286D01*
X-143772620Y68544048D01*
X-143772620Y68353572D01*
X-144772620Y69115477D02*
X-144772620Y69782143D01*
X-143772620Y69353572D01*
%TO.C,Q5*%
X-131652381Y68854762D02*
X-131700000Y68759524D01*
X-131795239Y68664286D01*
X-131938096Y68521429D01*
X-131985715Y68426191D01*
X-131985715Y68330953D01*
X-131747620Y68378572D02*
X-131795239Y68283334D01*
X-131890477Y68188096D01*
X-132080953Y68140477D01*
X-132414286Y68140477D01*
X-132604762Y68188096D01*
X-132700000Y68283334D01*
X-132747620Y68378572D01*
X-132747620Y68569048D01*
X-132700000Y68664286D01*
X-132604762Y68759524D01*
X-132414286Y68807143D01*
X-132080953Y68807143D01*
X-131890477Y68759524D01*
X-131795239Y68664286D01*
X-131747620Y68569048D01*
X-131747620Y68378572D01*
X-132747620Y69711905D02*
X-132747620Y69235715D01*
X-132271429Y69188096D01*
X-132319048Y69235715D01*
X-132366667Y69330953D01*
X-132366667Y69569048D01*
X-132319048Y69664286D01*
X-132271429Y69711905D01*
X-132176191Y69759524D01*
X-131938096Y69759524D01*
X-131842858Y69711905D01*
X-131795239Y69664286D01*
X-131747620Y69569048D01*
X-131747620Y69330953D01*
X-131795239Y69235715D01*
X-131842858Y69188096D01*
%TO.C,Q6*%
X-102995239Y57047381D02*
X-103090477Y57095000D01*
X-103185715Y57190239D01*
X-103328572Y57333096D01*
X-103423810Y57380715D01*
X-103519048Y57380715D01*
X-103471429Y57142620D02*
X-103566667Y57190239D01*
X-103661905Y57285477D01*
X-103709524Y57475953D01*
X-103709524Y57809286D01*
X-103661905Y57999762D01*
X-103566667Y58095000D01*
X-103471429Y58142620D01*
X-103280953Y58142620D01*
X-103185715Y58095000D01*
X-103090477Y57999762D01*
X-103042858Y57809286D01*
X-103042858Y57475953D01*
X-103090477Y57285477D01*
X-103185715Y57190239D01*
X-103280953Y57142620D01*
X-103471429Y57142620D01*
X-102185715Y58142620D02*
X-102376191Y58142620D01*
X-102471429Y58095000D01*
X-102519048Y58047381D01*
X-102614286Y57904524D01*
X-102661905Y57714048D01*
X-102661905Y57333096D01*
X-102614286Y57237858D01*
X-102566667Y57190239D01*
X-102471429Y57142620D01*
X-102280953Y57142620D01*
X-102185715Y57190239D01*
X-102138096Y57237858D01*
X-102090477Y57333096D01*
X-102090477Y57571191D01*
X-102138096Y57666429D01*
X-102185715Y57714048D01*
X-102280953Y57761667D01*
X-102471429Y57761667D01*
X-102566667Y57714048D01*
X-102614286Y57666429D01*
X-102661905Y57571191D01*
%TO.C,U7*%
X-107661905Y51402620D02*
X-107661905Y50593096D01*
X-107614286Y50497858D01*
X-107566667Y50450239D01*
X-107471429Y50402620D01*
X-107280953Y50402620D01*
X-107185715Y50450239D01*
X-107138096Y50497858D01*
X-107090477Y50593096D01*
X-107090477Y51402620D01*
X-106709524Y51402620D02*
X-106042858Y51402620D01*
X-106471429Y50402620D01*
%TO.C,U8*%
X-107631905Y44452620D02*
X-107631905Y43643096D01*
X-107584286Y43547858D01*
X-107536667Y43500239D01*
X-107441429Y43452620D01*
X-107250953Y43452620D01*
X-107155715Y43500239D01*
X-107108096Y43547858D01*
X-107060477Y43643096D01*
X-107060477Y44452620D01*
X-106441429Y44024048D02*
X-106536667Y44071667D01*
X-106584286Y44119286D01*
X-106631905Y44214524D01*
X-106631905Y44262143D01*
X-106584286Y44357381D01*
X-106536667Y44405000D01*
X-106441429Y44452620D01*
X-106250953Y44452620D01*
X-106155715Y44405000D01*
X-106108096Y44357381D01*
X-106060477Y44262143D01*
X-106060477Y44214524D01*
X-106108096Y44119286D01*
X-106155715Y44071667D01*
X-106250953Y44024048D01*
X-106441429Y44024048D01*
X-106536667Y43976429D01*
X-106584286Y43928810D01*
X-106631905Y43833572D01*
X-106631905Y43643096D01*
X-106584286Y43547858D01*
X-106536667Y43500239D01*
X-106441429Y43452620D01*
X-106250953Y43452620D01*
X-106155715Y43500239D01*
X-106108096Y43547858D01*
X-106060477Y43643096D01*
X-106060477Y43833572D01*
X-106108096Y43928810D01*
X-106155715Y43976429D01*
X-106250953Y44024048D01*
%TO.C,Q8*%
X-102995239Y50027381D02*
X-103090477Y50075000D01*
X-103185715Y50170239D01*
X-103328572Y50313096D01*
X-103423810Y50360715D01*
X-103519048Y50360715D01*
X-103471429Y50122620D02*
X-103566667Y50170239D01*
X-103661905Y50265477D01*
X-103709524Y50455953D01*
X-103709524Y50789286D01*
X-103661905Y50979762D01*
X-103566667Y51075000D01*
X-103471429Y51122620D01*
X-103280953Y51122620D01*
X-103185715Y51075000D01*
X-103090477Y50979762D01*
X-103042858Y50789286D01*
X-103042858Y50455953D01*
X-103090477Y50265477D01*
X-103185715Y50170239D01*
X-103280953Y50122620D01*
X-103471429Y50122620D01*
X-102471429Y50694048D02*
X-102566667Y50741667D01*
X-102614286Y50789286D01*
X-102661905Y50884524D01*
X-102661905Y50932143D01*
X-102614286Y51027381D01*
X-102566667Y51075000D01*
X-102471429Y51122620D01*
X-102280953Y51122620D01*
X-102185715Y51075000D01*
X-102138096Y51027381D01*
X-102090477Y50932143D01*
X-102090477Y50884524D01*
X-102138096Y50789286D01*
X-102185715Y50741667D01*
X-102280953Y50694048D01*
X-102471429Y50694048D01*
X-102566667Y50646429D01*
X-102614286Y50598810D01*
X-102661905Y50503572D01*
X-102661905Y50313096D01*
X-102614286Y50217858D01*
X-102566667Y50170239D01*
X-102471429Y50122620D01*
X-102280953Y50122620D01*
X-102185715Y50170239D01*
X-102138096Y50217858D01*
X-102090477Y50313096D01*
X-102090477Y50503572D01*
X-102138096Y50598810D01*
X-102185715Y50646429D01*
X-102280953Y50694048D01*
%TO.C,D3*%
X-91598096Y34692620D02*
X-91598096Y35692620D01*
X-91360000Y35692620D01*
X-91217143Y35645000D01*
X-91121905Y35549762D01*
X-91074286Y35454524D01*
X-91026667Y35264048D01*
X-91026667Y35121191D01*
X-91074286Y34930715D01*
X-91121905Y34835477D01*
X-91217143Y34740239D01*
X-91360000Y34692620D01*
X-91598096Y34692620D01*
X-90693334Y35692620D02*
X-90074286Y35692620D01*
X-90407620Y35311667D01*
X-90264762Y35311667D01*
X-90169524Y35264048D01*
X-90121905Y35216429D01*
X-90074286Y35121191D01*
X-90074286Y34883096D01*
X-90121905Y34787858D01*
X-90169524Y34740239D01*
X-90264762Y34692620D01*
X-90550477Y34692620D01*
X-90645715Y34740239D01*
X-90693334Y34787858D01*
%TO.C,Q4*%
X-102895239Y64127381D02*
X-102990477Y64175000D01*
X-103085715Y64270239D01*
X-103228572Y64413096D01*
X-103323810Y64460715D01*
X-103419048Y64460715D01*
X-103371429Y64222620D02*
X-103466667Y64270239D01*
X-103561905Y64365477D01*
X-103609524Y64555953D01*
X-103609524Y64889286D01*
X-103561905Y65079762D01*
X-103466667Y65175000D01*
X-103371429Y65222620D01*
X-103180953Y65222620D01*
X-103085715Y65175000D01*
X-102990477Y65079762D01*
X-102942858Y64889286D01*
X-102942858Y64555953D01*
X-102990477Y64365477D01*
X-103085715Y64270239D01*
X-103180953Y64222620D01*
X-103371429Y64222620D01*
X-102085715Y64889286D02*
X-102085715Y64222620D01*
X-102323810Y65270239D02*
X-102561905Y64555953D01*
X-101942858Y64555953D01*
%TO.C,U6*%
X-107651905Y58582620D02*
X-107651905Y57773096D01*
X-107604286Y57677858D01*
X-107556667Y57630239D01*
X-107461429Y57582620D01*
X-107270953Y57582620D01*
X-107175715Y57630239D01*
X-107128096Y57677858D01*
X-107080477Y57773096D01*
X-107080477Y58582620D01*
X-106175715Y58582620D02*
X-106366191Y58582620D01*
X-106461429Y58535000D01*
X-106509048Y58487381D01*
X-106604286Y58344524D01*
X-106651905Y58154048D01*
X-106651905Y57773096D01*
X-106604286Y57677858D01*
X-106556667Y57630239D01*
X-106461429Y57582620D01*
X-106270953Y57582620D01*
X-106175715Y57630239D01*
X-106128096Y57677858D01*
X-106080477Y57773096D01*
X-106080477Y58011191D01*
X-106128096Y58106429D01*
X-106175715Y58154048D01*
X-106270953Y58201667D01*
X-106461429Y58201667D01*
X-106556667Y58154048D01*
X-106604286Y58106429D01*
X-106651905Y58011191D01*
%TO.C,J1*%
X-125208334Y78872620D02*
X-125208334Y78158334D01*
X-125255953Y78015477D01*
X-125351191Y77920239D01*
X-125494048Y77872620D01*
X-125589286Y77872620D01*
X-124208334Y77872620D02*
X-124779762Y77872620D01*
X-124494048Y77872620D02*
X-124494048Y78872620D01*
X-124589286Y78729762D01*
X-124684524Y78634524D01*
X-124779762Y78586905D01*
%TO.C,D2*%
X-153407620Y56096905D02*
X-154407620Y56096905D01*
X-154407620Y56335000D01*
X-154360000Y56477858D01*
X-154264762Y56573096D01*
X-154169524Y56620715D01*
X-153979048Y56668334D01*
X-153836191Y56668334D01*
X-153645715Y56620715D01*
X-153550477Y56573096D01*
X-153455239Y56477858D01*
X-153407620Y56335000D01*
X-153407620Y56096905D01*
X-154312381Y57049286D02*
X-154360000Y57096905D01*
X-154407620Y57192143D01*
X-154407620Y57430239D01*
X-154360000Y57525477D01*
X-154312381Y57573096D01*
X-154217143Y57620715D01*
X-154121905Y57620715D01*
X-153979048Y57573096D01*
X-153407620Y57001667D01*
X-153407620Y57620715D01*
%TO.C,Q1*%
X-159255239Y52957381D02*
X-159350477Y53005000D01*
X-159445715Y53100239D01*
X-159588572Y53243096D01*
X-159683810Y53290715D01*
X-159779048Y53290715D01*
X-159731429Y53052620D02*
X-159826667Y53100239D01*
X-159921905Y53195477D01*
X-159969524Y53385953D01*
X-159969524Y53719286D01*
X-159921905Y53909762D01*
X-159826667Y54005000D01*
X-159731429Y54052620D01*
X-159540953Y54052620D01*
X-159445715Y54005000D01*
X-159350477Y53909762D01*
X-159302858Y53719286D01*
X-159302858Y53385953D01*
X-159350477Y53195477D01*
X-159445715Y53100239D01*
X-159540953Y53052620D01*
X-159731429Y53052620D01*
X-158350477Y53052620D02*
X-158921905Y53052620D01*
X-158636191Y53052620D02*
X-158636191Y54052620D01*
X-158731429Y53909762D01*
X-158826667Y53814524D01*
X-158921905Y53766905D01*
%TO.C,U1*%
X-107601905Y37952620D02*
X-107601905Y37143096D01*
X-107554286Y37047858D01*
X-107506667Y37000239D01*
X-107411429Y36952620D01*
X-107220953Y36952620D01*
X-107125715Y37000239D01*
X-107078096Y37047858D01*
X-107030477Y37143096D01*
X-107030477Y37952620D01*
X-106030477Y36952620D02*
X-106601905Y36952620D01*
X-106316191Y36952620D02*
X-106316191Y37952620D01*
X-106411429Y37809762D01*
X-106506667Y37714524D01*
X-106601905Y37666905D01*
%TO.C,RV1*%
X-168145239Y46222620D02*
X-168478572Y46698810D01*
X-168716667Y46222620D02*
X-168716667Y47222620D01*
X-168335715Y47222620D01*
X-168240477Y47175000D01*
X-168192858Y47127381D01*
X-168145239Y47032143D01*
X-168145239Y46889286D01*
X-168192858Y46794048D01*
X-168240477Y46746429D01*
X-168335715Y46698810D01*
X-168716667Y46698810D01*
X-167859524Y47222620D02*
X-167526191Y46222620D01*
X-167192858Y47222620D01*
X-166335715Y46222620D02*
X-166907143Y46222620D01*
X-166621429Y46222620D02*
X-166621429Y47222620D01*
X-166716667Y47079762D01*
X-166811905Y46984524D01*
X-166907143Y46936905D01*
%TO.C,C8*%
X-102842858Y36958334D02*
X-102795239Y36910715D01*
X-102747620Y36767858D01*
X-102747620Y36672620D01*
X-102795239Y36529762D01*
X-102890477Y36434524D01*
X-102985715Y36386905D01*
X-103176191Y36339286D01*
X-103319048Y36339286D01*
X-103509524Y36386905D01*
X-103604762Y36434524D01*
X-103700000Y36529762D01*
X-103747620Y36672620D01*
X-103747620Y36767858D01*
X-103700000Y36910715D01*
X-103652381Y36958334D01*
X-103319048Y37529762D02*
X-103366667Y37434524D01*
X-103414286Y37386905D01*
X-103509524Y37339286D01*
X-103557143Y37339286D01*
X-103652381Y37386905D01*
X-103700000Y37434524D01*
X-103747620Y37529762D01*
X-103747620Y37720239D01*
X-103700000Y37815477D01*
X-103652381Y37863096D01*
X-103557143Y37910715D01*
X-103509524Y37910715D01*
X-103414286Y37863096D01*
X-103366667Y37815477D01*
X-103319048Y37720239D01*
X-103319048Y37529762D01*
X-103271429Y37434524D01*
X-103223810Y37386905D01*
X-103128572Y37339286D01*
X-102938096Y37339286D01*
X-102842858Y37386905D01*
X-102795239Y37434524D01*
X-102747620Y37529762D01*
X-102747620Y37720239D01*
X-102795239Y37815477D01*
X-102842858Y37863096D01*
X-102938096Y37910715D01*
X-103128572Y37910715D01*
X-103223810Y37863096D01*
X-103271429Y37815477D01*
X-103319048Y37720239D01*
%TO.C,Q3*%
X-119652381Y68829762D02*
X-119700000Y68734524D01*
X-119795239Y68639286D01*
X-119938096Y68496429D01*
X-119985715Y68401191D01*
X-119985715Y68305953D01*
X-119747620Y68353572D02*
X-119795239Y68258334D01*
X-119890477Y68163096D01*
X-120080953Y68115477D01*
X-120414286Y68115477D01*
X-120604762Y68163096D01*
X-120700000Y68258334D01*
X-120747620Y68353572D01*
X-120747620Y68544048D01*
X-120700000Y68639286D01*
X-120604762Y68734524D01*
X-120414286Y68782143D01*
X-120080953Y68782143D01*
X-119890477Y68734524D01*
X-119795239Y68639286D01*
X-119747620Y68544048D01*
X-119747620Y68353572D01*
X-120747620Y69115477D02*
X-120747620Y69734524D01*
X-120366667Y69401191D01*
X-120366667Y69544048D01*
X-120319048Y69639286D01*
X-120271429Y69686905D01*
X-120176191Y69734524D01*
X-119938096Y69734524D01*
X-119842858Y69686905D01*
X-119795239Y69639286D01*
X-119747620Y69544048D01*
X-119747620Y69258334D01*
X-119795239Y69163096D01*
X-119842858Y69115477D01*
%TO.C,C3*%
X-163746667Y52657858D02*
X-163794286Y52610239D01*
X-163937143Y52562620D01*
X-164032381Y52562620D01*
X-164175239Y52610239D01*
X-164270477Y52705477D01*
X-164318096Y52800715D01*
X-164365715Y52991191D01*
X-164365715Y53134048D01*
X-164318096Y53324524D01*
X-164270477Y53419762D01*
X-164175239Y53515000D01*
X-164032381Y53562620D01*
X-163937143Y53562620D01*
X-163794286Y53515000D01*
X-163746667Y53467381D01*
X-163413334Y53562620D02*
X-162794286Y53562620D01*
X-163127620Y53181667D01*
X-162984762Y53181667D01*
X-162889524Y53134048D01*
X-162841905Y53086429D01*
X-162794286Y52991191D01*
X-162794286Y52753096D01*
X-162841905Y52657858D01*
X-162889524Y52610239D01*
X-162984762Y52562620D01*
X-163270477Y52562620D01*
X-163365715Y52610239D01*
X-163413334Y52657858D01*
%TO.C,J3*%
X-81047620Y85061667D02*
X-80333334Y85061667D01*
X-80190477Y85014048D01*
X-80095239Y84918810D01*
X-80047620Y84775953D01*
X-80047620Y84680715D01*
X-81047620Y85442620D02*
X-81047620Y86061667D01*
X-80666667Y85728334D01*
X-80666667Y85871191D01*
X-80619048Y85966429D01*
X-80571429Y86014048D01*
X-80476191Y86061667D01*
X-80238096Y86061667D01*
X-80142858Y86014048D01*
X-80095239Y85966429D01*
X-80047620Y85871191D01*
X-80047620Y85585477D01*
X-80095239Y85490239D01*
X-80142858Y85442620D01*
%TO.C,D4*%
X-70597620Y63086905D02*
X-71597620Y63086905D01*
X-71597620Y63325000D01*
X-71550000Y63467858D01*
X-71454762Y63563096D01*
X-71359524Y63610715D01*
X-71169048Y63658334D01*
X-71026191Y63658334D01*
X-70835715Y63610715D01*
X-70740477Y63563096D01*
X-70645239Y63467858D01*
X-70597620Y63325000D01*
X-70597620Y63086905D01*
X-71264286Y64515477D02*
X-70597620Y64515477D01*
X-71645239Y64277381D02*
X-70930953Y64039286D01*
X-70930953Y64658334D01*
%TO.C,PS1*%
X-155797620Y42860715D02*
X-156797620Y42860715D01*
X-156797620Y43241667D01*
X-156750000Y43336905D01*
X-156702381Y43384524D01*
X-156607143Y43432143D01*
X-156464286Y43432143D01*
X-156369048Y43384524D01*
X-156321429Y43336905D01*
X-156273810Y43241667D01*
X-156273810Y42860715D01*
X-155845239Y43813096D02*
X-155797620Y43955953D01*
X-155797620Y44194048D01*
X-155845239Y44289286D01*
X-155892858Y44336905D01*
X-155988096Y44384524D01*
X-156083334Y44384524D01*
X-156178572Y44336905D01*
X-156226191Y44289286D01*
X-156273810Y44194048D01*
X-156321429Y44003572D01*
X-156369048Y43908334D01*
X-156416667Y43860715D01*
X-156511905Y43813096D01*
X-156607143Y43813096D01*
X-156702381Y43860715D01*
X-156750000Y43908334D01*
X-156797620Y44003572D01*
X-156797620Y44241667D01*
X-156750000Y44384524D01*
X-155797620Y45336905D02*
X-155797620Y44765477D01*
X-155797620Y45051191D02*
X-156797620Y45051191D01*
X-156654762Y44955953D01*
X-156559524Y44860715D01*
X-156511905Y44765477D01*
%TO.C,J2*%
X-103197620Y85391667D02*
X-102483334Y85391667D01*
X-102340477Y85344048D01*
X-102245239Y85248810D01*
X-102197620Y85105953D01*
X-102197620Y85010715D01*
X-103102381Y85820239D02*
X-103150000Y85867858D01*
X-103197620Y85963096D01*
X-103197620Y86201191D01*
X-103150000Y86296429D01*
X-103102381Y86344048D01*
X-103007143Y86391667D01*
X-102911905Y86391667D01*
X-102769048Y86344048D01*
X-102197620Y85772620D01*
X-102197620Y86391667D01*
%TO.C,U2*%
X-92317620Y73213096D02*
X-91508096Y73213096D01*
X-91412858Y73260715D01*
X-91365239Y73308334D01*
X-91317620Y73403572D01*
X-91317620Y73594048D01*
X-91365239Y73689286D01*
X-91412858Y73736905D01*
X-91508096Y73784524D01*
X-92317620Y73784524D01*
X-92222381Y74213096D02*
X-92270000Y74260715D01*
X-92317620Y74355953D01*
X-92317620Y74594048D01*
X-92270000Y74689286D01*
X-92222381Y74736905D01*
X-92127143Y74784524D01*
X-92031905Y74784524D01*
X-91889048Y74736905D01*
X-91317620Y74165477D01*
X-91317620Y74784524D01*
%TO.C,U4*%
X-103647620Y77163096D02*
X-102838096Y77163096D01*
X-102742858Y77210715D01*
X-102695239Y77258334D01*
X-102647620Y77353572D01*
X-102647620Y77544048D01*
X-102695239Y77639286D01*
X-102742858Y77686905D01*
X-102838096Y77734524D01*
X-103647620Y77734524D01*
X-103314286Y78639286D02*
X-102647620Y78639286D01*
X-103695239Y78401191D02*
X-102980953Y78163096D01*
X-102980953Y78782143D01*
%TO.C,F1*%
X-167733334Y80236429D02*
X-168066667Y80236429D01*
X-168066667Y79712620D02*
X-168066667Y80712620D01*
X-167590477Y80712620D01*
X-166685715Y79712620D02*
X-167257143Y79712620D01*
X-166971429Y79712620D02*
X-166971429Y80712620D01*
X-167066667Y80569762D01*
X-167161905Y80474524D01*
X-167257143Y80426905D01*
%TO.C,Q2*%
X-75692381Y70389762D02*
X-75740000Y70294524D01*
X-75835239Y70199286D01*
X-75978096Y70056429D01*
X-76025715Y69961191D01*
X-76025715Y69865953D01*
X-75787620Y69913572D02*
X-75835239Y69818334D01*
X-75930477Y69723096D01*
X-76120953Y69675477D01*
X-76454286Y69675477D01*
X-76644762Y69723096D01*
X-76740000Y69818334D01*
X-76787620Y69913572D01*
X-76787620Y70104048D01*
X-76740000Y70199286D01*
X-76644762Y70294524D01*
X-76454286Y70342143D01*
X-76120953Y70342143D01*
X-75930477Y70294524D01*
X-75835239Y70199286D01*
X-75787620Y70104048D01*
X-75787620Y69913572D01*
X-76692381Y70723096D02*
X-76740000Y70770715D01*
X-76787620Y70865953D01*
X-76787620Y71104048D01*
X-76740000Y71199286D01*
X-76692381Y71246905D01*
X-76597143Y71294524D01*
X-76501905Y71294524D01*
X-76359048Y71246905D01*
X-75787620Y70675477D01*
X-75787620Y71294524D01*
%TO.C,U5*%
X-109861905Y65272620D02*
X-109861905Y64463096D01*
X-109814286Y64367858D01*
X-109766667Y64320239D01*
X-109671429Y64272620D01*
X-109480953Y64272620D01*
X-109385715Y64320239D01*
X-109338096Y64367858D01*
X-109290477Y64463096D01*
X-109290477Y65272620D01*
X-108338096Y65272620D02*
X-108814286Y65272620D01*
X-108861905Y64796429D01*
X-108814286Y64844048D01*
X-108719048Y64891667D01*
X-108480953Y64891667D01*
X-108385715Y64844048D01*
X-108338096Y64796429D01*
X-108290477Y64701191D01*
X-108290477Y64463096D01*
X-108338096Y64367858D01*
X-108385715Y64320239D01*
X-108480953Y64272620D01*
X-108719048Y64272620D01*
X-108814286Y64320239D01*
X-108861905Y64367858D01*
%TO.C,D1*%
X-156787620Y63886905D02*
X-157787620Y63886905D01*
X-157787620Y64125000D01*
X-157740000Y64267858D01*
X-157644762Y64363096D01*
X-157549524Y64410715D01*
X-157359048Y64458334D01*
X-157216191Y64458334D01*
X-157025715Y64410715D01*
X-156930477Y64363096D01*
X-156835239Y64267858D01*
X-156787620Y64125000D01*
X-156787620Y63886905D01*
X-156787620Y65410715D02*
X-156787620Y64839286D01*
X-156787620Y65125000D02*
X-157787620Y65125000D01*
X-157644762Y65029762D01*
X-157549524Y64934524D01*
X-157501905Y64839286D01*
%TO.C,D5*%
X-71948096Y78512620D02*
X-71948096Y79512620D01*
X-71710000Y79512620D01*
X-71567143Y79465000D01*
X-71471905Y79369762D01*
X-71424286Y79274524D01*
X-71376667Y79084048D01*
X-71376667Y78941191D01*
X-71424286Y78750715D01*
X-71471905Y78655477D01*
X-71567143Y78560239D01*
X-71710000Y78512620D01*
X-71948096Y78512620D01*
X-70471905Y79512620D02*
X-70948096Y79512620D01*
X-70995715Y79036429D01*
X-70948096Y79084048D01*
X-70852858Y79131667D01*
X-70614762Y79131667D01*
X-70519524Y79084048D01*
X-70471905Y79036429D01*
X-70424286Y78941191D01*
X-70424286Y78703096D01*
X-70471905Y78607858D01*
X-70519524Y78560239D01*
X-70614762Y78512620D01*
X-70852858Y78512620D01*
X-70948096Y78560239D01*
X-70995715Y78607858D01*
D10*
%TO.C,C11*%
X-92606267Y52535000D02*
X-92313733Y52535000D01*
X-92606267Y53555000D02*
X-92313733Y53555000D01*
%TO.C,C10*%
X-102046267Y71815000D02*
X-101753733Y71815000D01*
X-102046267Y72835000D02*
X-101753733Y72835000D01*
%TO.C,C9*%
X-103260000Y82746267D02*
X-103260000Y82453733D01*
X-102240000Y82746267D02*
X-102240000Y82453733D01*
%TO.C,C7*%
X-79103733Y74585000D02*
X-79396267Y74585000D01*
X-79103733Y73565000D02*
X-79396267Y73565000D01*
%TO.C,C6*%
X-90678767Y78072500D02*
X-90386233Y78072500D01*
X-90678767Y79092500D02*
X-90386233Y79092500D01*
%TO.C,C5*%
X-90671267Y76535000D02*
X-90378733Y76535000D01*
X-90671267Y77555000D02*
X-90378733Y77555000D01*
%TO.C,C4*%
X-94220000Y79853767D02*
X-94220000Y79561233D01*
X-93200000Y79853767D02*
X-93200000Y79561233D01*
%TO.C,C2*%
X-98331267Y81865000D02*
X-98038733Y81865000D01*
X-98331267Y82885000D02*
X-98038733Y82885000D01*
%TO.C,C1*%
X-160846267Y69115000D02*
X-160553733Y69115000D01*
X-160846267Y70135000D02*
X-160553733Y70135000D01*
%TO.C,U3*%
X-76630000Y49415000D02*
X-69730000Y49415000D01*
X-76630000Y46875000D02*
X-76630000Y49415000D01*
D12*
X-96485000Y45835000D02*
X-95215000Y45835000D01*
X-95215000Y45835000D02*
X-95850000Y46470000D01*
X-95850000Y46470000D02*
X-96485000Y45835000D01*
G36*
X-95215000Y45835000D02*
G01*
X-96485000Y45835000D01*
X-95850000Y46470000D01*
X-95215000Y45835000D01*
G37*
X-95215000Y45835000D02*
X-96485000Y45835000D01*
X-95850000Y46470000D01*
X-95215000Y45835000D01*
D10*
X-69730000Y72735000D02*
X-96790000Y72735000D01*
X-76630000Y46875000D02*
X-96960000Y46875000D01*
X-69730000Y49415000D02*
X-69730000Y72735000D01*
%TO.C,R31*%
X-92244724Y67372500D02*
X-91735276Y67372500D01*
X-92244724Y68417500D02*
X-91735276Y68417500D01*
%TO.C,R30*%
X-99102500Y48309724D02*
X-99102500Y47800276D01*
X-98057500Y48309724D02*
X-98057500Y47800276D01*
%TO.C,R29*%
X-99647500Y47800276D02*
X-99647500Y48309724D01*
X-100692500Y47800276D02*
X-100692500Y48309724D01*
%TO.C,R28*%
X-103284724Y44922500D02*
X-102775276Y44922500D01*
X-103284724Y45967500D02*
X-102775276Y45967500D01*
%TO.C,R27*%
X-112960436Y50885000D02*
X-114414564Y50885000D01*
X-112960436Y49065000D02*
X-114414564Y49065000D01*
%TO.C,R26*%
X-99122500Y55449724D02*
X-99122500Y54940276D01*
X-98077500Y55449724D02*
X-98077500Y54940276D01*
%TO.C,R25*%
X-99667500Y54950276D02*
X-99667500Y55459724D01*
X-100712500Y54950276D02*
X-100712500Y55459724D01*
%TO.C,R24*%
X-103179724Y51992500D02*
X-102670276Y51992500D01*
X-103179724Y53037500D02*
X-102670276Y53037500D01*
%TO.C,R23*%
X-112960436Y57885000D02*
X-114414564Y57885000D01*
X-112960436Y56065000D02*
X-114414564Y56065000D01*
%TO.C,R22*%
X-99142500Y62404724D02*
X-99142500Y61895276D01*
X-98097500Y62404724D02*
X-98097500Y61895276D01*
%TO.C,R21*%
X-99717500Y61880276D02*
X-99717500Y62389724D01*
X-100762500Y61880276D02*
X-100762500Y62389724D01*
%TO.C,R20*%
X-103179724Y58982500D02*
X-102670276Y58982500D01*
X-103179724Y60027500D02*
X-102670276Y60027500D01*
%TO.C,R19*%
X-112997934Y64935000D02*
X-114452062Y64935000D01*
X-112997934Y63115000D02*
X-114452062Y63115000D01*
%TO.C,R18*%
X-85177500Y67312776D02*
X-85177500Y67822224D01*
X-86222500Y67312776D02*
X-86222500Y67822224D01*
%TO.C,R17*%
X-114590000Y67497936D02*
X-114590000Y68952064D01*
X-116410000Y67497936D02*
X-116410000Y68952064D01*
%TO.C,R16*%
X-114590000Y73010436D02*
X-114590000Y74464564D01*
X-116410000Y73010436D02*
X-116410000Y74464564D01*
%TO.C,R15*%
X-88752500Y52307224D02*
X-88752500Y51797776D01*
X-87707500Y52307224D02*
X-87707500Y51797776D01*
%TO.C,R14*%
X-114590000Y78697936D02*
X-114590000Y80152064D01*
X-116410000Y78697936D02*
X-116410000Y80152064D01*
%TO.C,R13*%
X-114590000Y84347936D02*
X-114590000Y85802064D01*
X-116410000Y84347936D02*
X-116410000Y85802064D01*
%TO.C,R12*%
X-73412500Y76604724D02*
X-73412500Y76095276D01*
X-72367500Y76604724D02*
X-72367500Y76095276D01*
%TO.C,R11*%
X-70612500Y70475276D02*
X-70612500Y70984724D01*
X-71657500Y70475276D02*
X-71657500Y70984724D01*
%TO.C,R10*%
X-89285275Y81330001D02*
X-89794723Y81330001D01*
X-89285275Y80285001D02*
X-89794723Y80285001D01*
%TO.C,R9*%
X-89280276Y82977500D02*
X-89789724Y82977500D01*
X-89280276Y81932500D02*
X-89789724Y81932500D01*
%TO.C,R8*%
X-73947500Y67065276D02*
X-73947500Y67574724D01*
X-74992500Y67065276D02*
X-74992500Y67574724D01*
%TO.C,R7*%
X-79154724Y44202500D02*
X-78645276Y44202500D01*
X-79154724Y45247500D02*
X-78645276Y45247500D01*
%TO.C,R6*%
X-115075276Y42217500D02*
X-115584724Y42217500D01*
X-115075276Y41172500D02*
X-115584724Y41172500D01*
%TO.C,R5*%
X-94777500Y81195276D02*
X-94777500Y81704724D01*
X-95822500Y81195276D02*
X-95822500Y81704724D01*
%TO.C,R4*%
X-98382500Y78307224D02*
X-98382500Y77797776D01*
X-97337500Y78307224D02*
X-97337500Y77797776D01*
%TO.C,R3*%
X-158770276Y59747500D02*
X-159279724Y59747500D01*
X-158770276Y58702500D02*
X-159279724Y58702500D01*
%TO.C,R2*%
X-156792936Y72635000D02*
X-158247064Y72635000D01*
X-156792936Y70815000D02*
X-158247064Y70815000D01*
%TO.C,R1*%
X-164527064Y70815000D02*
X-163072936Y70815000D01*
X-164527064Y72635000D02*
X-163072936Y72635000D01*
%TO.C,Q7*%
X-145205000Y67089000D02*
X-146715000Y67089000D01*
X-145205000Y70790000D02*
X-146715000Y70790000D01*
X-146715000Y74060000D02*
X-146715000Y63820000D01*
X-145205000Y63820000D02*
X-149846000Y63820000D01*
X-145205000Y74060000D02*
X-149846000Y74060000D01*
X-149846000Y74060000D02*
X-149846000Y63820000D01*
X-145205000Y74060000D02*
X-145205000Y63820000D01*
%TO.C,Q5*%
X-133205000Y67089000D02*
X-134715000Y67089000D01*
X-133205000Y70790000D02*
X-134715000Y70790000D01*
X-134715000Y74060000D02*
X-134715000Y63820000D01*
X-133205000Y63820000D02*
X-137846000Y63820000D01*
X-133205000Y74060000D02*
X-137846000Y74060000D01*
X-137846000Y74060000D02*
X-137846000Y63820000D01*
X-133205000Y74060000D02*
X-133205000Y63820000D01*
%TO.C,Q6*%
X-103810000Y56695000D02*
X-102350000Y56695000D01*
X-103810000Y53535000D02*
X-101650000Y53535000D01*
X-103810000Y53535000D02*
X-103810000Y54465000D01*
X-103810000Y56695000D02*
X-103810000Y55765000D01*
%TO.C,U7*%
X-106050000Y51885000D02*
X-111050000Y51885000D01*
X-110550000Y55725000D02*
X-107550000Y55725000D01*
%TO.C,U8*%
X-106050000Y44855000D02*
X-111050000Y44855000D01*
X-110550000Y48695000D02*
X-107550000Y48695000D01*
%TO.C,Q8*%
X-103810000Y49705000D02*
X-102350000Y49705000D01*
X-103810000Y46545000D02*
X-101650000Y46545000D01*
X-103810000Y46545000D02*
X-103810000Y47475000D01*
X-103810000Y49705000D02*
X-103810000Y48775000D01*
%TO.C,D3*%
X-93050000Y36125000D02*
X-93050000Y41825000D01*
X-88750000Y36125000D02*
X-88750000Y41825000D01*
X-93050000Y36125000D02*
X-88750000Y36125000D01*
%TO.C,Q4*%
X-103810000Y63685000D02*
X-102350000Y63685000D01*
X-103810000Y60525000D02*
X-101650000Y60525000D01*
X-103810000Y60525000D02*
X-103810000Y61455000D01*
X-103810000Y63685000D02*
X-103810000Y62755000D01*
%TO.C,U6*%
X-106050000Y58905000D02*
X-111050000Y58905000D01*
X-110550000Y62745000D02*
X-107550000Y62745000D01*
%TO.C,J1*%
X-122750000Y78715000D02*
X-123350000Y78715000D01*
X-123050000Y79315000D02*
X-122750000Y78715000D01*
X-123350000Y78715000D02*
X-123050000Y79315000D01*
X-152780000Y90235000D02*
X-152530000Y91735000D01*
X-154280000Y90235000D02*
X-152780000Y90235000D01*
X-154530000Y91735000D02*
X-154280000Y90235000D01*
X-152530000Y91735000D02*
X-154530000Y91735000D01*
X-147700000Y90235000D02*
X-147450000Y91735000D01*
X-149200000Y90235000D02*
X-147700000Y90235000D01*
X-149450000Y91735000D02*
X-149200000Y90235000D01*
X-147450000Y91735000D02*
X-149450000Y91735000D01*
X-142620000Y90235000D02*
X-142370000Y91735000D01*
X-144120000Y90235000D02*
X-142620000Y90235000D01*
X-144370000Y91735000D02*
X-144120000Y90235000D01*
X-142370000Y91735000D02*
X-144370000Y91735000D01*
X-137540000Y90235000D02*
X-137290000Y91735000D01*
X-139040000Y90235000D02*
X-137540000Y90235000D01*
X-139290000Y91735000D02*
X-139040000Y90235000D01*
X-137290000Y91735000D02*
X-139290000Y91735000D01*
X-132460000Y90235000D02*
X-132210000Y91735000D01*
X-133960000Y90235000D02*
X-132460000Y90235000D01*
X-134210000Y91735000D02*
X-133960000Y90235000D01*
X-132210000Y91735000D02*
X-134210000Y91735000D01*
X-127380000Y90235000D02*
X-127130000Y91735000D01*
X-128880000Y90235000D02*
X-127380000Y90235000D01*
X-129130000Y91735000D02*
X-128880000Y90235000D01*
X-127130000Y91735000D02*
X-129130000Y91735000D01*
X-122300000Y90235000D02*
X-122050000Y91735000D01*
X-123800000Y90235000D02*
X-122300000Y90235000D01*
X-124050000Y91735000D02*
X-123800000Y90235000D01*
X-122050000Y91735000D02*
X-124050000Y91735000D01*
X-157180000Y90235000D02*
X-119400000Y90235000D01*
X-157180000Y88435000D02*
X-157180000Y90235000D01*
X-119400000Y88435000D02*
X-157180000Y88435000D01*
X-119400000Y90235000D02*
X-119400000Y88435000D01*
X-157180000Y79515000D02*
X-119400000Y79515000D01*
X-157180000Y91735000D02*
X-157180000Y79515000D01*
X-119400000Y91735000D02*
X-157180000Y91735000D01*
X-119400000Y79515000D02*
X-119400000Y91735000D01*
%TO.C,D2*%
X-154900000Y59075000D02*
X-154900000Y55175000D01*
X-156900000Y59075000D02*
X-156900000Y55175000D01*
X-154900000Y59075000D02*
X-156900000Y59075000D01*
%TO.C,Q1*%
X-157520000Y56985000D02*
X-157520000Y55525000D01*
X-160680000Y56985000D02*
X-160680000Y54825000D01*
X-160680000Y56985000D02*
X-159750000Y56985000D01*
X-157520000Y56985000D02*
X-158450000Y56985000D01*
%TO.C,U1*%
X-106555000Y42395000D02*
X-106555000Y42245000D01*
X-111355000Y42395000D02*
X-106555000Y42395000D01*
X-111355000Y42245000D02*
X-111355000Y42395000D01*
X-111355000Y38395000D02*
X-111355000Y38545000D01*
X-106555000Y38395000D02*
X-111355000Y38395000D01*
X-106555000Y38545000D02*
X-106555000Y38395000D01*
X-111355000Y42245000D02*
X-113055000Y42245000D01*
D12*
%TO.C,RV1*%
X-159850000Y48025000D02*
X-159850000Y51925000D01*
X-175350000Y48025000D02*
X-175350000Y51925000D01*
X-159850000Y48025000D02*
X-175350000Y48025000D01*
X-159850000Y51925000D02*
X-175350000Y51925000D01*
D10*
%TO.C,C8*%
X-101010000Y34475000D02*
X-100010000Y34475000D01*
X-100510000Y33975000D02*
X-100510000Y34975000D01*
X-94804437Y35215000D02*
X-93740000Y36279437D01*
X-101195563Y35215000D02*
X-102260000Y36279437D01*
X-101195563Y35215000D02*
X-99510000Y35215000D01*
X-94804437Y35215000D02*
X-96490000Y35215000D01*
X-93740000Y36279437D02*
X-93740000Y43735000D01*
X-102260000Y36279437D02*
X-102260000Y43735000D01*
X-102260000Y43735000D02*
X-99510000Y43735000D01*
X-93740000Y43735000D02*
X-96490000Y43735000D01*
%TO.C,Q3*%
X-121205000Y67089000D02*
X-122715000Y67089000D01*
X-121205000Y70790000D02*
X-122715000Y70790000D01*
X-122715000Y74060000D02*
X-122715000Y63820000D01*
X-121205000Y63820000D02*
X-125846000Y63820000D01*
X-121205000Y74060000D02*
X-125846000Y74060000D01*
X-125846000Y74060000D02*
X-125846000Y63820000D01*
X-121205000Y74060000D02*
X-121205000Y63820000D01*
%TO.C,C3*%
X-161790001Y59925000D02*
X-162290001Y59925000D01*
X-162040001Y60175000D02*
X-162040001Y59675000D01*
X-164795564Y59435000D02*
X-165860001Y58370563D01*
X-162404438Y59435000D02*
X-161340001Y58370563D01*
X-162404438Y59435000D02*
X-162540001Y59435000D01*
X-164795564Y59435000D02*
X-164660001Y59435000D01*
X-165860001Y58370563D02*
X-165860001Y54915000D01*
X-161340001Y58370563D02*
X-161340001Y54915000D01*
X-161340001Y54915000D02*
X-162540001Y54915000D01*
X-165860001Y54915000D02*
X-164660001Y54915000D01*
%TO.C,J3*%
X-82990000Y85515000D02*
X-82990000Y84300000D01*
X-83050000Y89475000D02*
X-83050000Y91735000D01*
X-83550000Y89475000D02*
X-83550000Y91735000D01*
X-90150000Y87875000D02*
X-91150000Y87875000D01*
X-90150000Y89475000D02*
X-90150000Y87875000D01*
X-91150000Y89475000D02*
X-90150000Y89475000D01*
X-91150000Y87875000D02*
X-91150000Y89475000D01*
X-83550000Y87875000D02*
X-82550000Y87875000D01*
X-83550000Y89475000D02*
X-83550000Y87875000D01*
X-82550000Y89475000D02*
X-83550000Y89475000D01*
X-82550000Y87875000D02*
X-82550000Y89475000D01*
X-91910000Y85515000D02*
X-90990000Y85515000D01*
X-81790000Y85515000D02*
X-82710000Y85515000D01*
X-89350000Y87375000D02*
X-89350000Y91735000D01*
X-84350000Y87375000D02*
X-89350000Y87375000D01*
X-84350000Y91735000D02*
X-84350000Y87375000D01*
X-90990000Y85515000D02*
X-90710000Y85515000D01*
X-90990000Y83915000D02*
X-90990000Y85515000D01*
X-91910000Y83915000D02*
X-90990000Y83915000D01*
X-91910000Y91735000D02*
X-91910000Y83915000D01*
X-81790000Y91735000D02*
X-91910000Y91735000D01*
X-81790000Y83915000D02*
X-81790000Y91735000D01*
X-82710000Y83915000D02*
X-81790000Y83915000D01*
X-82710000Y85515000D02*
X-82710000Y83915000D01*
X-82990000Y85515000D02*
X-82710000Y85515000D01*
%TO.C,D4*%
X-70140000Y65190000D02*
X-70140000Y68050000D01*
X-72060000Y65190000D02*
X-70140000Y65190000D01*
X-72060000Y68050000D02*
X-72060000Y65190000D01*
%TO.C,PS1*%
X-155390000Y45225000D02*
X-155390000Y43215000D01*
X-120800000Y51825000D02*
X-155000000Y51825000D01*
X-120800000Y31625000D02*
X-120800000Y51825000D01*
X-155000000Y31625000D02*
X-120800000Y31625000D01*
X-155000000Y51825000D02*
X-155000000Y31625000D01*
%TO.C,J2*%
X-94440000Y85515000D02*
X-94440000Y84300000D01*
X-94500000Y89475000D02*
X-94500000Y91735000D01*
X-95000000Y89475000D02*
X-95000000Y91735000D01*
X-99600000Y87875000D02*
X-100600000Y87875000D01*
X-99600000Y89475000D02*
X-99600000Y87875000D01*
X-100600000Y89475000D02*
X-99600000Y89475000D01*
X-100600000Y87875000D02*
X-100600000Y89475000D01*
X-95000000Y87875000D02*
X-94000000Y87875000D01*
X-95000000Y89475000D02*
X-95000000Y87875000D01*
X-94000000Y89475000D02*
X-95000000Y89475000D01*
X-94000000Y87875000D02*
X-94000000Y89475000D01*
X-101360000Y85515000D02*
X-100440000Y85515000D01*
X-93240000Y85515000D02*
X-94160000Y85515000D01*
X-98800000Y87375000D02*
X-98800000Y91735000D01*
X-95800000Y87375000D02*
X-98800000Y87375000D01*
X-95800000Y91735000D02*
X-95800000Y87375000D01*
X-100440000Y85515000D02*
X-100160000Y85515000D01*
X-100440000Y83915000D02*
X-100440000Y85515000D01*
X-101360000Y83915000D02*
X-100440000Y83915000D01*
X-101360000Y91735000D02*
X-101360000Y83915000D01*
X-93240000Y91735000D02*
X-101360000Y91735000D01*
X-93240000Y83915000D02*
X-93240000Y91735000D01*
X-94160000Y83915000D02*
X-93240000Y83915000D01*
X-94160000Y85515000D02*
X-94160000Y83915000D01*
X-94440000Y85515000D02*
X-94160000Y85515000D01*
%TO.C,Case*%
X-158850000Y78225000D02*
G75*
G03*
X-158850000Y78225000I-3000000J0D01*
G01*
X-158850000Y41725000D02*
G75*
G03*
X-158850000Y41725000I-3000000J0D01*
G01*
X-81350000Y41725000D02*
G75*
G03*
X-81350000Y41725000I-3000000J0D01*
G01*
X-81350000Y78225000D02*
G75*
G03*
X-81350000Y78225000I-3000000J0D01*
G01*
%TO.C,U2*%
X-92750000Y74675000D02*
X-92750000Y77625000D01*
X-95970000Y76475000D02*
X-95970000Y74675000D01*
%TO.C,U4*%
X-106650000Y87365000D02*
X-108100000Y87365000D01*
X-106650000Y77085000D02*
X-106650000Y87365000D01*
X-111550000Y77085000D02*
X-106650000Y77085000D01*
X-111550000Y87365000D02*
X-111550000Y77085000D01*
X-110100000Y87365000D02*
X-111550000Y87365000D01*
X-108100000Y87365000D02*
G75*
G02*
X-110100000Y87365000I-1000000J0D01*
G01*
%TO.C,F1*%
X-176610000Y77675000D02*
X-173450000Y77675000D01*
X-176610000Y77675000D02*
X-176610000Y54955000D01*
X-166790000Y77675000D02*
X-166790000Y54955000D01*
X-169950000Y77675000D02*
X-166790000Y77675000D01*
X-169950000Y54955000D02*
X-166790000Y54955000D01*
X-176610000Y54955000D02*
X-173450000Y54955000D01*
%TO.C,Q2*%
X-72270000Y71635000D02*
X-72270000Y70175000D01*
X-75430000Y71635000D02*
X-75430000Y69475000D01*
X-75430000Y71635000D02*
X-74500000Y71635000D01*
X-72270000Y71635000D02*
X-73200000Y71635000D01*
%TO.C,U5*%
X-106660000Y76175000D02*
X-108110000Y76175000D01*
X-106660000Y65895000D02*
X-106660000Y76175000D01*
X-111560000Y65895000D02*
X-106660000Y65895000D01*
X-111560000Y76175000D02*
X-111560000Y65895000D01*
X-110110000Y76175000D02*
X-111560000Y76175000D01*
X-108110000Y76175000D02*
G75*
G02*
X-110110000Y76175000I-1000000J0D01*
G01*
%TO.C,D1*%
X-163140000Y66825000D02*
X-162340000Y66825000D01*
X-163140000Y62425000D02*
X-163140000Y66825000D01*
X-162340000Y62425000D02*
X-163140000Y62425000D01*
X-158140000Y62425000D02*
X-158140000Y66825000D01*
X-158940000Y62425000D02*
X-158140000Y62425000D01*
X-159840000Y66825000D02*
X-161440000Y66825000D01*
X-159840000Y62425000D02*
X-161440000Y62425000D01*
X-158640000Y66825000D02*
X-158640000Y68225000D01*
X-158140000Y66825000D02*
X-158640000Y66825000D01*
%TO.C,D5*%
X-70140000Y74535000D02*
X-70140000Y77395000D01*
X-72060000Y74535000D02*
X-70140000Y74535000D01*
X-72060000Y77395000D02*
X-72060000Y74535000D01*
%TD*%
M02*
