%TF.GenerationSoftware,KiCad,Pcbnew,5.99.0-unknown-r23745-2d001796*%
%TF.CreationDate,2020-11-15T20:41:39+01:00*%
%TF.ProjectId,MadPresso,4d616450-7265-4737-936f-2e6b69636164,rev?*%
%TF.SameCoordinates,PXa8e54e0PY549d608*%
%TF.FileFunction,Soldermask,Bot*%
%TF.FilePolarity,Negative*%
%FSLAX46Y46*%
G04 Gerber Fmt 4.6, Leading zero omitted, Abs format (unit mm)*
G04 Created by KiCad (PCBNEW 5.99.0-unknown-r23745-2d001796) date 2020-11-15 20:41:39*
%MOMM*%
%LPD*%
G01*
G04 APERTURE LIST*
G04 Aperture macros list*
%AMRoundRect*
0 Rectangle with rounded corners*
0 $1 Rounding radius*
0 $2 $3 $4 $5 $6 $7 $8 $9 X,Y pos of 4 corners*
0 Add a 4 corners polygon primitive as box body*
4,1,4,$2,$3,$4,$5,$6,$7,$8,$9,$2,$3,0*
0 Add four circle primitives for the rounded corners*
1,1,$1+$1,$2,$3,0*
1,1,$1+$1,$4,$5,0*
1,1,$1+$1,$6,$7,0*
1,1,$1+$1,$8,$9,0*
0 Add four rect primitives between the rounded corners*
20,1,$1+$1,$2,$3,$4,$5,0*
20,1,$1+$1,$4,$5,$6,$7,0*
20,1,$1+$1,$6,$7,$8,$9,0*
20,1,$1+$1,$8,$9,$2,$3,0*%
G04 Aperture macros list end*
%ADD10O,1.600000X2.000000*%
%ADD11R,2.000000X2.000000*%
%ADD12O,2.000000X1.905000*%
%ADD13R,2.000000X1.905000*%
%ADD14O,2.080000X3.600000*%
%ADD15RoundRect,0.249999X0.790001X1.550001X-0.790001X1.550001X-0.790001X-1.550001X0.790001X-1.550001X0*%
%ADD16C,1.800000*%
%ADD17O,1.200000X1.750000*%
%ADD18RoundRect,0.250000X0.350000X0.625000X-0.350000X0.625000X-0.350000X-0.625000X0.350000X-0.625000X0*%
%ADD19C,2.300000*%
%ADD20R,2.300000X2.000000*%
%ADD21C,3.500000*%
%ADD22C,2.700000*%
%ADD23C,3.000000*%
G04 APERTURE END LIST*
D10*
%TO.C,U3*%
X-95850000Y71235000D03*
X-93310000Y71235000D03*
X-90770000Y71235000D03*
X-88230000Y71235000D03*
X-85690000Y71235000D03*
X-83150000Y71235000D03*
X-80610000Y71235000D03*
X-78070000Y71235000D03*
X-78070000Y48375000D03*
X-80610000Y48375000D03*
X-83150000Y48375000D03*
X-85690000Y48375000D03*
X-88230000Y48375000D03*
X-90770000Y48375000D03*
D11*
X-95850000Y48375000D03*
D10*
X-93310000Y48375000D03*
%TD*%
D12*
%TO.C,Q7*%
X-148475000Y66400000D03*
X-148475000Y68940000D03*
D13*
X-148475000Y71480000D03*
%TD*%
D12*
%TO.C,Q5*%
X-136475000Y66400000D03*
X-136475000Y68940000D03*
D13*
X-136475000Y71480000D03*
%TD*%
D14*
%TO.C,J1*%
X-153530000Y81625000D03*
X-148450000Y81625000D03*
X-143370000Y81625000D03*
X-138290000Y81625000D03*
X-133210000Y81625000D03*
X-128130000Y81625000D03*
D15*
X-123050000Y81625000D03*
%TD*%
D16*
%TO.C,RV1*%
X-171350000Y50675000D03*
X-163850000Y49275000D03*
%TD*%
D12*
%TO.C,Q3*%
X-124475000Y66400000D03*
X-124475000Y68940000D03*
D13*
X-124475000Y71480000D03*
%TD*%
D17*
%TO.C,J3*%
X-89850000Y85375000D03*
X-87850000Y85375000D03*
X-85850000Y85375000D03*
D18*
X-83850000Y85375000D03*
%TD*%
D19*
%TO.C,PS1*%
X-123200000Y34025000D03*
X-152600000Y39225000D03*
D20*
X-152600000Y44225000D03*
D19*
X-123200000Y49425000D03*
%TD*%
D17*
%TO.C,J2*%
X-99300000Y85375000D03*
X-97300000Y85375000D03*
D18*
X-95300000Y85375000D03*
%TD*%
D21*
%TO.C,Case*%
X-161850000Y78225000D03*
X-161850000Y41725000D03*
X-84350000Y78225000D03*
X-84350000Y41725000D03*
%TD*%
D22*
%TO.C,F1*%
X-171700000Y66315000D03*
D23*
X-171700000Y55065000D03*
X-171700000Y77565000D03*
%TD*%
M02*
