%TF.GenerationSoftware,KiCad,Pcbnew,5.99.0-unknown-r23745-2d001796*%
%TF.CreationDate,2020-11-15T20:41:38+01:00*%
%TF.ProjectId,MadPresso,4d616450-7265-4737-936f-2e6b69636164,rev?*%
%TF.SameCoordinates,PXa8e54e0PY549d608*%
%TF.FileFunction,Copper,L1,Top*%
%TF.FilePolarity,Positive*%
%FSLAX46Y46*%
G04 Gerber Fmt 4.6, Leading zero omitted, Abs format (unit mm)*
G04 Created by KiCad (PCBNEW 5.99.0-unknown-r23745-2d001796) date 2020-11-15 20:41:38*
%MOMM*%
%LPD*%
G01*
G04 APERTURE LIST*
G04 Aperture macros list*
%AMRoundRect*
0 Rectangle with rounded corners*
0 $1 Rounding radius*
0 $2 $3 $4 $5 $6 $7 $8 $9 X,Y pos of 4 corners*
0 Add a 4 corners polygon primitive as box body*
4,1,4,$2,$3,$4,$5,$6,$7,$8,$9,$2,$3,0*
0 Add four circle primitives for the rounded corners*
1,1,$1+$1,$2,$3,0*
1,1,$1+$1,$4,$5,0*
1,1,$1+$1,$6,$7,0*
1,1,$1+$1,$8,$9,0*
0 Add four rect primitives between the rounded corners*
20,1,$1+$1,$2,$3,$4,$5,0*
20,1,$1+$1,$4,$5,$6,$7,0*
20,1,$1+$1,$6,$7,$8,$9,0*
20,1,$1+$1,$8,$9,$2,$3,0*%
G04 Aperture macros list end*
%TA.AperFunction,NonConductor*%
%ADD10C,1.000000*%
%TD*%
%ADD11C,0.300000*%
%TA.AperFunction,EtchedComponent*%
%ADD12C,0.381000*%
%TD*%
%TA.AperFunction,SMDPad,CuDef*%
%ADD13RoundRect,0.237500X-0.300000X-0.237500X0.300000X-0.237500X0.300000X0.237500X-0.300000X0.237500X0*%
%TD*%
%TA.AperFunction,SMDPad,CuDef*%
%ADD14RoundRect,0.237500X-0.237500X0.300000X-0.237500X-0.300000X0.237500X-0.300000X0.237500X0.300000X0*%
%TD*%
%TA.AperFunction,SMDPad,CuDef*%
%ADD15RoundRect,0.237500X0.300000X0.237500X-0.300000X0.237500X-0.300000X-0.237500X0.300000X-0.237500X0*%
%TD*%
%TA.AperFunction,ComponentPad*%
%ADD16O,1.600000X2.000000*%
%TD*%
%TA.AperFunction,ComponentPad*%
%ADD17R,2.000000X2.000000*%
%TD*%
%TA.AperFunction,SMDPad,CuDef*%
%ADD18RoundRect,0.237500X-0.250000X-0.237500X0.250000X-0.237500X0.250000X0.237500X-0.250000X0.237500X0*%
%TD*%
%TA.AperFunction,SMDPad,CuDef*%
%ADD19RoundRect,0.237500X-0.237500X0.250000X-0.237500X-0.250000X0.237500X-0.250000X0.237500X0.250000X0*%
%TD*%
%TA.AperFunction,SMDPad,CuDef*%
%ADD20RoundRect,0.237500X0.237500X-0.250000X0.237500X0.250000X-0.237500X0.250000X-0.237500X-0.250000X0*%
%TD*%
%TA.AperFunction,SMDPad,CuDef*%
%ADD21RoundRect,0.250000X0.400000X0.625000X-0.400000X0.625000X-0.400000X-0.625000X0.400000X-0.625000X0*%
%TD*%
%TA.AperFunction,SMDPad,CuDef*%
%ADD22RoundRect,0.250000X0.625000X-0.400000X0.625000X0.400000X-0.625000X0.400000X-0.625000X-0.400000X0*%
%TD*%
%TA.AperFunction,SMDPad,CuDef*%
%ADD23RoundRect,0.237500X0.250000X0.237500X-0.250000X0.237500X-0.250000X-0.237500X0.250000X-0.237500X0*%
%TD*%
%TA.AperFunction,SMDPad,CuDef*%
%ADD24RoundRect,0.250000X-0.400000X-0.625000X0.400000X-0.625000X0.400000X0.625000X-0.400000X0.625000X0*%
%TD*%
%TA.AperFunction,ComponentPad*%
%ADD25O,2.000000X1.905000*%
%TD*%
%TA.AperFunction,ComponentPad*%
%ADD26R,2.000000X1.905000*%
%TD*%
%TA.AperFunction,SMDPad,CuDef*%
%ADD27R,0.900000X0.800000*%
%TD*%
%TA.AperFunction,SMDPad,CuDef*%
%ADD28R,1.200000X0.800000*%
%TD*%
%TA.AperFunction,SMDPad,CuDef*%
%ADD29R,2.300000X2.500000*%
%TD*%
%TA.AperFunction,ComponentPad*%
%ADD30O,2.080000X3.600000*%
%TD*%
%TA.AperFunction,ComponentPad*%
%ADD31RoundRect,0.249999X0.790001X1.550001X-0.790001X1.550001X-0.790001X-1.550001X0.790001X-1.550001X0*%
%TD*%
%TA.AperFunction,SMDPad,CuDef*%
%ADD32R,1.200000X0.900000*%
%TD*%
%TA.AperFunction,SMDPad,CuDef*%
%ADD33R,0.800000X0.900000*%
%TD*%
%TA.AperFunction,SMDPad,CuDef*%
%ADD34R,2.000000X0.640000*%
%TD*%
%TA.AperFunction,ComponentPad*%
%ADD35C,1.800000*%
%TD*%
%TA.AperFunction,SMDPad,CuDef*%
%ADD36RoundRect,0.250000X1.000000X-1.500000X1.000000X1.500000X-1.000000X1.500000X-1.000000X-1.500000X0*%
%TD*%
%TA.AperFunction,SMDPad,CuDef*%
%ADD37RoundRect,0.250000X-0.550000X1.050000X-0.550000X-1.050000X0.550000X-1.050000X0.550000X1.050000X0*%
%TD*%
%TA.AperFunction,ComponentPad*%
%ADD38O,1.200000X1.750000*%
%TD*%
%TA.AperFunction,ComponentPad*%
%ADD39RoundRect,0.250000X0.350000X0.625000X-0.350000X0.625000X-0.350000X-0.625000X0.350000X-0.625000X0*%
%TD*%
%TA.AperFunction,SMDPad,CuDef*%
%ADD40RoundRect,0.250000X0.450000X-0.325000X0.450000X0.325000X-0.450000X0.325000X-0.450000X-0.325000X0*%
%TD*%
%TA.AperFunction,ComponentPad*%
%ADD41C,2.300000*%
%TD*%
%TA.AperFunction,ComponentPad*%
%ADD42R,2.300000X2.000000*%
%TD*%
%TA.AperFunction,SMDPad,CuDef*%
%ADD43R,0.650000X1.560000*%
%TD*%
%TA.AperFunction,SMDPad,CuDef*%
%ADD44R,2.000000X1.780000*%
%TD*%
%TA.AperFunction,ComponentPad*%
%ADD45C,3.000000*%
%TD*%
%TA.AperFunction,SMDPad,CuDef*%
%ADD46R,0.800000X1.000000*%
%TD*%
%TA.AperFunction,ViaPad*%
%ADD47C,0.800000*%
%TD*%
%TA.AperFunction,ViaPad*%
%ADD48C,1.200000*%
%TD*%
%TA.AperFunction,Conductor*%
%ADD49C,3.000000*%
%TD*%
%TA.AperFunction,Conductor*%
%ADD50C,0.250000*%
%TD*%
%TA.AperFunction,Conductor*%
%ADD51C,1.000000*%
%TD*%
%TA.AperFunction,Conductor*%
%ADD52C,0.500000*%
%TD*%
G04 APERTURE END LIST*
D10*
X-165800000Y85725000D02*
G75*
G03*
X-165800000Y85725000I-300000J0D01*
G01*
X-165800000Y33725000D02*
G75*
G03*
X-165800000Y33725000I-300000J0D01*
G01*
X-80800000Y33725000D02*
G75*
G03*
X-80800000Y33725000I-300000J0D01*
G01*
D11*
X-146585715Y57253929D02*
X-146585715Y58753929D01*
X-146085715Y57682500D01*
X-145585715Y58753929D01*
X-145585715Y57253929D01*
X-144228572Y57253929D02*
X-144228572Y58039643D01*
X-144300000Y58182500D01*
X-144442858Y58253929D01*
X-144728572Y58253929D01*
X-144871429Y58182500D01*
X-144228572Y57325358D02*
X-144371429Y57253929D01*
X-144728572Y57253929D01*
X-144871429Y57325358D01*
X-144942858Y57468215D01*
X-144942858Y57611072D01*
X-144871429Y57753929D01*
X-144728572Y57825358D01*
X-144371429Y57825358D01*
X-144228572Y57896786D01*
X-142871429Y57253929D02*
X-142871429Y58753929D01*
X-142871429Y57325358D02*
X-143014286Y57253929D01*
X-143300000Y57253929D01*
X-143442858Y57325358D01*
X-143514286Y57396786D01*
X-143585715Y57539643D01*
X-143585715Y57968215D01*
X-143514286Y58111072D01*
X-143442858Y58182500D01*
X-143300000Y58253929D01*
X-143014286Y58253929D01*
X-142871429Y58182500D01*
X-142157143Y57253929D02*
X-142157143Y58753929D01*
X-141585715Y58753929D01*
X-141442858Y58682500D01*
X-141371429Y58611072D01*
X-141300000Y58468215D01*
X-141300000Y58253929D01*
X-141371429Y58111072D01*
X-141442858Y58039643D01*
X-141585715Y57968215D01*
X-142157143Y57968215D01*
X-140657143Y57253929D02*
X-140657143Y58253929D01*
X-140657143Y57968215D02*
X-140585715Y58111072D01*
X-140514286Y58182500D01*
X-140371429Y58253929D01*
X-140228572Y58253929D01*
X-139157143Y57325358D02*
X-139300000Y57253929D01*
X-139585715Y57253929D01*
X-139728572Y57325358D01*
X-139800000Y57468215D01*
X-139800000Y58039643D01*
X-139728572Y58182500D01*
X-139585715Y58253929D01*
X-139300000Y58253929D01*
X-139157143Y58182500D01*
X-139085715Y58039643D01*
X-139085715Y57896786D01*
X-139800000Y57753929D01*
X-138514286Y57325358D02*
X-138371429Y57253929D01*
X-138085715Y57253929D01*
X-137942858Y57325358D01*
X-137871429Y57468215D01*
X-137871429Y57539643D01*
X-137942858Y57682500D01*
X-138085715Y57753929D01*
X-138300000Y57753929D01*
X-138442858Y57825358D01*
X-138514286Y57968215D01*
X-138514286Y58039643D01*
X-138442858Y58182500D01*
X-138300000Y58253929D01*
X-138085715Y58253929D01*
X-137942858Y58182500D01*
X-137300000Y57325358D02*
X-137157143Y57253929D01*
X-136871429Y57253929D01*
X-136728572Y57325358D01*
X-136657143Y57468215D01*
X-136657143Y57539643D01*
X-136728572Y57682500D01*
X-136871429Y57753929D01*
X-137085715Y57753929D01*
X-137228572Y57825358D01*
X-137300000Y57968215D01*
X-137300000Y58039643D01*
X-137228572Y58182500D01*
X-137085715Y58253929D01*
X-136871429Y58253929D01*
X-136728572Y58182500D01*
X-135800000Y57253929D02*
X-135942858Y57325358D01*
X-136014286Y57396786D01*
X-136085715Y57539643D01*
X-136085715Y57968215D01*
X-136014286Y58111072D01*
X-135942858Y58182500D01*
X-135800000Y58253929D01*
X-135585715Y58253929D01*
X-135442858Y58182500D01*
X-135371429Y58111072D01*
X-135300000Y57968215D01*
X-135300000Y57539643D01*
X-135371429Y57396786D01*
X-135442858Y57325358D01*
X-135585715Y57253929D01*
X-135800000Y57253929D01*
X-133657143Y58253929D02*
X-133300000Y57253929D01*
X-132942858Y58253929D01*
X-131585715Y57253929D02*
X-132442858Y57253929D01*
X-132014286Y57253929D02*
X-132014286Y58753929D01*
X-132157143Y58539643D01*
X-132300000Y58396786D01*
X-132442858Y58325358D01*
X-130942858Y57396786D02*
X-130871429Y57325358D01*
X-130942858Y57253929D01*
X-131014286Y57325358D01*
X-130942858Y57396786D01*
X-130942858Y57253929D01*
X-129442858Y57253929D02*
X-130300000Y57253929D01*
X-129871429Y57253929D02*
X-129871429Y58753929D01*
X-130014286Y58539643D01*
X-130157143Y58396786D01*
X-130300000Y58325358D01*
X-141978572Y54838929D02*
X-142835715Y54838929D01*
X-142407143Y54838929D02*
X-142407143Y56338929D01*
X-142550000Y56124643D01*
X-142692858Y55981786D01*
X-142835715Y55910358D01*
X-140550000Y54838929D02*
X-141407143Y54838929D01*
X-140978572Y54838929D02*
X-140978572Y56338929D01*
X-141121429Y56124643D01*
X-141264286Y55981786D01*
X-141407143Y55910358D01*
X-138835715Y56410358D02*
X-140121429Y54481786D01*
X-138407143Y56196072D02*
X-138335715Y56267500D01*
X-138192858Y56338929D01*
X-137835715Y56338929D01*
X-137692858Y56267500D01*
X-137621429Y56196072D01*
X-137550000Y56053215D01*
X-137550000Y55910358D01*
X-137621429Y55696072D01*
X-138478572Y54838929D01*
X-137550000Y54838929D01*
X-136621429Y56338929D02*
X-136478572Y56338929D01*
X-136335715Y56267500D01*
X-136264286Y56196072D01*
X-136192858Y56053215D01*
X-136121429Y55767500D01*
X-136121429Y55410358D01*
X-136192858Y55124643D01*
X-136264286Y54981786D01*
X-136335715Y54910358D01*
X-136478572Y54838929D01*
X-136621429Y54838929D01*
X-136764286Y54910358D01*
X-136835715Y54981786D01*
X-136907143Y55124643D01*
X-136978572Y55410358D01*
X-136978572Y55767500D01*
X-136907143Y56053215D01*
X-136835715Y56196072D01*
X-136764286Y56267500D01*
X-136621429Y56338929D01*
X-135550001Y56196072D02*
X-135478572Y56267500D01*
X-135335715Y56338929D01*
X-134978572Y56338929D01*
X-134835715Y56267500D01*
X-134764286Y56196072D01*
X-134692858Y56053215D01*
X-134692858Y55910358D01*
X-134764286Y55696072D01*
X-135621429Y54838929D01*
X-134692858Y54838929D01*
X-133764286Y56338929D02*
X-133621429Y56338929D01*
X-133478572Y56267500D01*
X-133407143Y56196072D01*
X-133335715Y56053215D01*
X-133264286Y55767500D01*
X-133264286Y55410358D01*
X-133335715Y55124643D01*
X-133407143Y54981786D01*
X-133478572Y54910358D01*
X-133621429Y54838929D01*
X-133764286Y54838929D01*
X-133907143Y54910358D01*
X-133978572Y54981786D01*
X-134050001Y55124643D01*
X-134121429Y55410358D01*
X-134121429Y55767500D01*
X-134050001Y56053215D01*
X-133978572Y56196072D01*
X-133907143Y56267500D01*
X-133764286Y56338929D01*
D12*
%TO.C,REF\u002A\u002A*%
X-160130000Y84163000D02*
X-160511000Y84163000D01*
X-159749000Y84163000D02*
X-160130000Y84163000D01*
X-159241000Y84417000D02*
X-159749000Y84163000D01*
X-158987000Y84544000D02*
X-159241000Y84417000D01*
X-158860000Y84925000D02*
X-158987000Y84544000D01*
X-158860000Y85306000D02*
X-158860000Y84925000D01*
X-158987000Y85687000D02*
X-158860000Y85306000D01*
X-159241000Y86195000D02*
X-158987000Y85687000D01*
X-159495000Y86576000D02*
X-159241000Y86195000D01*
X-160003000Y87084000D02*
X-159495000Y86576000D01*
X-160638000Y87338000D02*
X-160003000Y87084000D01*
X-161273000Y87465000D02*
X-160638000Y87338000D01*
X-161781000Y87465000D02*
X-161273000Y87465000D01*
X-162416000Y87211000D02*
X-161781000Y87465000D01*
X-163051000Y86830000D02*
X-162416000Y87211000D01*
X-163559000Y86322000D02*
X-163051000Y86830000D01*
X-163813000Y85687000D02*
X-163559000Y86322000D01*
X-163940000Y85179000D02*
X-163813000Y85687000D01*
X-163940000Y84925000D02*
X-163940000Y85179000D01*
X-162543000Y84163000D02*
X-162162000Y84163000D01*
X-163178000Y84290000D02*
X-162543000Y84163000D01*
X-163686000Y84417000D02*
X-163178000Y84290000D01*
X-163813000Y84671000D02*
X-163686000Y84417000D01*
X-163940000Y84925000D02*
X-163813000Y84671000D01*
X-162416000Y83401000D02*
X-162416000Y84163000D01*
X-162416000Y83020000D02*
X-162416000Y83401000D01*
X-161273000Y82385000D02*
X-161654000Y82385000D01*
X-160765000Y82512000D02*
X-161273000Y82385000D01*
X-160384000Y82639000D02*
X-160765000Y82512000D01*
X-160257000Y83020000D02*
X-160384000Y82639000D01*
X-160257000Y83401000D02*
X-160257000Y83020000D01*
X-160257000Y84163000D02*
X-160257000Y83401000D01*
X-162035000Y82512000D02*
X-161654000Y82385000D01*
X-162289000Y82766000D02*
X-162035000Y82512000D01*
X-162416000Y83020000D02*
X-162289000Y82766000D01*
X-161654000Y84544000D02*
X-161400000Y85306000D01*
X-161146000Y84544000D02*
X-161654000Y84544000D01*
X-161400000Y85306000D02*
X-161146000Y84544000D01*
X-160100019Y85306000D02*
G75*
G03*
X-160100019Y85306000I-283981J0D01*
G01*
X-162132019Y85306000D02*
G75*
G03*
X-162132019Y85306000I-283981J0D01*
G01*
X-161908000Y83274000D02*
X-161908000Y83782000D01*
X-160765000Y83274000D02*
X-161908000Y83274000D01*
X-160765000Y83782000D02*
X-160765000Y83274000D01*
X-161908000Y83782000D02*
X-160765000Y83782000D01*
X-161273000Y83655000D02*
X-161273000Y83401000D01*
X-159114000Y86576000D02*
X-158479000Y87084000D01*
X-158479000Y87084000D02*
X-158479000Y87592000D01*
X-158479000Y87084000D02*
X-157971000Y87211000D01*
X-163051000Y83782000D02*
X-164067000Y82893000D01*
X-164067000Y82893000D02*
X-164448000Y82893000D01*
X-164067000Y82893000D02*
X-164067000Y82385000D01*
X-163813000Y86576000D02*
X-164321000Y86957000D01*
X-164321000Y86957000D02*
X-164321000Y87338000D01*
X-164321000Y86957000D02*
X-164702000Y86830000D01*
X-158733000Y82893000D02*
X-158479000Y82893000D01*
X-159622000Y83782000D02*
X-158733000Y82893000D01*
X-158733000Y82512000D02*
X-158606000Y82512000D01*
X-158733000Y82893000D02*
X-158733000Y82512000D01*
%TD*%
D13*
%TO.P,C11,2*%
%TO.N,GND*%
X-91597500Y53045000D03*
%TO.P,C11,1*%
%TO.N,/ADC*%
X-93322500Y53045000D03*
%TD*%
%TO.P,C10,2*%
%TO.N,GND*%
X-101037500Y72325000D03*
%TO.P,C10,1*%
%TO.N,Net-(C10-Pad1)*%
X-102762500Y72325000D03*
%TD*%
D14*
%TO.P,C9,2*%
%TO.N,GND*%
X-102750000Y81737500D03*
%TO.P,C9,1*%
%TO.N,Net-(C9-Pad1)*%
X-102750000Y83462500D03*
%TD*%
D15*
%TO.P,C7,2*%
%TO.N,GND*%
X-80112500Y74075000D03*
%TO.P,C7,1*%
%TO.N,+5V*%
X-78387500Y74075000D03*
%TD*%
D13*
%TO.P,C6,2*%
%TO.N,GND*%
X-89670000Y78582500D03*
%TO.P,C6,1*%
%TO.N,VCC*%
X-91395000Y78582500D03*
%TD*%
%TO.P,C5,2*%
%TO.N,GND*%
X-89662500Y77045000D03*
%TO.P,C5,1*%
%TO.N,VCC*%
X-91387500Y77045000D03*
%TD*%
D14*
%TO.P,C4,2*%
%TO.N,GND*%
X-93710000Y78845000D03*
%TO.P,C4,1*%
%TO.N,Net-(U2-Pad3)*%
X-93710000Y80570000D03*
%TD*%
D13*
%TO.P,C2,2*%
%TO.N,GND*%
X-97322500Y82375000D03*
%TO.P,C2,1*%
%TO.N,+5V*%
X-99047500Y82375000D03*
%TD*%
%TO.P,C1,2*%
%TO.N,Net-(D1-Pad1)*%
X-159837500Y69625000D03*
%TO.P,C1,1*%
%TO.N,Net-(C1-Pad1)*%
X-161562500Y69625000D03*
%TD*%
D16*
%TO.P,U3,16,TX*%
%TO.N,N/C*%
X-95850000Y71235000D03*
%TO.P,U3,15,RX*%
X-93310000Y71235000D03*
%TO.P,U3,14,SCL/D1*%
%TO.N,/SCL*%
X-90770000Y71235000D03*
%TO.P,U3,13,SDA/D2*%
%TO.N,/SDA*%
X-88230000Y71235000D03*
%TO.P,U3,12,D3*%
%TO.N,/STEAM_SENSOR*%
X-85690000Y71235000D03*
%TO.P,U3,11,D4*%
%TO.N,/LED*%
X-83150000Y71235000D03*
%TO.P,U3,10,GND*%
%TO.N,GND*%
X-80610000Y71235000D03*
%TO.P,U3,9,5V*%
%TO.N,+5V*%
X-78070000Y71235000D03*
%TO.P,U3,8,3V3*%
%TO.N,VCC*%
X-78070000Y48375000D03*
%TO.P,U3,7,CS/D8*%
%TO.N,/HEATER_TRIAC*%
X-80610000Y48375000D03*
%TO.P,U3,6,MOSI/D7*%
%TO.N,/PUMP_TRIAC*%
X-83150000Y48375000D03*
%TO.P,U3,5,MISO/D6*%
%TO.N,/ZC_DETECT*%
X-85690000Y48375000D03*
%TO.P,U3,4,SCK/D5*%
%TO.N,/SHOT_SENSOR*%
X-88230000Y48375000D03*
%TO.P,U3,3,D0*%
%TO.N,/VALVE_TRIAC*%
X-90770000Y48375000D03*
D17*
%TO.P,U3,1,~RST*%
%TO.N,N/C*%
X-95850000Y48375000D03*
D16*
%TO.P,U3,2,A0*%
%TO.N,/ADC*%
X-93310000Y48375000D03*
%TD*%
D18*
%TO.P,R31,2*%
%TO.N,GND*%
X-91077500Y67895000D03*
%TO.P,R31,1*%
%TO.N,Net-(U2-Pad4)*%
X-92902500Y67895000D03*
%TD*%
D19*
%TO.P,R30,2*%
%TO.N,Net-(Q8-Pad1)*%
X-98580000Y47142500D03*
%TO.P,R30,1*%
%TO.N,/VALVE_TRIAC*%
X-98580000Y48967500D03*
%TD*%
D20*
%TO.P,R29,2*%
%TO.N,GND*%
X-100170000Y48967500D03*
%TO.P,R29,1*%
%TO.N,Net-(Q8-Pad1)*%
X-100170000Y47142500D03*
%TD*%
D18*
%TO.P,R28,2*%
%TO.N,+5V*%
X-102117500Y45445000D03*
%TO.P,R28,1*%
%TO.N,Net-(R28-Pad1)*%
X-103942500Y45445000D03*
%TD*%
D21*
%TO.P,R27,2*%
%TO.N,LINE*%
X-115237500Y49975000D03*
%TO.P,R27,1*%
%TO.N,Net-(R27-Pad1)*%
X-112137500Y49975000D03*
%TD*%
D19*
%TO.P,R26,2*%
%TO.N,Net-(Q6-Pad1)*%
X-98600000Y54282500D03*
%TO.P,R26,1*%
%TO.N,/PUMP_TRIAC*%
X-98600000Y56107500D03*
%TD*%
D20*
%TO.P,R25,2*%
%TO.N,GND*%
X-100190000Y56117500D03*
%TO.P,R25,1*%
%TO.N,Net-(Q6-Pad1)*%
X-100190000Y54292500D03*
%TD*%
D18*
%TO.P,R24,2*%
%TO.N,+5V*%
X-102012500Y52515000D03*
%TO.P,R24,1*%
%TO.N,Net-(R24-Pad1)*%
X-103837500Y52515000D03*
%TD*%
D21*
%TO.P,R23,2*%
%TO.N,LINE*%
X-115237500Y56975000D03*
%TO.P,R23,1*%
%TO.N,Net-(R23-Pad1)*%
X-112137500Y56975000D03*
%TD*%
D19*
%TO.P,R22,2*%
%TO.N,Net-(Q4-Pad1)*%
X-98620000Y61237500D03*
%TO.P,R22,1*%
%TO.N,/HEATER_TRIAC*%
X-98620000Y63062500D03*
%TD*%
D20*
%TO.P,R21,2*%
%TO.N,GND*%
X-100240000Y63047500D03*
%TO.P,R21,1*%
%TO.N,Net-(Q4-Pad1)*%
X-100240000Y61222500D03*
%TD*%
D18*
%TO.P,R20,2*%
%TO.N,+5V*%
X-102012500Y59505000D03*
%TO.P,R20,1*%
%TO.N,Net-(R20-Pad1)*%
X-103837500Y59505000D03*
%TD*%
D21*
%TO.P,R19,2*%
%TO.N,LINE*%
X-115274998Y64025000D03*
%TO.P,R19,1*%
%TO.N,Net-(R19-Pad1)*%
X-112174998Y64025000D03*
%TD*%
D20*
%TO.P,R18,2*%
%TO.N,/STEAM_SENSOR*%
X-85700000Y68480000D03*
%TO.P,R18,1*%
%TO.N,VCC*%
X-85700000Y66655000D03*
%TD*%
D22*
%TO.P,R17,2*%
%TO.N,Net-(R17-Pad2)*%
X-115500000Y69775000D03*
%TO.P,R17,1*%
%TO.N,/STEAM_SW*%
X-115500000Y66675000D03*
%TD*%
%TO.P,R16,2*%
%TO.N,Net-(R16-Pad2)*%
X-115500000Y75287500D03*
%TO.P,R16,1*%
%TO.N,NEUT*%
X-115500000Y72187500D03*
%TD*%
D19*
%TO.P,R15,2*%
%TO.N,/SHOT_SENSOR*%
X-88230000Y51140000D03*
%TO.P,R15,1*%
%TO.N,VCC*%
X-88230000Y52965000D03*
%TD*%
D22*
%TO.P,R14,2*%
%TO.N,Net-(R14-Pad2)*%
X-115500000Y80975000D03*
%TO.P,R14,1*%
%TO.N,/SHOT_SW*%
X-115500000Y77875000D03*
%TD*%
%TO.P,R13,2*%
%TO.N,Net-(R13-Pad2)*%
X-115500000Y86625000D03*
%TO.P,R13,1*%
%TO.N,NEUT*%
X-115500000Y83525000D03*
%TD*%
D19*
%TO.P,R12,2*%
%TO.N,+5V*%
X-72890000Y75437500D03*
%TO.P,R12,1*%
%TO.N,Net-(D5-Pad2)*%
X-72890000Y77262500D03*
%TD*%
D20*
%TO.P,R11,2*%
%TO.N,Net-(Q2-Pad2)*%
X-71135000Y71642500D03*
%TO.P,R11,1*%
%TO.N,Net-(D4-Pad2)*%
X-71135000Y69817500D03*
%TD*%
D23*
%TO.P,R10,2*%
%TO.N,VCC*%
X-90452499Y80807501D03*
%TO.P,R10,1*%
%TO.N,/SDA*%
X-88627499Y80807501D03*
%TD*%
%TO.P,R9,2*%
%TO.N,VCC*%
X-90447500Y82455000D03*
%TO.P,R9,1*%
%TO.N,/SCL*%
X-88622500Y82455000D03*
%TD*%
D20*
%TO.P,R8,2*%
%TO.N,Net-(Q2-Pad1)*%
X-74470000Y68232500D03*
%TO.P,R8,1*%
%TO.N,/LED*%
X-74470000Y66407500D03*
%TD*%
D18*
%TO.P,R7,2*%
%TO.N,VCC*%
X-77987500Y44725000D03*
%TO.P,R7,1*%
%TO.N,/ZC_DETECT*%
X-79812500Y44725000D03*
%TD*%
D23*
%TO.P,R6,2*%
%TO.N,Net-(C3-Pad1)*%
X-116242500Y41695000D03*
%TO.P,R6,1*%
%TO.N,Net-(R6-Pad1)*%
X-114417500Y41695000D03*
%TD*%
D20*
%TO.P,R5,2*%
%TO.N,/TEMP_SENSOR*%
X-95300000Y82362500D03*
%TO.P,R5,1*%
%TO.N,Net-(U2-Pad3)*%
X-95300000Y80537500D03*
%TD*%
D19*
%TO.P,R4,2*%
%TO.N,/ADC*%
X-97860000Y77140000D03*
%TO.P,R4,1*%
%TO.N,/TEMP_SENSOR*%
X-97860000Y78965000D03*
%TD*%
D23*
%TO.P,R3,2*%
%TO.N,Net-(C3-Pad1)*%
X-159937500Y59225000D03*
%TO.P,R3,1*%
%TO.N,Net-(D2-Pad1)*%
X-158112500Y59225000D03*
%TD*%
D21*
%TO.P,R2,2*%
%TO.N,Net-(D1-Pad1)*%
X-159070000Y71725000D03*
%TO.P,R2,1*%
%TO.N,NEUT*%
X-155970000Y71725000D03*
%TD*%
D24*
%TO.P,R1,2*%
%TO.N,Net-(C1-Pad1)*%
X-162250000Y71725000D03*
%TO.P,R1,1*%
%TO.N,/LINE_FUSED*%
X-165350000Y71725000D03*
%TD*%
D25*
%TO.P,Q7,3,G*%
%TO.N,Net-(Q7-Pad3)*%
X-148475000Y66400000D03*
%TO.P,Q7,2,A2*%
%TO.N,LINE*%
X-148475000Y68940000D03*
D26*
%TO.P,Q7,1,A1*%
%TO.N,/VALVE*%
X-148475000Y71480000D03*
%TD*%
D25*
%TO.P,Q5,3,G*%
%TO.N,Net-(Q5-Pad3)*%
X-136475000Y66400000D03*
%TO.P,Q5,2,A2*%
%TO.N,LINE*%
X-136475000Y68940000D03*
D26*
%TO.P,Q5,1,A1*%
%TO.N,/PUMP*%
X-136475000Y71480000D03*
%TD*%
D27*
%TO.P,Q6,3,D*%
%TO.N,Net-(Q6-Pad3)*%
X-104050000Y55115000D03*
%TO.P,Q6,2,S*%
%TO.N,GND*%
X-102050000Y56065000D03*
%TO.P,Q6,1,G*%
%TO.N,Net-(Q6-Pad1)*%
X-102050000Y54165000D03*
%TD*%
D28*
%TO.P,U7,1*%
%TO.N,Net-(R24-Pad1)*%
X-105900000Y52535000D03*
%TO.P,U7,4*%
%TO.N,Net-(R23-Pad1)*%
X-112200000Y55075000D03*
%TO.P,U7,3*%
%TO.N,Net-(Q6-Pad3)*%
X-105900000Y55075000D03*
%TO.P,U7,6*%
%TO.N,Net-(Q5-Pad3)*%
X-112200000Y52535000D03*
%TD*%
%TO.P,U8,1*%
%TO.N,Net-(R28-Pad1)*%
X-105900000Y45505000D03*
%TO.P,U8,4*%
%TO.N,Net-(R27-Pad1)*%
X-112200000Y48045000D03*
%TO.P,U8,3*%
%TO.N,Net-(Q8-Pad3)*%
X-105900000Y48045000D03*
%TO.P,U8,6*%
%TO.N,Net-(Q7-Pad3)*%
X-112200000Y45505000D03*
%TD*%
D27*
%TO.P,Q8,3,D*%
%TO.N,Net-(Q8-Pad3)*%
X-104050000Y48125000D03*
%TO.P,Q8,2,S*%
%TO.N,GND*%
X-102050000Y49075000D03*
%TO.P,Q8,1,G*%
%TO.N,Net-(Q8-Pad1)*%
X-102050000Y47175000D03*
%TD*%
D29*
%TO.P,D3,2,A2*%
%TO.N,GND*%
X-90900000Y41825000D03*
%TO.P,D3,1,A1*%
%TO.N,+5V*%
X-90900000Y37525000D03*
%TD*%
D27*
%TO.P,Q4,3,D*%
%TO.N,Net-(Q4-Pad3)*%
X-104050000Y62105000D03*
%TO.P,Q4,2,S*%
%TO.N,GND*%
X-102050000Y63055000D03*
%TO.P,Q4,1,G*%
%TO.N,Net-(Q4-Pad1)*%
X-102050000Y61155000D03*
%TD*%
D28*
%TO.P,U6,1*%
%TO.N,Net-(R20-Pad1)*%
X-105900000Y59555000D03*
%TO.P,U6,4*%
%TO.N,Net-(R19-Pad1)*%
X-112200000Y62095000D03*
%TO.P,U6,3*%
%TO.N,Net-(Q4-Pad3)*%
X-105900000Y62095000D03*
%TO.P,U6,6*%
%TO.N,Net-(Q3-Pad3)*%
X-112200000Y59555000D03*
%TD*%
D30*
%TO.P,J1,7,Pin_7*%
%TO.N,NEUT*%
X-153530000Y81625000D03*
%TO.P,J1,6,Pin_6*%
%TO.N,LINE*%
X-148450000Y81625000D03*
%TO.P,J1,5,Pin_5*%
%TO.N,/VALVE*%
X-143370000Y81625000D03*
%TO.P,J1,4,Pin_4*%
%TO.N,/PUMP*%
X-138290000Y81625000D03*
%TO.P,J1,3,Pin_3*%
%TO.N,/HEATER*%
X-133210000Y81625000D03*
%TO.P,J1,2,Pin_2*%
%TO.N,/STEAM_SW*%
X-128130000Y81625000D03*
D31*
%TO.P,J1,1,Pin_1*%
%TO.N,/SHOT_SW*%
X-123050000Y81625000D03*
%TD*%
D32*
%TO.P,D2,2,A*%
%TO.N,Net-(C3-Pad2)*%
X-155900000Y55175000D03*
%TO.P,D2,1,K*%
%TO.N,Net-(D2-Pad1)*%
X-155900000Y58475000D03*
%TD*%
D33*
%TO.P,Q1,3,C*%
%TO.N,Net-(Q1-Pad3)*%
X-159100000Y57225000D03*
%TO.P,Q1,2,E*%
%TO.N,Net-(C3-Pad2)*%
X-158150000Y55225000D03*
%TO.P,Q1,1,B*%
%TO.N,Net-(D2-Pad1)*%
X-160050000Y55225000D03*
%TD*%
D34*
%TO.P,U1,4*%
%TO.N,/ZC_DETECT*%
X-105805000Y41665000D03*
%TO.P,U1,3*%
%TO.N,GND*%
X-105805000Y39125000D03*
%TO.P,U1,2*%
%TO.N,Net-(Q1-Pad3)*%
X-112105000Y39125000D03*
%TO.P,U1,1*%
%TO.N,Net-(R6-Pad1)*%
X-112105000Y41665000D03*
%TD*%
D35*
%TO.P,RV1,2*%
%TO.N,/LINE_FUSED*%
X-171350000Y50675000D03*
%TO.P,RV1,1*%
%TO.N,NEUT*%
X-163850000Y49275000D03*
%TD*%
D36*
%TO.P,C8,2*%
%TO.N,GND*%
X-98000000Y42725000D03*
%TO.P,C8,1*%
%TO.N,+5V*%
X-98000000Y36225000D03*
%TD*%
D25*
%TO.P,Q3,3,G*%
%TO.N,Net-(Q3-Pad3)*%
X-124475000Y66400000D03*
%TO.P,Q3,2,A2*%
%TO.N,LINE*%
X-124475000Y68940000D03*
D26*
%TO.P,Q3,1,A1*%
%TO.N,/HEATER*%
X-124475000Y71480000D03*
%TD*%
D37*
%TO.P,C3,2*%
%TO.N,Net-(C3-Pad2)*%
X-163600001Y55375000D03*
%TO.P,C3,1*%
%TO.N,Net-(C3-Pad1)*%
X-163600001Y58975000D03*
%TD*%
D38*
%TO.P,J3,4,Pin_4*%
%TO.N,VCC*%
X-89850000Y85375000D03*
%TO.P,J3,3,Pin_3*%
%TO.N,GND*%
X-87850000Y85375000D03*
%TO.P,J3,2,Pin_2*%
%TO.N,/SCL*%
X-85850000Y85375000D03*
D39*
%TO.P,J3,1,Pin_1*%
%TO.N,/SDA*%
X-83850000Y85375000D03*
%TD*%
D40*
%TO.P,D4,2,A*%
%TO.N,Net-(D4-Pad2)*%
X-71100000Y68075000D03*
%TO.P,D4,1,K*%
%TO.N,GND*%
X-71100000Y66025000D03*
%TD*%
D41*
%TO.P,PS1,4,+Vout*%
%TO.N,+5V*%
X-123200000Y34025000D03*
%TO.P,PS1,2,AC/N*%
%TO.N,/LINE_FUSED*%
X-152600000Y39225000D03*
D42*
%TO.P,PS1,1,AC/L*%
%TO.N,NEUT*%
X-152600000Y44225000D03*
D41*
%TO.P,PS1,3,-Vout*%
%TO.N,GND*%
X-123200000Y49425000D03*
%TD*%
D38*
%TO.P,J2,3,Pin_3*%
%TO.N,+5V*%
X-99300000Y85375000D03*
%TO.P,J2,2,Pin_2*%
%TO.N,GND*%
X-97300000Y85375000D03*
D39*
%TO.P,J2,1,Pin_1*%
%TO.N,/TEMP_SENSOR*%
X-95300000Y85375000D03*
%TD*%
D43*
%TO.P,U2,5,SCL*%
%TO.N,/SCL*%
X-94360000Y74225000D03*
%TO.P,U2,6,SDA*%
%TO.N,/SDA*%
X-93410000Y74225000D03*
%TO.P,U2,4,ADDR*%
%TO.N,Net-(U2-Pad4)*%
X-95310000Y74225000D03*
%TO.P,U2,3,VIN*%
%TO.N,Net-(U2-Pad3)*%
X-95310000Y76925000D03*
%TO.P,U2,2,GND*%
%TO.N,GND*%
X-94360000Y76925000D03*
%TO.P,U2,1,VA*%
%TO.N,VCC*%
X-93410000Y76925000D03*
%TD*%
D44*
%TO.P,U4,8,VCC*%
%TO.N,+5V*%
X-105290000Y86035000D03*
%TO.P,U4,4,NC*%
%TO.N,N/C*%
X-112910000Y78415000D03*
%TO.P,U4,7,AUX*%
%TO.N,Net-(C9-Pad1)*%
X-105290000Y83495000D03*
%TO.P,U4,3,AC*%
%TO.N,Net-(R14-Pad2)*%
X-112910000Y80955000D03*
%TO.P,U4,6,VOUT*%
%TO.N,/SHOT_SENSOR*%
X-105290000Y80955000D03*
%TO.P,U4,2,NC*%
%TO.N,N/C*%
X-112910000Y83495000D03*
%TO.P,U4,5,GND*%
%TO.N,GND*%
X-105290000Y78415000D03*
%TO.P,U4,1,AC*%
%TO.N,Net-(R13-Pad2)*%
X-112910000Y86035000D03*
%TD*%
D45*
%TO.P,F1,2*%
%TO.N,/LINE_FUSED*%
X-171700000Y55065000D03*
%TO.P,F1,1*%
%TO.N,LINE*%
X-171700000Y77565000D03*
%TD*%
D33*
%TO.P,Q2,3,D*%
%TO.N,VCC*%
X-73850000Y71875000D03*
%TO.P,Q2,2,S*%
%TO.N,Net-(Q2-Pad2)*%
X-72900000Y69875000D03*
%TO.P,Q2,1,G*%
%TO.N,Net-(Q2-Pad1)*%
X-74800000Y69875000D03*
%TD*%
D44*
%TO.P,U5,8,VCC*%
%TO.N,+5V*%
X-105300000Y74845000D03*
%TO.P,U5,4,NC*%
%TO.N,N/C*%
X-112920000Y67225000D03*
%TO.P,U5,7,AUX*%
%TO.N,Net-(C10-Pad1)*%
X-105300000Y72305000D03*
%TO.P,U5,3,AC*%
%TO.N,Net-(R17-Pad2)*%
X-112920000Y69765000D03*
%TO.P,U5,6,VOUT*%
%TO.N,/STEAM_SENSOR*%
X-105300000Y69765000D03*
%TO.P,U5,2,NC*%
%TO.N,N/C*%
X-112920000Y72305000D03*
%TO.P,U5,5,GND*%
%TO.N,GND*%
X-105300000Y67225000D03*
%TO.P,U5,1,AC*%
%TO.N,Net-(R16-Pad2)*%
X-112920000Y74845000D03*
%TD*%
D46*
%TO.P,D1,4,-*%
%TO.N,Net-(D2-Pad1)*%
X-159370000Y61550000D03*
%TO.P,D1,3,+*%
%TO.N,Net-(C3-Pad1)*%
X-161910000Y61550000D03*
%TO.P,D1,2,~~*%
%TO.N,Net-(C1-Pad1)*%
X-161910000Y67700000D03*
%TO.P,D1,1,~~*%
%TO.N,Net-(D1-Pad1)*%
X-159370000Y67700000D03*
%TD*%
D40*
%TO.P,D5,2,A*%
%TO.N,Net-(D5-Pad2)*%
X-71100000Y77420000D03*
%TO.P,D5,1,K*%
%TO.N,GND*%
X-71100000Y75370000D03*
%TD*%
D47*
%TO.N,GND*%
X-91600000Y51765000D03*
%TO.N,/ADC*%
X-93310000Y51785000D03*
X-93280000Y65815000D03*
%TO.N,/PUMP_TRIAC*%
X-83090000Y54085000D03*
%TO.N,/SHOT_SENSOR*%
X-88190000Y64005000D03*
%TO.N,/HEATER_TRIAC*%
X-81260000Y53935000D03*
%TO.N,GND*%
X-102410000Y79625000D03*
%TO.N,/SHOT_SENSOR*%
X-101650000Y65915000D03*
X-103520000Y80305000D03*
%TO.N,GND*%
X-89680000Y67885000D03*
X-91700000Y75545000D03*
X-100200000Y57595000D03*
D48*
X-90900000Y44625000D03*
D47*
X-72100000Y64375000D03*
X-100250000Y64525000D03*
X-103100000Y67425000D03*
X-100170000Y50375000D03*
D48*
X-100600000Y42825000D03*
D47*
X-101000000Y70925000D03*
X-103755000Y38895000D03*
X-96760000Y75545000D03*
X-71950000Y73655000D03*
X-97300000Y80995000D03*
%TO.N,VCC*%
X-73840000Y73335000D03*
%TO.N,LINE*%
X-115150000Y51575000D03*
X-116900000Y64025000D03*
X-115200000Y58525000D03*
%TO.N,NEUT*%
X-117300000Y76255000D03*
X-117300000Y83225000D03*
%TO.N,+5V*%
X-100800000Y45425000D03*
X-94800000Y39425000D03*
%TO.N,/LED*%
X-76030000Y66945000D03*
%TO.N,Net-(C3-Pad1)*%
X-161650000Y58425000D03*
X-143300000Y49725000D03*
%TO.N,Net-(Q1-Pad3)*%
X-157700000Y56975000D03*
X-144550000Y50875000D03*
%TD*%
D49*
%TO.N,/HEATER*%
X-127525000Y74625000D02*
X-124980000Y72080000D01*
D50*
%TO.N,/ADC*%
X-97860000Y77140000D02*
X-97860000Y68945000D01*
X-97860000Y68945000D02*
X-94710000Y65795000D01*
%TO.N,/TEMP_SENSOR*%
X-97860000Y78965000D02*
X-97190000Y78965000D01*
X-97190000Y78965000D02*
X-96340000Y79815000D01*
X-96340000Y79815000D02*
X-96340000Y81785000D01*
X-96340000Y81785000D02*
X-95770000Y82355000D01*
X-95770000Y82355000D02*
X-95280000Y82355000D01*
%TO.N,Net-(U2-Pad3)*%
X-95310000Y76925000D02*
X-95310000Y80545000D01*
X-95310000Y80545000D02*
X-95320000Y80555000D01*
%TO.N,GND*%
X-91597500Y51767500D02*
X-91600000Y51765000D01*
X-91597500Y53045000D02*
X-91597500Y51767500D01*
%TO.N,/ADC*%
X-93322500Y53045000D02*
X-93322500Y51797500D01*
X-93322500Y51797500D02*
X-93310000Y51785000D01*
%TO.N,/HEATER_TRIAC*%
X-81260000Y61225000D02*
X-81260000Y53935000D01*
%TO.N,VCC*%
X-79940000Y63295000D02*
X-79940000Y52965000D01*
%TO.N,/ADC*%
X-93200000Y65815000D02*
X-94710000Y65795000D01*
%TO.N,/STEAM_SENSOR*%
X-87470000Y66725000D02*
X-87470000Y67925000D01*
X-87470000Y67925000D02*
X-86920000Y68475000D01*
X-86920000Y68475000D02*
X-85720000Y68475000D01*
%TO.N,VCC*%
X-85700000Y66655000D02*
X-83300000Y66655000D01*
X-88230000Y52965000D02*
X-79940000Y52965000D01*
X-79940000Y52965000D02*
X-78940000Y52965000D01*
X-83300000Y66655000D02*
X-79940000Y63295000D01*
%TO.N,/STEAM_SENSOR*%
X-102640000Y69765000D02*
X-100390000Y69765000D01*
X-100390000Y69765000D02*
X-97360000Y66735000D01*
X-97360000Y66735000D02*
X-95470000Y64845000D01*
X-95470000Y64845000D02*
X-89350000Y64845000D01*
X-89350000Y64845000D02*
X-87470000Y66725000D01*
%TO.N,/SHOT_SENSOR*%
X-98656410Y65915000D02*
X-96746410Y64005000D01*
X-96746410Y64005000D02*
X-88190000Y64005000D01*
X-101650000Y65915000D02*
X-98656410Y65915000D01*
%TO.N,/STEAM_SENSOR*%
X-105300000Y69765000D02*
X-102640000Y69765000D01*
X-85700000Y68495000D02*
X-85700000Y71325000D01*
%TO.N,/PUMP_TRIAC*%
X-92345000Y56070000D02*
X-84935000Y56070000D01*
X-84935000Y56070000D02*
X-83090000Y54225000D01*
X-83090000Y54225000D02*
X-83090000Y54085000D01*
%TO.N,/HEATER_TRIAC*%
X-93500000Y63125000D02*
X-83160000Y63125000D01*
X-83160000Y63125000D02*
X-81260000Y61225000D01*
%TO.N,VCC*%
X-78940000Y52965000D02*
X-78100000Y52125000D01*
%TO.N,/SHOT_SENSOR*%
X-88230000Y48375000D02*
X-88220000Y48385000D01*
X-88220000Y48385000D02*
X-88220000Y51145000D01*
%TO.N,Net-(D1-Pad1)*%
X-159330000Y67700000D02*
X-159770000Y68140000D01*
X-159770000Y68140000D02*
X-159770000Y69655000D01*
%TO.N,Net-(C1-Pad1)*%
X-161870000Y67700000D02*
X-161530000Y68040000D01*
X-161530000Y68040000D02*
X-161530000Y69605000D01*
%TO.N,Net-(D1-Pad1)*%
X-159070000Y70405000D02*
X-159850000Y69625000D01*
X-159070000Y71725000D02*
X-159070000Y70405000D01*
%TO.N,Net-(C1-Pad1)*%
X-162250000Y71725000D02*
X-162250000Y70345000D01*
X-162250000Y70345000D02*
X-161520000Y69615000D01*
%TO.N,Net-(D1-Pad1)*%
X-159825000Y69625000D02*
X-159825000Y69740000D01*
%TO.N,GND*%
X-102410000Y79395000D02*
X-102410000Y78945000D01*
X-102410000Y81015000D02*
X-102410000Y79625000D01*
X-102410000Y79395000D02*
X-102410000Y79625000D01*
X-102750000Y81725000D02*
X-102750000Y81355000D01*
X-102750000Y81355000D02*
X-102410000Y81015000D01*
X-102410000Y78945000D02*
X-102940000Y78415000D01*
X-102940000Y78415000D02*
X-103973090Y78415000D01*
%TO.N,/SHOT_SENSOR*%
X-105290000Y80955000D02*
X-104170000Y80955000D01*
%TO.N,GND*%
X-105290000Y78415000D02*
X-103973090Y78415000D01*
%TO.N,/SHOT_SENSOR*%
X-104170000Y80955000D02*
X-103520000Y80305000D01*
%TO.N,GND*%
X-89690000Y67895000D02*
X-89680000Y67885000D01*
X-91077500Y67895000D02*
X-89690000Y67895000D01*
%TO.N,Net-(U2-Pad4)*%
X-95310000Y74225000D02*
X-95310000Y72965000D01*
X-95310000Y72965000D02*
X-94580000Y72235000D01*
X-94580000Y72235000D02*
X-94580000Y69545000D01*
X-94580000Y69545000D02*
X-92950000Y67915000D01*
%TO.N,GND*%
X-91700000Y75545000D02*
X-90350000Y75545000D01*
X-94290000Y75545000D02*
X-91700000Y75545000D01*
X-94990000Y75545000D02*
X-96760000Y75545000D01*
%TO.N,/TEMP_SENSOR*%
X-95300000Y85375000D02*
X-95300000Y82325000D01*
%TO.N,GND*%
X-70910000Y64895000D02*
X-71430000Y64375000D01*
X-90050000Y75845000D02*
X-89670000Y76225000D01*
D51*
X-90900000Y41825000D02*
X-93600000Y41825000D01*
D50*
X-70790000Y75350000D02*
X-70790000Y74155000D01*
X-100170000Y48895000D02*
X-100100000Y48825000D01*
X-70790000Y74155000D02*
X-71290000Y73655000D01*
D51*
X-80610000Y71235000D02*
X-80610000Y73565000D01*
D50*
X-70910000Y66025000D02*
X-70910000Y64895000D01*
X-100190000Y57585000D02*
X-100200000Y57595000D01*
X-100190000Y56080000D02*
X-100190000Y57585000D01*
X-100240000Y63010000D02*
X-100240000Y64565000D01*
X-102050000Y49075000D02*
X-102000000Y49025000D01*
D51*
X-90900000Y41825000D02*
X-90900000Y43625000D01*
D52*
X-100205000Y56065000D02*
X-100190000Y56080000D01*
D50*
X-89670000Y76225000D02*
X-89670000Y77125000D01*
X-71290000Y73655000D02*
X-71950000Y73655000D01*
X-94990000Y75545000D02*
X-94290000Y75545000D01*
X-97310000Y81005000D02*
X-97300000Y80995000D01*
X-89650000Y78445000D02*
X-89650000Y77055000D01*
X-105805000Y39125000D02*
X-103985000Y39125000D01*
X-97310000Y82375000D02*
X-97310000Y81005000D01*
X-87850000Y85375000D02*
X-88300000Y84925000D01*
X-101000000Y70925000D02*
X-101000000Y72225000D01*
D52*
X-100285000Y63055000D02*
X-100240000Y63010000D01*
D50*
X-94360000Y76925000D02*
X-94360000Y75615000D01*
D51*
X-90900000Y44625000D02*
X-90900000Y43625000D01*
D50*
X-89650000Y77055000D02*
X-89680000Y77025000D01*
D52*
X-102050000Y56065000D02*
X-100205000Y56065000D01*
X-100350000Y49075000D02*
X-100170000Y49255000D01*
D50*
X-71430000Y64375000D02*
X-72100000Y64375000D01*
X-94350000Y76965000D02*
X-94350000Y78205000D01*
X-94360000Y75615000D02*
X-94290000Y75545000D01*
X-102000000Y49025000D02*
X-100300000Y49025000D01*
D52*
X-105300000Y67225000D02*
X-103300000Y67225000D01*
X-102050000Y63055000D02*
X-100285000Y63055000D01*
X-103300000Y67225000D02*
X-103100000Y67425000D01*
D50*
X-94350000Y78205000D02*
X-93740000Y78815000D01*
D51*
X-94625000Y42850000D02*
X-98075000Y42850000D01*
X-98000000Y42725000D02*
X-100500000Y42725000D01*
D52*
X-100240000Y64565000D02*
X-100250000Y64575000D01*
D50*
X-103985000Y39125000D02*
X-103755000Y38895000D01*
D52*
X-97300000Y85375000D02*
X-97300000Y82325000D01*
D51*
X-80610000Y73565000D02*
X-80150000Y74025000D01*
X-93600000Y41825000D02*
X-94625000Y42850000D01*
D50*
X-100170000Y50375000D02*
X-100170000Y48895000D01*
X-90350000Y75545000D02*
X-90050000Y75845000D01*
X-101000000Y72225000D02*
X-101100000Y72325000D01*
D51*
X-100500000Y42725000D02*
X-100600000Y42825000D01*
D50*
%TO.N,VCC*%
X-90414999Y80807501D02*
X-90414999Y82390001D01*
X-91560000Y76965000D02*
X-91450000Y77075000D01*
X-78100000Y52125000D02*
X-78100000Y45725000D01*
X-91400000Y79785000D02*
X-90400000Y80785000D01*
X-73850000Y73325000D02*
X-73840000Y73335000D01*
X-78100000Y44925000D02*
X-77900000Y44725000D01*
X-90414999Y82390001D02*
X-90414999Y84780001D01*
X-73850000Y71875000D02*
X-73850000Y73325000D01*
X-91400000Y77045000D02*
X-91400000Y78395000D01*
X-78100000Y45725000D02*
X-78100000Y44925000D01*
X-93400000Y76965000D02*
X-91560000Y76965000D01*
X-91400000Y78445000D02*
X-91400000Y79785000D01*
X-90414999Y84780001D02*
X-89820000Y85375000D01*
%TO.N,LINE*%
X-115175000Y56975000D02*
X-115175000Y58500000D01*
X-115175000Y58500000D02*
X-115200000Y58525000D01*
X-115175000Y49975000D02*
X-115175000Y51550000D01*
X-115212498Y64025000D02*
X-116900000Y64025000D01*
X-115175000Y51550000D02*
X-115150000Y51575000D01*
D49*
%TO.N,/HEATER*%
X-130575000Y74625000D02*
X-127525000Y74625000D01*
X-133210000Y81925000D02*
X-133210000Y80135000D01*
X-133210000Y81925000D02*
X-133210000Y77260000D01*
X-133210000Y77260000D02*
X-130575000Y74625000D01*
%TO.N,/PUMP*%
X-138290000Y81925000D02*
X-138290000Y73290000D01*
X-138295000Y73340000D02*
X-136980000Y72025000D01*
D50*
%TO.N,Net-(Q5-Pad3)*%
X-129375000Y66400000D02*
X-115500000Y52525000D01*
X-136475000Y66400000D02*
X-129375000Y66400000D01*
X-115500000Y52525000D02*
X-112200000Y52525000D01*
X-136475000Y66400000D02*
X-136450000Y66375000D01*
D51*
%TO.N,NEUT*%
X-154100000Y71425000D02*
X-154125000Y71450000D01*
X-151300000Y60225000D02*
X-151300000Y45725000D01*
X-163850000Y49275000D02*
X-161200000Y46625000D01*
X-154100000Y63025000D02*
X-151300000Y60225000D01*
D50*
X-116700000Y83525000D02*
X-115500000Y83525000D01*
X-153530000Y85495000D02*
X-152300000Y86725000D01*
D51*
X-154800000Y46625000D02*
X-152700000Y44525000D01*
X-154100000Y71425000D02*
X-154100000Y78035000D01*
X-161200000Y46625000D02*
X-154800000Y46625000D01*
D50*
X-117300000Y72655000D02*
X-117300000Y76255000D01*
X-153530000Y81625000D02*
X-153530000Y85495000D01*
X-119900000Y86725000D02*
X-116700000Y83525000D01*
X-156337498Y71750001D02*
X-154425001Y71750001D01*
D51*
X-154100000Y78035000D02*
X-154100000Y81045000D01*
D50*
X-116700000Y83525000D02*
X-117000000Y83525000D01*
X-152300000Y86725000D02*
X-148730000Y86725000D01*
D51*
X-154100000Y81045000D02*
X-153580000Y81565000D01*
D50*
X-115500000Y72250000D02*
X-116895000Y72250000D01*
X-154425001Y71750001D02*
X-154100000Y71425000D01*
X-117000000Y83525000D02*
X-117300000Y83225000D01*
X-121500000Y86725000D02*
X-119900000Y86725000D01*
D51*
X-152700000Y44525000D02*
X-152700000Y44225000D01*
X-154100000Y71425000D02*
X-154100000Y63025000D01*
X-152200000Y44725000D02*
X-152700000Y44225000D01*
D50*
X-116895000Y72250000D02*
X-117300000Y72655000D01*
X-121500000Y86725000D02*
X-125500000Y86725000D01*
X-125500000Y86725000D02*
X-148730000Y86725000D01*
D51*
X-151300000Y45725000D02*
X-152800000Y44225000D01*
D50*
%TO.N,+5V*%
X-103050000Y50975000D02*
X-103050000Y51395000D01*
D52*
X-103990000Y85965000D02*
X-102590000Y85965000D01*
X-95500000Y87525000D02*
X-91100000Y87525000D01*
X-101325000Y84700000D02*
X-100005000Y84700000D01*
D50*
X-102050000Y52395000D02*
X-103050000Y51395000D01*
D52*
X-79100000Y87525000D02*
X-90500000Y87525000D01*
X-99300000Y86275000D02*
X-98050000Y87525000D01*
X-99060000Y85205000D02*
X-99320000Y85465000D01*
D50*
X-102155000Y45445000D02*
X-102070000Y45445000D01*
D52*
X-101325000Y82600000D02*
X-101325000Y76175000D01*
D50*
X-77850000Y71475000D02*
X-78100000Y71225000D01*
X-100820000Y45445000D02*
X-100800000Y45425000D01*
D52*
X-95500000Y87525000D02*
X-98050000Y87525000D01*
D50*
X-94800000Y39425000D02*
X-94800000Y38400000D01*
X-77600000Y75475000D02*
X-77900000Y75175000D01*
X-103050000Y46340000D02*
X-102155000Y45445000D01*
D52*
X-104050000Y74875000D02*
X-105350000Y74875000D01*
D51*
X-87690000Y36815000D02*
X-82260000Y36815000D01*
D52*
X-78375000Y86800000D02*
X-77900000Y86325000D01*
D50*
X-72890000Y75475000D02*
X-77600000Y75475000D01*
D51*
X-78070000Y73795000D02*
X-78400000Y74125000D01*
D52*
X-78375000Y86800000D02*
X-79100000Y87525000D01*
D51*
X-123200000Y34025000D02*
X-121800000Y32625000D01*
X-99150000Y32625000D02*
X-97950000Y33825000D01*
D52*
X-91100000Y87525000D02*
X-90500000Y87525000D01*
X-101325000Y84700000D02*
X-101325000Y82600000D01*
D50*
X-103050000Y53515000D02*
X-102050000Y52515000D01*
X-103050000Y57795000D02*
X-103050000Y53515000D01*
X-77825000Y77800000D02*
X-77900000Y77725000D01*
D52*
X-100005000Y84700000D02*
X-99350000Y85355000D01*
X-99060000Y82375000D02*
X-99060000Y85205000D01*
D51*
X-78070000Y55755000D02*
X-73950000Y51635000D01*
X-101600000Y32625000D02*
X-99150000Y32625000D01*
D50*
X-102050000Y59505000D02*
X-102050000Y59075000D01*
X-102050000Y52515000D02*
X-102050000Y52395000D01*
D51*
X-81550000Y37525000D02*
X-77980000Y41095000D01*
D50*
X-78070000Y71235000D02*
X-77460000Y71845000D01*
X-102155000Y45445000D02*
X-100820000Y45445000D01*
D51*
X-90900000Y37525000D02*
X-88400000Y37525000D01*
X-77980000Y41095000D02*
X-73950000Y45125000D01*
D50*
X-102050000Y59275000D02*
X-103050000Y58275000D01*
D52*
X-77900000Y86325000D02*
X-77900000Y78325000D01*
D50*
X-103050000Y50975000D02*
X-103050000Y46340000D01*
X-103050000Y58275000D02*
X-103050000Y57795000D01*
D52*
X-102590000Y85965000D02*
X-101325000Y84700000D01*
X-77900000Y74525000D02*
X-78300000Y74125000D01*
D50*
X-77825000Y71575000D02*
X-77975000Y71425000D01*
D51*
X-121800000Y32625000D02*
X-104100000Y32625000D01*
X-98000000Y36225000D02*
X-95175000Y36225000D01*
X-97950000Y33825000D02*
X-97950000Y36275000D01*
D50*
X-94800000Y38400000D02*
X-93900000Y37500000D01*
D52*
X-102625000Y74875000D02*
X-104029999Y74875000D01*
X-101325000Y76175000D02*
X-102625000Y74875000D01*
X-77900000Y75175000D02*
X-77900000Y74525000D01*
D51*
X-81550000Y37525000D02*
X-82260000Y36815000D01*
X-95175000Y36225000D02*
X-93900000Y37500000D01*
X-93900000Y37500000D02*
X-90950000Y37500000D01*
D52*
X-77900000Y77725000D02*
X-77900000Y75175000D01*
X-99300000Y85375000D02*
X-99300000Y86275000D01*
D51*
X-88400000Y37525000D02*
X-87690000Y36815000D01*
X-73950000Y51635000D02*
X-73950000Y45125000D01*
X-78070000Y71235000D02*
X-78070000Y73795000D01*
X-104100000Y32625000D02*
X-101600000Y32625000D01*
D52*
X-77900000Y78325000D02*
X-77900000Y77725000D01*
X-105300000Y85965000D02*
X-103990000Y85965000D01*
D51*
X-78070000Y71235000D02*
X-78070000Y55755000D01*
D50*
%TO.N,/SHOT_SENSOR*%
X-88200000Y48425000D02*
X-88300000Y48325000D01*
%TO.N,/HEATER_TRIAC*%
X-98470000Y63125000D02*
X-98560000Y63035000D01*
X-93500000Y63125000D02*
X-98470000Y63125000D01*
%TO.N,/PUMP_TRIAC*%
X-98600000Y56070000D02*
X-93555000Y56070000D01*
%TO.N,/STEAM_SENSOR*%
X-85600000Y71405000D02*
X-85600000Y71425000D01*
%TO.N,/PUMP_TRIAC*%
X-93555000Y56070000D02*
X-92345000Y56070000D01*
%TO.N,/ZC_DETECT*%
X-85700000Y45925000D02*
X-80100000Y45925000D01*
X-80100000Y45925000D02*
X-79900000Y45725000D01*
X-79775000Y45600000D02*
X-79900000Y45725000D01*
X-91500000Y45925000D02*
X-85700000Y45925000D01*
X-99125000Y45925000D02*
X-91500000Y45925000D01*
X-79775000Y44725000D02*
X-79775000Y45600000D01*
X-85700000Y47425000D02*
X-85700000Y48325000D01*
X-102700000Y42350000D02*
X-99125000Y45925000D01*
X-85700000Y47125000D02*
X-85700000Y45925000D01*
X-103405000Y41645000D02*
X-102700000Y42350000D01*
X-85700000Y47125000D02*
X-85700000Y48525000D01*
X-103405000Y41645000D02*
X-106005000Y41645000D01*
%TO.N,/SHOT_SW*%
X-123050000Y81625000D02*
X-119600000Y81625000D01*
X-118700000Y78525000D02*
X-118100000Y77925000D01*
X-122700000Y81125000D02*
X-123100000Y81525000D01*
X-118700000Y80725000D02*
X-118700000Y78525000D01*
X-119600000Y81625000D02*
X-118700000Y80725000D01*
X-118100000Y77925000D02*
X-115500000Y77925000D01*
D49*
%TO.N,/VALVE*%
X-143370000Y81925000D02*
X-143370000Y76655000D01*
X-143370000Y76655000D02*
X-147800000Y72225000D01*
D51*
X-148475000Y71550000D02*
X-147800000Y72225000D01*
D49*
X-147800000Y72225000D02*
X-147800000Y72125000D01*
D51*
X-148475000Y71480000D02*
X-148475000Y71550000D01*
D50*
%TO.N,/VALVE_TRIAC*%
X-98580000Y48930000D02*
X-98580000Y49445000D01*
X-97945000Y50680000D02*
X-98500000Y50125000D01*
X-98500000Y50125000D02*
X-98500000Y49025000D01*
X-92855000Y50680000D02*
X-97945000Y50680000D01*
X-92855000Y50680000D02*
X-90600000Y48425000D01*
%TO.N,Net-(D2-Pad1)*%
X-158400000Y58325000D02*
X-158100000Y58625000D01*
X-158100000Y58625000D02*
X-158100000Y59325000D01*
X-160200000Y58325000D02*
X-158400000Y58325000D01*
X-160700000Y57825000D02*
X-160200000Y58325000D01*
X-158100000Y60925000D02*
X-158100000Y59225000D01*
X-159330000Y61550000D02*
X-158725000Y61550000D01*
X-155900000Y58475000D02*
X-156625000Y59200000D01*
X-156625000Y59200000D02*
X-158200000Y59200000D01*
X-160700000Y55875000D02*
X-160700000Y57825000D01*
X-158725000Y61550000D02*
X-158100000Y60925000D01*
X-160050000Y55225000D02*
X-160700000Y55875000D01*
%TO.N,/SDA*%
X-88664999Y80807501D02*
X-87207499Y80807501D01*
X-88280000Y72275000D02*
X-88280000Y71205000D01*
X-83900000Y84115000D02*
X-83900000Y85375000D01*
X-87207499Y80807501D02*
X-83900000Y84115000D01*
X-93410000Y74225000D02*
X-93400000Y74215000D01*
X-89770000Y73765000D02*
X-88280000Y72275000D01*
X-90220000Y74215000D02*
X-89770000Y73765000D01*
X-93400000Y74215000D02*
X-90220000Y74215000D01*
%TO.N,/STEAM_SW*%
X-120200000Y69025000D02*
X-120700000Y69525000D01*
X-123600000Y77925000D02*
X-120700000Y75025000D01*
X-119100000Y67925000D02*
X-120200000Y69025000D01*
X-119100000Y67925000D02*
X-118300000Y67125000D01*
X-126400000Y77925000D02*
X-123600000Y77925000D01*
X-128130000Y79655000D02*
X-126400000Y77925000D01*
X-128130000Y81025000D02*
X-128130000Y79655000D01*
X-115500000Y66737500D02*
X-117912500Y66737500D01*
X-128130000Y81925000D02*
X-128130000Y80675000D01*
X-120700000Y75025000D02*
X-120700000Y69525000D01*
X-117912500Y66737500D02*
X-118300000Y67125000D01*
%TO.N,/PUMP_TRIAC*%
X-83150000Y48375000D02*
X-83100000Y48425000D01*
%TO.N,/SCL*%
X-85830000Y83795000D02*
X-85830000Y85445000D01*
X-94360000Y73095000D02*
X-93920000Y72655000D01*
X-90770000Y71235000D02*
X-90770000Y72325000D01*
X-88660000Y82455000D02*
X-87170000Y82455000D01*
X-91100000Y72655000D02*
X-90770000Y72325000D01*
X-94360000Y74225000D02*
X-94360000Y73095000D01*
X-87170000Y82455000D02*
X-85830000Y83795000D01*
X-93920000Y72655000D02*
X-91100000Y72655000D01*
%TO.N,Net-(Q7-Pad3)*%
X-113070000Y45545000D02*
X-115620000Y45545000D01*
X-117900000Y47825000D02*
X-117900000Y52875000D01*
X-148475000Y66400000D02*
X-148450000Y66375000D01*
X-112200000Y45545000D02*
X-113070000Y45545000D01*
X-115620000Y45545000D02*
X-117900000Y47825000D01*
X-148450000Y66425000D02*
X-148475000Y66450000D01*
X-148400000Y66325000D02*
X-148400000Y63575000D01*
X-146850000Y62025000D02*
X-127050000Y62025000D01*
X-127050000Y62025000D02*
X-118850000Y53825000D01*
X-148400000Y63575000D02*
X-146850000Y62025000D01*
X-148475000Y66400000D02*
X-148400000Y66325000D01*
X-117900000Y52875000D02*
X-118750000Y53725000D01*
X-118750000Y53725000D02*
X-118850000Y53825000D01*
D52*
%TO.N,Net-(Q4-Pad3)*%
X-104050000Y62105000D02*
X-105870000Y62105000D01*
X-105870000Y62105000D02*
X-105900000Y62135000D01*
D50*
%TO.N,Net-(Q3-Pad3)*%
X-112200000Y59595000D02*
X-120370000Y59595000D01*
X-124450000Y63675000D02*
X-124450000Y66325000D01*
X-120370000Y59595000D02*
X-124450000Y63675000D01*
D52*
%TO.N,Net-(Q6-Pad3)*%
X-104090000Y55075000D02*
X-104050000Y55115000D01*
X-105900000Y55075000D02*
X-104090000Y55075000D01*
%TO.N,Net-(Q8-Pad3)*%
X-104090000Y48085000D02*
X-104050000Y48125000D01*
X-105900000Y48085000D02*
X-104090000Y48085000D01*
%TO.N,Net-(R24-Pad1)*%
X-105900000Y52535000D02*
X-103820000Y52535000D01*
X-103820000Y52535000D02*
X-103800000Y52515000D01*
%TO.N,Net-(R20-Pad1)*%
X-103890000Y59595000D02*
X-103800000Y59505000D01*
X-105900000Y59595000D02*
X-103890000Y59595000D01*
D50*
%TO.N,Net-(R19-Pad1)*%
X-112200000Y62135000D02*
X-112200000Y64125000D01*
X-112200000Y64125000D02*
X-112250000Y64175000D01*
%TO.N,Net-(R23-Pad1)*%
X-112200000Y55075000D02*
X-112200000Y57245000D01*
X-112175000Y55070000D02*
X-112150000Y55045000D01*
D51*
%TO.N,/LINE_FUSED*%
X-154600000Y37025000D02*
X-152600000Y39025000D01*
D50*
X-171800000Y59325000D02*
X-166500000Y64625000D01*
D51*
X-171800000Y51225000D02*
X-171300000Y50725000D01*
X-171350000Y50675000D02*
X-171350000Y48875000D01*
D50*
X-171800000Y55525000D02*
X-171800000Y59325000D01*
X-166500000Y64625000D02*
X-166500000Y70525000D01*
D51*
X-171350000Y43775000D02*
X-164600000Y37025000D01*
D50*
X-166500000Y70525000D02*
X-165300000Y71725000D01*
D51*
X-171350000Y48875000D02*
X-171350000Y43775000D01*
X-164600000Y37025000D02*
X-154600000Y37025000D01*
X-171800000Y55525000D02*
X-171800000Y51225000D01*
D50*
%TO.N,/LED*%
X-76030000Y66945000D02*
X-75510000Y66425000D01*
X-75510000Y66425000D02*
X-74530000Y66425000D01*
X-74530000Y66425000D02*
X-74510000Y66445000D01*
%TO.N,Net-(C3-Pad1)*%
X-138700000Y41725000D02*
X-134550000Y41725000D01*
X-118200000Y41725000D02*
X-116300000Y41725000D01*
X-143300000Y46325000D02*
X-143300000Y49725000D01*
X-116205000Y41695000D02*
X-116205000Y41445000D01*
X-163600000Y60925000D02*
X-163600000Y59025000D01*
X-161650000Y59225000D02*
X-161650000Y58425000D01*
X-159900000Y59225000D02*
X-161650000Y59225000D01*
X-138700000Y41725000D02*
X-143300000Y46325000D01*
X-134550000Y41725000D02*
X-118200000Y41725000D01*
X-161650000Y59225000D02*
X-163200000Y59225000D01*
X-161870000Y61550000D02*
X-161900000Y61520000D01*
X-161870000Y61550000D02*
X-162975000Y61550000D01*
X-163200000Y59225000D02*
X-163600000Y58825000D01*
X-162975000Y61550000D02*
X-163600000Y60925000D01*
%TO.N,Net-(C3-Pad2)*%
X-158075000Y55150000D02*
X-156000000Y55150000D01*
X-162300000Y54225000D02*
X-163500000Y55425000D01*
X-158150000Y55225000D02*
X-159150000Y54225000D01*
X-158150000Y55225000D02*
X-158075000Y55150000D01*
X-159150000Y54225000D02*
X-162300000Y54225000D01*
%TO.N,Net-(U2-Pad3)*%
X-93720000Y80575000D02*
X-93680000Y80615000D01*
X-95300000Y80575000D02*
X-93720000Y80575000D01*
%TO.N,Net-(C9-Pad1)*%
X-102770000Y83495000D02*
X-102700000Y83425000D01*
X-105290000Y83495000D02*
X-102770000Y83495000D01*
%TO.N,Net-(C10-Pad1)*%
X-105200000Y72325000D02*
X-105300000Y72425000D01*
X-102775000Y72325000D02*
X-105200000Y72325000D01*
%TO.N,Net-(D4-Pad2)*%
X-70910000Y69615000D02*
X-71150000Y69855000D01*
X-70910000Y68075000D02*
X-70910000Y69615000D01*
%TO.N,Net-(D5-Pad2)*%
X-71040000Y77225000D02*
X-70790000Y77475000D01*
X-72890000Y77225000D02*
X-71040000Y77225000D01*
%TO.N,Net-(Q1-Pad3)*%
X-117250000Y40375000D02*
X-115255000Y40375000D01*
X-159100000Y57225000D02*
X-157950000Y57225000D01*
X-157950000Y57225000D02*
X-157700000Y56975000D01*
X-144550000Y45525000D02*
X-139400000Y40375000D01*
X-144550000Y50875000D02*
X-144550000Y45525000D01*
X-114005000Y39125000D02*
X-111855000Y39125000D01*
X-134300000Y40375000D02*
X-117250000Y40375000D01*
X-115255000Y40375000D02*
X-114005000Y39125000D01*
X-139400000Y40375000D02*
X-134300000Y40375000D01*
%TO.N,Net-(Q2-Pad1)*%
X-74800000Y68555000D02*
X-74450000Y68205000D01*
X-74800000Y69875000D02*
X-74800000Y68555000D01*
X-74450000Y68205000D02*
X-74450000Y68185000D01*
%TO.N,Net-(Q2-Pad2)*%
X-72900000Y69905000D02*
X-71200000Y71605000D01*
X-72900000Y69875000D02*
X-72900000Y69905000D01*
D52*
%TO.N,Net-(Q4-Pad1)*%
X-98635000Y61260000D02*
X-98620000Y61275000D01*
D50*
X-101980000Y61225000D02*
X-98700000Y61225000D01*
X-102050000Y61155000D02*
X-101980000Y61225000D01*
%TO.N,Net-(Q6-Pad1)*%
X-98625000Y54330000D02*
X-98600000Y54305000D01*
X-100355000Y54165000D02*
X-100190000Y54330000D01*
X-100190000Y54330000D02*
X-98625000Y54330000D01*
X-102050000Y54165000D02*
X-100355000Y54165000D01*
D52*
%TO.N,Net-(Q8-Pad1)*%
X-100425000Y47175000D02*
X-100420000Y47180000D01*
D50*
X-102000000Y47225000D02*
X-98500000Y47225000D01*
X-102050000Y47175000D02*
X-102000000Y47225000D01*
%TO.N,Net-(R6-Pad1)*%
X-114455000Y41695000D02*
X-112005000Y41695000D01*
%TO.N,Net-(R13-Pad2)*%
X-112910000Y86035000D02*
X-114910000Y86035000D01*
X-114910000Y86035000D02*
X-115500000Y86625000D01*
%TO.N,Net-(R14-Pad2)*%
X-113040000Y80825000D02*
X-115500000Y80825000D01*
X-112910000Y80955000D02*
X-113040000Y80825000D01*
%TO.N,Net-(R16-Pad2)*%
X-112920000Y74845000D02*
X-115120000Y74845000D01*
X-115120000Y74845000D02*
X-115500000Y75225000D01*
%TO.N,Net-(R17-Pad2)*%
X-112920000Y69765000D02*
X-115240000Y69765000D01*
X-115240000Y69765000D02*
X-115500000Y70025000D01*
%TO.N,Net-(R27-Pad1)*%
X-112200000Y48085000D02*
X-112200000Y50175000D01*
D52*
%TO.N,Net-(R28-Pad1)*%
X-105900000Y45545000D02*
X-104005000Y45545000D01*
X-104005000Y45545000D02*
X-103905000Y45445000D01*
%TD*%
M02*
