%TF.GenerationSoftware,KiCad,Pcbnew,5.99.0-unknown-r23745-2d001796*%
%TF.CreationDate,2020-11-15T20:41:40+01:00*%
%TF.ProjectId,MadPresso,4d616450-7265-4737-936f-2e6b69636164,rev?*%
%TF.SameCoordinates,PXa8e54e0PY549d608*%
%TF.FileFunction,Profile,NP*%
%FSLAX46Y46*%
G04 Gerber Fmt 4.6, Leading zero omitted, Abs format (unit mm)*
G04 Created by KiCad (PCBNEW 5.99.0-unknown-r23745-2d001796) date 2020-11-15 20:41:40*
%MOMM*%
%LPD*%
G01*
G04 APERTURE LIST*
%TA.AperFunction,Profile*%
%ADD10C,0.050000*%
%TD*%
G04 APERTURE END LIST*
D10*
X-108100000Y44475000D02*
X-110100000Y44475000D01*
X-110100000Y44475000D02*
X-110100000Y49175000D01*
X-110100000Y49175000D02*
X-108100000Y49175000D01*
X-108100000Y49175000D02*
X-108100000Y44475000D01*
X-110100000Y58525000D02*
X-110100000Y63225000D01*
X-108100000Y63225000D02*
X-108100000Y58525000D01*
X-108100000Y58525000D02*
X-110100000Y58525000D01*
X-110100000Y63225000D02*
X-108100000Y63225000D01*
X-110100000Y76325000D02*
X-108100000Y76325000D01*
X-110100000Y65725000D02*
X-110100000Y76325000D01*
X-108100000Y65725000D02*
X-110100000Y65725000D01*
X-108100000Y76325000D02*
X-108100000Y65725000D01*
X-110100000Y87525000D02*
X-108100000Y87525000D01*
X-108130000Y42745000D02*
X-108130000Y38045000D01*
X-108100000Y51495000D02*
X-110100000Y51495000D01*
X-110130000Y42745000D02*
X-108130000Y42745000D01*
X-110130000Y38045000D02*
X-110130000Y42745000D01*
X-108130000Y38045000D02*
X-110130000Y38045000D01*
X-108100000Y76925000D02*
X-110100000Y76925000D01*
X-110100000Y76925000D02*
X-110100000Y87525000D01*
X-110100000Y51495000D02*
X-110100000Y56195000D01*
X-108100000Y56195000D02*
X-108100000Y51495000D01*
X-110100000Y56195000D02*
X-108100000Y56195000D01*
X-108100000Y87525000D02*
X-108100000Y76925000D01*
X-175433334Y88725000D02*
G75*
G03*
X-175433334Y88725000I-1666666J0D01*
G01*
X-179600000Y88725000D02*
X-174600000Y88725000D01*
X-177100000Y91225000D02*
X-177100000Y86225000D01*
%TO.C,Case*%
X-74100126Y80729836D02*
G75*
G02*
X-77100126Y83729836I0J3000000D01*
G01*
X-169100126Y83729836D02*
G75*
G02*
X-172100126Y80729836I-3000000J0D01*
G01*
X-172100126Y39229836D02*
G75*
G02*
X-169100126Y36229836I0J-3000000D01*
G01*
X-77100126Y36229836D02*
G75*
G02*
X-74100126Y39229836I3000000J0D01*
G01*
X-169100126Y31229836D02*
X-169100126Y36229836D01*
X-172100126Y39229836D02*
X-177100126Y39229836D01*
X-169100126Y88729836D02*
X-77100126Y88729836D01*
X-77100126Y83729836D02*
X-77100126Y88729836D01*
X-69100126Y80729836D02*
X-69100126Y39229836D01*
X-177100126Y80729836D02*
X-177100126Y39229836D01*
X-177100126Y80729836D02*
X-172100126Y80729836D01*
X-74100126Y39229836D02*
X-69100126Y39229836D01*
X-69100126Y80729836D02*
X-74100126Y80729836D01*
X-169100126Y88729836D02*
X-169100126Y83729836D01*
X-77100126Y31229836D02*
X-77100126Y36229836D01*
X-169100126Y31229836D02*
X-77100126Y31229836D01*
%TD*%
M02*
